<svg xmlns="http://www.w3.org/2000/svg" width="67.728" height="86.014" viewBox="0 0 67.728 86.014">
  <g id="curriculum-vitae" transform="translate(-54.463 0.15)">
    <g id="Group_177" data-name="Group 177" transform="translate(54.613 0)">
      <g id="Group_165" data-name="Group 165" transform="translate(0 0)">
        <path id="Path_1119" data-name="Path 1119" d="M107.624,85.714a5.106,5.106,0,0,0,5.106-5.106V16.326h-2.24a3.166,3.166,0,0,1-3.166-3.166V3.356l-1.609-2.9A5.012,5.012,0,0,0,103.6,0H59.719a5.106,5.106,0,0,0-5.106,5.106v75.5a5.106,5.106,0,0,0,5.106,5.106Z" transform="translate(-54.613 0)" fill="#f4fbff" stroke="#707070" stroke-width="0.3"/>
        <path id="Path_1120" data-name="Path 1120" d="M366.76,97.523V161.8a5.106,5.106,0,0,1-5.106,5.106h10.921a5.106,5.106,0,0,0,5.106-5.106V99.638a5.1,5.1,0,0,0-.46-2.115Z" transform="translate(-310.253 -81.197)" fill="#e4f6ff" stroke="#707070" stroke-width="0.3"/>
        <path id="Path_1121" data-name="Path 1121" d="M374.695,17.112,361.359,3.777a5.1,5.1,0,0,0-1.5-1.037v12.7a3.166,3.166,0,0,0,3.166,3.166h12.7A5.1,5.1,0,0,0,374.695,17.112Z" transform="translate(-308.762 -2.281)" fill="#e28086" stroke="#707070" stroke-width="0.3"/>
      </g>
      <g id="Group_176" data-name="Group 176" transform="translate(7.377 11.262)">
        <g id="Group_172" data-name="Group 172">
          <g id="Group_166" data-name="Group 166" transform="translate(1.178)">
            <path id="Path_1122" data-name="Path 1122" d="M123.883,92.062H108.692a2.977,2.977,0,0,1-2.977-2.977V70.248a2.977,2.977,0,0,1,2.977-2.977h15.191a2.977,2.977,0,0,1,2.977,2.977V89.085a2.977,2.977,0,0,1-2.977,2.977Z" transform="translate(-105.715 -67.271)" fill="#bed8fb" stroke="#707070" stroke-width="0.3"/>
            <path id="Path_1123" data-name="Path 1123" d="M116.862,158.546a11.116,11.116,0,0,0-10.457,7.348,2.977,2.977,0,0,0,2.862,2.163h15.191a2.977,2.977,0,0,0,2.862-2.163,11.116,11.116,0,0,0-10.457-7.348Z" transform="translate(-106.289 -143.266)" fill="#407093" stroke="#707070" stroke-width="0.3"/>
          </g>
          <g id="Group_171" data-name="Group 171" transform="translate(0 34.555)">
            <g id="Group_167" data-name="Group 167">
              <path id="Path_1124" data-name="Path 1124" d="M150.176,276.27h-50.2a1.293,1.293,0,0,1,0-2.587h50.2a1.293,1.293,0,1,1,0,2.587Z" transform="translate(-98.68 -273.683)" fill="#407093" stroke="#707070" stroke-width="0.3"/>
            </g>
            <g id="Group_168" data-name="Group 168" transform="translate(0 8.929)">
              <path id="Path_1125" data-name="Path 1125" d="M150.176,329.606h-50.2a1.293,1.293,0,0,1,0-2.587h50.2a1.293,1.293,0,1,1,0,2.587Z" transform="translate(-98.68 -327.019)" fill="#407093" stroke="#707070" stroke-width="0.3"/>
            </g>
            <g id="Group_169" data-name="Group 169" transform="translate(0 17.858)">
              <path id="Path_1126" data-name="Path 1126" d="M150.176,382.942h-50.2a1.293,1.293,0,0,1,0-2.587h50.2a1.293,1.293,0,1,1,0,2.587Z" transform="translate(-98.68 -380.355)" fill="#407093" stroke="#707070" stroke-width="0.3"/>
            </g>
            <g id="Group_170" data-name="Group 170" transform="translate(0 26.787)">
              <path id="Path_1127" data-name="Path 1127" d="M125.017,436.278H99.973a1.293,1.293,0,1,1,0-2.587h25.043a1.293,1.293,0,0,1,0,2.587Z" transform="translate(-98.68 -433.691)" fill="#407093" stroke="#707070" stroke-width="0.3"/>
            </g>
          </g>
        </g>
        <g id="Group_175" data-name="Group 175" transform="translate(31.755 12.424)">
          <g id="Group_173" data-name="Group 173" transform="translate(0 7.013)">
            <path id="Path_1128" data-name="Path 1128" d="M308.108,185.965H289.66a1.293,1.293,0,0,1,0-2.587h18.447a1.293,1.293,0,1,1,0,2.587Z" transform="translate(-288.367 -183.378)" fill="#407093" stroke="#707070" stroke-width="0.3"/>
          </g>
          <g id="Group_174" data-name="Group 174">
            <path id="Path_1129" data-name="Path 1129" d="M308.108,144.074H289.66a1.293,1.293,0,0,1,0-2.587h18.447a1.293,1.293,0,1,1,0,2.587Z" transform="translate(-288.367 -141.487)" fill="#407093" stroke="#707070" stroke-width="0.3"/>
          </g>
        </g>
      </g>
    </g>
    <g id="Group_178" data-name="Group 178" transform="translate(68.998 18.174)">
      <circle id="Ellipse_110" data-name="Ellipse 110" cx="4.743" cy="4.743" r="4.743" fill="#365e7d"/>
    </g>
  </g>
</svg>
