<svg xmlns="http://www.w3.org/2000/svg" width="298.598" height="266.859" viewBox="0 0 298.598 266.859">
  <g id="Group_426" data-name="Group 426" transform="translate(-54.334 -75.659)">
    <g id="Background_Complete" data-name="Background Complete" transform="translate(54.334 75.659)">
      <g id="Group_416" data-name="Group 416" transform="translate(0 0)">
        <g id="Group_410" data-name="Group 410" transform="translate(17.647 130.118)">
          <g id="Group_408" data-name="Group 408" transform="translate(36.925)">
            <path id="Path_1751" data-name="Path 1751" d="M179.517,284.809h-50.9l-3.09-35.643h50.9Z" transform="translate(-125.53 -249.167)" fill="#e6e6e6"/>
            <path id="Path_1752" data-name="Path 1752" d="M182.956,284.809h-50.9l-3.09-35.643h50.9Z" transform="translate(-126.333 -249.167)" fill="#f0f0f0"/>
            <path id="Path_1753" data-name="Path 1753" d="M141.56,279.487l-1.7-20.335h35.588l1.7,20.335Z" transform="translate(-128.877 -251.498)" fill="#fff"/>
          </g>
          <g id="Group_409" data-name="Group 409" transform="translate(0 35.643)">
            <rect id="Rectangle_305" data-name="Rectangle 305" width="5.972" height="66.479" transform="translate(96.383)" fill="#e6e6e6"/>
            <rect id="Rectangle_306" data-name="Rectangle 306" width="4.147" height="66.479" transform="translate(100.091)" fill="#f0f0f0"/>
            <rect id="Rectangle_307" data-name="Rectangle 307" width="57.802" height="7.337" transform="translate(104.239 7.337) rotate(180)" fill="#f0f0f0"/>
            <rect id="Rectangle_308" data-name="Rectangle 308" width="5.972" height="59.142" transform="translate(42.509 7.337)" fill="#e6e6e6"/>
            <rect id="Rectangle_309" data-name="Rectangle 309" width="4.147" height="59.142" transform="translate(46.218 7.337)" fill="#f0f0f0"/>
            <rect id="Rectangle_310" data-name="Rectangle 310" width="5.972" height="59.142" transform="translate(0 7.337)" fill="#e6e6e6"/>
            <rect id="Rectangle_311" data-name="Rectangle 311" width="4.147" height="59.142" transform="translate(3.709 7.337)" fill="#f0f0f0"/>
            <rect id="Rectangle_312" data-name="Rectangle 312" width="5.972" height="59.142" transform="translate(58.591 7.337)" fill="#e6e6e6"/>
            <rect id="Rectangle_313" data-name="Rectangle 313" width="4.147" height="59.142" transform="translate(62.3 7.337)" fill="#f0f0f0"/>
            <rect id="Rectangle_314" data-name="Rectangle 314" width="46.437" height="7.337" fill="#e6e6e6"/>
          </g>
        </g>
        <g id="Group_412" data-name="Group 412" transform="translate(57.622)">
          <g id="Group_411" data-name="Group 411">
            <rect id="Rectangle_315" data-name="Rectangle 315" width="179.617" height="99.996" fill="#e0e0e0"/>
            <rect id="Rectangle_316" data-name="Rectangle 316" width="188.573" height="99.996" transform="translate(0.907)" fill="#f5f5f5"/>
            <rect id="Rectangle_317" data-name="Rectangle 317" width="93.834" height="182.411" transform="translate(186.399 3.081) rotate(90)" fill="#fff"/>
            <path id="Path_1754" data-name="Path 1754" d="M213.752,177.267l34.439-93.834H191.355l-34.439,93.834Z" transform="translate(-135.908 -80.352)" fill="#f5f5f5"/>
            <path id="Path_1755" data-name="Path 1755" d="M289.38,177.267l34.439-93.834H280.944L246.5,177.267Z" transform="translate(-156.826 -80.352)" fill="#f5f5f5"/>
          </g>
        </g>
        <g id="Group_414" data-name="Group 414" transform="translate(138.126 136.738)">
          <g id="Group_413" data-name="Group 413" transform="translate(0 0)">
            <rect id="Rectangle_318" data-name="Rectangle 318" width="15.268" height="95.504" transform="translate(140.775)" fill="#e6e6e6"/>
            <path id="Path_1756" data-name="Path 1756" d="M431.591,380.158h4.015V372.8h-8.224Z" transform="translate(-279.563 -284.655)" fill="#fafafa"/>
            <rect id="Rectangle_319" data-name="Rectangle 319" width="15.268" height="95.504" fill="#e6e6e6"/>
            <rect id="Rectangle_320" data-name="Rectangle 320" width="144.279" height="93.519" transform="translate(11.765)" fill="#fafafa"/>
            <path id="Path_1757" data-name="Path 1757" d="M392.263,289.123H253.446V262.711H392.263Zm-138.05-.766H391.5V263.478H254.213Z" transform="translate(-238.951 -258.949)" fill="#e6e6e6"/>
            <path id="Path_1758" data-name="Path 1758" d="M372.75,276.542H285.5c-4.052,0-7.953-3.268-10.7-8.967l-.265-.55H383.717l-.265.55C380.7,273.274,376.8,276.542,372.75,276.542Zm-96.984-8.75c2.593,5.083,6.12,7.983,9.738,7.983H372.75c3.618,0,7.145-2.9,9.739-7.983Z" transform="translate(-243.876 -259.957)" fill="#e6e6e6"/>
            <path id="Path_1759" data-name="Path 1759" d="M253.9,380.158h-4.015V372.8h8.224Z" transform="translate(-238.119 -284.655)" fill="#fafafa"/>
            <path id="Path_1760" data-name="Path 1760" d="M392.263,327.99H253.446V301.577H392.263Zm-138.05-.766H391.5v-24.88H254.213Z" transform="translate(-238.951 -268.024)" fill="#e6e6e6"/>
            <path id="Path_1761" data-name="Path 1761" d="M372.75,315.408H285.5c-4.052,0-7.953-3.268-10.7-8.967l-.265-.55H383.717l-.265.55C380.7,312.141,376.8,315.408,372.75,315.408Zm-96.984-8.75c2.593,5.083,6.12,7.983,9.738,7.983H372.75c3.619,0,7.145-2.9,9.739-7.983Z" transform="translate(-243.876 -269.031)" fill="#e6e6e6"/>
            <path id="Path_1762" data-name="Path 1762" d="M392.263,366.856H253.446V340.443H392.263Zm-138.05-.767H391.5V341.21H254.213Z" transform="translate(-238.951 -277.099)" fill="#e6e6e6"/>
            <path id="Path_1763" data-name="Path 1763" d="M372.75,354.274H285.5c-4.052,0-7.953-3.268-10.7-8.966l-.265-.55H383.717l-.265.55C380.7,351.007,376.8,354.274,372.75,354.274Zm-96.984-8.75c2.593,5.083,6.12,7.983,9.738,7.983H372.75c3.619,0,7.145-2.9,9.739-7.983Z" transform="translate(-243.876 -278.106)" fill="#e6e6e6"/>
          </g>
        </g>
        <g id="Group_415" data-name="Group 415" transform="translate(0 96.543)">
          <path id="Path_1764" data-name="Path 1764" d="M115.266,274.283v1.853h-1.187l-.979,14.537H98.662l-.979-14.537H96.5v-1.853Z" transform="translate(-64.179 -221.457)" fill="#e6e6e6"/>
          <path id="Path_1765" data-name="Path 1765" d="M100.67,222.11c-1.187-8.659-12.874-11.133-27.7-11.45-14.112-.3-18.632-5.3-18.632-5.3s.044,20.22,20.379,27.541C94.022,239.857,101.858,230.785,100.67,222.11Z" transform="translate(-54.334 -205.365)" fill="#e6e6e6"/>
          <path id="Path_1766" data-name="Path 1766" d="M105.369,249.745c.248-3.562,5.934-10.107,19.613-7.132,9.89,2.152,13.568-2.976,13.568-2.976s-.916,14.471-15.792,18.822C108.633,262.591,104.933,256.009,105.369,249.745Z" transform="translate(-66.242 -213.367)" fill="#e6e6e6"/>
          <path id="Path_1767" data-name="Path 1767" d="M108.266,268.124a.526.526,0,0,0,.4-.187c.992-1.172.18-3.978-.942-7.863-1.441-4.985-3.234-11.19-1.715-15.694a63.292,63.292,0,0,1,2.943-6.955c2.147-4.541,4-8.462,2.455-12.557a.528.528,0,1,0-.987.373c1.388,3.676-.293,7.232-2.421,11.734a65.006,65.006,0,0,0-2.989,7.068c-1.624,4.818.22,11.2,1.7,16.324.874,3.023,1.778,6.148,1.151,6.889a.528.528,0,0,0,.4.868Z" transform="translate(-66.019 -209.839)" fill="#e6e6e6"/>
        </g>
      </g>
    </g>
    <g id="Shadow" transform="translate(55.696 325.159)">
      <ellipse id="_Path_" data-name="&lt;Path&gt;" cx="148.618" cy="8.68" rx="148.618" ry="8.68" fill="#f5f5f5"/>
    </g>
    <g id="Login" transform="translate(89.481 111.057)">
      <g id="Group_419" data-name="Group 419" transform="translate(0 0)">
        <path id="Path_1768" data-name="Path 1768" d="M214.99,307.727H106.145l-5.958-175.046H209.032Z" transform="translate(-100.188 -127.249)" fill="#03c6db"/>
        <g id="Group_417" data-name="Group 417" transform="translate(5.432)">
          <path id="Path_1769" data-name="Path 1769" d="M222.077,300.64H113.232l-5.958-175.046H216.119Z" transform="translate(-107.274 -125.594)" fill="#03c6db" stroke="#fff" stroke-width="1"/>
          <path id="Path_1770" data-name="Path 1770" d="M222.077,300.64H113.232l-5.958-175.046H216.119Z" transform="translate(-107.274 -125.594)" fill="#03c6db" stroke="#fff" stroke-width="1" opacity="0.3"/>
        </g>
        <g id="Group_418" data-name="Group 418" transform="translate(18.253 6.908)">
          <ellipse id="Ellipse_181" data-name="Ellipse 181" cx="30.1" cy="31.142" rx="30.1" ry="31.142" transform="matrix(0.701, -0.713, 0.713, 0.701, 0, 42.928)" fill="#fff"/>
          <path id="Path_1771" data-name="Path 1771" d="M198.07,183.392a24.525,24.525,0,0,1-2.644,12.037,24.224,24.224,0,0,1-21.764,13.232A26.284,26.284,0,0,1,151,195.428a25.737,25.737,0,0,1-3.463-12.037,24.256,24.256,0,0,1,24.409-25.269A26.333,26.333,0,0,1,198.07,183.392Z" transform="translate(-129.492 -140.098)" fill="#fff"/>
          <path id="Path_1772" data-name="Path 1772" d="M196.485,204.742a24.224,24.224,0,0,1-21.764,13.232,26.284,26.284,0,0,1-22.666-13.232,38.752,38.752,0,0,1,21.987-6.731A40.952,40.952,0,0,1,196.485,204.742Z" transform="translate(-130.551 -149.411)" fill="#03c6db" opacity="0.6"/>
          <ellipse id="Ellipse_182" data-name="Ellipse 182" cx="11.066" cy="11.449" rx="11.066" ry="11.449" transform="matrix(0.701, -0.713, 0.713, 0.701, 27.093, 34.513)" fill="#03c6db" opacity="0.6"/>
        </g>
        <path id="Path_1773" data-name="Path 1773" d="M207.231,267.058H137.8l-.47-13.8h69.434Z" transform="translate(-108.859 -155.403)" fill="#fff"/>
        <path id="Path_1774" data-name="Path 1774" d="M208.326,299.231H138.892l-.47-13.8h69.434Z" transform="translate(-109.115 -162.915)" fill="#fff"/>
        <path id="Path_1775" data-name="Path 1775" d="M189.247,287.9l-16.731,2.275a1.168,1.168,0,0,0-1.009,1.385l2.2,11.213a1.344,1.344,0,0,0,1.486,1.046l16.731-2.276a1.166,1.166,0,0,0,1.009-1.385l-2.2-11.212A1.346,1.346,0,0,0,189.247,287.9Zm-4.808,11.359-3.029.412-.305-3.619a2.133,2.133,0,0,1-1.243-1.529,1.9,1.9,0,0,1,1.65-2.265,2.193,2.193,0,0,1,2.425,1.711,1.865,1.865,0,0,1-.595,1.78Z" transform="translate(-116.834 -163.489)" fill="#03c6db" stroke="#fff" stroke-width="1"/>
        <path id="Path_1776" data-name="Path 1776" d="M187.805,284.3h0a1.189,1.189,0,0,1-1.318-.928l-.215-1.1a6.308,6.308,0,0,0-6.607-5.028,5.4,5.4,0,0,0-4.958,6.434l.248,1.26a1.033,1.033,0,0,1-.9,1.229h0a1.188,1.188,0,0,1-1.318-.927l-.209-1.07a7.549,7.549,0,0,1,6.112-9,8.58,8.58,0,0,1,9.811,6.642l.247,1.26A1.034,1.034,0,0,1,187.805,284.3Z" transform="translate(-117.044 -160.491)" fill="#03c6db" stroke="#fff" stroke-width="1"/>
        <path id="Path_1777" data-name="Path 1777" d="M200.806,325.9h-45.2l-.306-8.981h45.2Z" transform="translate(-113.057 -170.267)" fill="#03c6db" stroke="#fff" stroke-width="1"/>
        <path id="Path_1778" data-name="Path 1778" d="M184.68,261.492a2.423,2.423,0,0,1-2.438,2.523,2.631,2.631,0,0,1-2.61-2.523,2.423,2.423,0,0,1,2.438-2.523A2.63,2.63,0,0,1,184.68,261.492Z" transform="translate(-118.737 -156.736)" fill="#263238"/>
        <path id="Path_1779" data-name="Path 1779" d="M170.507,261.492a2.423,2.423,0,0,1-2.437,2.523,2.63,2.63,0,0,1-2.61-2.523,2.423,2.423,0,0,1,2.438-2.523A2.63,2.63,0,0,1,170.507,261.492Z" transform="translate(-115.428 -156.736)" fill="#263238"/>
        <path id="Path_1780" data-name="Path 1780" d="M156.334,261.492a2.423,2.423,0,0,1-2.438,2.523,2.63,2.63,0,0,1-2.609-2.523,2.423,2.423,0,0,1,2.438-2.523A2.63,2.63,0,0,1,156.334,261.492Z" transform="translate(-112.118 -156.736)" fill="#263238"/>
        <path id="Path_1781" data-name="Path 1781" d="M198.853,261.492a2.423,2.423,0,0,1-2.438,2.523,2.63,2.63,0,0,1-2.609-2.523,2.423,2.423,0,0,1,2.438-2.523A2.63,2.63,0,0,1,198.853,261.492Z" transform="translate(-122.046 -156.736)" fill="#263238"/>
        <path id="Path_1782" data-name="Path 1782" d="M213.027,261.492a2.423,2.423,0,0,1-2.438,2.523,2.63,2.63,0,0,1-2.609-2.523,2.423,2.423,0,0,1,2.438-2.523A2.631,2.631,0,0,1,213.027,261.492Z" transform="translate(-125.355 -156.736)" fill="#263238"/>
      </g>
    </g>
    <g id="Thinking" transform="translate(268.684 85.333)">
      <g id="Group_425" data-name="Group 425" transform="translate(0)">
        <ellipse id="Ellipse_183" data-name="Ellipse 183" cx="27.661" cy="17.63" rx="27.661" ry="17.63" transform="translate(13.052)" fill="#03c6db"/>
        <path id="Path_1823" data-name="Path 1823" d="M366.495,93.17a7.751,7.751,0,0,1-7.61-6.433,7.833,7.833,0,0,1,5.909-8.865h0a7.709,7.709,0,0,1,8.3,3.462l17.758-3.665a2.779,2.779,0,0,1,3.255,1.914,2.674,2.674,0,0,1-2.047,3.3l-.466.1a.465.465,0,0,0-.32.236.471.471,0,0,0-.027.4l.313.814a1.215,1.215,0,0,1-.472,1.474,1.494,1.494,0,0,0-.688,1.084,1.186,1.186,0,0,1-.923,1.064l-.365.075a1.191,1.191,0,0,1-1.269-.61,1.491,1.491,0,0,0-2.767.571,1.189,1.189,0,0,1-.924,1.062l-.358.074a1.191,1.191,0,0,1-1.268-.61,1.5,1.5,0,0,0-1.067-.722,1.216,1.216,0,0,1-1.019-1.167l-.035-.872a.462.462,0,0,0-.181-.354.467.467,0,0,0-.389-.091l-5.658,1.168a7.727,7.727,0,0,1-6.095,6.433A7.834,7.834,0,0,1,366.495,93.17ZM364.963,78.62a7.057,7.057,0,0,0-5.323,7.987,6.976,6.976,0,0,0,13.807-.4l.031-.276,6.2-1.279a1.24,1.24,0,0,1,1.491,1.165l.035.872a.454.454,0,0,0,.365.439,2.245,2.245,0,0,1,1.617,1.1.436.436,0,0,0,.451.245l.358-.074a.437.437,0,0,0,.317-.4,2.258,2.258,0,0,1,4.191-.865.431.431,0,0,0,.45.244l.366-.075a.432.432,0,0,0,.315-.4,2.236,2.236,0,0,1,1.046-1.646.453.453,0,0,0,.161-.547l-.313-.815a1.24,1.24,0,0,1,.908-1.66l.466-.1a1.907,1.907,0,0,0,1.46-2.355A2,2,0,0,0,391,78.42l-18.3,3.776-.137-.241a6.941,6.941,0,0,0-7.605-3.335ZM366.5,90.336a4.92,4.92,0,1,1,1-.1h0A4.991,4.991,0,0,1,366.5,90.336Zm.023-9.055a4.233,4.233,0,0,0-.852.088,4.142,4.142,0,0,0,1.676,8.114h0a4.143,4.143,0,0,0-.824-8.2Z" transform="translate(-335.768 -66.667)" fill="#fff"/>
        <ellipse id="Ellipse_184" data-name="Ellipse 184" cx="9.092" cy="5.794" rx="9.092" ry="5.794" transform="translate(9.102 34.006)" fill="#03c6db" opacity="0.6"/>
        <ellipse id="Ellipse_185" data-name="Ellipse 185" cx="3.732" cy="2.379" rx="3.732" ry="2.379" transform="translate(0 43.217)" fill="#03c6db" opacity="0.3"/>
      </g>
    </g>
    <g id="Group_207" data-name="Group 207" transform="translate(227.752 135.49)">
      <g id="Group_205" data-name="Group 205">
        <path id="Path_1155" data-name="Path 1155" d="M919.266,472.95s-3.849,8.835-4.6,4.846c-1.605-8.544-12.295-15.717-15.163-20.255-1.745-2.758-3.13-3.494-1.9-5.347,4.218-6.366,14.228-10.464,22.784-13.616,3.164-1.165,2.6,1.911.366,4.317-1.98,2.132-14.2,8.7-13.361,10.224.977,1.786,7.178,7.331,15.573,9.2S924.014,471.119,919.266,472.95Z" transform="translate(-897.135 -427.988)" fill="#03c6db" fill-rule="evenodd"/>
        <path id="Path_1156" data-name="Path 1156" d="M918.937,455.813s-1.081-1.639.224,2.765c.931,3.145,14.4,15.708,20.544,20.993s6.5,4.482,15.2,3.842c6.369-.467,13.653-1.446,15.431-2.517,0,0,.329-.219-.05-.571s-1.964-1.254-2.067-2.023-.719-.652-1.492-.322-15.137-.272-18.621-.726-13.927-18.027-15.655-19.682S924.185,452.829,918.937,455.813Z" transform="translate(-881.929 -416.438)" fill="#03c6db" fill-rule="evenodd"/>
        <path id="Path_1157" data-name="Path 1157" d="M925.352,445.737l-.176,2.683s-.12,5.721-.133,6.34.255.835.946,1.355c.881,1.605-1.85,8.407-3.7,8.643s-10.332-.614-10.919-1.109c-.409-.347,3.92-6.552,3.694-7.538.38-.092,1.294.081,1.578-.162.39-1.2,1.316-5.986.048-7.577C915.744,447.185,925.352,445.737,925.352,445.737Z" transform="translate(-887.031 -422.716)" fill="#e8685b" fill-rule="evenodd"/>
        <path id="Path_1158" data-name="Path 1158" d="M911.306,457.84c1.564-.89,2.43-.121,4.071,1.622s3.232,1.609,4.151,2,.554,16.265-5.553,18.582c-2.259.857-3.631-.1-4.456-2.007C908.04,474.618,907.242,460.153,911.306,457.84Z" transform="translate(-889.183 -414.373)" fill="#f5f4f4" fill-rule="evenodd"/>
        <path id="Path_1159" data-name="Path 1159" d="M907.476,484.142l-1.36,1.886s.891,16.475,2.931,37.735S915,583.6,914.913,587.37s5.178,1.906,5.816.844-1.737-76.434-1.227-83.295c.178-2.394,3.362-1.5,4.6,3.274,2.313,8.9,3.347,27.677,4.066,38.371,1.1,16.429,3.121,41.528,2.976,42.858s4.5,2.658,5.44.531a2.927,2.927,0,0,0,.128-1.449c-.063-1.136.934-104.388-.257-107.19S910.277,477.157,907.476,484.142Z" transform="translate(-890.748 -399.034)" fill="#004a82" fill-rule="evenodd"/>
        <path id="Path_1160" data-name="Path 1160" d="M938.6,513.028c-1.386,2.921-7.925,4.788-13.092,5.525H925.5c-1.237.178-2.4.289-3.386.335a7.2,7.2,0,0,1-1.805-.128,33.47,33.47,0,0,1-12.321-2.553,3.245,3.245,0,0,1-2.755-1.422l0,0,0,0c-.662-1.193-.216-2.923.149-4.47.655-2.776,3.783-8.13,3.516-21.355-.257-12.721-2.235-34.124,9.607-36.836h0a2.877,2.877,0,0,1,2.322-.339s-2.484,4.269.25,6.35l.109.067a3.87,3.87,0,0,0,1.117.423c2.959.381,7.454-3.546,8.275-6.7A3.01,3.01,0,0,1,932.591,453s-.02.06-.063.168c.39.43-.187.934-.575,1.2-.048.086-.1.174-.151.267,2.2,1.145,4.839,3.109,5.154,5.476.459,3.436,3.082,16.254.457,23.647C933.016,496.136,940.937,508.1,938.6,513.028Z" transform="translate(-891.619 -418.518)" fill="#f9c00b" fill-rule="evenodd"/>
        <path id="Path_1161" data-name="Path 1161" d="M938.6,511.517c-1.386,2.921-7.925,4.788-13.092,5.525H925.5c-1.237.178-2.4.289-3.386.335a7.2,7.2,0,0,1-1.805-.128,33.47,33.47,0,0,1-12.321-2.553,3.245,3.245,0,0,1-2.755-1.422l0,0,0,0c-.662-1.193-.216-2.923.149-4.47l.015-.055c3.809-.325,7.823-1.124,10.243-2.924,5.671-4.221,13.638-42.593,15.662-52.057,0,0,2.873,4.656,6.651,11.547.674,5.289,1.136,12.218-.539,16.937C933.016,494.624,940.937,506.589,938.6,511.517Z" transform="translate(-891.619 -417.006)" fill="#f08d1b" fill-rule="evenodd"/>
        <path id="Path_1162" data-name="Path 1162" d="M918.4,543.968s-1.557-1.763-2.8-1.461-8.415,3.511-9.565,3.951-2.36,2.112-1.453,3.072c1.367,1.446,13.361-.118,17.043.139,1.181.082,2.563-2.343,1.424-5.845S922.673,544.6,918.4,543.968Z" transform="translate(-892.06 -353.952)" fill="#383d5d" fill-rule="evenodd"/>
        <path id="Path_1163" data-name="Path 1163" d="M927.222,543.846a2.832,2.832,0,0,1,.8,1c.522,1.152,1.506,1.674,1.68,2.937s-.233,2.25-2.057,2.25h-2.955c-1.3,0-3.243.19-3.91-1.345-.286-.664-.5-3.91.027-4.581A4.711,4.711,0,0,1,927.222,543.846Z" transform="translate(-880.525 -353.744)" fill="#383d5d" fill-rule="evenodd"/>
        <path id="Path_1164" data-name="Path 1164" d="M924.681,452.435s-6.744,12.182-8.164,32.459-.775,33.886,14.714,38.773c0,0,.719.211,1.266-1.247,2.589-6.9-6.062-37.165,1.112-55.56C935.771,461.321,932.876,454.4,924.681,452.435Z" transform="translate(-883.709 -417.952)" fill="#03c6db" fill-rule="evenodd"/>
        <path id="Path_1165" data-name="Path 1165" d="M919.143,451.921s-3.229,6.431-3.453,19.408-2.313,35.207-3.066,39.821-4.057,9.541-5.825,10.094c0,0-2.391.69-2.781-2.837s3.7-17.079,4.446-32.392S908.215,453.437,919.143,451.921Z" transform="translate(-892.259 -418.318)" fill="#03c6db" fill-rule="evenodd"/>
        <path id="Path_1166" data-name="Path 1166" d="M915.839,497.279s5.335-32.048,11.9-43.907c0,0-2.146-1.3-3.342-1.1S915.83,472.629,915.839,497.279Z" transform="translate(-883.833 -418.085)" fill-rule="evenodd" opacity="0.1"/>
        <path id="Path_1167" data-name="Path 1167" d="M914.987,451.923c-2.479,7.764-3.464,32.24-5,41.734-.262-4.355-.447-33.623,2.305-40.894A3.224,3.224,0,0,1,914.987,451.923Z" transform="translate(-888.092 -418.326)" fill-rule="evenodd" opacity="0.1"/>
        <path id="Path_1168" data-name="Path 1168" d="M922.026,483.057a.744.744,0,0,0-.885-.532.7.7,0,0,0-.561.837c.005.021,1.723,7.42,5.455,9.62a.765.765,0,0,0,1.02-.228.678.678,0,0,0-.236-.965C923.62,489.905,922.03,483.076,922.026,483.057Z" transform="translate(-880.474 -396.565)" fill-rule="evenodd" opacity="0.1"/>
        <path id="Path_1169" data-name="Path 1169" d="M907.622,481.334a.656.656,0,0,1,.724-.568.64.64,0,0,1,.6.686c0,.021-.666,6.788-3.732,9.138a.688.688,0,0,1-.934-.094.606.606,0,0,1,.1-.885C907.006,487.6,907.62,481.35,907.622,481.334Z" transform="translate(-892.16 -397.806)" fill-rule="evenodd" opacity="0.1"/>
        <g id="Group_204" data-name="Group 204" transform="translate(22.604)">
          <g id="Group_203" data-name="Group 203">
            <path id="Path_1170" data-name="Path 1170" d="M913.453,451.98s-2.221-2.021-2.213-3.2,1.638-.741,1.638-.741-2.495-2.459-2.533-4.654,2.226-1.4,2.226-1.4a3.619,3.619,0,0,1,.606-4.148,2.711,2.711,0,0,1-.376-2.418.163.163,0,0,1,.233-.115c.2.062.267,1.158,1.518,1.128,0,0,.5-3.831,3.559-2.059,0,0,1.973-3.876,5.281-1.076,0,0,6.578-2.439,8.842,3.446,0,0,4.078-.811,3.927,3.619,0,0,2.069.955.693,4.341,0,0,1.364-1.268,1.911-.963s-.621,2.8-2,3.819c0,0,1.432-.631,1.607.159s-1.258,2.221-2.153,2.442a1.2,1.2,0,0,1,.407,1.188c-.118.835-2.117,2.639-4.853,3.013S920.263,456,913.453,451.98Z" transform="translate(-910.345 -432.284)" fill="#01061b" fill-rule="evenodd"/>
            <path id="Path_1171" data-name="Path 1171" d="M913.453,448.241s-2.221-2.021-2.213-3.2,1.638-.741,1.638-.741-2.495-2.459-2.533-4.654a1.36,1.36,0,0,1,.645-1.386c-.007.01-.729,1.17.951,2.035s7.415-.24,9.666-1.932a3.469,3.469,0,0,0,3.169,2.462,5.148,5.148,0,0,0,4.314-2.3,4.536,4.536,0,0,0,4.562,2.264,4,4,0,0,0,3.378-3.25,4.029,4.029,0,0,1-.178,3.426s1.364-1.268,1.911-.963-.621,2.8-2,3.819c0,0,1.432-.631,1.607.159s-1.258,2.221-2.153,2.442a1.2,1.2,0,0,1,.407,1.188c-.118.835-2.117,2.639-4.853,3.013S920.263,452.259,913.453,448.241Z" transform="translate(-910.345 -428.545)" fill="#01020e" fill-rule="evenodd"/>
            <path id="Path_1172" data-name="Path 1172" d="M913.748,442.923a2.7,2.7,0,1,1-3.051,2.291A2.7,2.7,0,0,1,913.748,442.923Z" transform="translate(-910.114 -424.736)" fill="#e8685b" fill-rule="evenodd"/>
            <path id="Path_1173" data-name="Path 1173" d="M924.444,444.442a2.7,2.7,0,1,1-3.051,2.293A2.7,2.7,0,0,1,924.444,444.442Z" transform="translate(-902.506 -423.656)" fill="#e8685b" fill-rule="evenodd"/>
            <path id="Path_1174" data-name="Path 1174" d="M923.454,435.762h0a9.271,9.271,0,0,1,7.853,10.452l-1.181,8.318a9.271,9.271,0,0,1-10.452,7.853h0a9.271,9.271,0,0,1-7.851-10.453L913,443.615A9.27,9.27,0,0,1,923.454,435.762Z" transform="translate(-909.36 -429.875)" fill="#f4ad85" fill-rule="evenodd"/>
            <path id="Path_1175" data-name="Path 1175" d="M926.6,436.522l.019.012a9.276,9.276,0,0,1,4.21,9.107l-1.181,8.318a9.271,9.271,0,0,1-10.452,7.853h0a9.174,9.174,0,0,1-3.2-1.081c8.944,1.342,10.8-4.6,11.523-9.7,1.068-7.521-7.526-5.981-14.256-6.937-.3-.043-.589-.091-.869-.144l.13-.91a9.174,9.174,0,0,1,.654-2.332c3.938-1.761,9.362-4,11.786-4.143.724-.044,1.222-.072,1.557-.091l.055.032C926.528,436.517,926.521,436.522,926.6,436.522Z" transform="translate(-908.885 -429.302)" fill="#ef8871" fill-rule="evenodd"/>
            <path id="Path_1176" data-name="Path 1176" d="M922.813,442.191l-.4,2.817c-.157,1.105,0,1.46.493,1.94,0,0-.491,1.02.089,1.359a.976.976,0,0,1,1.015-.826l1.032-7.264a3.758,3.758,0,0,1-2.208,1.338A2.971,2.971,0,0,1,922.813,442.191Z" transform="translate(-901.804 -426.642)" fill="#01020e" fill-rule="evenodd"/>
            <path id="Path_1177" data-name="Path 1177" d="M926.28,443.878s-3.777,1.713-5.96-.534c-.974,1.6-4.649,3.118-3.3.147-2.036.895-1.651-.277-1.068-.558a6.131,6.131,0,0,1-2.9.578c-4.514-1.1,2.74-7.427,4.122-8.45,0,0,9.665.1,10.01.666a13.745,13.745,0,0,0,.888,1.1,12.5,12.5,0,0,1,2.132.611c.262.18,3.234,3.188,3.724,3.785s1.672,7.9-2.849,7.673S926.28,443.878,926.28,443.878Z" transform="translate(-909.456 -430.307)" fill="#01061b" fill-rule="evenodd"/>
            <path id="Path_1178" data-name="Path 1178" d="M926.273,441.774s-3.777,1.713-5.96-.534c-.974,1.6-4.649,3.118-3.3.147-2.036.895-1.651-.277-1.068-.558a6.132,6.132,0,0,1-2.9.578c-.938-.228-1.367-.683-1.446-1.268,2.146.474,7.064-.582,9.11-2.12a3.469,3.469,0,0,0,3.169,2.462,5.147,5.147,0,0,0,4.314-2.3,4.536,4.536,0,0,0,4.562,2.264,4.241,4.241,0,0,0,1.449-.5c.445,2.059.609,7.026-3.131,6.84C926.555,446.567,926.273,441.774,926.273,441.774Z" transform="translate(-909.45 -428.204)" fill="#01020e" fill-rule="evenodd"/>
          </g>
          <path id="Path_1179" data-name="Path 1179" d="M914.373,449.738c.549-2.173,1.451-3.087,2.64-2.923,2.088.289,1.7,3.821,1.7,3.821Z" transform="translate(-907.48 -421.962)" fill="#fff" fill-rule="evenodd"/>
        </g>
        <path id="Path_1180" data-name="Path 1180" d="M950.373,474.285c.048,0,.1,0,.149-.005a4.643,4.643,0,0,0,1.727-.262c2.512-.561,5.791-1.867,6.057-2.657.342-1.015-.987-.527-.987-.527s1.244-.772,1.287-1.381-.815-.609-.815-.609,1.159-.936.857-1.3-1.244-.325-1.244-.325.945-.811.515-1.056-2.531,1.1-3.559,1.381c-.6.168-2.007.517-3.063.775a.519.519,0,0,1,.012-.4c.78-2-.637-4.232-1.151-2.707a4.142,4.142,0,0,1-1.054,2.141,5.417,5.417,0,0,0-2.041,3.925c.691,2.074,1.988,2.877,3.309,2.991Z" transform="translate(-861.632 -409.224)" fill="#f4ad85" fill-rule="evenodd"/>
        <path id="Path_1181" data-name="Path 1181" d="M950.373,472.674c.048,0,.1,0,.149-.005a4.643,4.643,0,0,0,1.727-.262c.464-.1.957-.233,1.449-.38a7.5,7.5,0,0,1-2.368.12c-2.373-.388-3.424-2.669-3.356-5.173a4.8,4.8,0,0,0-.912,2.693c.691,2.074,1.988,2.877,3.309,2.991Z" transform="translate(-861.632 -407.613)" fill="#ef8871" fill-rule="evenodd"/>
        <path id="Path_1182" data-name="Path 1182" d="M914.182,470.124c.3-7.276.869-8.64-1.939-10.575-2.748-1.893-12.084-8.056-14.749-13.019-1.032,1.727.32,2.5,2.011,5.174C902.164,455.914,911.553,462.389,914.182,470.124Z" transform="translate(-897.135 -422.152)" fill-rule="evenodd" opacity="0.1"/>
        <path id="Path_1183" data-name="Path 1183" d="M926.387,461.835a38.926,38.926,0,0,0-1.051,3.893c3.5,3.342,7.086,6.579,9.519,8.672,6.152,5.294,6.5,4.482,15.2,3.842,5.707-.419,12.148-1.247,14.706-2.187a3.459,3.459,0,0,1-1.377-1.063c-5.312,1.109-13.929,2.705-18.4,2.452C939.193,477.116,929.138,465.223,926.387,461.835Z" transform="translate(-877.079 -411.267)" fill-rule="evenodd" opacity="0.1"/>
      </g>
    </g>
  </g>
</svg>
