<svg xmlns="http://www.w3.org/2000/svg" width="41.793" height="36.288" viewBox="0 0 41.793 36.288">
  <g id="paper" transform="translate(-4.866 -8.299)">
    <path id="Path_2246" data-name="Path 2246" d="M32.167,8.182V10.91a2.866,2.866,0,0,1-.875,2.061L22.662,21.3a2.86,2.86,0,0,0-.875,2.061v5.7a2.866,2.866,0,0,1-1,2.175l-4.014,3.438V23.33a2.866,2.866,0,0,0-.839-2.026L7.591,12.966A2.861,2.861,0,0,1,6.75,10.94V8.182A1.432,1.432,0,0,1,8.182,6.75H30.735a1.432,1.432,0,0,1,1.432,1.432Z" transform="translate(2.679 2.623)" fill="#f3f3f1"/>
    <path id="Path_2247" data-name="Path 2247" d="M20,31.911V23.329a2.866,2.866,0,0,0-.839-2.026l-8.345-8.338a2.86,2.86,0,0,1-.839-2.025V8.182A1.432,1.432,0,0,1,11.4,6.75H8.182A1.432,1.432,0,0,0,6.75,8.182V10.94a2.866,2.866,0,0,0,.839,2.026L15.934,21.3a2.866,2.866,0,0,1,.839,2.026V34.673Z" transform="translate(2.679 2.623)" fill="#d5dbe1"/>
    <path id="Path_2248" data-name="Path 2248" d="M31.49,33.785H22.182a1.432,1.432,0,0,1-1.432-1.432V20.182a1.432,1.432,0,0,1,1.432-1.432H31.49a1.432,1.432,0,0,1,1.432,1.432V32.353A1.432,1.432,0,0,1,31.49,33.785Z" transform="translate(8.726 7.806)" fill="#2fdf84"/>
    <path id="Path_2249" data-name="Path 2249" d="M23.972,32.353V20.182A1.432,1.432,0,0,1,25.4,18.75H22.182a1.432,1.432,0,0,0-1.432,1.432V32.353a1.432,1.432,0,0,0,1.432,1.432H25.4A1.432,1.432,0,0,1,23.972,32.353Z" transform="translate(8.726 7.806)" fill="#00b871"/>
    <g id="Group_557" data-name="Group 557" transform="translate(4.866 10.494)">
      <path id="Path_2250" data-name="Path 2250" d="M0,0H1.432V2.864H0Z" transform="translate(0.254 26.246) rotate(-45)" fill="#a4afc1"/>
      <path id="Path_2251" data-name="Path 2251" d="M0,0H1.432V2.864H0Z" transform="translate(6.075 32.068) rotate(-45)" fill="#a4afc1"/>
      <path id="Path_2252" data-name="Path 2252" d="M0,0H2.864V1.432H0Z" transform="translate(0 33.08) rotate(-45)" fill="#a4afc1"/>
      <path id="Path_2253" data-name="Path 2253" d="M0,0H2.864V1.432H0Z" transform="translate(5.822 27.259) rotate(-45)" fill="#a4afc1"/>
      <path id="Path_2254" data-name="Path 2254" d="M31.9,11.829a2.148,2.148,0,1,1,2.148-2.148A2.151,2.151,0,0,1,31.9,11.829Zm0-2.864a.716.716,0,1,0,.716.716A.716.716,0,0,0,31.9,8.965Z" transform="translate(7.747 -7.533)" fill="#a4afc1"/>
    </g>
    <path id="Path_2255" data-name="Path 2255" d="M17.1,36.071a1.052,1.052,0,0,1-.448-.1A1.071,1.071,0,0,1,16.024,35V23.654a1.808,1.808,0,0,0-.524-1.266l-8.345-8.34A3.909,3.909,0,0,1,6,11.264V8.506A2.509,2.509,0,0,1,8.506,6H31.059a2.509,2.509,0,0,1,2.506,2.506v2.728a3.958,3.958,0,0,1-1.2,2.834l-8.63,8.327a1.8,1.8,0,0,0-.548,1.29v5.7a3.934,3.934,0,0,1-1.375,2.99L17.8,35.811A1.076,1.076,0,0,1,17.1,36.071ZM8.506,8.148a.358.358,0,0,0-.358.358v2.758a1.78,1.78,0,0,0,.526,1.267l8.344,8.338a3.962,3.962,0,0,1,1.154,2.785v9.008l2.238-1.919a1.789,1.789,0,0,0,.626-1.359v-5.7a3.958,3.958,0,0,1,1.2-2.834l8.63-8.327a1.8,1.8,0,0,0,.547-1.289V8.506a.358.358,0,0,0-.358-.358Z" transform="translate(2.355 2.299)"/>
    <path id="Path_2256" data-name="Path 2256" d="M31.813,35.183H22.506A2.509,2.509,0,0,1,20,32.677V20.506A2.509,2.509,0,0,1,22.506,18h9.308a2.509,2.509,0,0,1,2.506,2.506V32.677A2.509,2.509,0,0,1,31.813,35.183ZM22.506,20.148a.358.358,0,0,0-.358.358V32.677a.358.358,0,0,0,.358.358h9.308a.358.358,0,0,0,.358-.358V20.506a.358.358,0,0,0-.358-.358Z" transform="translate(8.402 7.482)"/>
    <path id="Path_2257" data-name="Path 2257" d="M23.75,21.75h3.58V23.9H23.75Z" transform="translate(10.022 9.102)"/>
    <path id="Path_2258" data-name="Path 2258" d="M23.75,24.75h3.58V26.9H23.75Z" transform="translate(10.022 10.398)"/>
  </g>
</svg>
