<svg xmlns="http://www.w3.org/2000/svg" width="21.001" height="21.001" viewBox="0 0 21.001 21.001">
  <g id="anahata" transform="translate(0)">
    <path id="Path_701" data-name="Path 701" d="M10.5,21a.615.615,0,0,1-.323-.092,7.083,7.083,0,0,1-2.687-3.142,7.083,7.083,0,0,1-4.122.322.615.615,0,0,1-.457-.457,7.085,7.085,0,0,1,.322-4.121A7.084,7.084,0,0,1,.092,10.824a.615.615,0,0,1,0-.647A7.085,7.085,0,0,1,3.234,7.491,7.085,7.085,0,0,1,2.912,3.37a.615.615,0,0,1,.457-.457,7.085,7.085,0,0,1,4.121.322A7.083,7.083,0,0,1,10.177.092a.615.615,0,0,1,.647,0,7.083,7.083,0,0,1,2.686,3.142,7.084,7.084,0,0,1,4.121-.322.615.615,0,0,1,.457.457,7.085,7.085,0,0,1-.322,4.121,7.086,7.086,0,0,1,3.142,2.686.615.615,0,0,1,0,.647,7.086,7.086,0,0,1-3.142,2.686,7.085,7.085,0,0,1,.322,4.121.615.615,0,0,1-.457.457,7.084,7.084,0,0,1-4.121-.322,7.085,7.085,0,0,1-2.686,3.142A.615.615,0,0,1,10.5,21Z" transform="translate(0 0)" fill="#98f1be"/>
    <path id="Path_702" data-name="Path 702" d="M256.322,20.909a7.085,7.085,0,0,0,2.686-3.142,7.084,7.084,0,0,0,4.121.322.615.615,0,0,0,.457-.457,7.085,7.085,0,0,0-.322-4.121,7.086,7.086,0,0,0,3.142-2.686.615.615,0,0,0,0-.647,7.086,7.086,0,0,0-3.142-2.686,7.085,7.085,0,0,0,.322-4.121.615.615,0,0,0-.457-.457,7.085,7.085,0,0,0-4.121.322A7.083,7.083,0,0,0,256.322.092.615.615,0,0,0,256,0V21h0A.615.615,0,0,0,256.322,20.909Z" transform="translate(-245.498)" fill="#5fe1ba"/>
    <path id="Path_703" data-name="Path 703" d="M81.969,89.42a7.443,7.443,0,1,1,7.443-7.443A7.452,7.452,0,0,1,81.969,89.42Z" transform="translate(-71.468 -71.477)" fill="#d8ffc9"/>
    <path id="Path_704" data-name="Path 704" d="M263.442,81.976A7.452,7.452,0,0,0,256,74.533h0V89.419h0A7.452,7.452,0,0,0,263.442,81.976Z" transform="translate(-245.498 -71.476)" fill="#98f1be"/>
    <path id="Path_705" data-name="Path 705" d="M108.015,81.977l1.793-3.106a.615.615,0,0,0-.533-.923h-3.587L103.9,74.842a.615.615,0,0,0-1.066,0l-1.793,3.106H97.449a.615.615,0,0,0-.533.923l1.793,3.106-1.793,3.106a.615.615,0,0,0,.533.923h3.587l1.793,3.106a.615.615,0,0,0,1.066,0l1.793-3.106h3.587a.615.615,0,0,0,.533-.923Zm.195-2.8-.905,1.568-.453-.784-.453-.784Zm-2.424,1.4.808,1.4-1.616,2.8h-3.232l-1.616-2.8,1.616-2.8h3.231Zm-2.424-4.2.905,1.568h-1.811Zm-4.848,2.8h1.811l-.905,1.568Zm0,5.6.905-1.568.905,1.568Zm4.848,2.8-.905-1.568h1.811Zm3.037-2.8.905-1.568.905,1.568Z" transform="translate(-92.862 -71.477)" fill="#5fe1ba"/>
    <path id="Path_706" data-name="Path 706" d="M256.533,89.114l1.793-3.106h3.587a.615.615,0,0,0,.533-.923l-1.793-3.106,1.793-3.106a.615.615,0,0,0-.533-.923h-3.587l-1.793-3.106a.615.615,0,0,0-.533-.308h0v1.846l.905,1.568H256v1.231h1.616l.808,1.4.808,1.4-1.616,2.8H256v1.23h.905L256,87.576h0v1.846h0A.615.615,0,0,0,256.533,89.114Zm2.5-9.934h1.811l-.905,1.568-.453-.784Zm.905,4.029.905,1.568h-1.811Z" transform="translate(-245.499 -71.478)" fill="#00c9c1"/>
  </g>
</svg>
