<svg xmlns="http://www.w3.org/2000/svg" width="27.521" height="22.659" viewBox="0 0 27.521 22.659">
  <g id="Group_359" data-name="Group 359" transform="translate(-2813.261 -1954.34)">
    <path id="Path_39" data-name="Path 39" d="M2846.787,1956.189a3.824,3.824,0,0,0-3.574.75v-.916a1.676,1.676,0,0,1,3.209-.672Z" transform="translate(-12.839 -0.004)" fill="#fff"/>
    <path id="Path_40" data-name="Path 40" d="M2851.439,1968.306a6.3,6.3,0,0,0-8.787,1.5,4.47,4.47,0,0,0-.3.474v-8.512a2.97,2.97,0,0,1,5.694-1.191l.454,1.024v.006Z" transform="translate(-12.469 -1.912)" fill="#fff"/>
    <rect id="Rectangle_32" data-name="Rectangle 32" width="3.99" height="2.094" transform="translate(2825.026 1961.68)" fill="#fff"/>
    <path id="Path_41" data-name="Path 41" d="M2853.251,1980.371a5.469,5.469,0,0,1-1.6,3.856,5.448,5.448,0,1,1,1.6-3.856Z" transform="translate(-12.469 -8.822)" fill="#fff"/>
    <path id="Path_42" data-name="Path 42" d="M2824.162,1980.371a5.45,5.45,0,1,1-5.451-5.45A5.439,5.439,0,0,1,2824.162,1980.371Z" transform="translate(0 -8.822)" fill="#fff"/>
    <path id="Path_43" data-name="Path 43" d="M2828.8,1956.018v.916a3.824,3.824,0,0,0-3.574-.75l.365-.839a1.674,1.674,0,0,1,3.209.672Z" transform="translate(-5.127)" fill="#fff"/>
    <path id="Path_44" data-name="Path 44" d="M2825.522,1961.772v8.512a6.3,6.3,0,0,0-8.615-2.28c-.16.1-.32.2-.474.3l2.94-6.693v-.006l.454-1.024a2.972,2.972,0,0,1,5.694,1.191Z" transform="translate(-1.36 -1.911)" fill="#fff"/>
  </g>
</svg>
