<svg xmlns="http://www.w3.org/2000/svg" width="23" height="23" viewBox="0 0 23 23">
  <path id="Icon_material-do-not-disturb-alt" data-name="Icon material-do-not-disturb-alt" d="M14.5,3A11.5,11.5,0,1,0,26,14.5,11.534,11.534,0,0,0,14.5,3ZM5.3,14.5a9.227,9.227,0,0,1,9.2-9.2,9.063,9.063,0,0,1,5.635,1.955L7.255,20.135A9.063,9.063,0,0,1,5.3,14.5Zm9.2,9.2a9.063,9.063,0,0,1-5.635-1.955l12.88-12.88A9.063,9.063,0,0,1,23.7,14.5,9.227,9.227,0,0,1,14.5,23.7Z" transform="translate(-3 -3)" fill="#03c6db"/>
</svg>
