<svg xmlns="http://www.w3.org/2000/svg" width="21.801" height="21.595" viewBox="0 0 21.801 21.595">
  <g id="buddha" transform="translate(0 -2.34)">
    <g id="Group_87" data-name="Group 87" transform="translate(2.48 11.521)">
      <path id="Path_650" data-name="Path 650" d="M198.438,211.787a2.031,2.031,0,0,0-1.1-.567L192,213.437v2.11h3.165v2.11h2.461a1.407,1.407,0,0,0,1.407-1.407v-3.027A2.031,2.031,0,0,0,198.438,211.787Z" transform="translate(-186.041 -211.22)" fill="#ffa64d"/>
      <path id="Path_651" data-name="Path 651" d="M73.271,345.077a1.839,1.839,0,0,0-1.238-1.474l-2.83-.943a1.4,1.4,0,0,1-1.187.659H61.687a1.4,1.4,0,0,1-1.187-.659l-2.83.943a1.839,1.839,0,0,0-1.238,1.474v.094l.86,1.032,1.231-1.477,1.231,1.477,1.231-1.477,1.231,1.477,1.231-1.477,1.4,1.679.007.011.007-.011,1.4-1.679,1.231,1.477,1.231-1.477,1.231,1.477,1.231-1.477,1.231,1.477.86-1.032Z" transform="translate(-56.432 -336.883)" fill="#ffa64d"/>
    </g>
    <g id="Group_88" data-name="Group 88" transform="translate(0 2.34)">
      <path id="Path_652" data-name="Path 652" d="M21.36,20.817l-1.669-2-.205.246a2.179,2.179,0,0,0-1.293-1.153l-2.462-.821a1.735,1.735,0,0,0,.092-.536v-2.71A6.321,6.321,0,0,0,12.14,3.666a1.349,1.349,0,0,0-.227-.314L10.9,2.34,9.888,3.352a1.332,1.332,0,0,0-.227.314A6.32,6.32,0,0,0,5.978,13.84v2.71a1.739,1.739,0,0,0,.092.536l-2.462.821a2.177,2.177,0,0,0-1.293,1.153l-.205-.246-1.669,2A1.9,1.9,0,0,0,1.9,23.935h18a1.9,1.9,0,0,0,1.46-3.118ZM6.681,16.551V13.524a1.679,1.679,0,0,1,1.4-1.656l1.762-.293v-.483a3.106,3.106,0,0,0,2.11,0v.483l.866.144L8.087,13.494V16.2h1.6a1.363,1.363,0,0,0,0,1.407H7.736A1.056,1.056,0,0,1,6.681,16.551ZM10.9,5.65a2.465,2.465,0,0,1,2.358,1.76A5.112,5.112,0,0,0,10.9,6.705a5.112,5.112,0,0,0-2.358.705A2.466,2.466,0,0,1,10.9,5.65Zm3.34,2.461h-.176a3.142,3.142,0,0,0-.021-.352h.2a.176.176,0,0,1,0,.352Zm-6.505,0H7.56a.176.176,0,1,1,0-.352h.2A3.142,3.142,0,0,0,7.736,8.112Zm3.165-.7a4.965,4.965,0,0,1,2.452.882,2.459,2.459,0,0,1-4.9,0A4.965,4.965,0,0,1,10.9,7.408ZM10.2,16.9a.7.7,0,0,1,.7-.7h2.813V13.386h-.7V15.5H8.791V13.981l5.317-1.994a1.659,1.659,0,0,1,1.013,1.536v3.027a1.056,1.056,0,0,1-1.055,1.055H10.9A.7.7,0,0,1,10.2,16.9ZM16.526,9.87a5.629,5.629,0,0,1-.82,2.918,2.38,2.38,0,0,0-1.873-1.614l-1.174-.2v-.237a3.187,3.187,0,0,0,1.055-1.186v.666h.7V8.8a.879.879,0,0,0-.176-1.74h-.36A3.176,3.176,0,0,0,12,5.148a1.33,1.33,0,0,0,.294-.727A5.615,5.615,0,0,1,16.526,9.87ZM10.385,3.85l.515-.515.515.515a.643.643,0,0,1-.455,1.1H10.84a.643.643,0,0,1-.455-1.1Zm-.879.572a1.332,1.332,0,0,0,.294.727A3.175,3.175,0,0,0,7.92,7.057H7.56A.879.879,0,0,0,7.384,8.8v1.424h.7V9.555a3.187,3.187,0,0,0,1.055,1.186v.237l-1.174.2a2.382,2.382,0,0,0-1.873,1.614A5.618,5.618,0,0,1,9.506,4.421ZM3.83,18.575l2.594-.865a1.747,1.747,0,0,0,1.311.6h6.329a1.746,1.746,0,0,0,1.311-.6l2.594.865a1.479,1.479,0,0,1,.986,1.122l-.5.595L17.23,18.814,16,20.291l-1.231-1.477-1.231,1.477-1.231-1.477L10.9,20.5,9.494,18.814,8.263,20.291,7.033,18.814,5.8,20.291,4.571,18.814,3.34,20.291l-.5-.595A1.478,1.478,0,0,1,3.83,18.575ZM19.9,23.232h-.455a2.875,2.875,0,0,0,.6-1.758h-.7a2.181,2.181,0,0,1-.643,1.552l-.206.206H16.984a2.875,2.875,0,0,0,.6-1.758h-.7a2.181,2.181,0,0,1-.643,1.552l-.206.206H14.523a2.875,2.875,0,0,0,.6-1.758h-.7a2.181,2.181,0,0,1-.643,1.552l-.206.206H12.061a2.875,2.875,0,0,0,.6-1.758h-.7a2.181,2.181,0,0,1-.643,1.552l-.206.206h-.412l-.206-.206a2.18,2.18,0,0,1-.643-1.552h-.7a2.875,2.875,0,0,0,.6,1.758H8.233l-.206-.206a2.18,2.18,0,0,1-.643-1.552h-.7a2.875,2.875,0,0,0,.6,1.758H5.772l-.206-.206a2.18,2.18,0,0,1-.643-1.552h-.7a2.875,2.875,0,0,0,.6,1.758H3.31L3.1,23.026a2.18,2.18,0,0,1-.643-1.552h-.7a2.875,2.875,0,0,0,.6,1.758H1.9a1.2,1.2,0,0,1-.92-1.964L2.11,19.913,3.34,21.39l1.231-1.477L5.8,21.39l1.231-1.477L8.263,21.39l1.231-1.477,1.116,1.339.291.331,1.407-1.669,1.231,1.477,1.231-1.477L16,21.39l1.231-1.477L18.46,21.39l1.231-1.477,1.129,1.354a1.2,1.2,0,0,1-.92,1.964Z" transform="translate(0 -2.34)" fill="#333"/>
      <rect id="Rectangle_111" data-name="Rectangle 111" width="0.703" height="0.703" transform="translate(11.955 18.078)" fill="#333"/>
      <rect id="Rectangle_112" data-name="Rectangle 112" width="0.703" height="0.703" transform="translate(9.142 18.078)" fill="#333"/>
    </g>
  </g>
</svg>
