<svg xmlns="http://www.w3.org/2000/svg" width="104.913" height="95.619" viewBox="0 0 104.913 95.619">
  <g id="business-report" transform="translate(-5.89 -16.707)">
    <circle id="Ellipse_244" data-name="Ellipse 244" cx="5.37" cy="5.37" r="5.37" transform="translate(16.743 43.857)" fill="#f87023"/>
    <circle id="Ellipse_245" data-name="Ellipse 245" cx="5.37" cy="5.37" r="5.37" transform="translate(54.673 43.857)" fill="#f8af23"/>
    <path id="Path_2280" data-name="Path 2280" d="M79.515,184.969H22.3v-7.757a23.173,23.173,0,0,1,23.173-23.173H55.4a23.173,23.173,0,0,1,23.173,23.173Z" transform="translate(-9.361 -78.337)" fill="#63bce7"/>
    <path id="Path_2281" data-name="Path 2281" d="M53.421,154.039H45.474A23.173,23.173,0,0,0,22.3,177.213v7.756h7.947v-7.757a23.173,23.173,0,0,1,23.174-23.173Z" transform="translate(-9.361 -78.337)" fill="#6377e7"/>
    <rect id="Rectangle_417" data-name="Rectangle 417" width="11.599" height="22.948" rx="5.799" transform="translate(35.278 60.236)" fill="#f8af23"/>
    <path id="Path_2282" data-name="Path 2282" d="M74.3,123.9v11.349A5.823,5.823,0,0,0,79.32,141V118.158A5.823,5.823,0,0,0,74.3,123.9Z" transform="translate(-39.022 -57.869)" fill="#f87023"/>
    <rect id="Rectangle_418" data-name="Rectangle 418" width="37.93" height="47.286" rx="18.965" transform="translate(22.113 24.589)" fill="#f8af23"/>
    <path id="Path_2283" data-name="Path 2283" d="M51.6,63.376V54.018A19.037,19.037,0,0,1,66.594,35.478a18.948,18.948,0,0,0-22.94,18.539v9.357A18.946,18.946,0,0,0,66.592,81.915,19.036,19.036,0,0,1,51.6,63.376Z" transform="translate(-21.541 -10.465)" fill="#f87023"/>
    <path id="Path_2284" data-name="Path 2284" d="M70.284,149.918l5.8,7.557L69.8,160.858l-2.542-10.634,3.026-3.435Z" transform="translate(-35.005 -74.201)" fill="#f46275"/>
    <path id="Path_2285" data-name="Path 2285" d="M93.6,149.918l-5.8,7.557,6.283,3.383,2.542-10.634L93.6,146.789Z" transform="translate(-46.723 -74.201)" fill="#f46275"/>
    <path id="Path_2286" data-name="Path 2286" d="M78.427,31.271a9.592,9.592,0,0,0-7.475,3.571A18.787,18.787,0,0,0,62.618,32.9,19.021,19.021,0,0,0,43.654,51.86v4.2h3.124V53.527a8.828,8.828,0,0,0,6.384-8.574S61.209,52.1,75.709,50.1a9.612,9.612,0,1,0,2.718-18.832Z" transform="translate(-21.541 -8.308)" fill="#9e9e9e"/>
    <path id="Path_2287" data-name="Path 2287" d="M66.582,35.481a18.8,18.8,0,0,0-3.963-.43A19.021,19.021,0,0,0,43.654,54.017v4.2h3.124V55.683A9.294,9.294,0,0,0,51.7,52.126,19.056,19.056,0,0,1,66.582,35.481Z" transform="translate(-21.541 -10.464)" fill="#707070"/>
    <path id="Path_2288" data-name="Path 2288" d="M149.271,140.844l11.322,4.061-11.671,32.537h-6.408c-2.714-.973-4.124-6.262-3.151-8.976Z" transform="translate(-75.96 -70.81)" fill="#63bce7"/>
    <path id="Path_2289" data-name="Path 2289" d="M163.141,146.944l-7.041-2.526-12.577,35.063h7.947Z" transform="translate(-78.508 -72.849)" fill="#63e2e7"/>
    <path id="Path_2290" data-name="Path 2290" d="M0,0H12.028V3.545H0Z" transform="matrix(-0.941, -0.338, 0.338, -0.941, 83.478, 77.424)" fill="#f46275"/>
    <path id="Path_2291" data-name="Path 2291" d="M0,0H3.545V7.481H0Z" transform="matrix(0.338, -0.941, 0.941, 0.338, 76.405, 74.949)" fill="#f48875"/>
    <path id="Path_2292" data-name="Path 2292" d="M173.77,140.715l8.28-3.222a1.125,1.125,0,0,0,.717-1.049v-.838a1.125,1.125,0,0,0-1.125-1.125H167.531a2.286,2.286,0,0,0-2.181,1.6l-.455,1.45Z" transform="translate(-90.699 -67.18)" fill="#f8af23"/>
    <path id="Path_2293" data-name="Path 2293" d="M187.937,134.479H179.99a1.125,1.125,0,0,1,1.125,1.126v.839a1.126,1.126,0,0,1-.718,1.049l-4.468,1.738,4.135,1.483,8.28-3.222a1.126,1.126,0,0,0,.717-1.049V135.6A1.126,1.126,0,0,0,187.937,134.479Z" transform="translate(-96.994 -67.179)" fill="#f8d323"/>
    <path id="Path_2294" data-name="Path 2294" d="M196.746,25.824l-7.617-7.617H162.834V64.659h33.912Z" transform="translate(-89.524 -0.856)" fill="#63bce7"/>
    <path id="Path_2295" data-name="Path 2295" d="M213.491,18.207h-7.947l7.617,7.617V64.659h7.947V25.824Z" transform="translate(-113.886 -0.856)" fill="#63e2e7"/>
    <path id="Path_2296" data-name="Path 2296" d="M173.734,90.468h5.5v15.41h-5.5Z" transform="translate(-95.741 -42.075)" fill="#9e9e9e"/>
    <path id="Path_2297" data-name="Path 2297" d="M195.9,79.165h5.5V99.431h-5.5Z" transform="translate(-108.388 -35.627)" fill="#f8af23"/>
    <path id="Path_2298" data-name="Path 2298" d="M218.077,72.01h5.5V95.35h-5.5Z" transform="translate(-121.035 -31.546)" fill="#f46275"/>
    <path id="Path_2299" data-name="Path 2299" d="M192.691,35.056V42.3h-7.24a7.24,7.24,0,1,0,7.24-7.24Z" transform="translate(-102.425 -10.467)" fill="#f8af23"/>
    <path id="Path_2300" data-name="Path 2300" d="M192.691,35.056a7.24,7.24,0,0,0-7.24,7.24h7.24Z" transform="translate(-102.425 -10.467)" fill="#f46275"/>
    <g id="Group_606" data-name="Group 606" transform="translate(5.89 16.707)">
      <path id="Path_2301" data-name="Path 2301" d="M90.069,111.614a.644.644,0,1,0,0,1.289,2.637,2.637,0,0,0,.644-5.194v-3.656a.644.644,0,0,0-1.289,0v4.223a.644.644,0,0,0,.644.644l.027,0a1.348,1.348,0,1,1-.027,2.7Z" transform="translate(-53.54 -66.163)" fill="#3f3679"/>
      <path id="Path_2302" data-name="Path 2302" d="M85.048,126.252a.644.644,0,0,0-.911,0,2.761,2.761,0,0,1-4.714-1.952.644.644,0,0,0-1.289,0,4.051,4.051,0,0,0,6.914,2.864A.644.644,0,0,0,85.048,126.252Z" transform="translate(-47.099 -77.713)" fill="#3f3679"/>
      <path id="Path_2303" data-name="Path 2303" d="M72.978,93.628a1.194,1.194,0,0,0-1.193,1.194V96.5a1.194,1.194,0,1,0,2.387,0V94.822a1.194,1.194,0,0,0-1.194-1.194Z" transform="translate(-43.478 -60.584)" fill="#3f3679"/>
      <path id="Path_2304" data-name="Path 2304" d="M70.949,85.648a.644.644,0,0,0-.14-.9,4.691,4.691,0,0,0-3.635-.874,4.219,4.219,0,0,0-2.787,1.8.644.644,0,1,0,1.079.7,2.926,2.926,0,0,1,1.939-1.232,3.418,3.418,0,0,1,2.642.644.644.644,0,0,0,.9-.137Z" transform="translate(-39.198 -54.979)" fill="#3f3679"/>
      <path id="Path_2305" data-name="Path 2305" d="M105.451,93.628a1.194,1.194,0,0,0-1.193,1.194V96.5a1.194,1.194,0,1,0,2.388,0V94.822A1.2,1.2,0,0,0,105.451,93.628Z" transform="translate(-62.001 -60.584)" fill="#3f3679"/>
      <path id="Path_2306" data-name="Path 2306" d="M95.5,86.562a.644.644,0,0,0,.892-.187,2.926,2.926,0,0,1,1.939-1.232,3.416,3.416,0,0,1,2.643.644.644.644,0,0,0,.761-1.04,4.7,4.7,0,0,0-3.636-.873,4.22,4.22,0,0,0-2.786,1.8.644.644,0,0,0,.187.894Z" transform="translate(-56.837 -54.979)" fill="#3f3679"/>
      <path id="Path_2307" data-name="Path 2307" d="M14.482,236.293H6.534a.644.644,0,1,0,0,1.289h7.947a.644.644,0,1,0,0-1.289Z" transform="translate(-5.89 -141.963)" fill="#3f3679"/>
      <path id="Path_2308" data-name="Path 2308" d="M237.2,236.293h-7.947a.644.644,0,1,0,0,1.289H237.2a.644.644,0,1,0,0-1.289Z" transform="translate(-132.933 -141.963)" fill="#3f3679"/>
      <path id="Path_2309" data-name="Path 2309" d="M114.844,236.293H39.807a.644.644,0,1,0,0,1.289h75.037a.644.644,0,1,0,0-1.289Z" transform="translate(-24.87 -141.963)" fill="#3f3679"/>
      <path id="Path_2310" data-name="Path 2310" d="M6.534,114.725H110.158a.644.644,0,1,0,0-1.289H73.878l11.36-31.677a.644.644,0,0,0-.337-.8l6.682-2.6a1.761,1.761,0,0,0,1.128-1.65v-.836a1.772,1.772,0,0,0-1.77-1.77H76.832a2.921,2.921,0,0,0-2.8,2.053l-.254.81-.253-.091a.644.644,0,0,0-.824.389L66.6,94.294A23.951,23.951,0,0,0,50.239,82.876l-2.718-3.085v-.917A19.656,19.656,0,0,0,60.547,62.664,6.009,6.009,0,0,0,60.68,50.7q-.009-.564-.05-1.129A10.255,10.255,0,1,0,49.246,33.187a19.3,19.3,0,0,0-8.169-1.794A19.628,19.628,0,0,0,21.476,50.7a6.008,6.008,0,0,0,.132,11.963A19.656,19.656,0,0,0,34.633,78.875v.917l-2.716,3.084A23.762,23.762,0,0,0,12.3,106.324v7.112H6.534a.644.644,0,0,0,0,1.289ZM83.047,84.056,72.938,80.43l.762-2.123.276.1,8.875,3.184.955.344Zm-7.782-7.513a1.636,1.636,0,0,1,1.567-1.15H90.943a.482.482,0,0,1,.481.482v.839a.479.479,0,0,1-.307.448L83.062,80.3,75,77.4ZM47.388,83.558a.644.644,0,0,0,.133-.392V81.743l1.675,1.9-2.27,9.494-4.878-2.627Zm17.38-26.882a4.729,4.729,0,0,1-4.106,4.68q.025-.5.025-1V52a4.755,4.755,0,0,1,4.081,4.678ZM41.077,32.682a18.035,18.035,0,0,1,8.05,1.879.644.644,0,0,0,.786-.172,8.967,8.967,0,1,1,4.438,14.236.644.644,0,0,0-.27-.02c-14.01,1.924-21.955-4.924-22.033-4.992a.644.644,0,0,0-1.074.476,8.128,8.128,0,0,1-5.9,7.957.644.644,0,0,0-.487.625v1.89H22.757V51A18.343,18.343,0,0,1,41.077,32.682ZM17.387,56.676a4.713,4.713,0,0,1,4.081-4.682v8.364q0,.5.025,1a4.729,4.729,0,0,1-4.106-4.678Zm5.37,3.684V55.849h2.479a.644.644,0,0,0,.644-.644V53.136a9.473,9.473,0,0,0,6.307-7.791c2.588,1.831,10.12,6.139,21.933,4.554a10.246,10.246,0,0,0,5.246.076c.019.344.032.687.032,1.026v9.357a18.32,18.32,0,1,1-36.641,0Zm18.32,19.609a19.55,19.55,0,0,0,5.152-.692l0,3.67-5.155,6.717-5.155-6.717V79.276a19.555,19.555,0,0,0,5.155.692Zm-6.444,1.774v1.423a.644.644,0,0,0,.133.392l5.339,6.956L35.227,93.14l-2.27-9.494Zm-21.05,24.582A22.473,22.473,0,0,1,31.768,84.219l2.4,10.036a.644.644,0,0,0,.932.418l5.977-3.218,5.977,3.218a.644.644,0,0,0,.932-.418l2.4-10.032A22.654,22.654,0,0,1,66.019,95.9l-2.26,6.3a.644.644,0,0,0,1.213.435l7.531-21,10.109,3.626-10.1,28.167h-12.6v-8.52a.644.644,0,0,0-1.289,0v8.52H23.536v-8.52a.644.644,0,0,0-1.289,0v8.52H13.584Z" transform="translate(-5.89 -24.155)" fill="#3f3679"/>
      <path id="Path_2311" data-name="Path 2311" d="M161.978,64.448H195.89a.644.644,0,0,0,.644-.644V24.97a.644.644,0,0,0-.189-.456L188.729,16.9a.644.644,0,0,0-.456-.189H161.978a.644.644,0,0,0-.644.644V63.8a.644.644,0,0,0,.644.644Zm5.327-1.289V49.038h4.21V63.159Zm9.525,0V44.182h4.21V63.159Zm9.524,0V41.109h4.21V63.159Zm2.564-44.253,5.417,5.417h-5.417ZM162.623,18H187.63v6.973a.644.644,0,0,0,.644.644h6.973V63.158h-3.394V40.464a.644.644,0,0,0-.644-.644h-5.5a.644.644,0,0,0-.644.644v22.7h-2.737V43.538a.644.644,0,0,0-.644-.644h-5.5a.644.644,0,0,0-.644.644V63.159H172.8V48.393a.644.644,0,0,0-.644-.644h-5.5a.644.644,0,0,0-.644.644V63.159h-3.394Z" transform="translate(-94.558 -16.707)" fill="#3f3679"/>
      <path id="Path_2312" data-name="Path 2312" d="M191.833,49.326a7.885,7.885,0,1,0-7.882-7.884A7.885,7.885,0,0,0,191.833,49.326Zm-.644-14.449V40.8h-5.918a6.607,6.607,0,0,1,5.918-5.92Zm.644,7.209a.644.644,0,0,0,.644-.644V34.877a6.6,6.6,0,1,1-7.207,7.209Z" transform="translate(-107.459 -26.319)" fill="#3f3679"/>
    </g>
  </g>
</svg>
