<svg id="XMLID_2219_" xmlns="http://www.w3.org/2000/svg" width="27" height="27" viewBox="0 0 27 27">
  <g id="XMLID_1000_">
    <g id="XMLID_1001_">
      <path id="XMLID_1002_" d="M13.031,11.5V5.816H12.8a1.168,1.168,0,0,1,0-2.336h1.4a1.168,1.168,0,0,1,1.168,1.168V11.5Z" fill="#98eaf9"/>
    </g>
  </g>
  <path id="XMLID_1809_" d="M23.73,26.473H3.27A2.742,2.742,0,0,1,.527,23.73H26.473A2.742,2.742,0,0,1,23.73,26.473Z" fill="#cbf4fb"/>
  <g id="XMLID_1117_">
    <path id="XMLID_1881_" d="M23.241,11.5H3.759a2.177,2.177,0,0,0-2.177,2.177V23.73H25.418V13.673A2.177,2.177,0,0,0,23.241,11.5Z" fill="#ffcd69"/>
    <path id="XMLID_1004_" d="M23.241,11.5H3.759a2.177,2.177,0,0,0-2.177,2.177V14.8H2.99a1.188,1.188,0,0,1,1.188,1.188v3.1a1.341,1.341,0,0,0,2.681,0V16.419a1.3,1.3,0,0,1,2.593,0V17.8a1.505,1.505,0,0,0,1.507,1.512,1.479,1.479,0,0,0,1.45-1.478v-.41a1.387,1.387,0,0,1,1.316-1.4,1.366,1.366,0,0,1,1.416,1.365v.935a1.207,1.207,0,0,0,1.145,1.216,1.188,1.188,0,0,0,1.231-1.187v-1.64a1.248,1.248,0,1,1,2.5,0V17.9a1.505,1.505,0,0,0,1.507,1.511,1.478,1.478,0,0,0,1.45-1.478V15.978a1.18,1.18,0,0,1,1.18-1.18h1.266V13.673A2.177,2.177,0,0,0,23.241,11.5Z" fill="#c68a65"/>
  </g>
  <path id="XMLID_1103_" d="M14.365,3.122a1.223,1.223,0,0,1-1.73-1.73L13.5.527l.865.865A1.223,1.223,0,0,1,14.365,3.122Z" fill="#ff9171"/>
  <g id="XMLID_879_">
    <path id="XMLID_913_" d="M26.473,23.2h-.527v-9.53a2.707,2.707,0,0,0-2.7-2.7h-.882a.527.527,0,0,0,0,1.055h.882a1.651,1.651,0,0,1,1.649,1.649v.6h-.739a1.709,1.709,0,0,0-1.707,1.707v1.958a.956.956,0,0,1-.933.951.927.927,0,0,1-.669-.272,1,1,0,0,1-.3-.712V16.713a1.776,1.776,0,0,0-3.552,0v1.64a.661.661,0,0,1-.685.66.681.681,0,0,1-.636-.689V17.39A1.893,1.893,0,0,0,13.707,15.5a1.9,1.9,0,0,0-1.825,1.925v.41a.956.956,0,0,1-.933.951.925.925,0,0,1-.669-.272,1,1,0,0,1-.3-.712V16.419a1.824,1.824,0,1,0-3.648,0v2.669a.813.813,0,0,1-1.626,0v-3.1A1.717,1.717,0,0,0,2.99,14.271H2.109v-.6a1.651,1.651,0,0,1,1.649-1.649H17.613a.527.527,0,0,0,0-1.055H15.894V4.648A1.7,1.7,0,0,0,15,3.156a1.754,1.754,0,0,0-.264-2.136L13.873.154a.528.528,0,0,0-.746,0l-.865.865A1.754,1.754,0,0,0,12,3.156,1.7,1.7,0,0,0,12.5,6.318v4.651H3.759a2.707,2.707,0,0,0-2.7,2.7V23.2H.527A.527.527,0,0,0,0,23.73,3.273,3.273,0,0,0,3.27,27H23.73A3.273,3.273,0,0,0,27,23.73a.527.527,0,0,0-.527-.527ZM13.008,1.765l.492-.492.492.492a.7.7,0,1,1-.984,0Zm.023,3.524H12.8a.641.641,0,1,1,0-1.281h1.4a.641.641,0,0,1,.641.641v6.32H13.558V5.816a.527.527,0,0,0-.527-.527ZM2.109,15.326H2.99a.661.661,0,0,1,.661.661v3.1a1.868,1.868,0,0,0,3.736,0V16.419a.769.769,0,1,1,1.539,0V17.8a2.066,2.066,0,0,0,.617,1.465,1.973,1.973,0,0,0,1.427.574,2.016,2.016,0,0,0,1.967-2.005v-.41a.863.863,0,0,1,.808-.871.839.839,0,0,1,.87.838v.935a1.716,1.716,0,0,0,2.907,1.263,1.7,1.7,0,0,0,.524-1.234v-1.64a.721.721,0,0,1,1.442,0V17.9a2.066,2.066,0,0,0,.617,1.465,1.968,1.968,0,0,0,1.427.574A2.016,2.016,0,0,0,23.5,17.936V15.978a.654.654,0,0,1,.653-.653h.739V23.2H2.109ZM23.73,25.945H3.27a2.219,2.219,0,0,1-2.151-1.687H25.882A2.219,2.219,0,0,1,23.73,25.945Z"/>
    <path id="XMLID_917_" d="M6.75,5.7a.527.527,0,0,0,.527-.527v-.7a.527.527,0,0,0-1.055,0v.7A.527.527,0,0,0,6.75,5.7Z"/>
    <path id="XMLID_918_" d="M6.75,9.211a.527.527,0,0,0,.527-.527v-.7a.527.527,0,0,0-1.055,0v.7A.527.527,0,0,0,6.75,9.211Z"/>
    <path id="XMLID_948_" d="M8.156,7.1h.7a.527.527,0,0,0,0-1.055h-.7a.527.527,0,0,0,0,1.055Z"/>
    <path id="XMLID_950_" d="M4.641,7.1h.7a.527.527,0,1,0,0-1.055h-.7a.527.527,0,0,0,0,1.055Z"/>
    <path id="XMLID_958_" d="M20.25,1.758a.527.527,0,0,0,.527-.527v-.7a.527.527,0,0,0-1.055,0v.7A.527.527,0,0,0,20.25,1.758Z"/>
    <path id="XMLID_960_" d="M20.25,5.273a.527.527,0,0,0,.527-.527v-.7a.527.527,0,1,0-1.055,0v.7A.527.527,0,0,0,20.25,5.273Z"/>
    <path id="XMLID_991_" d="M21.656,3.164h.7a.527.527,0,0,0,0-1.055h-.7a.527.527,0,0,0,0,1.055Z"/>
    <path id="XMLID_1017_" d="M18.141,3.164h.7a.527.527,0,0,0,0-1.055h-.7a.527.527,0,0,0,0,1.055Z"/>
    <path id="XMLID_1031_" d="M19.986,12.023a.528.528,0,1,0-.373-.155A.531.531,0,0,0,19.986,12.023Z"/>
  </g>
</svg>
