<svg xmlns="http://www.w3.org/2000/svg" xmlns:xlink="http://www.w3.org/1999/xlink" width="33.899" height="38.528" viewBox="0 0 33.899 38.528">
  <defs>
    <filter id="Path_35" x="12.908" y="4.981" width="20.99" height="28.798" filterUnits="userSpaceOnUse">
      <feOffset dy="3" input="SourceAlpha"/>
      <feGaussianBlur stdDeviation="1" result="blur"/>
      <feFlood flood-opacity="0.522"/>
      <feComposite operator="in" in2="blur"/>
      <feComposite in="SourceGraphic"/>
    </filter>
    <filter id="Path_36" x="0" y="0" width="25.783" height="38.528" filterUnits="userSpaceOnUse">
      <feOffset dy="3" input="SourceAlpha"/>
      <feGaussianBlur stdDeviation="3" result="blur-2"/>
      <feFlood flood-opacity="0.431"/>
      <feComposite operator="in" in2="blur-2"/>
      <feComposite in="SourceGraphic"/>
    </filter>
  </defs>
  <g id="Group_361" data-name="Group 361" transform="translate(-2535.84 -1949.869)">
    <g id="Group_19" data-name="Group 19" transform="translate(2551.898 1955)">
      <g transform="matrix(1, 0, 0, 1, -16.06, -5.13)" filter="url(#Path_35)">
        <path id="Path_35-2" data-name="Path 35" d="M2567.475,1955h-6.861a3.914,3.914,0,0,0-3.915,3.914v14.67a3.914,3.914,0,0,0,3.915,3.914h6.861a3.914,3.914,0,0,0,3.915-3.914v-14.67A3.914,3.914,0,0,0,2567.475,1955Zm-.45,12.072a15.348,15.348,0,0,1-1.846,1.732c-.255.214-.544.463-.846.731a.448.448,0,0,1-.288.107.427.427,0,0,1-.29-.114c-.295-.262-.591-.5-.846-.725a15.887,15.887,0,0,1-1.846-1.732,2.773,2.773,0,0,1-.738-1.813,2.335,2.335,0,0,1,.59-1.584,1.994,1.994,0,0,1,1.491-.651,1.871,1.871,0,0,1,1.168.4,2.388,2.388,0,0,1,.47.5,2.359,2.359,0,0,1,.469-.5,1.889,1.889,0,0,1,1.175-.4,1.978,1.978,0,0,1,1.484.651,2.3,2.3,0,0,1,.59,1.584A2.77,2.77,0,0,1,2567.025,1967.072Z" transform="translate(-2540.64 -1949.87)" fill="#03c6db" stroke="#fff" stroke-width="0.3"/>
      </g>
    </g>
    <g id="Group_20" data-name="Group 20" transform="translate(2545.152 1956.014)">
      <g transform="matrix(1, 0, 0, 1, -9.31, -6.14)" filter="url(#Path_36)">
        <path id="Path_36-2" data-name="Path 36" d="M2551.227,1974.305a3.862,3.862,0,0,0,1.067,2.678,3.885,3.885,0,0,1-1.826-1.879l-4.962-10.91a3.914,3.914,0,0,1,1.934-5.183l4.653-2.115a2.785,2.785,0,0,1,.429-.161,3.864,3.864,0,0,0-1.3,2.9v5.431a1.705,1.705,0,0,0-.8.98,2.012,2.012,0,0,0,.107,1.484,2.217,2.217,0,0,0,.692.853Z" transform="translate(-2535.84 -1950.59)" fill="#03c6db" stroke="#fff" stroke-width="0.3"/>
      </g>
    </g>
  </g>
</svg>
