<svg xmlns="http://www.w3.org/2000/svg" width="41.031" height="26.445" viewBox="0 0 41.031 26.445">
  <g id="chat" transform="translate(0.001 -91.003)">
    <path id="Path_2146" data-name="Path 2146" d="M20.515,93.158A13.135,13.135,0,0,0,13.3,91,13.306,13.306,0,0,0,0,104.226a13.138,13.138,0,0,0,1.952,6.907L.085,115.8a1.2,1.2,0,0,0,1.562,1.562L6.315,115.5a13.416,13.416,0,0,0,6.987,1.952,13.135,13.135,0,0,0,7.212-2.155l-3.606-11.068Z" fill="#fed843"/>
    <path id="Path_2147" data-name="Path 2147" d="M274.567,97.318l1.866-4.667a1.2,1.2,0,0,0-1.562-1.562L270.2,92.955A13.416,13.416,0,0,0,263.216,91,13.135,13.135,0,0,0,256,93.158l3.606,11.068L256,115.293a13.135,13.135,0,0,0,7.212,2.155,13.306,13.306,0,0,0,13.3-13.223,13.139,13.139,0,0,0-1.952-6.907Z" transform="translate(-235.489 0)" fill="#e63950"/>
    <path id="Path_2148" data-name="Path 2148" d="M187.013,140.025a13.2,13.2,0,0,1,0-22.136c3.763,2.461,5.129,6.6,5.129,11.068S190.777,137.564,187.013,140.025Z" transform="translate(-166.499 -24.731)" fill="#7ed8f6"/>
    <path id="Path_2149" data-name="Path 2149" d="M262.013,128.958A13.214,13.214,0,0,0,256,117.89v22.136A13.214,13.214,0,0,0,262.013,128.958Z" transform="translate(-235.488 -24.732)" fill="#6aa9ff"/>
    <circle id="Ellipse_232" data-name="Ellipse 232" cx="1" cy="1" r="1" transform="translate(10.511 103.225)" fill="#edf5ff"/>
    <circle id="Ellipse_233" data-name="Ellipse 233" cx="1" cy="1" r="1" transform="translate(28.511 103.225)" fill="#d5e8fe"/>
    <circle id="Ellipse_234" data-name="Ellipse 234" cx="1" cy="1" r="1" transform="translate(19.511 103.225)" fill="#edf5ff"/>
    <path id="Path_2150" data-name="Path 2150" d="M257.205,242.205A1.2,1.2,0,0,0,256,241v2.4A1.2,1.2,0,0,0,257.205,242.205Z" transform="translate(-235.488 -137.979)" fill="#d5e8fe"/>
  </g>
</svg>
