<svg xmlns="http://www.w3.org/2000/svg" width="19.801" height="18.95" viewBox="0 0 19.801 18.95">
  <g id="church" transform="translate(0 -10.99)">
    <g id="Group_84" data-name="Group 84" transform="translate(1.509 14.57)">
      <path id="Path_621" data-name="Path 621" d="M56.244,214.062H39.5v-4.789l8.12-6.358a.409.409,0,0,1,.5,0l8.12,6.358v4.789Z" transform="translate(-39.48 -198.987)" fill="#f3c6bd"/>
      <path id="Path_622" data-name="Path 622" d="M38.992,200.99h4.127v11.3H38.992Z" transform="translate(-38.992 -197.219)" fill="#e8edf2"/>
      <path id="Path_623" data-name="Path 623" d="M41.056,107.3H38.992l1.032-2.061.778-1.553a.284.284,0,0,1,.508,0l.778,1.553,1.032,2.061Z" transform="translate(-38.992 -103.529)" fill="#eaa998"/>
      <path id="Path_624" data-name="Path 624" d="M365.087,200.99h4.127v11.3h-4.127Z" transform="translate(-352.47 -197.219)" fill="#e8edf2"/>
      <path id="Path_625" data-name="Path 625" d="M38.992,200.99v.864h1.159a2.259,2.259,0,0,1,2.26,2.257v8.184h.707v-11.3Z" transform="translate(-38.992 -197.219)" fill="#d9e7ec"/>
      <path id="Path_626" data-name="Path 626" d="M365.087,200.99v.864h1.159a2.259,2.259,0,0,1,2.26,2.257v8.184h.708v-11.3Z" transform="translate(-352.47 -197.219)" fill="#d9e7ec"/>
      <path id="Path_627" data-name="Path 627" d="M367.151,107.3h-2.064l1.032-2.061.778-1.553a.284.284,0,0,1,.508,0l.778,1.553,1.032,2.061Z" transform="translate(-352.471 -103.529)" fill="#eaa998"/>
      <path id="Path_628" data-name="Path 628" d="M42.087,105.239l-.778-1.553a.284.284,0,0,0-.508,0l-.178.356.167.334.593,1.185a.605.605,0,0,1-.542.876H39.424l-.432.864h4.127Z" transform="translate(-38.992 -103.529)" fill="#e49280"/>
      <path id="Path_629" data-name="Path 629" d="M368.182,105.239l-.778-1.553a.284.284,0,0,0-.508,0l-.178.356.167.334.593,1.185a.605.605,0,0,1-.542.876h-1.417l-.432.864h4.127Z" transform="translate(-352.47 -103.529)" fill="#e49280"/>
      <path id="Path_630" data-name="Path 630" d="M206.428,335.175h-4.135v-4.293a2.066,2.066,0,0,1,2.066-2.066h0a2.066,2.066,0,0,1,2.066,2.066Z" transform="translate(-195.975 -320.099)" fill="#eaa998"/>
      <path id="Path_631" data-name="Path 631" d="M205.459,336.96a2.059,2.059,0,0,1,.105.65V339.4a2.5,2.5,0,0,1-2.505,2.5h-.765V343h4.135v-4.294A2.062,2.062,0,0,0,205.459,336.96Z" transform="translate(-195.976 -327.928)" fill="#e49280"/>
      <path id="Path_632" data-name="Path 632" d="M74.846,310.6H73.423v-1.663a1.307,1.307,0,0,1,.459-.993l.2-.171a.062.062,0,0,1,.08,0l.207.17a1.307,1.307,0,0,1,.478,1.009Z" transform="translate(-72.091 -299.859)" fill="#eaa998"/>
      <path id="Path_633" data-name="Path 633" d="M74.368,312.281a.043.043,0,0,0-.067.049,1.3,1.3,0,0,1,.112.528v.995a.653.653,0,0,1-.654.653h-.294a.043.043,0,0,0-.043.043v.346a.043.043,0,0,0,.043.043H74.8a.043.043,0,0,0,.043-.043v-1.6A1.307,1.307,0,0,0,74.368,312.281Z" transform="translate(-72.091 -304.194)" fill="#e49280"/>
      <path id="Path_634" data-name="Path 634" d="M401.957,310.6h-1.423v-1.663a1.306,1.306,0,0,1,.459-.993l.2-.171a.062.062,0,0,1,.08,0l.207.17a1.307,1.307,0,0,1,.478,1.009Z" transform="translate(-386.546 -299.859)" fill="#eaa998"/>
      <path id="Path_635" data-name="Path 635" d="M401.48,309.044l-.17-.14a1.3,1.3,0,0,1,.216.718v.838a.81.81,0,0,1-.811.81h-.18v.432h1.423v-1.648A1.307,1.307,0,0,0,401.48,309.044Z" transform="translate(-386.547 -300.958)" fill="#e49280"/>
    </g>
    <g id="Group_85" data-name="Group 85" transform="translate(0 10.99)">
      <path id="Path_636" data-name="Path 636" d="M19.51,29.94a.29.29,0,1,0,0-.58h-.968V26.981a.29.29,0,1,0-.58,0V29.36H14.416V18.636h3.547v7.238a.29.29,0,0,0,.58,0V18.345a.292.292,0,0,0-.031-.13l-2.033-4.06v-1.6h.673a.29.29,0,1,0,0-.58h-.673V11.28a.29.29,0,1,0-.58,0v.691h-.673a.29.29,0,1,0,0,.58H15.9v1.6l-2.033,4.06a.292.292,0,0,0-.031.13v2.673L10.19,18.165V16.673h.673a.29.29,0,1,0,0-.58H10.19V15.4a.29.29,0,0,0-.58,0v.691H8.937a.29.29,0,0,0,0,.58H9.61v1.492L5.926,21.05v-2.7a.292.292,0,0,0-.031-.13l-2.033-4.06v-1.6h.673a.29.29,0,1,0,0-.58H3.862V11.28a.29.29,0,1,0-.58,0v.691H2.609a.29.29,0,1,0,0,.58h.673v1.6l-2.033,4.06a.292.292,0,0,0-.031.13v2.131a.29.29,0,1,0,.58,0V18.636H5.345V29.36H1.8V21.645a.29.29,0,0,0-.58,0V29.36H.29a.29.29,0,0,0,0,.58ZM16.189,14.872l1.594,3.183H14.6ZM1.978,18.055l1.594-3.183,1.594,3.183Zm3.947,3.731L9.9,18.675l3.935,3.081v7.6H12.252v-4a2.358,2.358,0,0,0-4.715,0v4H5.926V21.787ZM8.117,29.36v-4a1.777,1.777,0,0,1,3.554,0v4H8.117Z" transform="translate(0 -10.99)"/>
      <path id="Path_637" data-name="Path 637" d="M67.637,303.787a.29.29,0,0,0,.29-.29v-1.648a1.592,1.592,0,0,0-.584-1.233l-.207-.17a.352.352,0,0,0-.453,0l-.2.171a1.6,1.6,0,0,0-.561,1.214V303.5a.29.29,0,0,0,.29.29ZM66.5,301.834a1.016,1.016,0,0,1,.357-.772l.054-.046.059.049a1.014,1.014,0,0,1,.372.785v1.357H66.5Z" transform="translate(-63.372 -289.169)"/>
      <path id="Path_638" data-name="Path 638" d="M394.248,300.447a.352.352,0,0,0-.453,0l-.2.171a1.6,1.6,0,0,0-.561,1.214V303.5a.29.29,0,0,0,.29.29h1.423a.29.29,0,0,0,.29-.29v-1.648a1.592,1.592,0,0,0-.584-1.233Zm.211,2.761h-.843v-1.373a1.016,1.016,0,0,1,.357-.772l.054-.046.059.049a1.014,1.014,0,0,1,.372.785v1.357Z" transform="translate(-377.828 -289.17)"/>
    </g>
  </g>
</svg>
