<svg xmlns="http://www.w3.org/2000/svg" xmlns:xlink="http://www.w3.org/1999/xlink" width="27" height="29.682" viewBox="0 0 27 29.682">
  <defs>
    <linearGradient id="linear-gradient" x1="0.451" y1="0.544" x2="0.786" y2="0.224" gradientUnits="objectBoundingBox">
      <stop offset="0" stop-color="#ab2c37"/>
      <stop offset="1" stop-color="#ff7a85"/>
    </linearGradient>
    <linearGradient id="linear-gradient-2" x1="-0.302" y1="0.114" x2="1.112" y2="0.114" gradientUnits="objectBoundingBox">
      <stop offset="0" stop-color="#ff4757"/>
      <stop offset="1" stop-color="#ff7a85"/>
    </linearGradient>
    <linearGradient id="linear-gradient-3" x1="0.454" y1="0.411" x2="0.652" y2="0.179" gradientUnits="objectBoundingBox">
      <stop offset="0" stop-color="#c5baeb"/>
      <stop offset="1" stop-color="#d7d1eb"/>
    </linearGradient>
    <linearGradient id="linear-gradient-5" x1="0.103" y1="0.74" x2="1.517" y2="0.74" xlink:href="#linear-gradient-2"/>
  </defs>
  <g id="distance" transform="translate(-1.728)">
    <g id="Group_239" data-name="Group 239">
      <g id="Group_236" data-name="Group 236">
        <path id="Path_1224" data-name="Path 1224" d="M5.882,13.293a.464.464,0,1,1,.327-.135.467.467,0,0,1-.327.135Z" fill="#7662bd"/>
      </g>
      <g id="Group_237" data-name="Group 237">
        <path id="Path_1225" data-name="Path 1225" d="M10.645,29.681a.464.464,0,1,1,.467-.461.464.464,0,0,1-.467.461h0Zm1.4-.565a.464.464,0,1,1,.557.349.512.512,0,0,1-.1.012A.465.465,0,0,1,12.043,29.116Zm-3.351.328a.463.463,0,1,1,.11.013A.489.489,0,0,1,8.692,29.445Zm5.139-.85a.465.465,0,0,1,.211-.621h0a.464.464,0,1,1-.212.621Zm-6.984.172a.463.463,0,1,1,.209.05.464.464,0,0,1-.209-.05ZM15.468,27.7a.465.465,0,1,1,.4.231A.464.464,0,0,1,15.468,27.7ZM5.253,27.427a.463.463,0,1,1,.39.213A.463.463,0,0,1,5.253,27.427ZM17.08,26.77a.463.463,0,1,1,.4.232A.464.464,0,0,1,17.08,26.77Zm1.613-.934a.464.464,0,1,1,.4.231A.464.464,0,0,1,18.692,25.835Zm-13.541.032a.459.459,0,1,1,.025,0ZM20.3,24.9a.462.462,0,1,1,.4.232A.463.463,0,0,1,20.3,24.9Zm1.612-.934a.464.464,0,1,1,.635.169.471.471,0,0,1-.233.062A.464.464,0,0,1,21.917,23.965Zm-16.379.085a.464.464,0,1,1,.292.1A.459.459,0,0,1,5.538,24.051Zm1.387-1.216A.464.464,0,1,1,7.559,23a.459.459,0,0,1-.232.062.464.464,0,0,1-.4-.231ZM8.537,21.9a.464.464,0,1,1,.635.169.459.459,0,0,1-.232.062A.465.465,0,0,1,8.537,21.9Zm1.614-.933a.462.462,0,1,1,.4.232.464.464,0,0,1-.4-.232Zm1.613-.934a.464.464,0,1,1,.634.169.454.454,0,0,1-.231.063.465.465,0,0,1-.4-.232Zm1.614-.933a.462.462,0,1,1,.4.232A.463.463,0,0,1,13.377,19.1Zm1.613-.933a.465.465,0,1,1,.4.232.464.464,0,0,1-.4-.232Zm1.614-.933a.464.464,0,1,1,.4.232.464.464,0,0,1-.4-.232Zm1.613-.933a.464.464,0,1,1,.635.17.47.47,0,0,1-.232.062.465.465,0,0,1-.4-.232Zm1.614-.933a.464.464,0,1,1,.4.232.464.464,0,0,1-.4-.232Zm1.613-.933a.464.464,0,1,1,.634.169.456.456,0,0,1-.232.062.464.464,0,0,1-.4-.231Zm1.614-.933a.464.464,0,1,1,.634.169.464.464,0,0,1-.634-.169Zm1.631-.915a.463.463,0,0,1,.017-.655h0a.464.464,0,1,1-.017.656ZM7.094,12.129a.464.464,0,1,1,.4.232A.464.464,0,0,1,7.094,12.129ZM8.707,11.2a.464.464,0,1,1,.4.232.464.464,0,0,1-.4-.232Zm17.1-.087a.464.464,0,1,1,.083.007.519.519,0,0,1-.083-.007Zm-15.486-.845a.464.464,0,1,1,.634.17.464.464,0,0,1-.634-.17Zm1.614-.932a.464.464,0,1,1,.634.17.455.455,0,0,1-.231.062.466.466,0,0,1-.4-.232Zm13.3-.3a.464.464,0,1,1,.618.22.458.458,0,0,1-.2.045.463.463,0,0,1-.419-.264ZM13.55,8.4a.464.464,0,1,1,.4.232A.464.464,0,0,1,13.55,8.4Zm10.6-.492a.464.464,0,1,1,.232.062A.464.464,0,0,1,24.154,7.91Zm-8.99-.44a.462.462,0,1,1,.4.232A.464.464,0,0,1,15.163,7.47Zm7.4-.39a.464.464,0,0,1,.344-.861h0a.464.464,0,0,1-.173.894.47.47,0,0,1-.173-.033Zm-5.745-.471a.464.464,0,1,1,.585.3.483.483,0,0,1-.143.022A.465.465,0,0,1,16.816,6.609Zm4.054.013a.461.461,0,1,1,.07.006A.447.447,0,0,1,20.87,6.622ZM18.618,6.14a.464.464,0,1,1,.5.424l-.039,0A.465.465,0,0,1,18.618,6.14Z" fill="#7662bd"/>
      </g>
      <g id="Group_238" data-name="Group 238">
        <path id="Path_1226" data-name="Path 1226" d="M23.937,23.258a.464.464,0,1,1,.328-.136A.471.471,0,0,1,23.937,23.258Z" fill="#7662bd"/>
      </g>
    </g>
    <ellipse id="Ellipse_131" data-name="Ellipse 131" cx="3.086" cy="1.746" rx="3.086" ry="1.746" transform="matrix(0.993, -0.121, 0.121, 0.993, 2.594, 11.6)" fill="#7662bd"/>
    <g id="Group_240" data-name="Group 240">
      <path id="Path_1227" data-name="Path 1227" d="M8.575,2.417l.32-1.326L7.539.308a2.22,2.22,0,0,0-2.531.2A8.373,8.373,0,0,0,1.73,6.832a3.859,3.859,0,0,0,.618,2.419h0l2.194,2.8a.423.423,0,0,0,.134.114l1.36.785L7.322,7.615,7.987,6h0a8.134,8.134,0,0,0,.62-2.982,5.6,5.6,0,0,0-.032-.6Z" fill="url(#linear-gradient)"/>
      <path id="Path_1228" data-name="Path 1228" d="M9.947,3.785c0-2.6-1.627-3.76-3.6-2.5A8.373,8.373,0,0,0,3.071,7.6a3.859,3.859,0,0,0,.618,2.419h0l2.194,2.8c.308.394.945.026,1.253-.723L9.328,6.768h0a8.135,8.135,0,0,0,.62-2.982Z" fill="url(#linear-gradient-2)"/>
      <path id="Path_1229" data-name="Path 1229" d="M9.019,3.152,8.007,2.57h0a1.493,1.493,0,0,0-1.472.142A5.522,5.522,0,0,0,4.229,7.118a2.035,2.035,0,0,0,.805,1.868h0l.924.534Z" fill="url(#linear-gradient-3)"/>
      <ellipse id="Ellipse_132" data-name="Ellipse 132" cx="3.54" cy="2.003" rx="3.54" ry="2.003" transform="translate(4.255 8.808) rotate(-66.922)" fill="#e9e5f6"/>
    </g>
    <ellipse id="Ellipse_133" data-name="Ellipse 133" cx="3.086" cy="1.746" rx="3.086" ry="1.746" transform="matrix(0.993, -0.121, 0.121, 0.993, 20.606, 21.637)" fill="#7662bd"/>
    <g id="Group_241" data-name="Group 241">
      <path id="Path_1230" data-name="Path 1230" d="M26.581,12.451l.32-1.326-1.355-.782a2.22,2.22,0,0,0-2.531.2,8.373,8.373,0,0,0-3.278,6.323,3.859,3.859,0,0,0,.618,2.419h0l2.194,2.8a.423.423,0,0,0,.133.114l1.36.785,1.288-5.341.666-1.62h0a8.134,8.134,0,0,0,.62-2.982,5.6,5.6,0,0,0-.032-.6Z" fill="url(#linear-gradient)"/>
      <path id="Path_1231" data-name="Path 1231" d="M27.953,13.819c0-2.6-1.627-3.76-3.6-2.5a8.373,8.373,0,0,0-3.278,6.323,3.859,3.859,0,0,0,.618,2.419h0l2.194,2.8c.308.394.945.026,1.253-.723L27.334,16.8h0A8.137,8.137,0,0,0,27.953,13.819Z" fill="url(#linear-gradient-5)"/>
      <path id="Path_1232" data-name="Path 1232" d="M27.025,13.186,26.013,12.6h0a1.493,1.493,0,0,0-1.472.142,5.522,5.522,0,0,0-2.306,4.406,2.035,2.035,0,0,0,.805,1.868h0l.924.534Z" fill="url(#linear-gradient-3)"/>
      <ellipse id="Ellipse_134" data-name="Ellipse 134" cx="3.54" cy="2.003" rx="3.54" ry="2.003" transform="translate(22.268 18.849) rotate(-66.922)" fill="#e9e5f6"/>
    </g>
  </g>
</svg>
