<svg id="birthday-cake" xmlns="http://www.w3.org/2000/svg" width="85.714" height="85.714" viewBox="0 0 85.714 85.714">
  <path id="Path_557" data-name="Path 557" d="M92.365,462a6.7,6.7,0,0,1-6.7,6.7H16.7A6.7,6.7,0,0,1,10,462Z" transform="translate(-8.326 -384.657)" fill="#0088b4"/>
  <path id="Path_558" data-name="Path 558" d="M56,319.8a3.894,3.894,0,0,0,5.441-.412,3.892,3.892,0,0,1,5.859,0,3.892,3.892,0,0,0,5.859,0,3.892,3.892,0,0,1,5.859,0,3.892,3.892,0,0,0,5.859,0,3.892,3.892,0,0,1,5.859,0,3.892,3.892,0,0,0,5.859,0,3.892,3.892,0,0,1,5.859,0,3.892,3.892,0,0,0,5.859,0,3.891,3.891,0,0,1,5.859,0,3.892,3.892,0,0,0,5.859,0,3.879,3.879,0,0,1,2.93-1.329v24.1H56Z" transform="translate(-46.625 -264.81)" fill="#ffe5cb"/>
  <path id="Path_559" data-name="Path 559" d="M122.964,279.348v3.693a3.879,3.879,0,0,0-2.93,1.329,3.892,3.892,0,0,1-5.859,0,3.891,3.891,0,0,0-5.859,0,3.892,3.892,0,0,1-5.859,0,3.892,3.892,0,0,0-5.859,0,3.892,3.892,0,0,1-5.859,0,3.892,3.892,0,0,0-5.859,0,3.892,3.892,0,0,1-5.859,0,3.892,3.892,0,0,0-5.859,0,3.892,3.892,0,0,1-5.859,0,3.892,3.892,0,0,0-5.859,0,3.894,3.894,0,0,1-5.441.412v-5.434A3.347,3.347,0,0,1,59.348,276h60.267A3.347,3.347,0,0,1,122.964,279.348Z" transform="translate(-46.625 -229.795)" fill="#03c6db"/>
  <path id="Path_560" data-name="Path 560" d="M162.875,211.106H116V198.058a3.879,3.879,0,0,1,2.93,1.329,3.892,3.892,0,0,0,5.859,0,3.892,3.892,0,0,1,5.859,0,3.892,3.892,0,0,0,5.859,0,3.892,3.892,0,0,1,5.859,0,3.892,3.892,0,0,0,5.859,0,3.892,3.892,0,0,1,5.859,0,3.892,3.892,0,0,0,5.859,0,3.879,3.879,0,0,1,2.93-1.329Z" transform="translate(-96.581 -164.901)" fill="#ffe5cb"/>
  <path id="Path_561" data-name="Path 561" d="M162.875,159.348v3.693a3.879,3.879,0,0,0-2.93,1.329,3.892,3.892,0,0,1-5.859,0,3.892,3.892,0,0,0-5.859,0,3.892,3.892,0,0,1-5.859,0,3.892,3.892,0,0,0-5.859,0,3.892,3.892,0,0,1-5.859,0,3.892,3.892,0,0,0-5.859,0,3.892,3.892,0,0,1-5.859,0,3.879,3.879,0,0,0-2.93-1.329v-3.693A3.347,3.347,0,0,1,119.348,156h40.178A3.347,3.347,0,0,1,162.875,159.348Z" transform="translate(-96.581 -129.884)" fill="#03c6db"/>
  <path id="Path_562" data-name="Path 562" d="M322.7,73.348V84.4H316V73.348a3.348,3.348,0,0,1,6.7,0Z" transform="translate(-263.099 -58.281)" fill="#03c6db"/>
  <path id="Path_563" data-name="Path 563" d="M321.767,13.629A5.523,5.523,0,0,1,322.7,16.7a3.348,3.348,0,0,1-6.7,0,5.524,5.524,0,0,1,.929-3.067L319.348,10Z" transform="translate(-263.099 -8.326)" fill="#fec652"/>
  <path id="Path_564" data-name="Path 564" d="M242.7,73.348V84.4H236V73.348a3.348,3.348,0,1,1,6.7,0Z" transform="translate(-196.491 -58.281)" fill="#03c6db"/>
  <path id="Path_565" data-name="Path 565" d="M241.767,13.629A5.523,5.523,0,0,1,242.7,16.7a3.348,3.348,0,1,1-6.7,0,5.523,5.523,0,0,1,.929-3.067L239.348,10Z" transform="translate(-196.491 -8.326)" fill="#fec652"/>
  <path id="Path_566" data-name="Path 566" d="M162.7,73.348V84.4H156V73.348a3.348,3.348,0,1,1,6.7,0Z" transform="translate(-129.884 -58.281)" fill="#03c6db"/>
  <path id="Path_567" data-name="Path 567" d="M161.767,13.629A5.523,5.523,0,0,1,162.7,16.7a3.348,3.348,0,1,1-6.7,0,5.523,5.523,0,0,1,.929-3.067L159.348,10Z" transform="translate(-129.884 -8.326)" fill="#fec652"/>
  <path id="Path_568" data-name="Path 568" d="M247.674,386a1.674,1.674,0,1,0,1.674,1.674A1.675,1.675,0,0,0,247.674,386Z" transform="translate(-204.817 -321.38)" fill="#0088b4"/>
  <path id="Path_569" data-name="Path 569" d="M8.37,85.714H77.343a8.373,8.373,0,0,0,8.37-8.37,1.674,1.674,0,0,0-1.674-1.674H78.013V49.553a5.028,5.028,0,0,0-5.022-5.022H67.968V29.464a5.028,5.028,0,0,0-5.022-5.022H61.272V15.067a5,5,0,0,0-1.283-3.348A5,5,0,0,0,61.272,8.37a7.171,7.171,0,0,0-1.21-4L57.643.746a1.674,1.674,0,0,0-2.786,0L52.438,4.374a7.172,7.172,0,0,0-1.211,4,5,5,0,0,0,1.283,3.348,5,5,0,0,0-1.283,3.348v9.375H47.879V15.067A5,5,0,0,0,46.6,11.719,5,5,0,0,0,47.879,8.37a7.171,7.171,0,0,0-1.21-4L44.25.746a1.674,1.674,0,0,0-2.786,0L39.046,4.374a7.172,7.172,0,0,0-1.211,4,5,5,0,0,0,1.283,3.348,5,5,0,0,0-1.283,3.348v9.375H34.486V15.067A5,5,0,0,0,33.2,11.719,5,5,0,0,0,34.486,8.37a7.171,7.171,0,0,0-1.21-4L30.857.746a1.674,1.674,0,0,0-2.786,0L25.653,4.374a7.172,7.172,0,0,0-1.211,4,5,5,0,0,0,1.283,3.348,5,5,0,0,0-1.283,3.348v9.375H22.768a5.028,5.028,0,0,0-5.022,5.022V44.531H12.723A5.028,5.028,0,0,0,7.7,49.553V75.669H1.674A1.674,1.674,0,0,0,0,77.343,8.38,8.38,0,0,0,8.37,85.714ZM54.575,15.067a1.674,1.674,0,1,1,3.348,0v9.375H54.575Zm.648-8.835L56.25,4.693l1.027,1.541a3.836,3.836,0,0,1,.647,2.137,1.674,1.674,0,1,1-3.348,0A3.837,3.837,0,0,1,55.224,6.232ZM41.183,15.067a1.674,1.674,0,1,1,3.348,0v9.375H41.183Zm.648-8.835,1.026-1.539,1.027,1.541a3.836,3.836,0,0,1,.647,2.137,1.674,1.674,0,1,1-3.348,0A3.837,3.837,0,0,1,41.831,6.232ZM27.79,15.067a1.674,1.674,0,1,1,3.348,0v9.375H27.79Zm.648-8.835,1.026-1.539,1.027,1.541a3.835,3.835,0,0,1,.647,2.137,1.674,1.674,0,1,1-3.348,0A3.837,3.837,0,0,1,28.438,6.232ZM22.768,27.79H62.946a1.676,1.676,0,0,1,1.674,1.674v2.278A5.567,5.567,0,0,0,62.1,33.384a2.218,2.218,0,0,1-3.339,0,5.566,5.566,0,0,0-8.38,0,2.218,2.218,0,0,1-3.339,0,5.566,5.566,0,0,0-8.38,0,2.218,2.218,0,0,1-3.339,0,5.566,5.566,0,0,0-8.38,0,2.218,2.218,0,0,1-3.339,0,5.564,5.564,0,0,0-2.515-1.641V29.464A1.676,1.676,0,0,1,22.768,27.79Zm-1.674,7.8a5.566,5.566,0,0,0,8.375-.005,2.218,2.218,0,0,1,3.339,0,5.566,5.566,0,0,0,8.38,0,2.218,2.218,0,0,1,3.339,0,5.566,5.566,0,0,0,8.38,0,2.218,2.218,0,0,1,3.339,0,5.566,5.566,0,0,0,8.375.005v8.937H21.094Zm-8.37,12.286H72.991a1.676,1.676,0,0,1,1.674,1.674v2.278a5.567,5.567,0,0,0-2.516,1.642,2.218,2.218,0,0,1-3.34,0,5.565,5.565,0,0,0-8.379,0,2.218,2.218,0,0,1-3.339,0,5.566,5.566,0,0,0-8.38,0,2.218,2.218,0,0,1-3.339,0,5.566,5.566,0,0,0-8.38,0,2.218,2.218,0,0,1-3.339,0,5.566,5.566,0,0,0-8.38,0,2.218,2.218,0,0,1-3.339,0,5.566,5.566,0,0,0-8.379,0,2.23,2.23,0,0,1-2.507.593V49.553A1.676,1.676,0,0,1,12.723,47.879ZM11.049,67.968H36.16a1.674,1.674,0,0,0,0-3.348H11.049V57.509a5.585,5.585,0,0,0,5.027-1.832,2.218,2.218,0,0,1,3.339,0,5.566,5.566,0,0,0,8.38,0,2.218,2.218,0,0,1,3.339,0,5.566,5.566,0,0,0,8.38,0,2.218,2.218,0,0,1,3.339,0,5.566,5.566,0,0,0,8.38,0,2.218,2.218,0,0,1,3.339,0,5.567,5.567,0,0,0,8.379,0,2.19,2.19,0,0,1,1.381-.741,2.221,2.221,0,0,1,1.959.739,5.566,5.566,0,0,0,8.375.005V64.62H49.553a1.674,1.674,0,0,0,0,3.348H74.665v7.7H11.049ZM82.081,79.017a5.036,5.036,0,0,1-4.737,3.348H8.37a5.031,5.031,0,0,1-4.736-3.348Z" opacity="0"/>
</svg>
