<svg xmlns="http://www.w3.org/2000/svg" width="124.556" height="85.21" viewBox="0 0 124.556 85.21">
  <g id="mortarboard" transform="translate(-0.001 -78.834)">
    <path id="Path_533" data-name="Path 533" d="M109.005,251.619l1.175,2.426s18.629,15.127,34.585,15.127,34.669-15.127,34.669-15.127l1.089-2.426h0a171.587,171.587,0,0,1-5.533-20.461l-3.409-1.917H117.448l-2.91,1.917A171.6,171.6,0,0,1,109,251.619Z" transform="translate(-82.487 -114.806)" fill="#05a8b9"/>
    <path id="Path_534" data-name="Path 534" d="M124.827,230.065l1.25-.823h-8.629l-2.91,1.917A171.6,171.6,0,0,1,109,251.619h0l1.175,2.426a85.954,85.954,0,0,0,7.314,5.157C120.1,250.5,122.759,240.467,124.827,230.065Z" transform="translate(-82.487 -114.461)" fill="#0088b4"/>
    <path id="Path_535" data-name="Path 535" d="M123.354,98.936,65.391,79.347a9.723,9.723,0,0,0-6.225,0L1.2,98.936A1.767,1.767,0,0,0,.993,102.2L58.018,130a9.721,9.721,0,0,0,8.52,0l57.025-27.8a1.767,1.767,0,0,0-.209-3.263Z" transform="translate(0 -0.001)" fill="#03c6db"/>
    <path id="Path_536" data-name="Path 536" d="M18.537,102.2a1.767,1.767,0,0,1,.209-3.263l52.3-17.677L65.39,79.346a9.719,9.719,0,0,0-6.225,0L1.2,98.936A1.767,1.767,0,0,0,.993,102.2L58.018,130a9.721,9.721,0,0,0,8.52,0l4.512-2.2Z" transform="translate(0)" fill="#0088b4"/>
    <g id="Group_63" data-name="Group 63" transform="translate(63.343 94.267)">
      <path id="Path_537" data-name="Path 537" d="M307.545,197.67a1.88,1.88,0,0,1-1.88-1.88V161.029a1.963,1.963,0,0,0-1.466-1.9l-42.421-11.185a1.88,1.88,0,0,1,.958-3.635l42.417,11.184a5.722,5.722,0,0,1,4.271,5.534V195.79A1.88,1.88,0,0,1,307.545,197.67Z" transform="translate(-260.378 -144.248)" fill="#ecf4ff"/>
    </g>
    <path id="Path_538" data-name="Path 538" d="M444.874,373.3h-6.581l-.783,12.172a1.728,1.728,0,0,0,1.7,1.863h4.755a1.728,1.728,0,0,0,1.7-1.863Z" transform="translate(-331.073 -223.816)" fill="#ffd064"/>
    <path id="Path_539" data-name="Path 539" d="M441.793,385.467l.783-12.172h-4.283l-.783,12.172a1.728,1.728,0,0,0,1.7,1.863h4.283A1.728,1.728,0,0,1,441.793,385.467Z" transform="translate(-331.073 -223.816)" fill="#ebb044"/>
    <path id="Path_540" data-name="Path 540" d="M442.467,337.336h-3.046a2.768,2.768,0,0,0-2.759,2.76v5.478a.9.9,0,0,0,.9.9h6.761a.9.9,0,0,0,.9-.9V340.1A2.768,2.768,0,0,0,442.467,337.336Z" transform="translate(-330.433 -196.423)" fill="#ffe07d"/>
    <path id="Path_541" data-name="Path 541" d="M441.505,345.572v-5.478a2.768,2.768,0,0,1,1.86-2.605,2.73,2.73,0,0,0-.9-.155H439.42a2.768,2.768,0,0,0-2.76,2.76v5.478a.9.9,0,0,0,.9.9h4.845A.9.9,0,0,1,441.505,345.572Z" transform="translate(-330.432 -196.422)" fill="#ffd064"/>
    <path id="Path_542" data-name="Path 542" d="M237.022,130.443a6.226,6.226,0,0,0-6.613,6.214v.032a2.936,2.936,0,0,0,2.956,2.883H239.9a2.94,2.94,0,0,0,2.948-3.219A6.257,6.257,0,0,0,237.022,130.443Z" transform="translate(-174.356 -39.045)" fill="#05acbe"/>
    <path id="Path_543" data-name="Path 543" d="M236.049,136.689v-.032a6.224,6.224,0,0,1,3.395-5.544,6.114,6.114,0,0,0-2.42-.669,6.226,6.226,0,0,0-6.613,6.214v.032a2.936,2.936,0,0,0,2.956,2.883H239A2.936,2.936,0,0,1,236.049,136.689Z" transform="translate(-174.357 -39.045)" fill="#0088b4"/>
    <path id="Path_544" data-name="Path 544" d="M174.218,321.231c-6.533,5.369-17.155,11.379-28.631,15.077a23.365,23.365,0,0,1-14.255,0c-11.45-3.69-22.069-9.686-28.631-15.077-.628,1.876-1.206,3.508-1.687,4.825a5.571,5.571,0,0,0,1.779,6.293,93.264,93.264,0,0,0,28.539,15,23.368,23.368,0,0,0,14.255,0,93.264,93.264,0,0,0,28.539-15,5.571,5.571,0,0,0,1.779-6.293c-.481-1.317-1.059-2.949-1.687-4.825Z" transform="translate(-76.181 -184.418)" fill="#ffe07d"/>
    <path id="Path_545" data-name="Path 545" d="M111.612,327.39a72.708,72.708,0,0,1-8.913-6.16c-.628,1.876-1.206,3.509-1.687,4.825a5.571,5.571,0,0,0,1.779,6.293c1.979,1.555,3.978,2.977,5.967,4.276C109.686,333.753,110.648,330.658,111.612,327.39Z" transform="translate(-76.18 -184.417)" fill="#ffd064"/>
  </g>
</svg>
