<svg xmlns="http://www.w3.org/2000/svg" xmlns:xlink="http://www.w3.org/1999/xlink" width="85.596" height="85.714" viewBox="0 0 85.596 85.714">
  <defs>
    <linearGradient id="linear-gradient" x1="0.085" y1="1.113" x2="1.067" y2="0.07" gradientUnits="objectBoundingBox">
      <stop offset="0" stop-color="#fff"/>
      <stop offset="1" stop-color="#e8efee"/>
    </linearGradient>
    <linearGradient id="linear-gradient-2" x1="0.936" y1="-8.083" x2="-0.054" y2="-9.223" gradientUnits="objectBoundingBox">
      <stop offset="0" stop-color="#c2cece" stop-opacity="0"/>
      <stop offset="0.179" stop-color="#afbcbc" stop-opacity="0.18"/>
      <stop offset="1" stop-color="#5b6a6a"/>
    </linearGradient>
    <linearGradient id="linear-gradient-3" x1="0.771" y1="0.781" x2="-0.083" y2="1.568" xlink:href="#linear-gradient-2"/>
    <linearGradient id="linear-gradient-4" x1="0.463" y1="0.122" x2="0.463" y2="-0.454" gradientUnits="objectBoundingBox">
      <stop offset="0" stop-color="#ffc200"/>
      <stop offset="0.268" stop-color="#fb0"/>
      <stop offset="0.659" stop-color="#ffa801"/>
      <stop offset="1" stop-color="#ff9102"/>
    </linearGradient>
    <linearGradient id="linear-gradient-5" x1="0.462" y1="-0.977" x2="0.462" y2="-1.276" xlink:href="#linear-gradient-4"/>
    <linearGradient id="linear-gradient-6" x1="0.223" y1="0.976" x2="-0.501" y2="1.746" xlink:href="#linear-gradient-2"/>
  </defs>
  <g id="email" transform="translate(-0.351)">
    <path id="Path_1111" data-name="Path 1111" d="M40.932,2.554.351,35.345v6.111h85.6V35.345L45.366,2.554A3.528,3.528,0,0,0,40.932,2.554Z" transform="translate(0 -1.474)" fill="#ff9102"/>
    <path id="Path_1112" data-name="Path 1112" d="M96.435,73.873H24.948a3.527,3.527,0,0,1-3.527-3.527V3.527A3.527,3.527,0,0,1,24.948,0H96.435a3.527,3.527,0,0,1,3.527,3.527V70.346A3.527,3.527,0,0,1,96.435,73.873Z" transform="translate(-17.543)" fill="url(#linear-gradient)"/>
    <path id="Path_1113" data-name="Path 1113" d="M99.963,408.463v1.373a4.121,4.121,0,0,1-4.119,4.119h-70.3a4.121,4.121,0,0,1-4.119-4.119v-1.373Z" transform="translate(-17.544 -340.082)" fill="url(#linear-gradient-2)"/>
    <g id="Group_162" data-name="Group 162" transform="translate(20.456 11.17)">
      <rect id="Rectangle_161" data-name="Rectangle 161" width="45.385" height="2.587" fill="#c2cece"/>
      <rect id="Rectangle_162" data-name="Rectangle 162" width="45.385" height="2.587" transform="translate(0 10.346)" fill="#c2cece"/>
      <rect id="Rectangle_163" data-name="Rectangle 163" width="45.385" height="2.587" transform="translate(0 20.928)" fill="#c2cece"/>
      <rect id="Rectangle_164" data-name="Rectangle 164" width="45.385" height="2.587" transform="translate(0 31.51)" fill="#c2cece"/>
    </g>
    <path id="Path_1114" data-name="Path 1114" d="M374.388,183.71a14.4,14.4,0,0,1-9.25-3.347l-.979.172L385.323,201.7V178.707A14.425,14.425,0,0,1,374.388,183.71Z" transform="translate(-302.903 -148.79)" fill="url(#linear-gradient-3)"/>
    <path id="Path_1115" data-name="Path 1115" d="M85.947,202.791v48.237a3.529,3.529,0,0,1-3.527,3.527H3.878a3.529,3.529,0,0,1-3.527-3.527V202.791l43.268,34.128Z" transform="translate(0 -168.842)" fill="url(#linear-gradient-4)"/>
    <path id="Path_1116" data-name="Path 1116" d="M89.509,338.633,49.871,306.673a3.527,3.527,0,0,0-4.428,0L5.2,339.12A3.52,3.52,0,0,0,7.916,340.4H86.458A3.523,3.523,0,0,0,89.509,338.633Z" transform="translate(-4.038 -254.683)" fill="url(#linear-gradient-5)"/>
    <circle id="Ellipse_106" data-name="Ellipse 106" cx="14.462" cy="14.462" r="14.462" transform="translate(57.023 7.172)" fill="#03c6db"/>
    <path id="Path_1117" data-name="Path 1117" d="M405.781,74.165a1.292,1.292,0,0,1,.568-1.11l2.815-2.707a.994.994,0,0,1,.731-.3,1.571,1.571,0,0,1,.88.257.79.79,0,0,1,.393.69V88.917a.778.778,0,0,1-.433.69,1.923,1.923,0,0,1-1,.257,1.9,1.9,0,0,1-1.015-.257.779.779,0,0,1-.42-.69V73.867l-.947,1.191a.828.828,0,0,1-.6.271.85.85,0,0,1-.69-.365A1.274,1.274,0,0,1,405.781,74.165Z" transform="translate(-337.557 -58.324)" fill="#fff"/>
    <path id="Path_1118" data-name="Path 1118" d="M22.521,71.445V4.627A3.527,3.527,0,0,1,26.048,1.1H97.535a3.506,3.506,0,0,1,1.881.547A3.522,3.522,0,0,0,96.435,0H24.948a3.527,3.527,0,0,0-3.527,3.527V70.346a3.522,3.522,0,0,0,1.647,2.981A3.507,3.507,0,0,1,22.521,71.445Z" transform="translate(-17.543)" fill="url(#linear-gradient-6)"/>
  </g>
</svg>
