<svg xmlns="http://www.w3.org/2000/svg" width="30.164" height="20.362" viewBox="0 0 30.164 20.362">
  <path id="Icon_zocial-email" data-name="Icon zocial-email" d="M.072,22.626V5.871q0-.029.087-.553l9.861,8.435L.188,23.208a2.465,2.465,0,0,1-.116-.582ZM1.381,4.155a1.254,1.254,0,0,1,.494-.087H28.433a1.647,1.647,0,0,1,.524.087l-9.89,8.465-1.309,1.047L15.169,15.79,12.58,13.667,11.271,12.62ZM1.41,24.342l9.919-9.512,3.84,3.112,3.84-3.112,9.919,9.512a1.4,1.4,0,0,1-.494.087H1.875a1.317,1.317,0,0,1-.465-.087ZM20.317,13.754l9.832-8.435a1.736,1.736,0,0,1,.087.553V22.626a2.23,2.23,0,0,1-.087.582Z" transform="translate(-0.072 -4.068)" fill="#fff"/>
</svg>
