<svg xmlns="http://www.w3.org/2000/svg" width="24.609" height="30" viewBox="0 0 24.609 30">
  <g id="ethnicity" transform="translate(-2.695)">
    <path id="Path_1246" data-name="Path 1246" d="M25.029,12.07l2.213-5.533a.879.879,0,0,0-.816-1.205H15.293a.879.879,0,0,0-.879.879v7.91H12.363a.879.879,0,0,0-.879.879v2.93a.879.879,0,0,0,.879.879H26.426a.879.879,0,0,0,.816-1.205Z" fill="#fc495c"/>
    <path id="Path_1247" data-name="Path 1247" d="M12.363,18.809a.879.879,0,0,1-.879-.879V15a.879.879,0,0,1,.879-.879h2.93a.879.879,0,0,1,.621,1.5l-2.93,2.93A.878.878,0,0,1,12.363,18.809Z" fill="#d12657"/>
    <path id="Path_1248" data-name="Path 1248" d="M15.293,2.4H3.574a.879.879,0,0,0-.879.879V15a.879.879,0,0,0,.879.879H15.293A.879.879,0,0,0,16.172,15V3.281A.879.879,0,0,0,15.293,2.4Z" fill="#fd6b82"/>
    <path id="Path_1249" data-name="Path 1249" d="M3.574,30a.879.879,0,0,1-.879-.879V.879a.879.879,0,0,1,1.758,0V29.121A.879.879,0,0,1,3.574,30Z" fill="#a4b0be"/>
  </g>
</svg>
