<svg xmlns="http://www.w3.org/2000/svg" width="93.323" height="89.839" viewBox="0 0 93.323 89.839">
  <g id="Group_609" data-name="Group 609" transform="translate(410.672 -103.674)">
    <path id="Path_2321" data-name="Path 2321" d="M-354.42,131.6a5.634,5.634,0,0,1,5.315-1.053c1.048-3.043,3.442-5.095,7.762-3.918a5.256,5.256,0,0,1,3.666-3.826,5.058,5.058,0,0,1,5.4,1.535q4.3,4.662,8.5,9.414a19.7,19.7,0,0,1,4.677,9.809c.261,1.458.992,2.826,1.312,4.279,1.475,6.693-.791,12.093-5.862,16.472a17.639,17.639,0,0,1-10.363,4.16,2.138,2.138,0,0,1-.939,0,5.551,5.551,0,0,1-1.03-.727c.335-.257.639-.672,1.01-.745,1.7-.333,3.466-.385,5.109-.876,5.428-1.622,12.134-7.926,10.927-16.27a56.083,56.083,0,0,1-2.393,5.93,19.134,19.134,0,0,1-22.262,9.18c-3.512-1.043-7.06-1.969-10.835-3.016,0,.885.036,1.613-.006,2.338a4.207,4.207,0,0,1-4.484,4.329c-4.19.04-8.381.018-12.571.021-3.155,0-6.31,0-9.6,0,0,1.791-.071,3.481.015,5.162a10.706,10.706,0,0,1-2.565,7.778c-1.78,2.1-3.274,4.544-5.37,6.253a13.2,13.2,0,0,1-18.075-1.67,2.742,2.742,0,0,0-.786-.654,10.609,10.609,0,0,0,5.686,5.6,12.155,12.155,0,0,0,8.462.354c.412-.126,1.1-.219,1.3,0,.55.612.148,1.043-.54,1.28a13.142,13.142,0,0,1-15.133-4.528,13.34,13.34,0,0,1-2.47-9.619c.636-5.524,1.146-11.062,1.711-16.595a9.894,9.894,0,0,1,2.289-5.487c4.323-5.14,8.632-10.293,13-15.391a4.944,4.944,0,0,0,1.335-3.489c-.055-9.726.029-19.452-.062-29.177a4.6,4.6,0,0,1,4.8-4.779c9.448.1,18.9.026,28.346.033,3.027,0,4.7,1.634,4.719,4.681.031,7,.01,13.993.01,20.989Zm-3.091.776a2.324,2.324,0,0,0,.146-.472q-.008-11.683-.031-23.367c0-1.478-.43-1.879-1.946-1.88q-14-.011-27.994,0c-1.545,0-1.96.451-1.961,1.992q0,17.555-.007,35.11c0,.659,0,1.319,0,1.951l3.462-.593v-.588q.006-16.369.012-32.738c0-1.734.028-1.763,1.809-1.765,1.937,0,3.875.007,5.812.007q7.888,0,15.775,0c1.5,0,1.58.1,1.577,1.646,0,1.186-.022,2.372-.023,3.558,0,1.067.067,2.139-.015,3.2-.024.313-.456.6-.7.891-.247-.3-.6-.559-.712-.9a4.5,4.5,0,0,1-.029-1.3v-5.506h-22.045c0,2.2,0,4.329,0,6.455q-.009,13.107-.022,26.215a2.928,2.928,0,0,0,.858,2.417,3.959,3.959,0,0,1,.826,4.7c-.375.868-.879,1.679-1.292,2.532a12.006,12.006,0,0,0-.444,1.3h13.83c.6,0,1.345-.079,1.285.76-.018.255-.806.642-1.246.649q-5.574.089-11.149.046c-3.874-.023-3.877-.048-5.6,3.408a9.978,9.978,0,0,0-.816,5.525c.3.015.5.034.69.034,8.9,0,17.792-.016,26.687.021,3.678.015,3.346-.309,3.423-3.56.018-.747-.245-1.022-.938-1.195-2.142-.532-4.312-1.007-6.385-1.745a5.062,5.062,0,0,1-3.12-6.253,5.238,5.238,0,0,1,6.179-3.692c1.368.278,2.745.51,4.1.759a2.645,2.645,0,0,0-.755-2.8c-2.506-2.688-4.94-5.443-7.4-8.173-1.931-2.142-3.931-4.228-5.771-6.446a5.132,5.132,0,0,1,.217-6.745,5.129,5.129,0,0,1,6.478-.982,12.6,12.6,0,0,1,2.422,2.219C-360.717,128.781-359.164,130.544-357.511,132.374Zm18.818,30.465c7.634-.562,12.658-3.586,15.357-9.716,2.79-6.338,1.711-12.286-2.814-17.526-2.606-3.018-5.344-5.921-8.01-8.888-.762-.849-1.591-1.425-2.791-.984a2.27,2.27,0,0,0-1.462,2.551,2.061,2.061,0,0,1-1.131,2.052,2.159,2.159,0,0,1-2.433-.285c-.158-.117-.295-.266-.458-.374a2.194,2.194,0,0,0-2.653.058,1.908,1.908,0,0,0-.84,2.365c.352.991.349,1.92-.631,2.508a2.073,2.073,0,0,1-2.663-.516,3,3,0,0,0-1.768-.762,2.18,2.18,0,0,0-1.909,3.221,6.013,6.013,0,0,0,.613.863,1.8,1.8,0,0,1-.147,2.553,1.794,1.794,0,0,1-2.527-.279q-5.18-5.7-10.328-11.428c-1.1-1.217-2.528-1.461-3.526-.594s-.96,2.3.127,3.565c.129.15.267.291.4.437q8.059,8.927,16.121,17.852a2.417,2.417,0,0,1,.595,3,2.438,2.438,0,0,1-2.943,1.148c-2.478-.477-4.953-.969-7.431-1.451-1.845-.359-3.207.729-3.006,2.431a2.328,2.328,0,0,0,2.019,2.02c5.87,1.549,11.727,3.148,17.6,4.67C-342.828,161.979-340.286,162.48-338.694,162.838Zm-53.561-18.5a3.432,3.432,0,0,0-.46.335c-3.842,4.564-7.727,9.094-11.483,13.728a7.708,7.708,0,0,0-1.564,3.5c-.6,3.857-1.01,7.746-1.418,11.63a27.051,27.051,0,0,0-.224,5.176,10.291,10.291,0,0,0,7.665,8.573,10.415,10.415,0,0,0,10.813-3.624c1.18-1.583,2.383-3.15,3.527-4.759a4.266,4.266,0,0,0,.949-1.877c.224-2.766.3-5.544.425-8.3h-3.912a4.986,4.986,0,0,0-.034.564q.044.65.114,1.3a9.941,9.941,0,0,1-2.794,8.246c-1.194,1.254-2.585,2.321-3.889,3.47a1.426,1.426,0,0,1-2.2,0,1.379,1.379,0,0,1,.194-2.175c1.057-.952,2.1-1.915,3.174-2.853a6.864,6.864,0,0,0,2.546-5.618c-.062-1.656-.2-3.311-.343-4.963a14.691,14.691,0,0,1,1.794-9.128c1.355-2.27,2.507-4.661,3.756-6.995.43-.8.437-1.554-.395-2.06a1.428,1.428,0,0,0-2.065.491c-.14.191-.275.387-.414.579q-5.1,7.065-10.195,14.127c-.231.319-.442.8-.752.884a2.863,2.863,0,0,1-1.816.081,1.221,1.221,0,0,1-.431-1.838,9.267,9.267,0,0,1,.525-.79q4.181-5.821,8.355-11.647a2.549,2.549,0,0,0,.524-1.261C-392.216,147.605-392.254,146.07-392.254,144.339Z" transform="translate(0 0)" fill="#ed1e79"/>
    <path id="Path_2322" data-name="Path 2322" d="M-268.437,180.03a8.738,8.738,0,0,0,5.532,7.776c.535.207,1.2.381.881,1.07-.123.262-.951.418-1.35.289A9.658,9.658,0,0,1-269.7,179.7c.426-4.812,3.663-8.493,8.029-9.132a9.646,9.646,0,0,1,10.441,5.441c.24.518.847,1.207-.014,1.631s-1-.431-1.281-.972a7.965,7.965,0,0,0-7.353-4.735,7.677,7.677,0,0,0-7.282,4.221A21.407,21.407,0,0,0-268.437,180.03Z" transform="translate(-107.498 -50.932)" fill="#ed1e79"/>
    <path id="Path_2323" data-name="Path 2323" d="M-262.441,334.412a2.947,2.947,0,0,1,2.832,2.926,2.988,2.988,0,0,1-2.931,2.84,2.888,2.888,0,0,1-2.8-2.942A2.832,2.832,0,0,1-262.441,334.412Zm1.307,2.866c-.059-.772-.412-1.313-1.3-1.331a1.212,1.212,0,0,0-1.408,1.243,1.227,1.227,0,0,0,1.333,1.441C-261.646,338.644-261.217,338.154-261.134,337.278Z" transform="translate(-110.851 -175.989)" fill="#ed1e79"/>
  </g>
</svg>
