<svg xmlns="http://www.w3.org/2000/svg" width="60.339" height="102.78" viewBox="0 0 60.339 102.78">
  <g id="Group_615" data-name="Group 615" transform="translate(-4521.169 51.144)">
    <path id="Path_2363" data-name="Path 2363" d="M4581.507.345q0,22.024,0,44.049a6.957,6.957,0,0,1-5.652,7.12,8.622,8.622,0,0,1-1.626.116q-22.89.009-45.78,0a6.929,6.929,0,0,1-7.273-7.244q-.007-44.145,0-88.29a6.929,6.929,0,0,1,7.278-7.239q22.89-.008,45.78,0a6.935,6.935,0,0,1,7.275,7.34Q4581.512-21.728,4581.507.345Zm-2.272,37.184V-37h-55.812V37.528ZM4523.352,39.8c0,1.428,0,2.8,0,4.169,0,3.664,1.836,5.516,5.48,5.516q22.506,0,45.012,0c.353,0,.707.009,1.058-.016a4.519,4.519,0,0,0,4.254-3.685,52.8,52.8,0,0,0,.048-5.985Zm55.973-79.1c0-1.428,0-2.8,0-4.169,0-3.666-1.836-5.516-5.48-5.516q-22.505,0-45.011,0c-.353,0-.707-.009-1.058.016a4.517,4.517,0,0,0-4.255,3.684,52.814,52.814,0,0,0-.049,5.986Z" fill="#f3c"/>
    <path id="Path_2364" data-name="Path 2364" d="M4570.928,134.409a25.511,25.511,0,1,1,25.482-25.539A25.532,25.532,0,0,1,4570.928,134.409Zm-.007-2.187a23.323,23.323,0,1,0-23.345-23.35A23.277,23.277,0,0,0,4570.921,132.222Z" transform="translate(-19.561 -108.652)" fill="#f3c"/>
    <path id="Path_2365" data-name="Path 2365" d="M4656.156,441.011c1.28,0,2.56,0,3.84,0,.74,0,1.288.275,1.288,1.083s-.551,1.072-1.292,1.071q-3.936-.01-7.872,0c-.743,0-1.292-.262-1.289-1.075s.553-1.082,1.292-1.08C4653.469,441.014,4654.813,441.011,4656.156,441.011Z" transform="translate(-104.719 -397.479)" fill="#f3c"/>
    <path id="Path_2366" data-name="Path 2366" d="M4636.232-18.07c-2.815,0-5.63-.009-8.445.006-.79,0-1.432-.167-1.509-1.08-.057-.685.507-1.076,1.495-1.076,5.63,0,11.26,0,16.89-.008.787,0,1.49.152,1.493,1.071s-.686,1.1-1.479,1.093C4641.862-18.079,4639.047-18.07,4636.232-18.07Z" transform="translate(-84.886 -24.969)" fill="#f3c"/>
    <path id="Path_2367" data-name="Path 2367" d="M4630.868,182.382a3.2,3.2,0,0,1,3.017.785c.146.137.522.107.768.05a3.2,3.2,0,0,1,3.118.759,1.22,1.22,0,0,0,.9.218c1.7-.262,3.161.642,3.2,2.332a50.971,50.971,0,0,1-.262,8.233,8.546,8.546,0,0,1-6.776,7.022c-4.235.716-7.87-.789-9.931-4.076-1.717-2.739-3.473-5.453-5.2-8.189a2.749,2.749,0,0,1,1.241-4.219,2.535,2.535,0,0,1,3.045.7,6.02,6.02,0,0,0,1.263,1.225q0-.891,0-1.783c0-2.466-.016-4.933.012-7.4a2.612,2.612,0,0,1,1.9-2.786,2.668,2.668,0,0,1,3.687,2.654C4630.912,179.378,4630.868,180.848,4630.868,182.382Zm-3.455,1.646q0,2.74,0,5.479c0,.672-.093,1.32-.853,1.546a1.56,1.56,0,0,1-1.844-.656c-.7-.955-1.433-1.891-2.21-2.784-.164-.188-.581-.156-.881-.225a6.593,6.593,0,0,0-.113.926c0,.137.154.273.24.408,1.7,2.677,3.369,5.372,5.106,8.024a6.8,6.8,0,0,0,6.46,3.018,6.043,6.043,0,0,0,5.593-3.731,12.129,12.129,0,0,0,.827-3.9,42.1,42.1,0,0,0,.014-4.611,5.688,5.688,0,0,0-.264-1.154,4.933,4.933,0,0,0-1.156.492c-.883.678-1.664.436-1.947-.608-.1-.353-.4-.924-.6-.918a3.278,3.278,0,0,0-1.212.542c-.422.218-.93.713-1.23.607-.388-.137-.606-.751-.9-1.16q-.3-.423-.6-.847c-.243.249-.656.473-.7.752-.136.9-.567,1.344-1.476,1.23s-.96-.788-.958-1.505c.008-2.179.032-4.359-.025-6.536-.01-.376-.352-1.029-.6-1.058-.738-.084-.68.584-.681,1.091C4627.408,180.311,4627.412,182.169,4627.413,184.028Z" transform="translate(-79.156 -182.719)" fill="#f3c"/>
    <path id="Path_2368" data-name="Path 2368" d="M4628.39,123.551A7.139,7.139,0,0,0,4621,126.46c-.76,1.068-1.268,1.311-1.883.9-.64-.431-.614-1.15.156-2.178a9.387,9.387,0,0,1,8.85-3.953c.276.024.553.038.949.065-.386-.825-.719-1.546-1.06-2.263-.3-.637-.262-1.22.4-1.565.72-.375,1.229-.021,1.55.645q1.126,2.334,2.233,4.677a1.1,1.1,0,0,1-.62,1.642q-2.338,1.117-4.674,2.238a1.083,1.083,0,1,1-.925-1.945C4626.718,124.357,4627.464,124,4628.39,123.551Z" transform="translate(-78.737 -136.049)" fill="#f3c"/>
  </g>
</svg>
