<svg xmlns="http://www.w3.org/2000/svg" width="96.445" height="96.203" viewBox="0 0 96.445 96.203">
  <g id="Group_610" data-name="Group 610" transform="translate(-451.194 237.109)">
    <path id="Path_2324" data-name="Path 2324" d="M539.529-108.14A38.432,38.432,0,0,0,565.61-118.9a38.354,38.354,0,0,0,11.843-21.881,38.188,38.188,0,0,0-3.426-24.242,39.011,39.011,0,0,0-25.88-20.97c-1.387-.369-2.824-.551-4.236-.826a1.668,1.668,0,0,1-1.5-1.84,1.61,1.61,0,0,1,1.942-1.427,58.653,58.653,0,0,1,5.863,1.206,41.819,41.819,0,0,1,19.8,12.15,40.668,40.668,0,0,1,10.67,21.38c2.476,15.237-1.807,28.362-13,39.065a40.388,40.388,0,0,1-21.765,10.819,41.987,41.987,0,0,1-32.1-7.213,41.891,41.891,0,0,1-14.984-18.881,41.164,41.164,0,0,1-2.937-11.95,42.006,42.006,0,0,1,6.9-27.75,42.261,42.261,0,0,1,26.235-18.188c1.127-.267,2.277-.448,3.422-.626a2.584,2.584,0,0,1,1.121.061,1.6,1.6,0,0,1,1.113,1.667,1.617,1.617,0,0,1-1.4,1.5,40.416,40.416,0,0,0-8.757,2.233,39.377,39.377,0,0,0-21.461,19.545,37.489,37.489,0,0,0-3.943,14.674,38.7,38.7,0,0,0,5.995,23.8A39.273,39.273,0,0,0,526.1-110.134,41.655,41.655,0,0,0,539.529-108.14Z" transform="translate(-39.165 -41.343)" fill="teal"/>
    <path id="Path_2325" data-name="Path 2325" d="M605.81,21.967c0,2.818-.075,5.542.02,8.261a4,4,0,0,1-6.032,3.524q-8.463-4.91-16.947-9.784-5.613-3.241-11.222-6.489a3.966,3.966,0,0,1-.007-7.1Q585.651,2.27,599.688-5.826a3.965,3.965,0,0,1,6.045,2.494,3.683,3.683,0,0,1,.074.832c.005,2.764,0,5.528,0,8.391.515-.287.978-.539,1.435-.8,6.307-3.641,12.631-7.252,18.91-10.94A4.057,4.057,0,0,1,632.306-2.3c-.076,8.373-.022,16.747-.027,25.121,0,2.561-.051,5.122-.029,7.682a3.946,3.946,0,0,1-5.969,3.263q-4.881-2.83-9.771-5.644L606.218,22.18C606.116,22.122,606.01,22.072,605.81,21.967ZM602.5,9.636q0-5.829,0-11.658a2.634,2.634,0,0,0-.045-.6.6.6,0,0,0-.868-.427,6.3,6.3,0,0,0-.579.314Q596.252.012,591.5,2.757q-9.1,5.252-18.189,10.509c-.69.4-.706.915-.029,1.308q6.022,3.492,12.054,6.968,5.817,3.364,11.632,6.733,2.233,1.292,4.472,2.573c.547.312.986.074,1.062-.557a3.488,3.488,0,0,0,.009-.42q0-4.619,0-9.238Q602.5,15.134,602.5,9.636Zm26.45,4.335h0q0-7.963,0-15.927a4.772,4.772,0,0,0-.014-.48c-.067-.655-.459-.875-1.03-.55-1.423.809-2.836,1.637-4.253,2.455Q614.926,4.514,606.2,9.57a.822.822,0,0,0-.373.576q-.038,3.786,0,7.573a.775.775,0,0,0,.325.548c.78.488,1.586.934,2.383,1.394q9.565,5.524,19.13,11.046c.9.52,1.291.295,1.3-.753.005-1.321,0-2.641,0-3.962Q628.952,19.981,628.953,13.971Z" transform="translate(-104.022 -202.932)" fill="teal"/>
    <path id="Path_2326" data-name="Path 2326" d="M1099.273-117.052A47.738,47.738,0,0,1,1093-93.313a48.1,48.1,0,0,1-12.109,14.07,1.519,1.519,0,0,1-1.649.387A1.327,1.327,0,0,1,1078.4-80a1.425,1.425,0,0,1,.636-1.337,45.534,45.534,0,0,0,7.4-7.269,44.6,44.6,0,0,0,9.1-19.16,44.864,44.864,0,0,0,.827-12.835,44.847,44.847,0,0,0-7.723-21.986,46.012,46.012,0,0,0-9.625-10.244,1.39,1.39,0,0,1-.575-1.521,1.162,1.162,0,0,1,1.124-1,2.521,2.521,0,0,1,1.4.518,46.618,46.618,0,0,1,7.335,7.163A47.22,47.22,0,0,1,1098.6-125c.429,2.617.558,5.284.824,7.927Z" transform="translate(-551.788 -71.932)" fill="teal"/>
    <path id="Path_2327" data-name="Path 2327" d="M451.194-65.831A49.066,49.066,0,0,1,455.935-86.5a48.119,48.119,0,0,1,6.286-9.9,1.557,1.557,0,0,1,1.24-.732,1.316,1.316,0,0,1,1.241.694,1.237,1.237,0,0,1-.061,1.413c-.893,1.206-1.824,2.386-2.675,3.62a44.258,44.258,0,0,0-7.084,16.977,45.1,45.1,0,0,0-.566,13.39,44.7,44.7,0,0,0,2.031,9.474,46.085,46.085,0,0,0,8.032,14.507,2.3,2.3,0,0,1,.474.88,1.294,1.294,0,0,1-.772,1.475,1.308,1.308,0,0,1-1.667-.4c-1.335-1.8-2.7-3.58-3.928-5.452a38.262,38.262,0,0,1-3.828-7.594,46.72,46.72,0,0,1-3.01-11.944C451.467-62,451.344-63.916,451.194-65.831Z" transform="translate(0 -123.155)" fill="teal"/>
    <path id="Path_2328" data-name="Path 2328" d="M670.625-231.767a1.383,1.383,0,0,1-1.982,1.275c-1.286-.494-2.556-1.035-3.858-1.481a44.29,44.29,0,0,0-10.061-2.136,44.829,44.829,0,0,0-10.245.165,44.589,44.589,0,0,0-17.578,6.172c-.615.374-1.214.774-1.822,1.16a1.359,1.359,0,0,1-2.034-.366,1.383,1.383,0,0,1,.525-1.965,47.7,47.7,0,0,1,17.85-7.323,47.961,47.961,0,0,1,12.791-.69,47.508,47.508,0,0,1,15.449,3.873A1.424,1.424,0,0,1,670.625-231.767Z" transform="translate(-150.994 0)" fill="teal"/>
    <path id="Path_2329" data-name="Path 2329" d="M650.136,484.121a53.993,53.993,0,0,1-9.076-.937,46.5,46.5,0,0,1-17.383-7.193,2.192,2.192,0,0,1-.776-1.124,1.16,1.16,0,0,1,.616-1.32,1.356,1.356,0,0,1,1.527.036c1.313.8,2.6,1.652,3.956,2.384A44.032,44.032,0,0,0,644.9,481a45.02,45.02,0,0,0,23.528-3.389,1.514,1.514,0,0,1,1.737.108,1.15,1.15,0,0,1,.421,1.339,1.915,1.915,0,0,1-.839.991,45.131,45.131,0,0,1-10.267,3.219A49.133,49.133,0,0,1,650.136,484.121Z" transform="translate(-151.025 -625.027)" fill="teal"/>
  </g>
</svg>
