<svg xmlns="http://www.w3.org/2000/svg" width="89.746" height="101.685" viewBox="0 0 89.746 101.685">
  <g id="Group_614" data-name="Group 614" transform="translate(-4591.856 -108.729)">
    <path id="Path_2352" data-name="Path 2352" d="M4686.249,240.17v5.909l-19.624-11.191.031-.6,19.543-11.142c.064,1.313.123,2.183.144,3.053.021.9,0,1.794,0,2.815a30.907,30.907,0,0,0,10.738-1.827,33.584,33.584,0,0,0,22.757-31.092c.216-14.557-6.514-25.1-19.37-31.829a8.465,8.465,0,0,1-1.509-1.319,6.667,6.667,0,0,1,2.1.234A35.2,35.2,0,0,1,4720.65,201c-2.957,16.479-16.844,28.833-33.293,29.325-2.242.067-2.242.067-2.248-2.206,0-.833,0-1.666,0-2.874l-16.407,9.347,16.407,9.36c0-1.379.075-2.443-.018-3.492-.126-1.413.407-1.836,1.831-1.867a42.7,42.7,0,0,0,28.147-11.128,44.174,44.174,0,0,0,8.7-10.7,5.681,5.681,0,0,1,1.358-1.171,5.069,5.069,0,0,1-.294,1.788q-12.557,20.725-36.743,22.517c-.4.029-.8.027-1.2.054A4.4,4.4,0,0,0,4686.249,240.17Z" transform="translate(-49.186 -35.665)" fill="#009245"/>
    <path id="Path_2353" data-name="Path 2353" d="M4648.062,129.218c5.108-2.906,10.05-5.715,14.989-8.532.337-.193.641-.443,1.094-.76l-16.293-9.293c0,1.4-.048,2.509.014,3.61.06,1.068-.283,1.481-1.432,1.537q-24.529,1.192-37.113,22.313c-.23.387-.8.573-1.212.852.041-.5-.081-1.089.147-1.476,8.146-13.788,20.163-21.518,36.166-22.822,1.757-.143,2.438-.587,2.213-2.36a25.573,25.573,0,0,1-.024-3.192l.479-.366,19.75,11.259-20.083,11.461v-6.38a80.585,80.585,0,0,0-8.84,1.669c-11.285,3.466-18.862,10.867-22.824,22-5.255,14.77,1.429,33.687,17.741,41.383a2.02,2.02,0,0,1,.612.292c.34.357.625.765.932,1.153a4.22,4.22,0,0,1-1.5-.035c-13.167-5.568-22-20.357-20.678-34.769,1.767-19.274,16.184-30.469,30.24-32.337.113-.015.224-.046.336-.063,4.82-.728,4.819-.728,5.091,4.073A6.187,6.187,0,0,0,4648.062,129.218Z" transform="translate(-10.691 0)" fill="#009245"/>
    <path id="Path_2354" data-name="Path 2354" d="M4709.047,199.959a25.947,25.947,0,0,1-4.169,12.522c-2.819,4.449-6.132,8.593-9.342,12.783-1.306,1.706-1.74,1.619-3.192.011-4.715-5.22-8.943-10.777-11.536-17.4-1.686-4.3-2.721-8.7-1.255-13.326a15.128,15.128,0,0,1,16.461-10.434C4703.627,185.3,4709.06,191.55,4709.047,199.959ZM4694.2,225.427c2.993-4.09,5.874-7.834,8.539-11.724a30.771,30.771,0,0,0,4.761-11.76,13.834,13.834,0,1,0-27.063.074C4682.261,211.217,4687.778,218.25,4694.2,225.427Z" transform="translate(-57.229 -49.486)" fill="#009245"/>
    <path id="Path_2355" data-name="Path 2355" d="M4691.317,299.006c.634-.27,1.327-.862,1.89-.757,3.011.56,6,1.266,8.972,1.993a6.165,6.165,0,0,1,1.813.933c2.558,1.682,2.69,4.074.006,5.473a26.669,26.669,0,0,1-7.365,2.515,47.65,47.65,0,0,1-21.667-.758,15.227,15.227,0,0,1-4.447-2.075c-1.99-1.362-1.964-3.373.023-4.772a13.122,13.122,0,0,1,3.964-1.913,56.88,56.88,0,0,1,7.023-1.382,5.775,5.775,0,0,1,2.127.578l-.136.461c-1.384.43-2.789.8-4.139,1.321-.478.183-.818.72-1.223,1.1.421.419.772,1.049,1.277,1.217a15.278,15.278,0,0,0,4.6,1.139,89.007,89.007,0,0,0,10.161-.642c.927-.107,1.758-1.056,2.634-1.618a19,19,0,0,0-2.565-1.691,15.967,15.967,0,0,0-2.791-.742C4691.426,299.257,4691.372,299.132,4691.317,299.006Zm-13.993.893a57.537,57.537,0,0,0-5.668,2.427c-1.742.976-1.715,2.191-.042,3.249a13.044,13.044,0,0,0,3.249,1.471,45.01,45.01,0,0,0,19.973,1.1,36.886,36.886,0,0,0,8.428-2.546c1.9-.8,1.859-2.291.047-3.293a56.555,56.555,0,0,0-5.672-2.387c.811,2.424.476,3.454-1.551,4.2a23.916,23.916,0,0,1-17.2-.021C4676.879,303.349,4676.563,302.363,4677.324,299.9Z" transform="translate(-50.774 -124.667)" fill="#009245"/>
    <path id="Path_2356" data-name="Path 2356" d="M4841.8,264.976a11.26,11.26,0,0,1,.336-1.7,43.369,43.369,0,0,0,2.518-17.767.91.91,0,0,1-.009-.339c.155-.434.331-.859.5-1.287.268.418.744.822.773,1.256a44.223,44.223,0,0,1-2.691,18.786,8.066,8.066,0,0,1-.788,1.3Z" transform="translate(-164.427 -88.909)" fill="#009245"/>
    <path id="Path_2357" data-name="Path 2357" d="M4595.806,208.121a4.573,4.573,0,0,1-.02,1.463,45.033,45.033,0,0,0-2.563,18.313c.027.442-.361.909-.556,1.364-.24-.386-.667-.759-.7-1.16a45.656,45.656,0,0,1,2.713-19.124,4.667,4.667,0,0,1,.628-.931Z" transform="translate(0 -65.336)" fill="#009245"/>
    <path id="Path_2358" data-name="Path 2358" d="M4842.286,206.9c.361.412.613.585.7.819.434,1.162.854,2.332,1.206,3.521.074.245-.166.582-.26.877-.281-.107-.74-.145-.813-.334-.491-1.26-.933-2.543-1.307-3.842C4841.745,207.7,4842.065,207.356,4842.286,206.9Z" transform="translate(-164.426 -64.579)" fill="#009245"/>
    <path id="Path_2359" data-name="Path 2359" d="M4597.746,290.9c.354.383.616.548.7.778.427,1.161.834,2.332,1.181,3.519.071.243-.148.571-.233.859-.281-.1-.738-.139-.813-.326-.5-1.251-.954-2.524-1.333-3.817C4597.179,291.686,4597.523,291.333,4597.746,290.9Z" transform="translate(-3.54 -119.842)" fill="#009245"/>
    <path id="Path_2360" data-name="Path 2360" d="M4704.142,240.892c-1.924-.369-3.945-.654-5.907-1.164-1.568-.408-2.537-2.637-2.238-4.9a8.241,8.241,0,0,1,3.683-6.077,2.492,2.492,0,0,1,2.126-.118,6.4,6.4,0,0,0,6.8-.036,2.239,2.239,0,0,1,1.986.069,8.34,8.34,0,0,1,3.813,8.066,3.558,3.558,0,0,1-3.227,3.262C4708.905,240.419,4706.584,240.592,4704.142,240.892Zm1.123-1.073c1.763-.273,3.835-.592,5.906-.913a2.483,2.483,0,0,0,2.191-2.627,7.22,7.22,0,0,0-3.055-6.511,1.638,1.638,0,0,0-1.45-.074,7.3,7.3,0,0,1-7.341-.016,1.51,1.51,0,0,0-1.315.005,7.446,7.446,0,0,0-3.264,6.255,2.932,2.932,0,0,0,2.575,3.133C4701.3,239.382,4703.12,239.547,4705.265,239.819Z" transform="translate(-68.473 -78.721)" fill="#009245"/>
    <path id="Path_2361" data-name="Path 2361" d="M4712.689,208.6a5.349,5.349,0,1,1,5.4-5.416A5.374,5.374,0,0,1,4712.689,208.6Zm.016-9.641a4.291,4.291,0,1,0,4.31,4.377A4.3,4.3,0,0,0,4712.7,198.956Z" transform="translate(-75.958 -58.66)" fill="#009245"/>
  </g>
</svg>
