<svg xmlns="http://www.w3.org/2000/svg" width="53.621" height="94.846" viewBox="0 0 53.621 94.846">
  <g id="Group_611" data-name="Group 611" transform="translate(-2534.251 522.747)">
    <path id="Path_2330" data-name="Path 2330" d="M2575.64-457.427c-.541,1.2-1.067,2.395-1.607,3.578a1.843,1.843,0,0,1-1.858,1.16c-.572-.013-1.145,0-1.755,0-.046.845-.076,1.67-.135,2.493a40.7,40.7,0,0,1-3.986,15.833,19.643,19.643,0,0,1-3.452,4.922,5.237,5.237,0,0,1-.769.671,1.845,1.845,0,0,1-2.3-.19,16.6,16.6,0,0,1-3.2-4.021,30.22,30.22,0,0,1-3.019-7.067,41.779,41.779,0,0,1-1.513-7.767c-.144-1.48-.224-2.965-.333-4.448-.01-.131-.018-.262-.029-.426-.61,0-1.193-.007-1.775,0a1.834,1.834,0,0,1-1.831-1.145c-.542-1.184-1.067-2.375-1.615-3.594-.05.047-.128.11-.195.184a15.666,15.666,0,0,0-4.146,10.174,2.023,2.023,0,0,1-.721,1.644,1.873,1.873,0,0,1-2.712-.4,17.352,17.352,0,0,1-3.029-5.843c-2.182-7.7-.439-14.416,5.2-20.094a22.766,22.766,0,0,1,2.328-1.884.682.682,0,0,0,.326-.588c.052-2.061.058-4.126.211-6.179.188-2.5.467-5,.776-7.489a68.367,68.367,0,0,1,1.755-8.841,61.294,61.294,0,0,1,7.19-17.151,37.237,37.237,0,0,1,5.883-7.4q.2-.189.408-.367a1.874,1.874,0,0,1,2.645.018,31.31,31.31,0,0,1,4.507,5.13,52.122,52.122,0,0,1,6.655,12.6c.8,2.178,1.5,4.4,2.14,6.632a62.267,62.267,0,0,1,1.914,9.4c.31,2.5.59,5.012.777,7.526.151,2.027.151,4.066.2,6.1a.648.648,0,0,0,.319.589,19.055,19.055,0,0,1,8.15,12.733,18.908,18.908,0,0,1-3.648,15.113,1.859,1.859,0,0,1-3.206-.246,1.868,1.868,0,0,1-.19-.77,16.545,16.545,0,0,0-2-7.448A17.519,17.519,0,0,0,2575.64-457.427Zm-23.868-44.184c-.033.082-.083.192-.123.3a63.212,63.212,0,0,0-2.825,10.528q-.658,3.832-1.093,7.7c-.218,1.912-.308,3.841-.388,5.765a51.223,51.223,0,0,0,.329,9.42,42.149,42.149,0,0,0,3.179,11.127.466.466,0,0,0,.5.336c3.012-.012,6.023-.007,9.035-.007,3.453,0,6.906,0,10.358.008a.456.456,0,0,0,.508-.336c.414-1.079.88-2.14,1.264-3.229a40.018,40.018,0,0,0,2.292-12.528,89.34,89.34,0,0,0-.924-14.84,73.9,73.9,0,0,0-3.02-12.85c-.164-.487-.342-.97-.5-1.423C2564.14-497.761,2557.971-497.8,2551.772-501.611Zm14.879,48.939H2555.48c0,.115,0,.209,0,.3a46.6,46.6,0,0,0,1.129,9.195,27.759,27.759,0,0,0,3.071,8.085c.409.683.869,1.335,1.339,2.054.253-.351.459-.621.648-.9a27.086,27.086,0,0,0,3.642-8.556,45.265,45.265,0,0,0,1.225-7.892C2566.591-451.136,2566.613-451.89,2566.651-452.672Zm2.24-52.658a45.346,45.346,0,0,0-7.821-12.356,45.346,45.346,0,0,0-7.8,12.382A12.3,12.3,0,0,0,2568.891-505.33Zm13.949,52.6a15.591,15.591,0,0,0-.7-11.484,15.288,15.288,0,0,0-3.766-5.09,46.588,46.588,0,0,1-1.387,7.646.519.519,0,0,0,.156.422,18.871,18.871,0,0,1,4.125,5.171C2581.852-454.977,2582.325-453.832,2582.84-452.729ZM2543.715-469.3a15.774,15.774,0,0,0-4.688,7.7c-.771,2.865-.609,7.519.3,8.908a.229.229,0,0,0,.043-.055,19.38,19.38,0,0,1,5.568-8.447.492.492,0,0,0,.177-.558q-.589-2.727-1.122-5.466C2543.866-467.881,2543.813-468.559,2543.715-469.3Z" transform="translate(0 0)" fill="purple" stroke="rgba(0,0,0,0)" stroke-width="1"/>
    <path id="Path_2331" data-name="Path 2331" d="M2776.727-69.306a8.6,8.6,0,0,1,8.413-8.6,8.584,8.584,0,0,1,8.751,8.521,8.593,8.593,0,0,1-8.49,8.674A8.6,8.6,0,0,1,2776.727-69.306Zm3.749,0a4.838,4.838,0,0,0,4.833,4.838,4.848,4.848,0,0,0,4.837-4.874,4.861,4.861,0,0,0-4.837-4.8A4.847,4.847,0,0,0,2780.476-69.31Z" transform="translate(-224.253 -411.76)" fill="purple" stroke="rgba(0,0,0,0)" stroke-width="1"/>
  </g>
</svg>
