<svg xmlns="http://www.w3.org/2000/svg" width="111.322" height="90.579" viewBox="0 0 111.322 90.579">
  <g id="Group_613" data-name="Group 613" transform="translate(-3230.458 96.23)">
    <path id="Path_2345" data-name="Path 2345" d="M3297,49.78a7.787,7.787,0,0,1-2.97,11.782,7.735,7.735,0,0,1-4.482,12.481,7.438,7.438,0,0,1,1.481,4.415,7.527,7.527,0,0,1-7.453,7.652q-13.425.079-26.85-.022a6.249,6.249,0,0,1-2.5-.866,36.794,36.794,0,0,1-19.991-24.09c-.919-3.28-1.946-6.529-2.844-9.815a12.317,12.317,0,0,1,5.174-13.448c5.017-3.2,10.076-6.341,15.114-9.511q4.741-2.983,9.472-5.982a4.48,4.48,0,0,0,2.2-4.019,6.787,6.787,0,0,1,6.71-6.6,6.677,6.677,0,0,1,6.715,6.589A17.084,17.084,0,0,1,3269.1,32.9a29.179,29.179,0,0,0-2.715,2.023h.784q13.635,0,27.27,0a7.326,7.326,0,0,1,6.925,4.05,7.551,7.551,0,0,1-3.787,10.556C3297.39,49.619,3297.2,49.7,3297,49.78Zm-18.935-11.745v-.008h-.63q-8.161,0-16.322,0a1.546,1.546,0,0,1-1.63-1.091,1.571,1.571,0,0,1,.79-1.853c2.439-1.643,4.918-3.232,7.308-4.944a13.871,13.871,0,0,0,6.071-11.67,3.551,3.551,0,0,0-3.65-3.6,3.642,3.642,0,0,0-3.59,3.666,7.365,7.365,0,0,1-3.5,6.408c-2.828,1.82-5.705,3.565-8.554,5.355-5.1,3.2-10.151,6.487-15.3,9.6a9.7,9.7,0,0,0-4.435,11.524c.949,2.927,1.756,5.9,2.591,8.864a33.582,33.582,0,0,0,18.51,22.176,4.416,4.416,0,0,0,1.792.523c8.55.033,17.1.023,25.65.015a6.019,6.019,0,0,0,1.259-.131,4.459,4.459,0,0,0,3.467-3.97,4.045,4.045,0,0,0-2.478-4.2,9.613,9.613,0,0,0-3.227-.573c-3.768-.064-7.537-.017-11.306-.019-1.15,0-1.8-.615-1.759-1.644.033-.931.674-1.469,1.786-1.47,5.677,0,11.353,0,17.03-.012a6.056,6.056,0,0,0,1.594-.227,4.416,4.416,0,0,0,3.06-5.006,4.526,4.526,0,0,0-4.283-3.682c-4.875.072-9.751.032-14.626.027a1.539,1.539,0,0,1-1.635-1.564,1.557,1.557,0,0,1,1.655-1.545l6.075,0c3.767,0,7.534.01,11.3-.016a4.445,4.445,0,0,0,4.344-3.878,4.2,4.2,0,0,0-3.182-4.693,11.91,11.91,0,0,0-2.855-.288c-4.261-.03-8.523-.01-12.784-.02a1.549,1.549,0,0,1-1.617-1.521,1.594,1.594,0,0,1,1.631-1.588c.235-.008.471,0,.707,0q8.687,0,17.373,0a4.472,4.472,0,1,0-.093-8.944Q3286.333,38.024,3278.066,38.036Z" transform="translate(0 -92.291)" fill="#03c6db" stroke="rgba(0,0,0,0)" stroke-width="1"/>
    <path id="Path_2346" data-name="Path 2346" d="M3786,215.471c.886,2.72,1.782,5.393,2.617,8.084a4.866,4.866,0,0,1,.3,2.127,2.926,2.926,0,0,1-4.7,1.808c-2.26-1.653-4.53-3.292-6.776-4.963a.814.814,0,0,0-1.155-.01c-2.289,1.687-4.6,3.343-6.914,5a2.887,2.887,0,0,1-3.3.1,2.848,2.848,0,0,1-1.212-3.386c.855-2.686,1.727-5.368,2.635-8.037a.839.839,0,0,0-.37-1.151c-2.247-1.59-4.466-3.219-6.69-4.84a2.977,2.977,0,0,1,1.816-5.486c2.755,0,5.51-.02,8.265,0a.768.768,0,0,0,.893-.634c.8-2.556,1.7-5.081,2.457-7.648.781-2.639,3.2-3,4.6-2a3.4,3.4,0,0,1,1.169,1.516c.914,2.593,1.751,5.213,2.561,7.84.21.681.467.971,1.246.951,2.634-.065,5.27-.028,7.906-.036a2.986,2.986,0,0,1,2.989,1.6,2.842,2.842,0,0,1-.249,3.133,4.443,4.443,0,0,1-.926.854C3790.794,212.008,3788.428,213.714,3786,215.471Zm-17.956,9.042.125.087c.152-.105.306-.207.455-.316,2.127-1.553,4.245-3.117,6.382-4.656a2.865,2.865,0,0,1,3.6-.06c.354.233.7.482,1.039.731,1.959,1.42,3.917,2.841,6.005,4.356-.1-.367-.144-.588-.212-.8-.8-2.483-1.626-4.958-2.395-7.451a2.906,2.906,0,0,1,1.22-3.521q2.973-2.151,5.947-4.3c.286-.208.555-.44.981-.779h-.976c-2.566,0-5.132.007-7.7,0a2.854,2.854,0,0,1-2.989-2.191c-.541-1.677-1.078-3.356-1.626-5.031-.321-.981-.661-1.956-1.049-3.1-.148.382-.232.571-.3.768-.787,2.438-1.56,4.88-2.36,7.313a2.871,2.871,0,0,1-3.092,2.246c-2.591,0-5.181,0-7.772,0-.218,0-.437.022-.7.037.072.117.087.168.121.193q3.282,2.39,6.568,4.773a3.025,3.025,0,0,1,1.283,3.806c-.427,1.319-.868,2.635-1.3,3.954S3768.468,223.2,3768.046,224.513Z" transform="translate(-453.413 -248.707)" fill="#03c6db" stroke="rgba(0,0,0,0)" stroke-width="1"/>
    <path id="Path_2347" data-name="Path 2347" d="M3500.089-91.105c0,.988.012,1.977,0,2.965a1.559,1.559,0,0,1-1.55,1.658,1.561,1.561,0,0,1-1.566-1.646q-.029-3,0-6a1.587,1.587,0,0,1,1.551-1.6,1.606,1.606,0,0,1,1.563,1.66c0,.024,0,.047,0,.071v2.894Z" transform="translate(-228.386 0)" fill="#03c6db" stroke="rgba(0,0,0,0)" stroke-width="1"/>
    <path id="Path_2348" data-name="Path 2348" d="M3597.894,59.1c-.987,0-1.974.008-2.961,0a1.553,1.553,0,1,1-.054-3.1q3.031-.038,6.063.009a1.552,1.552,0,1,1-.087,3.1c-.987.011-1.974,0-2.961,0Z" transform="translate(-311.1 -130.265)" fill="#03c6db" stroke="rgba(0,0,0,0)" stroke-width="1"/>
    <path id="Path_2349" data-name="Path 2349" d="M3346.2,59.081c-.987,0-1.974.012-2.961,0a1.5,1.5,0,0,1-1.582-1.451,1.459,1.459,0,0,1,1.468-1.635c2.067-.046,4.135-.043,6.2-.008a1.55,1.55,0,1,1-.1,3.1C3348.216,59.093,3347.206,59.082,3346.2,59.081Z" transform="translate(-95.032 -130.246)" fill="#03c6db" stroke="rgba(0,0,0,0)" stroke-width="1"/>
    <path id="Path_2350" data-name="Path 2350" d="M3564.531-40.833a1.592,1.592,0,0,1-1.592-.921,1.453,1.453,0,0,1,.27-1.7q2.151-2.191,4.357-4.329a1.47,1.47,0,0,1,2.2.009,1.494,1.494,0,0,1-.061,2.2c-1.41,1.451-2.835,2.889-4.287,4.3A2.834,2.834,0,0,1,3564.531-40.833Z" transform="translate(-284.906 -40.748)" fill="#03c6db" stroke="rgba(0,0,0,0)" stroke-width="1"/>
    <path id="Path_2351" data-name="Path 2351" d="M3390.432-40.808a3.356,3.356,0,0,1-.888-.5c-1.417-1.375-2.8-2.781-4.187-4.191a1.55,1.55,0,0,1-.069-2.259,1.513,1.513,0,0,1,2.253.079c1.409,1.385,2.8,2.785,4.2,4.18a1.549,1.549,0,0,1,.33,1.819C3391.82-41.075,3391.31-40.819,3390.432-40.808Z" transform="translate(-132.11 -40.79)" fill="#03c6db" stroke="rgba(0,0,0,0)" stroke-width="1"/>
  </g>
</svg>
