<svg xmlns="http://www.w3.org/2000/svg" width="119" height="87.522" viewBox="0 0 119 87.522">
  <g id="Group_616" data-name="Group 616" transform="translate(-4617 7.607)">
    <path id="Path_2369" data-name="Path 2369" d="M4617,20.745c1.683-3.292,4.433-4.347,8.018-4.256,1.509.038,3.037-.855,4.563-1.3a32.983,32.983,0,0,1,4.529-1.265,188.884,188.884,0,0,0,52.4-15.5,7.022,7.022,0,0,0,2.731-2.559c1.937-3.035,6.962-4.3,12.335-2.905,3.176.823,4.566,2.9,4.57,7.068q.026,28.424,0,56.849c-.006,5.139-2.094,7.157-7.274,7.179-1.5.006-3.124.358-4.463-.108a21.592,21.592,0,0,1-5.017-2.91c-1.155-.807-1.963-2.318-3.2-2.771-10.707-3.928-21.474-7.691-32.229-11.484a16,16,0,0,0-2.191-.391c.62,2.3,1.167,4.38,1.738,6.449,1.848,6.691,3.688,13.384,5.57,20.066.426,1.514.385,3.34,2.535,3.837.365.085.847,1.307.661,1.737a2.46,2.46,0,0,1-1.691,1.371c-4.664.066-9.342.16-13.99-.154-2.637-.178-4.022-2.276-4.7-4.748-2.665-9.655-5.359-19.3-7.971-28.97a5.965,5.965,0,0,0-3.3-4.046,14.175,14.175,0,0,0-7.7-1.742c-2.916.024-4.547-1.866-5.916-4.106Zm71.609-18.9a5.056,5.056,0,0,0-.919.125,194.749,194.749,0,0,1-54.258,15.706c-2.035.272-2.828,1.3-2.784,3.37.1,4.846.132,9.7-.01,14.542-.069,2.383.97,3.315,3.167,3.6a172.444,172.444,0,0,1,33.839,7.911c6.959,2.389,13.8,5.119,20.947,7.789V52.053q0-17.717.007-35.434a6.658,6.658,0,0,1,.219-2.6,2.254,2.254,0,0,1,1.731-1.156c.551.033,1.278.8,1.516,1.4a6.727,6.727,0,0,1,.106,2.355q0,18.775,0,37.55c0,6.223,0,6.223,6.207,6.213,3.783-.006,4.177-.4,4.177-4.276q0-26.311,0-52.623c0-7.442,0-7.406-7.487-7.078-2,.088-2.9.983-2.9,2.924,0,2.292.119,4.595-.083,6.869-.063.71-1,1.343-1.534,2.012-.649-.663-1.682-1.237-1.861-2.008A20.236,20.236,0,0,1,4688.609,1.84Zm-51.7,41.359c2.995,10.779,5.81,21,8.719,31.19.2.711,1.071,1.708,1.683,1.747,2.893.185,5.8.083,8.872.083-2.787-10.095-5.435-19.727-8.128-29.346-.172-.615-.607-1.52-1.075-1.631C4643.773,44.489,4640.528,43.91,4636.908,43.2Zm-10.044-6.653V20.376c-.816-.045-1.5-.109-2.177-.116-3.6-.035-3.976.329-3.983,3.846-.006,3.073.077,6.149-.026,9.219-.082,2.413,1,3.384,3.321,3.231C4624.865,36.5,4625.738,36.546,4626.864,36.546Z" transform="translate(0 0)" fill="#5f4aef"/>
    <path id="Path_2370" data-name="Path 2370" d="M4821.129,59.632a11.168,11.168,0,0,1-3.105,1.01c-5.788.1-11.578.041-17.366.052-1.471,0-3.042,0-2.956-2.012.081-1.885,1.659-1.692,2.974-1.693,5.789,0,11.579-.053,17.366.046a11.048,11.048,0,0,1,3.087,1.01Z" transform="translate(-85.13 -30.425)" fill="#5f4aef"/>
    <path id="Path_2371" data-name="Path 2371" d="M4799.486,82.917c2.55,1.147,4.9,2.1,7.123,3.292a2.1,2.1,0,0,1,.338,2.034,2.438,2.438,0,0,1-2.091.9,36.144,36.144,0,0,1-6.011-2.581,2.566,2.566,0,0,1-.873-2.132C4798.03,83.885,4798.93,83.435,4799.486,82.917Z" transform="translate(-85.254 -42.647)" fill="#5f4aef"/>
    <path id="Path_2372" data-name="Path 2372" d="M4805.521,25.514c.528.459,1.358.84,1.517,1.408a2.216,2.216,0,0,1-.547,2,49.371,49.371,0,0,1-6.479,2.784,2.078,2.078,0,0,1-1.889-.78c-.21-.663,0-1.993.47-2.247C4800.728,27.512,4803.011,26.625,4805.521,25.514Z" transform="translate(-85.292 -15.604)" fill="#5f4aef"/>
    <path id="Path_2373" data-name="Path 2373" d="M4821.866,24.872l-1.859-2.638a31.953,31.953,0,0,1,3.91-2.468c.254-.12,1.1,1.023,1.676,1.582Z" transform="translate(-95.64 -12.892)" fill="#5f4aef"/>
    <path id="Path_2374" data-name="Path 2374" d="M4823.251,98.345l-3.215-3.7c.712-.5,1.717-1.583,2.084-1.4a21.189,21.189,0,0,1,3.474,2.64Z" transform="translate(-95.653 -47.503)" fill="#5f4aef"/>
  </g>
</svg>
