<svg xmlns="http://www.w3.org/2000/svg" width="85.381" height="114.83" viewBox="0 0 85.381 114.83">
  <g id="Group_612" data-name="Group 612" transform="translate(-2026.892 -172.327)">
    <path id="Path_2332" data-name="Path 2332" d="M2067.458,243.377c-1.5-.869-2.97-1.785-4.505-2.581a1,1,0,0,1-.651-1.2,39.889,39.889,0,0,0,.29-9.9,18.814,18.814,0,0,0-1.023-4.4c-.958-2.493-2.629-3.3-5.4-2.87-.011.221-.033.457-.036.694-.061,5.406-.061,10.814-.209,16.218a57.91,57.91,0,0,1-.7,6.061,29.514,29.514,0,0,0,.122,8.566,16.231,16.231,0,0,0,5.127,9.53,3.293,3.293,0,0,1,.233.234,1.027,1.027,0,0,1,.094.2l-6.338,7.944-2.016-1.61,4.823-6.072a46.635,46.635,0,0,1-2.526-4.009,23.635,23.635,0,0,1-2.3-12.362c.129-1.946.6-3.869.724-5.815.2-3.134.307-6.278.354-9.419.058-3.834.014-7.67.014-11.5v-.859l5.217-.641V217.23c-1.469.114-2.914.3-4.362.328-8.117.182-15.273-2.236-21.043-8.1a19.666,19.666,0,0,1-5.956-14.025,20.218,20.218,0,0,1,7.6-16.042,27.6,27.6,0,0,1,20.091-6.518,26.9,26.9,0,0,1,18.475,8.082,20.255,20.255,0,0,1,5.389,9.705c.149.64.4.827,1.041.824,5.461-.025,10.923,0,16.384-.02a8.1,8.1,0,0,1,8.1,8.017q0,3.642,0,7.285c0,.262-.022.524-.033.786l-.215.032c-.087-.388-.173-.777-.293-1.314-.492.409-.563.9-.159,1.23.793.647.708,1.471.707,2.318-.007,2.839,0,5.677,0,8.552a6.012,6.012,0,0,1,5.252,4.965,5.449,5.449,0,0,1-2.649,6.031c3.359,2.2,4.343,6.579,1.356,9.67a7.74,7.74,0,0,1,3.011,7.167c-1.324.166-2.156,1.3-2.98,1.159-.042-1.108.39-4.579-.5-5.428a2.8,2.8,0,0,0-3.411-.591c-2.269,1.188-4.522,2.413-6.722,3.723a2.977,2.977,0,0,0-.951,4.324,3.064,3.064,0,0,0,4.3,1.322c1.532-.809,3.039-1.664,4.749-2.6,7.832-3.064-.509,3.9.646,5.59-1.013-1-2.134-1.576-3.545-.823-.995.531-1.985,1.073-2.955,1.647a2.551,2.551,0,0,0-.97,3.7,2.592,2.592,0,0,0,3.617,1.226c.959-.479,1.894-1.011,2.825-1.543a2.6,2.6,0,0,0,1.12-3.841c.713.455-2.091-3.292-1.35-2.887.172.095,4.521-3.091,4.8-3.146.262,2.089-1.294,10.961-3.227,12.062a4.493,4.493,0,0,0-1.662,1.619,35.331,35.331,0,0,1-10.773,11.363,12.822,12.822,0,0,1-9.914,2.116,1.052,1.052,0,0,0-.8.354c-2.766,3.074-5.509,6.169-8.261,9.256-.493.553-1,1.093-1.518,1.656l-1.915-1.71,11.39-12.776c3.252,1.691,6.261.86,9.145-.776a28.89,28.89,0,0,0,7.462-6.69c-3.321,1.244-6.537.68-9.7.729-5.488.084-10.978.051-16.467,0-.927-.009-1.444.241-1.677,1.118a5.268,5.268,0,0,1-.317.721l-2.36-.986c.608-1.391,1.242-2.753,1.8-4.144a21.872,21.872,0,0,0,1.762-7.594,12.45,12.45,0,0,0-4.59-10.1c-.349-.307-.712-.6-1.068-.9,1.011-.456,1.4.638,2.156.887a7.9,7.9,0,0,0-.6-.936,4.024,4.024,0,0,1-.269-.882,4.4,4.4,0,0,1,.91.27,6.538,6.538,0,0,1,.869.665l.1-.139-.388-.844a14.761,14.761,0,0,1,5.365,9.491h19.862c-1.9-2.5-2.281-5.058-.468-7.755a6.28,6.28,0,0,1-3.4-4.078,5.649,5.649,0,0,1,1.021-5.157c-.181-.106-.3-.173-.416-.243a6.079,6.079,0,0,1-3.17-5.532,5.552,5.552,0,0,1,3.316-5.041c1.358-.73,2.684-1.524,4.058-2.222a1.227,1.227,0,0,0,.742-1.291c-.021-6.924-.014-13.849-.017-20.773,0-.265-.024-.53-.037-.795H2079.2a2.034,2.034,0,0,0-.1.254,21.67,21.67,0,0,1-6.7,11.352,1,1,0,0,0-.234.782c.62,3.859,1.244,7.717,1.92,11.565.3,1.723.722,3.426,1.1,5.184a15.645,15.645,0,0,1-8.921-4.032,4.109,4.109,0,0,0-.061.433c0,4.828-.01,9.656.02,14.484a1.257,1.257,0,0,0,.5.807c1.148.889,2.331,1.734,3.5,2.6-.3-.12-.59-.244-.888-.359-.188-.073-.494-.242-.555-.18C2068.318,242.34,2067.9,242.866,2067.458,243.377Zm4.3-18.752c-.061-.393-.1-.629-.135-.865-.734-4.455-1.479-8.908-2.176-13.368a1.447,1.447,0,0,1,.407-1.027c.7-.742,1.517-1.369,2.2-2.124,3.689-4.086,5.5-8.853,4.689-14.36-1.045-7.112-5.465-11.768-11.625-14.878a25.592,25.592,0,0,0-13.894-2.534,24.791,24.791,0,0,0-14.666,5.983,17.809,17.809,0,0,0-6.581,13.139,17.446,17.446,0,0,0,6.6,14.359c6.4,5.453,13.881,7.012,22.056,5.56,1.5-.266,2.96-.751,4.468-1.143C2064.572,218.149,2066.789,222.341,2071.76,224.626Zm4.174,29.888-1.911,8.211c-.034-.009.019.017.072.017q10.627,0,21.254-.017a10.329,10.329,0,0,0,1.894-.111,20.035,20.035,0,0,0,2.118-.649c-2.807-1.922-3.9-4.267-2.781-7.451Zm15.621-25.836c-.017,3.163,2.566,4.85,4.869,3.617,3.11-1.664,6.19-3.384,9.256-5.128a3.306,3.306,0,0,0-3.195-5.777c-3.127,1.691-6.231,3.425-9.328,5.172A2.864,2.864,0,0,0,2091.555,228.677ZM2079.5,196.413h20.22v23.554a10.167,10.167,0,0,1,1.464-.81.992.992,0,0,0,.709-1.19c-.047-.8-.012-1.6-.013-2.4V210.2a1.58,1.58,0,0,1,.342.047.988.988,0,0,0,1.378-.337,1.081,1.081,0,0,0-.18-1.434,13.614,13.614,0,0,1-1.028-1.074,2.215,2.215,0,0,1-.484-1.124c-.048-2.178-.024-4.357-.028-6.536a5.507,5.507,0,0,0-5.672-5.695q-7.943-.006-15.885,0c-.266,0-.531.025-.823.039Zm17.658,45.614a5.446,5.446,0,0,0,1.26-.333c2.611-1.413,5.231-2.814,7.79-4.318,1.56-.917,1.86-2.666.915-4.336a3.041,3.041,0,0,0-4.148-1.384c-.618.3-1.211.651-1.812.984-1.9,1.053-3.817,2.075-5.69,3.174a2.927,2.927,0,0,0-1.427,3.6A3.547,3.547,0,0,0,2097.16,242.027Zm-33.612-18.914a6.8,6.8,0,0,0-.047-2.333,41.262,41.262,0,0,0-2.1-4.059c0,1.393-.01,2.645.012,3.9a.87.87,0,0,0,.268.472C2062.283,221.761,2062.9,222.419,2063.548,223.113Zm-8.335,35.342.247-.221c-.241-.726-1.39-1.017-1.012-2.114-.259.283-.49.639-.393.8A14.807,14.807,0,0,0,2055.212,258.455Z" transform="translate(0)" fill="gold" stroke="rgba(0,0,0,0)" stroke-width="1"/>
    <path id="Path_2333" data-name="Path 2333" d="M2510.3,619.388c-.267-1.973,1.463-3.724,4.1-4.09-.321.778-.385,1.592-1.382,1.856a1.63,1.63,0,0,0-.8.78A3.3,3.3,0,0,1,2510.3,619.388Z" transform="translate(-402.925 -369.206)" fill="gold" stroke="rgba(0,0,0,0)" stroke-width="1"/>
    <path id="Path_2334" data-name="Path 2334" d="M2271.967,590.186l.388.844-.1.139a6.524,6.524,0,0,0-.869-.665,4.392,4.392,0,0,0-.91-.27,4.053,4.053,0,0,0,.269.882,7.867,7.867,0,0,1,.6.936c-.76-.249-1.144-1.343-2.155-.887l.028.027c.437-.511.86-1.037,1.33-1.516.061-.062.366.107.555.18.3.115.592.239.888.359Z" transform="translate(-201.768 -347.816)" fill="gold" stroke="rgba(0,0,0,0)" stroke-width="1"/>
    <path id="Path_2335" data-name="Path 2335" d="M2512.165,648.669a4.39,4.39,0,0,1-2.075-2.989A4.252,4.252,0,0,1,2512.165,648.669Z" transform="translate(-402.773 -394.557)" fill="gold" stroke="rgba(0,0,0,0)" stroke-width="1"/>
    <path id="Path_2336" data-name="Path 2336" d="M2189.455,678.19a14.869,14.869,0,0,1-1.159-1.533c-.1-.163.135-.52.394-.8-.378,1.1.771,1.389,1.012,2.114Z" transform="translate(-134.243 -419.735)" fill="gold" stroke="rgba(0,0,0,0)" stroke-width="1"/>
    <path id="Path_2337" data-name="Path 2337" d="M2177.3,295.061v-4.443h2.461v4.443Z" transform="translate(-125.088 -98.287)" fill="gold" stroke="rgba(0,0,0,0)" stroke-width="1"/>
    <path id="Path_2338" data-name="Path 2338" d="M2109.417,290.672h2.443v4.459h-2.443Z" transform="translate(-68.443 -98.332)" fill="gold" stroke="rgba(0,0,0,0)" stroke-width="1"/>
    <path id="Path_2339" data-name="Path 2339" d="M2245.24,290.681h2.467v3.5l-2.467-1.07Z" transform="translate(-181.777 -98.339)" fill="gold" stroke="rgba(0,0,0,0)" stroke-width="1"/>
    <path id="Path_2340" data-name="Path 2340" d="M2338.286,570.408v2.479H2324.1v-2.479Z" transform="translate(-247.58 -331.749)" fill="gold" stroke="rgba(0,0,0,0)" stroke-width="1"/>
    <path id="Path_2341" data-name="Path 2341" d="M2328.814,409.075v2.445h-14.253v-2.445Z" transform="translate(-239.62 -197.129)" fill="gold" stroke="rgba(0,0,0,0)" stroke-width="1"/>
    <path id="Path_2342" data-name="Path 2342" d="M2323.3,448.38v2.461h-8.617V448.38Z" transform="translate(-239.721 -229.926)" fill="gold" stroke="rgba(0,0,0,0)" stroke-width="1"/>
    <path id="Path_2343" data-name="Path 2343" d="M2358.355,609.474h8.5v2.506h-8.5Z" transform="translate(-276.162 -364.346)" fill="gold" stroke="rgba(0,0,0,0)" stroke-width="1"/>
    <path id="Path_2344" data-name="Path 2344" d="M2477.5,382.213a15.163,15.163,0,0,1,1.25,1.394.794.794,0,0,1-.022.738.785.785,0,0,1-.688.227.819.819,0,0,1-.516-.532A14.3,14.3,0,0,1,2477.5,382.213Z" transform="translate(-375.568 -174.715)" fill="gold" stroke="rgba(0,0,0,0)" stroke-width="1"/>
  </g>
</svg>
