<svg xmlns="http://www.w3.org/2000/svg" width="19.197" height="19.198" viewBox="0 0 19.197 19.198">
  <path id="Icon_ionic-ios-female" data-name="Icon ionic-ios-female" d="M4,22.58a.614.614,0,0,0,.443-.185l2.068-2.068,1.708,1.708a.622.622,0,0,0,.443.185.614.614,0,0,0,.443-.185.627.627,0,0,0,0-.886L7.4,19.441l2.308-2.308a7.8,7.8,0,1,0-.886-.886L6.515,18.555,4.807,16.847a.622.622,0,0,0-.443-.185.614.614,0,0,0-.443.185.627.627,0,0,0,0,.886l1.708,1.708L3.56,21.509A.628.628,0,0,0,4,22.58ZM10.138,6.553a6.547,6.547,0,1,1-1.916,4.63A6.516,6.516,0,0,1,10.138,6.553Z" transform="translate(-3.377 -3.382)" fill="#f3c"/>
</svg>
