<svg xmlns="http://www.w3.org/2000/svg" width="70.312" height="85.714" viewBox="0 0 70.312 85.714">
  <g id="flag" transform="translate(-46)">
    <path id="Path_529" data-name="Path 529" d="M234.7,110.252l6.323-15.808A2.511,2.511,0,0,0,238.689,91H206.882a2.511,2.511,0,0,0-2.511,2.511v22.6h-5.859A2.511,2.511,0,0,0,196,118.623v8.37a2.511,2.511,0,0,0,2.511,2.511h40.178a2.511,2.511,0,0,0,2.332-3.444Z" transform="translate(-124.889 -75.766)" fill="#0088b4"/>
    <path id="Path_530" data-name="Path 530" d="M198.511,254.393A2.511,2.511,0,0,1,196,251.882v-8.37A2.511,2.511,0,0,1,198.511,241h8.37a2.511,2.511,0,0,1,1.776,4.287l-8.37,8.37A2.51,2.51,0,0,1,198.511,254.393Z" transform="translate(-124.889 -200.654)" fill="#413e3f" opacity="0.33"/>
    <path id="Path_531" data-name="Path 531" d="M81.993,41H48.511A2.511,2.511,0,0,0,46,43.511V76.993A2.511,2.511,0,0,0,48.511,79.5H81.993A2.511,2.511,0,0,0,84.5,76.993V43.511A2.511,2.511,0,0,0,81.993,41Z" transform="translate(0 -34.136)" fill="#03c6db"/>
    <path id="Path_532" data-name="Path 532" d="M48.511,85.714A2.511,2.511,0,0,1,46,83.2V2.511a2.511,2.511,0,1,1,5.022,0V83.2A2.511,2.511,0,0,1,48.511,85.714Z" fill="#a4b0be"/>
  </g>
</svg>
