<svg xmlns="http://www.w3.org/2000/svg" width="27" height="27" viewBox="0 0 27 27">
  <g id="religion" transform="translate(0)">
    <path id="Path_1233" data-name="Path 1233" d="M13.5.527V5.59A7.883,7.883,0,0,0,7.908,7.907l-3.58-3.58A12.934,12.934,0,0,1,13.5.527Z" fill="#97e0cd"/>
    <path id="Path_1234" data-name="Path 1234" d="M17.456,9.545A3.955,3.955,0,0,1,13.5,13.5a3.955,3.955,0,0,0,0,7.91,7.91,7.91,0,1,1,0-15.82A3.955,3.955,0,0,1,17.456,9.545Z" fill="#fff"/>
    <circle id="Ellipse_135" data-name="Ellipse 135" cx="1.055" cy="1.055" r="1.055" transform="translate(12.446 8.49)" fill="#9ea5bf"/>
    <path id="Path_1235" data-name="Path 1235" d="M21.411,13.5a7.91,7.91,0,0,1-7.91,7.91,3.955,3.955,0,0,1,0-7.91,3.955,3.955,0,0,0,0-7.91A7.91,7.91,0,0,1,21.411,13.5Z" fill="#868eaf"/>
    <circle id="Ellipse_136" data-name="Ellipse 136" cx="1.055" cy="1.055" r="1.055" transform="translate(12.446 16.4)" fill="#fff"/>
    <path id="Path_1236" data-name="Path 1236" d="M22.674,4.327l-3.58,3.58A7.883,7.883,0,0,0,13.5,5.59V.527a12.934,12.934,0,0,1,9.173,3.8Z" fill="#ffd887"/>
    <path id="Path_1237" data-name="Path 1237" d="M26.473,13.5H21.411a7.883,7.883,0,0,0-2.317-5.593l3.58-3.58A12.934,12.934,0,0,1,26.473,13.5Z" fill="#98eaf9"/>
    <path id="Path_1238" data-name="Path 1238" d="M26.473,13.5a12.934,12.934,0,0,1-3.8,9.173l-3.58-3.58A7.883,7.883,0,0,0,21.411,13.5Z" fill="#ff5c7d"/>
    <path id="Path_1239" data-name="Path 1239" d="M22.674,22.673a12.934,12.934,0,0,1-9.173,3.8V21.41a7.883,7.883,0,0,0,5.593-2.317Z" fill="#97e0cd"/>
    <path id="Path_1240" data-name="Path 1240" d="M13.5,21.41v5.063a12.934,12.934,0,0,1-9.173-3.8l3.58-3.58A7.883,7.883,0,0,0,13.5,21.41Z" fill="#ffd887"/>
    <path id="Path_1241" data-name="Path 1241" d="M7.908,19.093l-3.58,3.58A12.934,12.934,0,0,1,.528,13.5H5.59A7.883,7.883,0,0,0,7.908,19.093Z" fill="#98eaf9"/>
    <path id="Path_1242" data-name="Path 1242" d="M7.908,7.907A7.883,7.883,0,0,0,5.59,13.5H.528a12.934,12.934,0,0,1,3.8-9.173Z" fill="#ff5c7d"/>
    <g id="Group_242" data-name="Group 242">
      <path id="Path_1243" data-name="Path 1243" d="M13.5,11.127a1.582,1.582,0,1,0-1.582-1.582A1.584,1.584,0,0,0,13.5,11.127Zm0-2.109a.527.527,0,1,1-.527.527A.528.528,0,0,1,13.5,9.018Z"/>
      <path id="Path_1244" data-name="Path 1244" d="M13.5,15.873a1.582,1.582,0,1,0,1.582,1.582A1.584,1.584,0,0,0,13.5,15.873Zm0,2.109a.527.527,0,1,1,.527-.527A.528.528,0,0,1,13.5,17.982Z"/>
      <path id="Path_1245" data-name="Path 1245" d="M26.669,10.515a.527.527,0,0,0-1.029.233,12.485,12.485,0,0,1,.293,2.225H21.921a8.4,8.4,0,0,0-2.1-5.051L22.666,5.08A12.547,12.547,0,0,1,23.852,6.59.527.527,0,1,0,24.729,6a13.445,13.445,0,1,0,1.94,4.512ZM13.5,20.883a3.428,3.428,0,1,1,0-6.855,4.479,4.479,0,0,0,3.8-6.854,7.381,7.381,0,0,1-3.8,13.71ZM9.7,19.826A7.382,7.382,0,0,1,13.5,6.117a3.428,3.428,0,0,1,0,6.855,4.481,4.481,0,0,0-3.8,6.854ZM21.92,4.335,19.079,7.176a8.4,8.4,0,0,0-5.051-2.1V1.066A12.424,12.424,0,0,1,21.92,4.335ZM12.973,1.066V5.079a8.4,8.4,0,0,0-5.051,2.1L5.081,4.335a12.349,12.349,0,0,1,7.892-3.269ZM4.335,5.081,7.176,7.921a8.4,8.4,0,0,0-2.1,5.051H1.066A12.35,12.35,0,0,1,4.335,5.081ZM1.066,14.027H5.08a8.4,8.4,0,0,0,2.1,5.051L4.335,21.919A12.35,12.35,0,0,1,1.066,14.027Zm4.015,8.638,2.841-2.841a8.4,8.4,0,0,0,5.051,2.1v4.013A12.351,12.351,0,0,1,5.081,22.665Zm8.947,3.268V21.921a8.4,8.4,0,0,0,5.051-2.1l2.84,2.84a12.35,12.35,0,0,1-7.891,3.269Zm8.637-4.015-2.84-2.84a8.4,8.4,0,0,0,2.1-5.051h4.012a12.35,12.35,0,0,1-3.268,7.891Z"/>
      <circle id="Ellipse_137" data-name="Ellipse 137" cx="0.527" cy="0.527" r="0.527" transform="translate(24.895 7.851)"/>
    </g>
  </g>
</svg>
