<svg xmlns="http://www.w3.org/2000/svg" width="77.613" height="85.214" viewBox="0 0 77.613 85.214">
  <g id="stationary-bicycle" transform="translate(-21.25)">
    <path id="Path_504" data-name="Path 504" d="M0,0H5.365V22.784H0Z" transform="translate(33.932 22.389) rotate(-16.804)" fill="#495959"/>
    <path id="Path_505" data-name="Path 505" d="M319.228,0V2.821a10.3,10.3,0,0,1-10.292,10.292H298.97v5.365h7l-3,29.716,5.338.539,3.075-30.446A15.683,15.683,0,0,0,324.593,2.821V0Z" transform="translate(-228.055)" fill="#323c3c"/>
    <path id="Path_506" data-name="Path 506" d="M88.608,219.233l-.146-.038-.149-.021A18.588,18.588,0,0,0,69.875,247.3l6.535,10.649H97.76l3.721-16.736L97.76,221.59Z" transform="translate(-37.678 -179.83)" fill="#03c6db"/>
    <path id="Path_507" data-name="Path 507" d="M252.689,237.2l-14.3-3.683v36.362h23.243l2.652-14.241A15.86,15.86,0,0,0,252.689,237.2Z" transform="translate(-178.308 -191.757)" fill="#0088b4"/>
    <path id="Path_508" data-name="Path 508" d="M37.25,417v5.365H73.22l3.367-2.486L73.22,417Z" transform="translate(-13.139 -342.427)" fill="#495959"/>
    <path id="Path_509" data-name="Path 509" d="M238.389,417h35.384v5.365H238.389Z" transform="translate(-178.308 -342.427)" fill="#323c3c"/>
    <path id="Path_510" data-name="Path 510" d="M140.233,322.522h7.7v5.365h-7.7Z" transform="translate(-97.705 -264.845)" fill="#dceaec"/>
    <circle id="Ellipse_90" data-name="Ellipse 90" cx="5.671" cy="5.671" r="5.671" transform="translate(48.708 54.689)" fill="#495959"/>
    <path id="Path_511" data-name="Path 511" d="M425.25,386.5h5.365v16.095H425.25Z" transform="translate(-331.752 -317.381)" fill="#0088b4"/>
    <path id="Path_512" data-name="Path 512" d="M21.25,386.5h5.365v16.095H21.25Z" transform="translate(0 -317.381)" fill="#03c6db"/>
    <path id="Path_513" data-name="Path 513" d="M58.184,101.713H80.936v5.365H58.184Z" transform="translate(-30.329 -83.523)" fill="#03c6db"/>
  </g>
</svg>
