<svg xmlns="http://www.w3.org/2000/svg" width="57.54" height="85.313" viewBox="0 0 57.54 85.313">
  <g id="height" transform="translate(-63.903)">
    <path id="Path_573" data-name="Path 573" d="M234.9,21.851a5.24,5.24,0,1,0,5.24,5.24A5.24,5.24,0,0,0,234.9,21.851Z" transform="translate(-129.735 -17.103)" fill="#c2c9d1"/>
    <path id="Path_574" data-name="Path 574" d="M217.845.065a9.981,9.981,0,1,0,10,9.974A9.985,9.985,0,0,0,217.845.065Zm0,15.228a5.24,5.24,0,1,1,5.24-5.24A5.24,5.24,0,0,1,217.845,15.293Z" transform="translate(-112.683 -0.051)" fill="#0088b4"/>
    <path id="Path_575" data-name="Path 575" d="M223.748,127.69a3.232,3.232,0,0,0-3.231-3.231h-1.194L214.406,136.4a2.375,2.375,0,0,1-4.383,0l-4.917-11.955h-1.18a3.229,3.229,0,0,0-3.231,3.217v25.89h23.038V127.69Z" transform="translate(-107.067 -97.403)" fill="#03c6db"/>
    <path id="Path_576" data-name="Path 576" d="M217.711,299.974h5.451V288.96a2.374,2.374,0,1,1,4.748,0v11.014h5.451V280.307H217.7v19.667Z" transform="translate(-120.374 -219.396)" fill="#c2c9d1"/>
    <g id="Group_65" data-name="Group 65" transform="translate(63.903)">
      <path id="Path_577" data-name="Path 577" d="M203.58,102.659h-2.768a2.361,2.361,0,0,0-2.177,1.461l-3.329,8.091-3.343-8.091a2.354,2.354,0,0,0-2.177-1.461H187a7.977,7.977,0,0,0-7.965,7.965v28.264a2.371,2.371,0,0,0,2.374,2.374h1.321V163.29a2.371,2.371,0,0,0,2.374,2.374h20.4a2.371,2.371,0,0,0,2.374-2.374V141.262h1.306a2.371,2.371,0,0,0,2.374-2.374v-28.25A7.991,7.991,0,0,0,203.58,102.659Zm-.45,58.27h-5.451V149.916a2.374,2.374,0,0,0-4.748,0v11.014h-5.451V141.262h15.663v19.667Zm-19.372-24.4v-25.89a3.232,3.232,0,0,1,3.231-3.231h1.194l4.917,11.955a2.375,2.375,0,0,0,4.383,0l4.917-11.941h1.194a3.232,3.232,0,0,1,3.231,3.231v25.89H183.758Z" transform="translate(-154.019 -80.351)" fill="#0088b4"/>
      <path id="Path_578" data-name="Path 578" d="M78.906,4.748a2.374,2.374,0,0,0,0-4.748H66.277A2.371,2.371,0,0,0,63.9,2.374V82.938a2.371,2.371,0,0,0,2.374,2.374H78.906a2.374,2.374,0,1,0,0-4.748H68.665V73.92H78.906a2.374,2.374,0,1,0,0-4.748H68.665V62.2h4.889a2.374,2.374,0,0,0,0-4.748H68.665v-6.6H78.906a2.374,2.374,0,1,0,0-4.748H68.665V39.137h4.889a2.374,2.374,0,0,0,0-4.748H68.665V27.8H78.906a2.374,2.374,0,1,0,0-4.748H68.665V16.071h4.889a2.374,2.374,0,0,0,0-4.748H68.665V4.65H78.906Z" transform="translate(-63.903)" fill="#0088b4"/>
    </g>
  </g>
</svg>
