<svg xmlns="http://www.w3.org/2000/svg" width="151.155" height="150.594" viewBox="0 0 151.155 150.594">
  <g id="Group_623" data-name="Group 623" transform="translate(-1855.999 -12158)">
    <g id="Group_619" data-name="Group 619" transform="translate(1855.999 12176.988)">
      <path id="Path_2383" data-name="Path 2383" d="M1136.974,401.792q16.755,0,33.51,0a7.864,7.864,0,0,1,1.482.086,3.925,3.925,0,0,1,2.99,4.6c-2.1,10.007-4.122,20.032-6.163,30.052-.242,1.187-.444,2.382-.656,3.575a3.966,3.966,0,0,1-3.622,3.222c-1.7.074-3.412.068-5.119.075-2.643.011-5.287,0-7.93,0q-14.6,0-29.208,0c-4.157,0-8.315-.034-12.472-.059-2.342-.014-3.691-1.32-4.122-3.632-.757-4.063-1.646-8.1-2.476-12.15q-2.166-10.571-4.326-21.143a3.8,3.8,0,0,1,3.608-4.62c.33-.016.661-.009.993-.009Zm-.043,16.567a4.132,4.132,0,1,0,4.1,4.173A4.128,4.128,0,0,0,1136.931,418.359Z" transform="translate(-1061.938 -315.285)" fill="#0088b4"/>
      <path id="Path_2384" data-name="Path 2384" d="M1214.752,108.393c-1.843-.263-2.367-.993-2.324-2.845.05-2.12-.022-4.243-.041-6.365a2.195,2.195,0,0,1,0-.412c.418-2.291.682-4.625,1.3-6.863,1.629-5.939,5.08-10.512,10.772-13.088,7.142-3.233,15.3-1.126,20.418,5.12a21.69,21.69,0,0,1,4.861,12.428,3.76,3.76,0,0,0,.433,1.084,4.158,4.158,0,0,1,.561,1.333c.054,2.529.047,5.06.015,7.589a2.021,2.021,0,0,1-1.91,1.936,2.284,2.284,0,0,1-2.685-1.39c-.081-.231-.125-.475-.192-.739-.612.049-.9.312-.8.948.256,1.518.4,3.062.77,4.55a4.4,4.4,0,0,0,3.1,3.424c-3.618,1.6-7.019,2.96-10.7.724a1.061,1.061,0,0,0-.847.092c-1.343.693-2.634,1.492-4,2.128a4.864,4.864,0,0,1-4.177-.019,27.964,27.964,0,0,1-3.277-1.736,1.374,1.374,0,0,0-1.677-.1,9.4,9.4,0,0,1-10.273-1.056c.549-.423,1.1-.86,1.665-1.27a.629.629,0,0,1,.493-.13,11.661,11.661,0,0,1,2.281,1.13,5.7,5.7,0,0,0,6.2.315,3.743,3.743,0,0,0-1.153-.294,5.181,5.181,0,0,1-3.94-.8,8.783,8.783,0,0,0-1.363-.584A6.048,6.048,0,0,1,1214.752,108.393Zm11.181-10.687,2.216-4.617-.26-.152c-.241.175-.471.367-.724.522a47.891,47.891,0,0,1-5.391,3.187,3.176,3.176,0,0,0-2.263,2.524,1.24,1.24,0,0,1-.8.732,1.923,1.923,0,0,0-1.571,1.771c-.029.356-.01.717-.01,1.075a2.206,2.206,0,0,0,2.091,2.478c.437.061.613.213.683.638a11.508,11.508,0,0,0,2.031,4.662c.553.8,1.1,1.592,2.219,1.624a1.35,1.35,0,0,1,.54.2c.623.325,1.136.7.833,1.552a.677.677,0,0,0,.28.572c1.349.794,2.693,1.6,4.09,2.3a3.547,3.547,0,0,0,2.977.047,16.527,16.527,0,0,0,9.5-9.029,21.3,21.3,0,0,0,.748-2.548h.575c1.631.007,2.322-.663,2.323-2.254,0-.386.01-.773,0-1.158a1.849,1.849,0,0,0-1.889-1.562,5.281,5.281,0,0,0-1.1.583,6.852,6.852,0,0,1-.118-1.139,6.357,6.357,0,0,0-2.194-5.3c-1.081-1.021-2.182-2.025-3.326-2.974-.88-.73-1.842-1.362-2.814-2.072C1232.431,92.988,1229.844,95.97,1225.933,97.706Zm22.253-.944a3.152,3.152,0,0,0,.042-.337c0-.165-.009-.331-.025-.5a19.718,19.718,0,0,0-5.741-12.421,15.438,15.438,0,0,0-18.935-2.561,18.161,18.161,0,0,0-8.245,10.672,17.963,17.963,0,0,0-.879,5.109l1.488.18c.364-1.6.609-3.213,1.1-4.746,1.671-5.212,4.644-9.267,10.081-11.11,5.286-1.792,10.035-.384,13.351,4.04a1.684,1.684,0,0,0,.7.523,5.7,5.7,0,0,1,2.969,2.635,16.366,16.366,0,0,1,1.637,10.344c-.03.224-.033.452-.049.678l.264.111C1246.021,97.9,1246.638,96.913,1248.186,96.762Zm-30.8,9.1a6.157,6.157,0,0,1-.767,1.635,1.347,1.347,0,0,0-.323,1.645,8.234,8.234,0,0,0,1.259,2.18c1.274,1.376,2.133,1.455,3.655.6-.7-1.153-.726-1.169-1.511-.841a1.742,1.742,0,0,1-2.23-1.707c.1-.875.184-1.754.219-2.634A2.887,2.887,0,0,0,1217.39,105.865Z" transform="translate(-1156.731 -44.519)" fill="#f8af23"/>
      <path id="Path_2385" data-name="Path 2385" d="M1206.822,330.212l2.821-6.977-.175-.147c-.156.2-.3.4-.47.585q-2.356,2.663-4.72,5.319c-.621.7-1.035.651-1.517-.163-.924-1.561-1.832-3.132-2.823-4.831-.831,1.65-1.6,3.168-2.361,4.687-.576,1.145-.876,1.19-1.8.268-2-2-4.007-4.008-6.181-5.924l2.895,7.182h-18.235c.806-1.413,1.461-2.745,2.282-3.964,2.285-3.392,5.2-6.033,9.312-6.935,2.363-.519,4.783-.784,7.183-1.129a1.525,1.525,0,0,1,.845.241c1.794.969,3.588,1.94,5.355,2.956a1.05,1.05,0,0,0,1.27-.046c1.592-1.04,3.195-2.066,4.833-3.03a2.329,2.329,0,0,1,1.449-.306c2.334.4,4.679.791,6.972,1.372,4.1,1.039,6.986,3.743,9.231,7.194.729,1.12,1.316,2.331,2.05,3.647Zm-7.855-7.4c-1.936-1.073-3.762-2.088-5.594-3.093a.819.819,0,0,0-.474-.1c-1.235.174-2.468.366-3.728.557l7.43,7.372Zm1.853-.052,2.843,4.855,6.67-7.54c-1.365-.269-2.54-.509-3.72-.722a.845.845,0,0,0-.541.122C1204.342,320.542,1202.621,321.627,1200.82,322.757Z" transform="translate(-1124.923 -245.345)" fill="#03c6db"/>
      <path id="Path_2386" data-name="Path 2386" d="M876.206,221.612" transform="translate(-876.206 -164.931)"/>
      <path id="Path_2387" data-name="Path 2387" d="M1007.3-118.2l-.906-2.552,8.113,1.378-5.249,6.328-.964-2.425c-8.149,1.51-26.7,16.6-29.842,24.262l2.174,1.418-7.24,3.846c.1-2.791.2-5.435.3-8.222l2.355,1.415A66.49,66.49,0,0,1,1007.3-118.2Z" transform="translate(-957.299 120.767)"/>
      <path id="Path_2388" data-name="Path 2388" d="M1444.4-115.657l-.972,2.563-5.272-6.33,8.124-1.4-.931,2.579a66.79,66.79,0,0,1,17.6,10.269A65.7,65.7,0,0,1,1476.585-92.8l2.395-1.325c.1,2.716.2,5.334.3,8.115l-7.217-3.819,2.264-1.541A64.374,64.374,0,0,0,1444.4-115.657Z" transform="translate(-1345.139 120.82)"/>
      <path id="Path_2389" data-name="Path 2389" d="M1595.093,300.358l-2.677-.5,5.188-6.368,2.925,7.683-2.689-.376a66.341,66.341,0,0,1-18.52,35.062c.324.349.622.667.918.987.275.3.55.6.93,1.009l-7.986,1.946,2.308-7.9,1.833,2.034A63.639,63.639,0,0,0,1595.093,300.358Z" transform="translate(-1457.813 -224.915)"/>
      <path id="Path_2390" data-name="Path 2390" d="M944.761,333.9l1.844-2.073,2.341,7.963-7.982-1.926,1.83-2.016a66.417,66.417,0,0,1-18.518-35.055c-.481.069-.909.132-1.338.193-.4.057-.8.111-1.344.186l2.915-7.687,5.195,6.369-2.677.494A63.571,63.571,0,0,0,944.761,333.9Z" transform="translate(-914.081 -224.904)"/>
      <path id="Path_2391" data-name="Path 2391" d="M1157.552,662.445h-28.083c-1.513,0-3.026.016-4.539-.008a1.648,1.648,0,0,1-.91-.263c-.749-.559-.685-1.162.2-1.416a11.787,11.787,0,0,1,3.146-.593q30.153-.052,60.307,0a12.5,12.5,0,0,1,3.069.563c.3.079.515.505.768.773-.335.31-.627.794-1.015.89a8.369,8.369,0,0,1-1.969.057Q1173.039,662.447,1157.552,662.445Z" transform="translate(-1082.569 -530.87)"/>
      <path id="Path_2392" data-name="Path 2392" d="M1315.166,515.639a2.758,2.758,0,1,1,2.733-2.743A2.785,2.785,0,0,1,1315.166,515.639Z" transform="translate(-1240.17 -405.686)" fill="#03c6db"/>
    </g>
    <g id="Group_620" data-name="Group 620" transform="translate(1978.101 12215.642)">
      <path id="Path_2393" data-name="Path 2393" d="M1685.6,134.486c-1.327-1.048-2.6-2.178-4-3.114a7.671,7.671,0,0,0-2.939-1.264c-4.548-.709-8.043-4.377-8.054-8.635s3.46-7.963,8.049-8.619c4.128-.59,7.611.586,10.091,4.01,2.57,3.548,1.815,8.134-1.761,11.106a2.232,2.232,0,0,0-.919,1.979c.04,1.448.011,2.9.011,4.348Zm-5.107-17.673a2.678,2.678,0,0,1,2.3,1.827,2.326,2.326,0,0,1-1.046,2.866,3.689,3.689,0,0,0-1.864,3.041c-.012.257.336.53.517.8.2-.205.566-.4.583-.617a3.422,3.422,0,0,1,1.741-2.493,3.564,3.564,0,0,0,1.139-4.215,3.823,3.823,0,0,0-3.724-2.349,3.761,3.761,0,0,0-3.353,3.014c-.063.362.22.784.344,1.179.261-.282.666-.524.759-.854A2.814,2.814,0,0,1,1680.5,116.813Z" transform="translate(-1661.217 -112.709)" fill="#03c6db"/>
      <path id="Path_2394" data-name="Path 2394" d="M1633.415,174.1c.741.73,1.913,1.352,2.128,2.213.386,1.54-.955,2.752-2.663,2.771-2.633.029-5.267-.039-7.9.041a3.8,3.8,0,0,0-1.982.7c-1.525,1.1-2.962,2.318-4.823,3.8-.093-1.7-.164-3.018-.236-4.359a1.2,1.2,0,0,0-.359-.152c-3.187-.195-3.727-.774-3.717-3.941.01-3.141-.009-6.281,0-9.422.009-2.248.963-3.2,3.2-3.22,1.612-.013,3.223,0,4.764,0l1.313,5.165c-1.395,0-2.84,0-4.285,0a4.433,4.433,0,0,0-1.1.009,2.973,2.973,0,0,0-.805.536c.267.192.527.536.8.549a27.172,27.172,0,0,0,4.152.025,3.771,3.771,0,0,1,4.082,1.973c-2.634,0-5.2-.023-7.768.022a4.152,4.152,0,0,0-1.274.475c.431.213.857.6,1.293.61,2.4.061,4.806-.045,7.2.052a42.42,42.42,0,0,1,6.013.616c.684.127,1.236.966,1.848,1.479-2.612-.063-5.224-.149-7.836-.181q-3.8-.046-7.6.023c-.317.006-.627.371-.94.57.311.182.621.521.934.524,4.926.033,9.853.024,14.779.022C1633.248,175,1633.835,174.976,1633.415,174.1Z" transform="translate(-1613.864 -154.282)" fill="#03c6db"/>
    </g>
    <g id="Group_621" data-name="Group 621" transform="translate(1859.735 12216.007)">
      <path id="Path_2395" data-name="Path 2395" d="M903.146,130.957v1.515c-.064,0-.122,0-.179,0a8.1,8.1,0,0,0-1.167.078,1.888,1.888,0,0,0-1.48,1.7,9.364,9.364,0,0,0-.038,1.024q-.009,3.279-.01,6.559c0,2.429,0,4.858.009,7.287a2.079,2.079,0,0,0,2.159,2.144c.594,0,1.188.013,1.782.012,1.457,0,2.914-.014,4.372-.014,2.018,0,4.036.009,6.054.01a2.128,2.128,0,0,0,2.049-1.4,2.237,2.237,0,0,0,.13-.755q.008-5.116,0-10.233c0-1.418,0-2.836,0-4.254a2.068,2.068,0,0,0-.937-1.837,2.279,2.279,0,0,0-1.257-.348c-.208,0-.416,0-.645,0v-1.477a4.042,4.042,0,0,1,3.207.934,3.4,3.4,0,0,1,1.127,2.416c.042.905.024,1.814.025,2.721q0,2.246,0,4.492,0,2.431-.009,4.863,0,1.413-.019,2.825a3.337,3.337,0,0,1-.362,1.609,3.384,3.384,0,0,1-2.989,1.915c-.827.027-1.655,0-2.483.006-.485,0-.97.011-1.455.012q-1.807,0-3.613,0l-4.373,0a6.207,6.207,0,0,1-1.61-.109,3.511,3.511,0,0,1-2.621-3.129c-.041-.582-.028-1.169-.029-1.754q0-4.4,0-8.806c0-1.482-.012-2.965,0-4.447a3.445,3.445,0,0,1,1.378-2.808,3.544,3.544,0,0,1,2.3-.747C902.685,130.96,902.908,130.957,903.146,130.957Z" transform="translate(-898.775 -128.293)" fill="purple"/>
      <path id="Path_2396" data-name="Path 2396" d="M934.439,119.44H930.4c-.055,0-.109,0-.163,0-.291-.026-.427-.148-.435-.442q-.021-.72-.007-1.441a.422.422,0,0,1,.461-.455c.277-.016.555-.008.831-.032a1.934,1.934,0,0,0,1.563-1c.106-.179.2-.363.307-.543a1.121,1.121,0,0,1,.988-.609c.307-.009.614-.01.922-.006a1.2,1.2,0,0,1,1.032.574c.152.232.293.471.444.7a1.985,1.985,0,0,0,1.85.917,3.963,3.963,0,0,1,.548.017.31.31,0,0,1,.32.311,2.729,2.729,0,0,1,.026.414c0,.357,0,.714,0,1.07s-.15.522-.51.523q-2.067,0-4.134,0Z" transform="translate(-924.651 -114.907)" fill="purple"/>
      <path id="Path_2397" data-name="Path 2397" d="M930.23,155.671l-.724,1.446c-.027.053-.054.106-.081.159a.828.828,0,0,1-.849.5.839.839,0,0,1-.756-.617c-.129-.38-.255-.76-.382-1.141-.016-.046-.033-.092-.053-.145a2.666,2.666,0,0,1-1.419.147.391.391,0,0,1-.343-.4.4.4,0,0,1,.379-.4c.2-.01.407-.007.609,0a.6.6,0,0,0,.515-.233.506.506,0,0,1,.894.179c.185.534.363,1.07.543,1.6.02.059.042.117.076.213.07-.134.123-.231.173-.331l.941-1.887a.561.561,0,0,1,1.07.069q.62,1.86,1.247,3.718c.015.046.035.09.066.168.074-.14.136-.25.192-.363q.626-1.249,1.25-2.5c.067-.132.135-.264.207-.393a.621.621,0,0,1,.554-.253,4.551,4.551,0,0,0,.56.014.26.26,0,0,0,.146-.087.722.722,0,1,1,1.053.987.731.731,0,0,1-1.053-.009.487.487,0,0,0-.222-.075c-.308-.069-.463.067-.6.353-.416.888-.866,1.76-1.31,2.634a.838.838,0,0,1-1.2.393.9.9,0,0,1-.4-.532q-.468-1.386-.929-2.775C930.335,155.98,930.289,155.845,930.23,155.671Z" transform="translate(-921.178 -147.864)" fill="purple"/>
      <path id="Path_2398" data-name="Path 2398" d="M951.858,228.888h7.768v1.133h-7.768Z" transform="translate(-943.071 -210.021)" fill="purple"/>
      <path id="Path_2399" data-name="Path 2399" d="M959.623,199.653v1.13h-7.771v-1.13Z" transform="translate(-943.066 -185.625)" fill="purple"/>
      <path id="Path_2400" data-name="Path 2400" d="M924.346,222.611a1.926,1.926,0,1,1-1.923-1.931A1.922,1.922,0,0,1,924.346,222.611Zm-3.2-.01a1.28,1.28,0,1,0,1.294-1.272A1.282,1.282,0,0,0,921.141,222.6Z" transform="translate(-916.899 -203.172)" fill="purple"/>
      <path id="Path_2401" data-name="Path 2401" d="M921.683,195.313l1.323-1.2c.26-.236.517-.476.781-.707a.293.293,0,0,1,.436-.015c.118.115.114.264-.021.424q-1.051,1.251-2.1,2.5a.545.545,0,0,1-.6.185.671.671,0,0,1-.282-.262,3.6,3.6,0,0,1-.222-.392c-.168-.3-.34-.6-.5-.9a.3.3,0,0,1,.072-.421.3.3,0,0,1,.424.063C921.216,194.82,921.443,195.06,921.683,195.313Z" transform="translate(-916.85 -180.322)" fill="purple"/>
    </g>
    <g id="Group_622" data-name="Group 622" transform="translate(1919.716 12158)">
      <path id="Path_2402" data-name="Path 2402" d="M1272.392-235.528a11.231,11.231,0,0,1,11.239,11.243,11.241,11.241,0,0,1-11.23,11.256,11.252,11.252,0,0,1-11.258-11.29A11.245,11.245,0,0,1,1272.392-235.528Zm10.283,11.259a10.3,10.3,0,0,0-10.216-10.294,10.278,10.278,0,0,0-10.347,10.184A10.281,10.281,0,0,0,1272.292-214,10.3,10.3,0,0,0,1282.675-224.269Z" transform="translate(-1261.142 235.528)" fill="#f62083"/>
      <path id="Path_2403" data-name="Path 2403" d="M1272.373-85.831h-10.512c-.592,0-.72-.129-.72-.713q0-3.26,0-6.521c0-.4.173-.581.591-.584.8-.005,1.607,0,2.41,0h18.753c.62,0,.734.114.734.725q0,3.174,0,6.348c0,.631-.115.747-.743.747h-10.512Zm10.276-6.839h-20.516v5.855h20.516Z" transform="translate(-1261.141 117.136)" fill="#f62083"/>
      <path id="Path_2404" data-name="Path 2404" d="M1295.373-212.153c-.088-.355-.163-.662-.241-.968a.562.562,0,0,1,.1-.6.551.551,0,0,1,.624-.075c.3.106.6.2.919.31a2.542,2.542,0,0,1,1.578-1.264c.075-.021.15-.039.226-.054.544-.105.975-.016.9.732a1.108,1.108,0,0,0,.014.188c.224.028.443.049.66.084a3.587,3.587,0,0,1,3.144,3.3,35.084,35.084,0,0,1-.007,4.268,3,3,0,0,1-.856,1.782l-.213.242c.092.059.167.112.247.157.833.477,1.664.96,2.5,1.426a.663.663,0,0,1,.387.651c-.013.912,0,1.824,0,2.761h-.971v-.712c0-.573,0-1.146-.006-1.718a.35.35,0,0,0-.118-.26c-.918-.54-1.844-1.067-2.8-1.618a2.027,2.027,0,0,1-.881,1.618,1.917,1.917,0,0,1-1.215.328c-.993-.068-1.622-.716-1.845-1.916-.081.036-.159.063-.229.1-.833.477-1.663.961-2.5,1.431a.357.357,0,0,0-.206.367c.009.786,0,1.571,0,2.38h-.949c-.006-.1-.015-.2-.015-.293,0-.816.008-1.631,0-2.446a.684.684,0,0,1,.391-.68c.841-.464,1.671-.947,2.5-1.423.074-.043.147-.088.231-.138-.192-.257-.39-.493-.556-.749a3.721,3.721,0,0,1-.6-2.066c0-.631-.005-1.262,0-1.893a.4.4,0,0,0-.192-.38,2.9,2.9,0,0,1-1.281-2.537.488.488,0,0,1,.692-.514C1294.977-212.281,1295.148-212.223,1295.373-212.153Zm7.1,4.259-.045,0c0-.349.013-.7-.009-1.047a.354.354,0,0,0-.187-.264,8.566,8.566,0,0,0-1.016-.234,1.207,1.207,0,0,0-1.256.6c-.324.473-.648.477-.958.007a1.188,1.188,0,0,0-1.079-.625,9.109,9.109,0,0,0-1.165.227c-.174.035-.223.14-.221.314.01.621.006,1.241,0,1.862a2.811,2.811,0,0,0,.632,1.833,2.817,2.817,0,0,0,3.083,1.048,2.712,2.712,0,0,0,2.053-2.079A11.259,11.259,0,0,0,1302.478-207.893Zm-.094-2.308a2.849,2.849,0,0,0-1.206-2.175,3.33,3.33,0,0,0-2.076-.529c-.392.024-.575-.15-.589-.541,0-.1,0-.2,0-.343a1.84,1.84,0,0,0-.964.994c-.16.389-.349.471-.755.344l-.536-.168c.086.348.155.647.235.942a.567.567,0,0,1-.117.644.585.585,0,0,1-.656.031c-.167-.065-.337-.123-.546-.2a1.784,1.784,0,0,0,.564.977.525.525,0,0,0,.616.129c1.077-.377,2.165-.637,3.137.307C1300.334-210.656,1301.326-210.473,1302.383-210.2Zm-3.748,7.046a.866.866,0,0,0,.844.559.978.978,0,0,0,.878-.559Z" transform="translate(-1288.238 218.263)" fill="#f62083"/>
      <path id="Path_2405" data-name="Path 2405" d="M1296.719-65.991v-.933h14.633v.933Z" transform="translate(-1290.83 94.832)" fill="#f62083"/>
      <path id="Path_2406" data-name="Path 2406" d="M1287.771-78.766v.926h-14.63v-.926Z" transform="translate(-1271.154 104.714)" fill="#f62083"/>
      <path id="Path_2407" data-name="Path 2407" d="M1285.857-65.977h-.926v-.935h.926Z" transform="translate(-1280.993 94.822)" fill="#f62083"/>
      <path id="Path_2408" data-name="Path 2408" d="M1380.452-78.764v.923h-.939v-.923Z" transform="translate(-1359.919 104.713)" fill="#f62083"/>
      <path id="Path_2409" data-name="Path 2409" d="M1368.594-77.82h-.917v-.935h.917Z" transform="translate(-1350.043 104.705)" fill="#f62083"/>
      <path id="Path_2410" data-name="Path 2410" d="M1273.1-66.024v-.93h.918v.93Z" transform="translate(-1271.119 94.857)" fill="#f62083"/>
      <path id="Path_2411" data-name="Path 2411" d="M1336.085-176.265v.928h-.928v-.928Z" transform="translate(-1322.905 186.075)" fill="#f62083"/>
      <path id="Path_2412" data-name="Path 2412" d="M1318.355-175.345h-.924v-.925h.924Z" transform="translate(-1308.114 186.079)" fill="#f62083"/>
    </g>
  </g>
</svg>
