<svg xmlns="http://www.w3.org/2000/svg" width="232.365" height="255.488" viewBox="0 0 232.365 255.488">
  <g id="Group_625" data-name="Group 625" transform="translate(-71.817 -150.512)">
    <path id="Path_2128" data-name="Path 2128" d="M96.716,29.239c28.592,87.2,96.716,43.3,96.716,96.716A96.716,96.716,0,1,1,0,125.955C0,72.54,68.124-57.957,96.716,29.239Z" transform="translate(71.817 187.421) rotate(-11)" fill="#03c6db" opacity="0.1"/>
    <g id="Group_513" data-name="Group 513" transform="translate(85.773 208.869)">
      <path id="Path_2134" data-name="Path 2134" d="M0,0H96.241V123.77H0Z" transform="translate(58.942 4.72)" fill="#fff"/>
      <rect id="Rectangle_393" data-name="Rectangle 393" width="49.134" height="0.552" transform="translate(81.527 27.125)" fill="#3f3d56"/>
      <rect id="Rectangle_394" data-name="Rectangle 394" width="49.134" height="0.552" transform="translate(81.527 30.989)" fill="#3f3d56"/>
      <rect id="Rectangle_395" data-name="Rectangle 395" width="49.134" height="0.552" transform="translate(81.527 34.854)" fill="#3f3d56"/>
      <rect id="Rectangle_396" data-name="Rectangle 396" width="49.134" height="0.552" transform="translate(81.527 55.905)" fill="#f3c"/>
      <rect id="Rectangle_397" data-name="Rectangle 397" width="49.134" height="0.552" transform="translate(81.527 59.769)" fill="#f3c"/>
      <rect id="Rectangle_398" data-name="Rectangle 398" width="49.134" height="0.552" transform="translate(81.527 63.634)" fill="#3f3d56"/>
      <rect id="Rectangle_399" data-name="Rectangle 399" width="49.134" height="0.552" transform="translate(81.527 73.403)" fill="#3f3d56"/>
      <rect id="Rectangle_400" data-name="Rectangle 400" width="49.134" height="0.552" transform="translate(81.527 77.268)" fill="#3f3d56"/>
      <rect id="Rectangle_401" data-name="Rectangle 401" width="49.134" height="0.552" transform="translate(81.527 81.132)" fill="#3f3d56"/>
      <rect id="Rectangle_402" data-name="Rectangle 402" width="49.134" height="0.552" transform="translate(81.527 90.902)" fill="#3f3d56"/>
      <rect id="Rectangle_403" data-name="Rectangle 403" width="49.134" height="0.552" transform="translate(81.527 94.766)" fill="#f3c"/>
      <rect id="Rectangle_404" data-name="Rectangle 404" width="49.134" height="0.552" transform="translate(81.527 98.631)" fill="#3f3d56"/>
      <rect id="Rectangle_405" data-name="Rectangle 405" width="49.134" height="0.552" transform="translate(81.527 108.4)" fill="#3f3d56"/>
      <rect id="Rectangle_406" data-name="Rectangle 406" width="49.134" height="0.552" transform="translate(81.527 112.264)" fill="#3f3d56"/>
      <rect id="Rectangle_407" data-name="Rectangle 407" width="49.134" height="0.552" transform="translate(81.527 116.129)" fill="#3f3d56"/>
      <path id="Path_2093" data-name="Path 2093" d="M513.879,250.2H410.5V112.75H513.879Zm-102.918-.46H513.418V113.21H410.96Z" transform="translate(-351.903 -112.75)" fill="#3f3d56"/>
      <path id="Path_2094" data-name="Path 2094" d="M749.976,149.244a2.989,2.989,0,0,1,1.5-2.589,2.993,2.993,0,1,0,0,5.179A2.989,2.989,0,0,1,749.976,149.244Z" transform="translate(-610.91 -138.537)" fill="#03c6db"/>
      <path id="Path_2095" data-name="Path 2095" d="M766.976,149.244a2.989,2.989,0,0,1,1.5-2.589,2.993,2.993,0,1,0,0,5.179A2.989,2.989,0,0,1,766.976,149.244Z" transform="translate(-623.996 -138.537)" fill="purple"/>
      <ellipse id="Ellipse_223" data-name="Ellipse 223" cx="2.993" cy="2.993" rx="2.993" ry="2.993" transform="translate(143.901 7.713)" fill="#f50072"/>
      <path id="Path_2096" data-name="Path 2096" d="M748.935,652.155l-.247-.093c-.054-.02-5.459-2.091-7.99-6.786s-1.292-10.348-1.279-10.4l.058-.257.247.093c.054.021,5.459,2.091,7.99,6.786s1.292,10.348,1.279,10.4Zm-7.832-7.1c2.14,3.97,6.411,6,7.493,6.469.206-1.16.851-5.85-1.288-9.815s-6.411-6-7.493-6.469c-.206,1.16-.851,5.85,1.288,9.815Z" transform="translate(-604.849 -514.459)" fill="#3f3d56"/>
      <path id="Path_2097" data-name="Path 2097" d="M720.415,667.364c4.55,2.737,6.3,8.174,6.3,8.174s-5.624,1-10.174-1.738-6.3-8.174-6.3-8.174S715.865,664.626,720.415,667.364Z" transform="translate(-582.631 -538.193)" fill="#f50072"/>
      <path id="Path_2098" data-name="Path 2098" d="M328.732,190.116a24.88,24.88,0,0,1-13.1,21.91c-.3.164-.6.318-.91.465a24.9,24.9,0,0,1-21.795-.039q-.877-.428-1.713-.926c-.566-.332-1.117-.688-1.651-1.066a24.87,24.87,0,0,1,3.078-42.537,24.451,24.451,0,0,1,4.743-1.819q1.084-.294,2.206-.488a24.893,24.893,0,0,1,4.273-.366c.295,0,.587,0,.88.018q.321.007.642.028a24.73,24.73,0,0,1,6.569,1.3c.182.062.364.127.543.193q.939.345,1.837.769A24.861,24.861,0,0,1,328.732,190.116Z" transform="translate(-250.68 -153.162)" fill="#f50072"/>
      <path id="Path_2099" data-name="Path 2099" d="M347.618,141.161c-2.262-5.338-8.021-6.346-8.021-6.346s-5.545-1.479-10.176,5.566c-4.316,6.567-9.882,12.719-2.823,15.34l1.865-3.916.224,4.507a28.73,28.73,0,0,0,3.108.472c7.83.8,15.21,2.118,15.347-.712C347.323,152.309,349.8,146.3,347.618,141.161Z" transform="translate(-284.727 -129.635)" fill="#2f2e41"/>
      <path id="Path_2100" data-name="Path 2100" d="M328.788,349.228l-.184,1.478-.35,2.781q-.877-.428-1.713-.926c-.566-.332-1.117-.688-1.651-1.066l.055-1.434.062-1.591,2.556.513Z" transform="translate(-286.004 -294.197)" fill="#ffb8b8"/>
      <path id="Path_2101" data-name="Path 2101" d="M435.761,343.163a24.891,24.891,0,0,1-3.56,2.325l-1.206-4.179-.159-.55-.4-1.375.426-.067,4.361-.688.14,1.186Z" transform="translate(-367.252 -286.623)" fill="#ffb8b8"/>
      <ellipse id="Ellipse_224" data-name="Ellipse 224" cx="6.802" cy="6.802" rx="6.802" ry="6.802" transform="translate(48.073 8.93)" fill="#ffb8b8"/>
      <path id="Path_2102" data-name="Path 2102" d="M370.169,192.564s.5,8.565-1.008,9.069,7.809,0,7.809,0-1.26-5.29,0-6.8S370.169,192.564,370.169,192.564Z" transform="translate(-319.955 -174.187)" fill="#ffb8b8"/>
      <path id="Path_2103" data-name="Path 2103" d="M362.07,225.185s-6.55-.5-7.809,0a42.009,42.009,0,0,0-4.786,3.023l1.763,15.87L365.6,247.1l2.267-3.275,2.267-4.786-1.008-6.046-.252-3.527Z" transform="translate(-304.929 -199.126)" fill="#d0cde1"/>
      <path id="Path_2104" data-name="Path 2104" d="M328,243.44s-3.275.756-3.527,3.275a63.1,63.1,0,0,0,0,9.824c.252,1.008,0,1.511-.252,1.763s-.756-.252-.252.5.5.756.252,1.511-1.008-.252-.5,1.008.756,1.511.5,1.763a60.441,60.441,0,0,0-1.008,6.046l4.282.756,4.282-14.863Z" transform="translate(-284.716 -213.35)" fill="#d0cde1"/>
      <path id="Path_2105" data-name="Path 2105" d="M423.449,243.44a2.685,2.685,0,0,1,2.267,1.511c.756,1.511,2.771,11.336,2.519,12.092s-.756-.252-.252,1.26,0,1.26.252,2.267-1.008,0,0,1.008,1.511,1.26,1.008,1.763-1.26-.5-.5.5a4.807,4.807,0,0,1,.756,2.519l-6.046,1.259-1.763-14.107Z" transform="translate(-360.513 -213.35)" fill="#d0cde1"/>
      <path id="Path_2106" data-name="Path 2106" d="M355.266,264.257l.3,4.642a24.9,24.9,0,0,1-21.795-.039q-.877-.428-1.713-.926c.193-.711.389-1.421.589-2.116q.214-.743.433-1.462c1.13-3.7,2.348-6.847,3.49-8.07,0,0,0-2.77.5-3.023a1.664,1.664,0,0,0,.534-.732,9.824,9.824,0,0,0,.474-1.282l-.833-1.939-3.73-8.685a1.061,1.061,0,0,1,.5-1.365l1.236-.619a1.062,1.062,0,0,1,1.425.484l5.685,11.62,6.3,4.032,4.416-1.964.117-.053s3.276-5.038,2.268-7.557c-.431-1.075-.9-2.512-1.312-3.808-.237-.764-.449-1.48-.615-2.042a.453.453,0,0,1,.686-.5l.859.573a1.249,1.249,0,0,1,.444.527,1.138,1.138,0,0,1,.088.262l1.865,9.023-2.519,5.289v5.038l.175,2.705.092,1.416Z" transform="translate(-291.524 -209.569)" fill="#2f2e41"/>
      <path id="Path_2107" data-name="Path 2107" d="M216.145,31.53l-5.771-3.023-7.97,1.237-1.649,7.283,4.1-.158,1.147-2.676v2.632l1.894-.073,1.1-4.26.687,4.535,6.733-.137Z" transform="translate(-154.532 -21.943)" fill="#2f2e41"/>
      <ellipse id="Ellipse_225" data-name="Ellipse 225" cx="0.756" cy="1.323" rx="0.756" ry="1.323" transform="translate(47.191 14.409)" fill="#ffb8b8"/>
      <path id="Path_2108" data-name="Path 2108" d="M849.559,370a24.711,24.711,0,0,1-17.728,23.5,25.264,25.264,0,0,1-4.651.957,25.908,25.908,0,0,1-2.9.162c-.36,0-.719-.007-1.074-.025H823.2a25.614,25.614,0,0,1-10.4-2.654,25.322,25.322,0,0,1-6.207-4.35A24.227,24.227,0,0,1,799,370a24.65,24.65,0,0,1,16.073-22.937,25.152,25.152,0,0,1,3.457-1.044,26.051,26.051,0,0,1,13.105.422c.323.091.644.194.96.3l.007,0a23.91,23.91,0,0,1,2.238.88c.25.109.5.226.747.349q.737.356,1.447.764c.182.1.363.207.541.317a25.111,25.111,0,0,1,7.408,6.812,24.182,24.182,0,0,1,3.862,8.307,23.923,23.923,0,0,1,.715,5.825Z" transform="translate(-650.955 -291.816)" fill="purple"/>
      <path id="Path_2109" data-name="Path 2109" d="M949.859,262.481l3.46-1.051.3-2.968s-8.417-3.1-11.108,2.381a8.765,8.765,0,0,1-3.3,3.789,6.226,6.226,0,0,1-5.294.444c-5.833-2.075-7.207,3.826-7.207,3.826s.5.84,4.1,1.046a6.286,6.286,0,0,1,4.273,2.706,4.512,4.512,0,0,0,7.769-1.353q.027-.08.052-.163c1.72-5.488,9.551-1.119,9.551-1.119l.5-4.971Z" transform="translate(-749.261 -224.241)" fill="#2f2e41"/>
      <ellipse id="Ellipse_226" data-name="Ellipse 226" cx="4.238" cy="4.128" rx="4.238" ry="4.128" transform="translate(172.781 43.417)" fill="#2f2e41"/>
      <ellipse id="Ellipse_227" data-name="Ellipse 227" cx="11.302" cy="11.009" rx="11.302" ry="11.009" transform="translate(163.598 47.545)" fill="#2f2e41"/>
      <ellipse id="Ellipse_228" data-name="Ellipse 228" cx="7.77" cy="7.568" rx="7.77" ry="7.568" transform="translate(166.777 54.999)" fill="#a0616a"/>
      <path id="Path_2110" data-name="Path 2110" d="M900.81,406.331l1.413,7.339,7.064-.917s-1.177-5.734-.471-7.339Z" transform="translate(-729.324 -338.03)" fill="#a0616a"/>
      <path id="Path_2111" data-name="Path 2111" d="M933.038,330s-5.651-4.128-8.006-2.523,6.358,6.88,7.3,6.422S933.038,330,933.038,330Z" transform="translate(-747.659 -277.75)" fill="#a0616a"/>
      <path id="Path_2112" data-name="Path 2112" d="M875.03,432.965a.961.961,0,0,1,0,.114v0c-.145,3.278-6.341,13.311-9.915,18.131a25.262,25.262,0,0,1-4.651.958,25.929,25.929,0,0,1-2.9.162c-.36,0-.719-.007-1.074-.025h0c-3.291-1.035-7.2-2.394-10.051-3.465-1.344-.508-2.453-.951-3.151-1.265a4.518,4.518,0,0,1-.744-.39c-1.177-.919,1.414-1.607,2.591-1.835s-.47-2.752-.47-2.752c-4.239-4.359.941-8.027.941-8.027s2.118-4.359,2.118-5.506a.413.413,0,0,1,.091-.233c.887-1.222,7.916-3.436,7.916-3.436v-3.67l.728-.119,7.162-1.163.585-.1,1.177,1.835,5.182.689S875.03,428.839,875.03,432.965Z" transform="translate(-684.235 -349.529)" fill="#d0cde1"/>
      <path id="Path_2113" data-name="Path 2113" d="M844.773,461.282s-3.1,8.38-5.938,15.172c-.1.237-.2.472-.293.7-.117.274-.232.545-.346.812a25.325,25.325,0,0,1-6.207-4.35c1.273-4.033,3.293-10.441,4.073-13.024a4.307,4.307,0,0,1,3.857-3.445,3.093,3.093,0,0,1,.615,0Z" transform="translate(-676.348 -377.846)" fill="#d0cde1"/>
      <path id="Path_2114" data-name="Path 2114" d="M955.48,359.138l.706-.688s8.948-9.4,8.712-11.7c0,0-4.709-5.734-10.6-4.128,0,0-2.59-6.192,1.413-5.963s18.837-.688,18.6,5.963-14.364,27.063-14.364,27.063Z" transform="translate(-769.866 -285.104)" fill="#d0cde1"/>
      <path id="Path_2115" data-name="Path 2115" d="M863.379,541.886a25.884,25.884,0,0,1-2.9.162c-.36,0-.719-.007-1.074-.025h0a25.615,25.615,0,0,1-10.4-2.654,25.261,25.261,0,0,1-2.975-1.74l.171-.337v0l.2-.388,3.244.951Z" transform="translate(-687.155 -439.245)" fill="#2f2e41"/>
      <ellipse id="Ellipse_229" data-name="Ellipse 229" cx="4.829" cy="7.75" rx="4.829" ry="7.75" transform="matrix(0.305, -0.952, 0.952, 0.305, 166.048, 58.955)" fill="#2f2e41"/>
      <path id="Path_2116" data-name="Path 2116" d="M156,596.116a25.145,25.145,0,0,0,.29,3.817,24.894,24.894,0,0,0,8.634,15.267c.127.106.256.212.387.315q.408.328.829.638.608.449,1.243.859a24.906,24.906,0,0,0,22.672,2.215c.175-.069.35-.141.523-.214.276-.117.548-.24.82-.368q1.033-.48,2.015-1.057,1.012-.591,1.957-1.271c.288-.207.566-.417.845-.635l0,0a24.933,24.933,0,0,0,8.063-11.174v0a24.9,24.9,0,0,0-10.02-29.342c-.219-.138-.44-.276-.663-.405s-.465-.276-.7-.405a24.654,24.654,0,0,0-10.379-3.046q-.819-.055-1.651-.055c-.028,0-.055,0-.083,0q-1.119,0-2.21.1A24.866,24.866,0,0,0,156,596.116Z" transform="translate(-156 -465.684)" fill="#0088b4"/>
      <path id="Path_2117" data-name="Path 2117" d="M375.312,701.639s7.262-7.5,9.2-2.905-7.262,7.02-7.262,7.02Z" transform="translate(-324.817 -562.668)" fill="#ffb8b8"/>
      <path id="Path_2118" data-name="Path 2118" d="M196.44,760.168q.408.328.829.638.608.449,1.243.859a24.906,24.906,0,0,0,22.672,2.215c.175-.069.35-.141.523-.214.276-.117.548-.239.82-.368l-.638-.916a7.14,7.14,0,0,0-1.54-1.1c-4.363-2.369-12.58-2.3-18.141-1.906-.792.055-1.529.117-2.192.18-.414.037-.8.076-1.154.113l-.408.044c-1.241.138-1.985.246-1.985.246Z" transform="translate(-187.129 -610.336)" fill="#2f2e41"/>
      <ellipse id="Ellipse_230" data-name="Ellipse 230" cx="6.957" cy="6.957" rx="6.957" ry="6.957" transform="translate(23.693 102.351)" fill="#ffb8b8"/>
      <path id="Path_2119" data-name="Path 2119" d="M247.266,597.529l-5.084,5.326-1.452,8.231,12.83,2.179-.968-7.5s.242-3.631,1.21-4.357S247.266,597.529,247.266,597.529Z" transform="translate(-221.221 -485.913)" fill="#ffb8b8"/>
      <path id="Path_2120" data-name="Path 2120" d="M329.049,662.716" transform="translate(-289.206 -536.091)" fill="none" stroke="lime" stroke-miterlimit="10" stroke-width="1"/>
      <path id="Path_2121" data-name="Path 2121" d="M203.93,654.068a13.05,13.05,0,0,1,1.292-.343,19.331,19.331,0,0,1,3.336-.426,16.278,16.278,0,0,1,7.718,1.494,27.358,27.358,0,0,0,10.591,2.24c.21.007.412.012.606.014.276-.117.548-.24.82-.368q1.033-.48,2.015-1.057l-.009-.852-.152-16.854v0l-.071-8.056-4.6-5.326-1.181-1.331-.562.5-3.341,3.007-4.87-4.51-1.667-1.543-8,26.918-1.031,3.472-.608,2.044-.094.313v0Z" transform="translate(-192.894 -503.718)" fill="#575a89"/>
      <path id="Path_2122" data-name="Path 2122" d="M284.617,636.549a24.381,24.381,0,0,0,.3,3.61c.829,5.293,1.54,14.093,3.3,20.448.23.838.481,1.63.753,2.369l.083.228c.175-.069.35-.14.523-.214.276-.117.548-.239.82-.368q1.033-.48,2.015-1.057,1.012-.591,1.957-1.271L294.3,660v0l-1.147-4.591s.737-3.843,1.326-8.141v0c.677-4.92,1.16-10.432.127-11.466l-8.111-7.421,0,0a8.2,8.2,0,0,0-.649,1.266A17.381,17.381,0,0,0,284.617,636.549Z" transform="translate(-255.004 -509.66)" fill="#d0cde1"/>
      <path id="Path_2123" data-name="Path 2123" d="M175.01,638.2a24.871,24.871,0,0,0,4.547,4.994c.127.106.256.212.387.315q.408.328.829.638.608.449,1.243.859c.313-.435.629-.877.944-1.322q.28-.39.559-.787c.295-.419.589-.84.88-1.264.037-.051.071-.1.106-.152.368-.532.732-1.066,1.087-1.6,2.616-3.907,4.784-7.658,5.033-9.9.3-2.682.9-6.831,1.52-10.794.4-2.574.8-5.07,1.117-7.029.387-2.381.654-3.974.654-3.974s-12.686-1.269-14.464-.023h0a.417.417,0,0,0-.2.276c-.193,1.349.843,13.888,1.271,18.953v0c.111,1.3.182,2.1.182,2.1s-.725.969-1.789,2.523C177.828,633.615,176.389,635.809,175.01,638.2Z" transform="translate(-170.633 -493.681)" fill="#d0cde1"/>
      <path id="Path_2124" data-name="Path 2124" d="M314.473,690.053l1.21,9.441,10.651-4.6,3.389,7.02-17.43,6.536S309.147,691.747,314.473,690.053Z" transform="translate(-275.598 -557.133)" fill="#d0cde1"/>
      <path id="Path_2125" data-name="Path 2125" d="M269.056,553.1a3.408,3.408,0,0,0,.85-2.3,7.289,7.289,0,0,1,.138-2.172,21.443,21.443,0,0,0-.733-3.3c-.437-1.212-.069-1.634-1.947-2.3s-.682-3.056-6.219-1.148a1.515,1.515,0,0,1-1.647.337c-1.022-.374-1.638,1.03-1.638,1.03s-.638-.523-1,.021-2.088-.7-2.723,3.261a12.2,12.2,0,0,0,1.544,7.485s.306-6.332,3.9-6.446,7.662-1.477,8.167,1.189A19.464,19.464,0,0,0,269.056,553.1Z" transform="translate(-231.456 -442.522)" fill="#2f2e41"/>
      <path id="Path_2126" data-name="Path 2126" d="M194.76,753.657c.127.106.256.212.387.315q.408.328.829.638.608.449,1.243.859a24.7,24.7,0,0,0,6.6,3c.571-1.464-.8-3.286-2.319-4.75-.193-.186-.391-.368-.585-.541-.46-.408-.914-.776-1.312-1.084-.018-.014-.035-.025-.051-.039-.753-.58-1.3-.937-1.3-.937l-.484.352Z" transform="translate(-185.836 -604.14)" fill="#ffb8b8"/>
      <path id="Path_2127" data-name="Path 2127" d="M157.26,629.7a24.894,24.894,0,0,0,8.634,15.267c.127.106.256.212.387.315q.408.328.829.638l1.091-.778v0l.5-.357,1.982-1.416.157-.113,1.522-1.087-.435-.511-1.994-2.346-4.685-5.512-1.117-1.312,2.724-3.315v0l2.843-3.461-2.42-15.493a2.573,2.573,0,0,0-1.492-.276h0a1.832,1.832,0,0,0-1.411,1.485C163.824,613.262,159.381,624.413,157.26,629.7Z" transform="translate(-156.97 -495.454)" fill="#d0cde1"/>
    </g>
  </g>
</svg>
