<svg xmlns="http://www.w3.org/2000/svg" width="19.091" height="25.064" viewBox="0 0 19.091 25.064">
  <g id="hindu" transform="translate(0 0)">
    <g id="Group_86" data-name="Group 86" transform="translate(3.566 0.367)">
      <path id="Path_639" data-name="Path 639" d="M194.459,8.779V7.557a5.388,5.388,0,0,1,4.38,1.221A8.465,8.465,0,0,0,194.459,10Z" transform="translate(-188.504 -7.485)" fill="#fd8087"/>
      <path id="Path_640" data-name="Path 640" d="M84.795,302.669H72.836v-9.613a.592.592,0,0,1,.592-.592H84.2a.592.592,0,0,1,.592.592Z" transform="translate(-72.836 -278.51)" fill="#feca9c"/>
      <path id="Path_641" data-name="Path 641" d="M84.794,293.056a.592.592,0,0,0-.592-.593H82.628a8.029,8.029,0,0,1-8.022,8.036H72.835v2.169H84.794Z" transform="translate(-72.835 -278.51)" fill="#fdb97e"/>
      <path id="Path_642" data-name="Path 642" d="M107.078,154.908h-2.387l-2.189,5.429-.517,1.282h9.1l-2.707-6.711Z" transform="translate(-100.558 -147.69)" fill="#ffe3cb"/>
      <path id="Path_643" data-name="Path 643" d="M107.078,154.908h-2.387l-2.189,5.429-.517,1.282h9.1l-2.707-6.711Z" transform="translate(-100.558 -147.69)" fill="#ffe3cb"/>
      <path id="Path_644" data-name="Path 644" d="M108.383,154.908l2.707,6.711h-9.1l.517-1.282h.921a3.941,3.941,0,0,0,3.686-5.35c-.01-.027-.02-.053-.031-.079Z" transform="translate(-100.558 -147.69)" fill="#fedbbd"/>
      <path id="Path_645" data-name="Path 645" d="M160.395,99.244l-1.28-1.129-1.28,1.129a1.67,1.67,0,0,0-.565,1.253v.478h3.691V100.5A1.67,1.67,0,0,0,160.395,99.244Z" transform="translate(-153.135 -93.678)" fill="#feca9c"/>
      <path id="Path_646" data-name="Path 646" d="M160.394,99.244l-1.28-1.129-.025.022.025.022a1.67,1.67,0,0,1,.565,1.252.478.478,0,0,1-.478.478h-1.82a1.67,1.67,0,0,0-.114.606v.478h3.691V100.5A1.67,1.67,0,0,0,160.394,99.244Z" transform="translate(-153.134 -93.678)" fill="#fdb97e"/>
      <path id="Path_647" data-name="Path 647" d="M148.314,360.511H143.2v-2.944a4.771,4.771,0,0,1,1.65-3.61l.717-.62a.222.222,0,0,1,.287,0l.745.619a4.771,4.771,0,0,1,1.719,3.668Z" transform="translate(-139.751 -336.353)" fill="#eaa998"/>
      <path id="Path_648" data-name="Path 648" d="M143.2,401.06h5.118v-2.889a4.773,4.773,0,0,0-.564-2.251,8.017,8.017,0,0,1-4.554,2.8Z" transform="translate(-139.751 -376.902)" fill="#e49280"/>
    </g>
    <path id="Path_649" data-name="Path 649" d="M18.723,24.33H15.892V20.574a.367.367,0,1,0-.734,0V24.33H12.5V21.738a5.27,5.27,0,0,0-1.849-4.028L9.9,17.078a.582.582,0,0,0-.768.007l-.717.633a5.283,5.283,0,0,0-1.774,3.963V24.33H3.933V14.917a.23.23,0,0,1,.23-.23H14.927a.23.23,0,0,1,.23.23v4.2a.367.367,0,1,0,.734,0v-4.2a.966.966,0,0,0-.965-.965h-.572l-2.6-6.439V7.185a2.039,2.039,0,0,0-.689-1.528L9.888,4.617V3.092A8.086,8.086,0,0,1,13.9,2.027a.367.367,0,0,0,.238-.647A5.755,5.755,0,0,0,9.461.076a.367.367,0,0,0-.307.362V4.66l-1.132,1a2.039,2.039,0,0,0-.689,1.528v.328L6.467,9.66a.367.367,0,0,0,.681.275l.8-1.983h3.2l2.411,5.977H5.537l1.08-2.677a.367.367,0,1,0-.681-.275l-1.2,2.975H4.163a.966.966,0,0,0-.965.965V24.33H.367a.367.367,0,0,0,0,.734H18.723a.367.367,0,0,0,0-.735ZM7.378,21.682A4.549,4.549,0,0,1,8.9,18.269l.621-.549.647.55a4.537,4.537,0,0,1,1.59,3.468v2.584H7.378ZM11.686.9a5.032,5.032,0,0,1,1.136.457,8.825,8.825,0,0,0-2.934.9V.76a5.061,5.061,0,0,1,1.8.142ZM8.508,6.208l1.038-.915,1.038.914a1.3,1.3,0,0,1,.441.977v.032H8.067V7.185a1.3,1.3,0,0,1,.441-.977Z" transform="translate(0 0)"/>
  </g>
</svg>
