<svg xmlns="http://www.w3.org/2000/svg" width="20.181" height="21.901" viewBox="0 0 20.181 21.901">
  <g id="Group_75" data-name="Group 75" transform="translate(-75 -393.551)">
    <g id="mosque" transform="translate(75 393.551)">
      <path id="Path_606" data-name="Path 606" d="M395.857,51.551V49.1l1.65-2.342,1.65,2.342V64.971h-3.3V52.918" transform="translate(-379.784 -44.763)" fill="#fee9b8"/>
      <path id="Path_607" data-name="Path 607" d="M397.507,46.759l-.6,2.342V64.967h-1.051V49.1Z" transform="translate(-379.784 -44.759)" fill="#e0c692"/>
      <path id="Path_608" data-name="Path 608" d="M40.233,296.919H29.356L27.7,298.556v7.238H41.885v-7.238Z" transform="translate(-27.379 -284.218)" fill="#fee9b8"/>
      <path id="Path_609" data-name="Path 609" d="M31.5,296.92l-1,1.637v7.238H27.7v-7.238l1.652-1.637Z" transform="translate(-27.379 -284.219)" fill="#e0c692"/>
      <path id="Path_610" data-name="Path 610" d="M59,141.446l-.11.688a3.729,3.729,0,0,1-.741,1.334H47.274a3.73,3.73,0,0,1-.741-1.334l-.11-.688a2.149,2.149,0,0,1,.259-1.054c.827-1.536,6.031-3.782,6.031-3.782a.039.039,0,0,0,.014.007c.305.131,5.215,2.288,6.016,3.774A2.149,2.149,0,0,1,59,141.446Z" transform="translate(-45.296 -130.767)" fill="#ef9e00"/>
      <path id="Path_611" data-name="Path 611" d="M46.423,141.605l.11.688a3.729,3.729,0,0,0,.741,1.334h2.909a4.385,4.385,0,0,1-.883-2.661c0-1.838,3.161-4.023,3.4-4.19-.305.131-5.215,2.288-6.016,3.774A2.149,2.149,0,0,0,46.423,141.605Z" transform="translate(-45.297 -130.926)" fill="#d38802"/>
      <path id="Path_612" data-name="Path 612" d="M147.6,373.484v-3.853l1.962-2,1.962,2v3.853" transform="translate(-142.149 -351.908)" fill="#322020"/>
      <path id="Path_613" data-name="Path 613" d="M144.753,12.021a1.895,1.895,0,0,1-1.481-3.078,2.22,2.22,0,1,0,2.663,2.663A1.887,1.887,0,0,1,144.753,12.021Z" transform="translate(-136.357 -8.56)" fill="#fcd441"/>
      <rect id="Rectangle_107" data-name="Rectangle 107" width="4.266" height="1.367" transform="translate(15.59 20.209)" fill="#e8bc98"/>
      <rect id="Rectangle_108" data-name="Rectangle 108" width="1.554" height="1.367" transform="translate(15.59 20.209)" fill="#d4a77d"/>
      <rect id="Rectangle_109" data-name="Rectangle 109" width="4.266" height="1.367" transform="translate(15.59 6.788)" fill="#e8bc98"/>
      <rect id="Rectangle_110" data-name="Rectangle 110" width="1.554" height="1.367" transform="translate(15.59 6.788)" fill="#d4a77d"/>
      <g id="Group_81" data-name="Group 81" transform="translate(1.897 4.977)">
        <path id="Path_614" data-name="Path 614" d="M418.194,116.948l-.76-.588-.76.588v1.223h1.519Z" transform="translate(-401.609 -116.36)" fill="#322020"/>
        <path id="Path_615" data-name="Path 615" d="M272.642,344.163l-1.114-.861-1.113.861v1.793h2.227Z" transform="translate(-261.605 -333.595)" fill="#322020"/>
        <path id="Path_616" data-name="Path 616" d="M66.676,344.163l-1.114-.861-1.114.861v1.793h2.227Z" transform="translate(-64.449 -333.595)" fill="#322020"/>
      </g>
      <path id="Path_617" data-name="Path 617" d="M381.4,9.206V8.481h.157a.325.325,0,0,0,.325-.325V6.788a.325.325,0,0,0-.325-.325H381.4V4.342a.325.325,0,0,0-.059-.187L379.753,1.9V.339A.334.334,0,0,0,379.438,0a.325.325,0,0,0-.335.325V1.9l-1.591,2.258a.325.325,0,0,0-.059.187V6.463H377.3a.325.325,0,0,0-.325.325V8.155a.325.325,0,0,0,.325.325h.157v11.4H377.3a.325.325,0,0,0-.325.325v1.367a.325.325,0,0,0,.325.325h4.266a.325.325,0,0,0,.325-.325V20.209a.325.325,0,0,0-.325-.325H381.4v-9.16a.325.325,0,0,0-.325-.325h0a.325.325,0,0,0-.325.325v9.16H378.1V8.481h2.65v.725a.325.325,0,0,0,.325.325h0A.325.325,0,0,0,381.4,9.206Zm-.325,11.328h.157v.716H377.62v-.716h3.458ZM377.62,7.114h3.615V7.83h-3.615V7.114Zm2.242-.651h-.869V5.725l.434-.336.434.336ZM378.1,4.446l1.325-1.88,1.325,1.88V6.463h-.24v-.9a.325.325,0,0,0-.126-.257l-.76-.588a.325.325,0,0,0-.4,0l-.76.588a.325.325,0,0,0-.126.257v.9h-.24V4.446Z" transform="translate(-361.705 0)"/>
      <path id="Path_618" data-name="Path 618" d="M264.052,335.766l-1.114.861a.325.325,0,0,0-.126.257v1.793a.325.325,0,0,0,.325.325h2.227a.325.325,0,0,0,.325-.325v-1.793a.325.325,0,0,0-.126-.257l-1.114-.861A.325.325,0,0,0,264.052,335.766Zm.987,2.586h-1.577v-1.308l.788-.61.788.61v1.308Z" transform="translate(-252.43 -321.339)"/>
      <path id="Path_619" data-name="Path 619" d="M59.6,336.628l-1.114-.861a.325.325,0,0,0-.4,0l-1.114.861a.325.325,0,0,0-.126.257v1.793a.325.325,0,0,0,.325.325H59.4a.325.325,0,0,0,.325-.325v-1.793A.325.325,0,0,0,59.6,336.628Zm-.524,1.725H57.5v-1.308l.788-.61.788.61Z" transform="translate(-55.274 -321.339)"/>
      <path id="Path_620" data-name="Path 620" d="M33.39,13.959a4.007,4.007,0,0,0,.617-1.218.334.334,0,0,0,.009-.04l.11-.688a.326.326,0,0,0,0-.048,2.486,2.486,0,0,0-.3-1.211c-.794-1.473-5.041-3.418-5.992-3.839V6.355A2.531,2.531,0,0,0,29.995,4.4a.325.325,0,0,0-.52-.327,1.553,1.553,0,0,1-.98.344,1.572,1.572,0,0,1-1.57-1.57,1.553,1.553,0,0,1,.344-.98.325.325,0,0,0-.327-.52,2.545,2.545,0,0,0,.248,5v.561c-.419.187-1.451.659-2.534,1.24-1.921,1.03-3.084,1.905-3.458,2.6a2.486,2.486,0,0,0-.3,1.21.328.328,0,0,0,0,.048l.11.688a.334.334,0,0,0,.009.04,4.009,4.009,0,0,0,.617,1.218L20.2,15.39a.325.325,0,0,0-.1.231v7.238a.325.325,0,0,0,.325.325H34.605a.325.325,0,0,0,.325-.325V15.621a.325.325,0,0,0-.1-.231ZM25.619,3.829a1.887,1.887,0,0,1,.714-1.485A2.219,2.219,0,0,0,29,5.011a1.9,1.9,0,0,1-3.38-1.182Zm3.532,18.7H25.878v-3.4l1.636-1.666,1.636,1.666Zm5.129,0H29.8V19.006a.325.325,0,0,0-.093-.228l-1.956-1.991a.339.339,0,0,0-.112-.078.326.326,0,0,0-.357.073l-1.962,2a.325.325,0,0,0-.093.228v3.528H20.75V15.757l1.461-1.448h2.978a.325.325,0,0,0,.325-.325h0a.325.325,0,0,0-.325-.325h-2.96a3.426,3.426,0,0,1-.576-1.081l-.1-.643a1.814,1.814,0,0,1,.22-.873c.615-1.143,4.234-2.918,5.743-3.58C27.867,7.639,29,8.15,30.2,8.8c.973.528,2.665,1.525,3.063,2.263a1.815,1.815,0,0,1,.221.874l-.1.643a3.426,3.426,0,0,1-.576,1.081H26.706a.325.325,0,0,0-.325.325h0a.325.325,0,0,0,.325.325h6.113l1.461,1.448v6.777Z" transform="translate(-20.099 -1.283)"/>
    </g>
  </g>
</svg>
