<svg xmlns="http://www.w3.org/2000/svg" width="764.855" height="241.17" viewBox="0 0 764.855 241.17">
  <g id="Group_474" data-name="Group 474" transform="translate(-20.764 -67.699)">
    <g id="Group_475" data-name="Group 475" transform="translate(498.866 78.427)" opacity="0.39">
      <circle id="Ellipse_204" data-name="Ellipse 204" cx="6.745" cy="6.745" r="6.745" transform="translate(217.36 43.951)" fill="#fff"/>
      <path id="Path_1985" data-name="Path 1985" d="M409.575,90.714a1.523,1.523,0,1,1-1.523-1.523A1.523,1.523,0,0,1,409.575,90.714Z" transform="translate(-156.968 -58.295)" fill="#fff"/>
      <circle id="Ellipse_205" data-name="Ellipse 205" cx="7.615" cy="7.615" r="7.615" transform="translate(260.44 112.705)" fill="#fdebe7"/>
      <path id="Path_1986" data-name="Path 1986" d="M431.2,287.648a2.829,2.829,0,1,1-2.829-2.829A2.829,2.829,0,0,1,431.2,287.648Z" transform="translate(-163.146 -121.854)" fill="#fff"/>
      <circle id="Ellipse_206" data-name="Ellipse 206" cx="9.573" cy="9.573" r="9.573" transform="translate(242.55 201.477) rotate(-45)" fill="#fdebe7"/>
      <path id="Path_1987" data-name="Path 1987" d="M457.951,351.139a2.829,2.829,0,1,1-2.829-2.829A2.829,2.829,0,0,1,457.951,351.139Z" transform="translate(-171.837 -142.482)" fill="#fff"/>
      <circle id="Ellipse_207" data-name="Ellipse 207" cx="3.264" cy="3.264" r="3.264" transform="translate(162.313)" fill="#fff"/>
      <circle id="Ellipse_208" data-name="Ellipse 208" cx="6.31" cy="6.31" r="6.31" transform="translate(65.056 9.791)" fill="#fff"/>
      <circle id="Ellipse_209" data-name="Ellipse 209" cx="11.314" cy="11.314" r="11.314" transform="translate(86.488 36.386) rotate(-23.655)" fill="#fdebe7"/>
      <circle id="Ellipse_210" data-name="Ellipse 210" cx="3.481" cy="3.481" r="3.481" transform="translate(36.771 11.749)" fill="#fff"/>
      <circle id="Ellipse_211" data-name="Ellipse 211" cx="4.569" cy="4.569" r="4.569" transform="translate(17.624 40.687)" fill="#fff"/>
      <circle id="Ellipse_212" data-name="Ellipse 212" cx="3.264" cy="3.264" r="3.264" transform="translate(0 94.864)" fill="#fff"/>
      <circle id="Ellipse_213" data-name="Ellipse 213" cx="17.557" cy="17.557" r="17.557" transform="matrix(0.227, -0.974, 0.974, 0.227, -39.103, 222.462)" fill="#fdebe7"/>
      <circle id="Ellipse_214" data-name="Ellipse 214" cx="6.384" cy="6.384" r="6.384" transform="matrix(0.229, -0.973, 0.973, 0.229, 70.404, 216.118)" fill="#fdebe7"/>
      <circle id="Ellipse_215" data-name="Ellipse 215" cx="3.192" cy="3.192" r="3.192" transform="translate(280.367 147.558)" fill="#fff"/>
      <circle id="Ellipse_216" data-name="Ellipse 216" cx="1.995" cy="1.995" r="1.995" transform="translate(272.387 30.244)" fill="#fff"/>
      <circle id="Ellipse_217" data-name="Ellipse 217" cx="1.197" cy="1.197" r="1.197" transform="translate(7.433 128.804)" fill="#fdebe7"/>
    </g>
    <path id="Path_1994" data-name="Path 1994" d="M94.784,165.615c-6.06.921-12.311,1.835-18.256.342s-11.567-6.022-12.388-12.1c-.824-6.095,3.33-11.878,8.371-15.4s11-5.464,16.367-8.472a46.737,46.737,0,0,0,20.66-24c2.565-6.786,3.475-14.459,1.026-21.287s-8.741-12.518-15.986-12.874c-4.3-.211-8.933,1.729-10.877,5.575-2.879,5.7,1.535,12.993,7.536,15.167s12.705.534,18.609-1.89C126.3,83.917,139.694,71.5,152.46,59.106c6.367-6.181,13.248-12.723,21.992-14.236,11.949-2.068,23.434,6.037,30.883,15.606,3.889,5,7.161,10.536,11.8,14.842,10,9.278,25.173,11.366,38.422,8.117S280.439,72.3,290.946,63.6c4.29-3.552,8.785-9.545,5.505-14.046-1.461-2-4.034-2.829-6.472-3.29-8.127-1.537-18.047.609-21.551,8.1-2.262,4.836-1.229,10.527.222,15.665a110.356,110.356,0,0,0,31.382,50.985c6.383,5.859,13.7,11.271,17.215,19.19,2.752,6.2,2.823,13.258,2.158,20.01-.733,7.44-2.36,14.95-6.207,21.361s-10.183,11.623-17.575,12.747-15.636-2.564-18.584-9.435" transform="translate(431.173 68.637)" fill="none" stroke="#fff" stroke-miterlimit="10" stroke-width="0.95" stroke-dasharray="9.501"/>
    <g id="Group_449" data-name="Group 449" transform="translate(59.866 78.427)" opacity="0.39">
      <circle id="Ellipse_204-2" data-name="Ellipse 204" cx="6.745" cy="6.745" r="6.745" transform="translate(217.36 43.951)" fill="#fff"/>
      <path id="Path_1985-2" data-name="Path 1985" d="M409.575,90.714a1.523,1.523,0,1,1-1.523-1.523A1.523,1.523,0,0,1,409.575,90.714Z" transform="translate(-156.968 -58.295)" fill="#fff"/>
      <circle id="Ellipse_205-2" data-name="Ellipse 205" cx="7.615" cy="7.615" r="7.615" transform="translate(260.44 112.705)" fill="#fdebe7"/>
      <path id="Path_1986-2" data-name="Path 1986" d="M431.2,287.648a2.829,2.829,0,1,1-2.829-2.829A2.829,2.829,0,0,1,431.2,287.648Z" transform="translate(-163.146 -121.854)" fill="#fff"/>
      <circle id="Ellipse_206-2" data-name="Ellipse 206" cx="9.573" cy="9.573" r="9.573" transform="translate(242.55 201.477) rotate(-45)" fill="#fdebe7"/>
      <path id="Path_1987-2" data-name="Path 1987" d="M457.951,351.139a2.829,2.829,0,1,1-2.829-2.829A2.829,2.829,0,0,1,457.951,351.139Z" transform="translate(-171.837 -142.482)" fill="#fff"/>
      <circle id="Ellipse_207-2" data-name="Ellipse 207" cx="3.264" cy="3.264" r="3.264" transform="translate(162.313)" fill="#fff"/>
      <circle id="Ellipse_208-2" data-name="Ellipse 208" cx="6.31" cy="6.31" r="6.31" transform="translate(65.056 9.791)" fill="#fff"/>
      <circle id="Ellipse_209-2" data-name="Ellipse 209" cx="11.314" cy="11.314" r="11.314" transform="translate(86.488 36.386) rotate(-23.655)" fill="#fdebe7"/>
      <circle id="Ellipse_210-2" data-name="Ellipse 210" cx="3.481" cy="3.481" r="3.481" transform="translate(36.771 11.749)" fill="#fff"/>
      <circle id="Ellipse_211-2" data-name="Ellipse 211" cx="4.569" cy="4.569" r="4.569" transform="translate(17.624 40.687)" fill="#fff"/>
      <circle id="Ellipse_212-2" data-name="Ellipse 212" cx="3.264" cy="3.264" r="3.264" transform="translate(0 94.864)" fill="#fff"/>
      <circle id="Ellipse_213-2" data-name="Ellipse 213" cx="17.557" cy="17.557" r="17.557" transform="matrix(0.227, -0.974, 0.974, 0.227, -39.103, 222.462)" fill="#fdebe7"/>
      <circle id="Ellipse_214-2" data-name="Ellipse 214" cx="6.384" cy="6.384" r="6.384" transform="matrix(0.229, -0.973, 0.973, 0.229, 70.404, 216.118)" fill="#fdebe7"/>
      <circle id="Ellipse_215-2" data-name="Ellipse 215" cx="3.192" cy="3.192" r="3.192" transform="translate(280.367 147.558)" fill="#fff"/>
      <circle id="Ellipse_216-2" data-name="Ellipse 216" cx="1.995" cy="1.995" r="1.995" transform="translate(272.387 30.244)" fill="#fff"/>
      <circle id="Ellipse_217-2" data-name="Ellipse 217" cx="1.197" cy="1.197" r="1.197" transform="translate(7.433 128.804)" fill="#fdebe7"/>
    </g>
    <path id="Path_1988" data-name="Path 1988" d="M94.784,165.615c-6.06.921-12.311,1.835-18.256.342s-11.567-6.022-12.388-12.1c-.824-6.095,3.33-11.878,8.371-15.4s11-5.464,16.367-8.472a46.737,46.737,0,0,0,20.66-24c2.565-6.786,3.475-14.459,1.026-21.287s-8.741-12.518-15.986-12.874c-4.3-.211-8.933,1.729-10.877,5.575-2.879,5.7,1.535,12.993,7.536,15.167s12.705.534,18.609-1.89C126.3,83.917,139.694,71.5,152.46,59.106c6.367-6.181,13.248-12.723,21.992-14.236,11.949-2.068,23.434,6.037,30.883,15.606,3.889,5,7.161,10.536,11.8,14.842,10,9.278,25.173,11.366,38.422,8.117S280.439,72.3,290.946,63.6c4.29-3.552,8.785-9.545,5.505-14.046-1.461-2-4.034-2.829-6.472-3.29-8.127-1.537-18.047.609-21.551,8.1-2.262,4.836-1.229,10.527.222,15.665a110.356,110.356,0,0,0,31.382,50.985c6.383,5.859,13.7,11.271,17.215,19.19,2.752,6.2,2.823,13.258,2.158,20.01-.733,7.44-2.36,14.95-6.207,21.361s-10.183,11.623-17.575,12.747-15.636-2.564-18.584-9.435" transform="translate(-8.827 23.637)" fill="none" stroke="#fff" stroke-miterlimit="10" stroke-width="0.95" stroke-dasharray="9.501"/>
    <path id="Path_1989" data-name="Path 1989" d="M422.1,127.179c17.351-10.794,24.759,6.731-6.7,15.073C405.326,111.038,419.871,106.242,422.1,127.179Z" transform="translate(-98.841 -8.075)" fill="#fff" opacity="0.39"/>
    <path id="Path_1990" data-name="Path 1990" d="M337.676,80.7c10.61-6.6,15.14,4.116-4.1,9.217C327.42,70.836,336.313,67.9,337.676,80.7Z" transform="translate(-72.702 5.417)" fill="#fff" opacity="0.39"/>
    <path id="Path_1991" data-name="Path 1991" d="M73.228,139.676c2.364-20.3,20.689-15.176,7.619,14.63C50.153,142.743,55.462,128.377,73.228,139.676Z" transform="translate(-7.144 -27.306)" fill="#fff" opacity="0.31"/>
    <path id="Path_1992" data-name="Path 1992" d="M379.789,150.113c.068-5.877,5.464-4.961,2.618,3.957C373.281,151.682,374.369,147.414,379.789,150.113Z" transform="translate(-110.062 -33.453)" fill="#fff"/>
    <path id="Path_1993" data-name="Path 1993" d="M110.724,97.337c-.762-5.828,4.709-5.683,3.151,3.548C104.5,99.809,104.977,95.429,110.724,97.337Z" transform="translate(-22.651 -16.229)" fill="#fff"/>
  </g>
</svg>
