<svg xmlns="http://www.w3.org/2000/svg" width="14.5" height="23.287" viewBox="0 0 14.5 23.287">
  <g id="jainism" transform="translate(-96.597)">
    <path id="Path_697" data-name="Path 697" d="M117.535,16.218h0a1.364,1.364,0,0,0-1.364,1.364V11.606a1.373,1.373,0,1,0-2.746,0V10.146a1.373,1.373,0,0,0-1.373-1.373h0a1.373,1.373,0,0,0-1.373,1.373v1.811a1.373,1.373,0,0,0-1.373-1.373h0a1.373,1.373,0,0,0-1.373,1.373v3.069a1.373,1.373,0,0,0-1.373-1.373h0a1.373,1.373,0,0,0-1.373,1.373v9.389a6.855,6.855,0,0,0,6.855,6.855h0a6.855,6.855,0,0,0,6.855-6.855V17.582A1.363,1.363,0,0,0,117.535,16.218Z" transform="translate(-8.201 -8.374)" fill="#f7b239"/>
    <circle id="Ellipse_96" data-name="Ellipse 96" cx="3.451" cy="3.451" r="3.451" transform="translate(100.347 13.386)" fill="#ccc"/>
    <path id="Path_698" data-name="Path 698" d="M96.993,13.059a.4.4,0,0,0,.4-.4V6.648a.978.978,0,0,1,1.955,0v5.485a.4.4,0,0,0,.79,0V3.579a.978.978,0,0,1,1.955,0v7.793a.4.4,0,1,0,.79,0v-9.6a.978.978,0,0,1,1.955,0v9.658a.4.4,0,1,0,.79,0v-8.2a.978.978,0,1,1,1.955,0v.1a.4.4,0,1,0,.79,0v-.1a1.767,1.767,0,0,0-2.746-1.472,1.768,1.768,0,0,0-3.536.012v.339a1.767,1.767,0,0,0-2.746,1.472v1.6A1.767,1.767,0,0,0,96.6,6.648v6.016A.4.4,0,0,0,96.993,13.059Z" transform="translate(-0.001)"/>
    <path id="Path_699" data-name="Path 699" d="M109.338,96.749a1.748,1.748,0,0,0-.969.291V93.955a.4.4,0,1,0-.79,0V103.5a.4.4,0,1,0,.79,0V98.508a.969.969,0,0,1,1.937,0v6.834a6.46,6.46,0,0,1-12.92,0v-2.056a.4.4,0,0,0-.79,0v2.056a7.25,7.25,0,0,0,14.5,0V98.508A1.761,1.761,0,0,0,109.338,96.749Z" transform="translate(0 -89.305)"/>
    <path id="Path_700" data-name="Path 700" d="M173.146,284.33a3.9,3.9,0,1,0,3.9,3.9A3.905,3.905,0,0,0,173.146,284.33Zm1.666,4.3h1.419a3.094,3.094,0,0,1-.625,1.506l-1-1a.4.4,0,0,0-.559.559l1,1a3.1,3.1,0,0,1-1.506.625V289.9a.4.4,0,0,0-.79,0v1.419a3.094,3.094,0,0,1-1.506-.625l1-1a.4.4,0,0,0-.559-.559l-1,1a3.1,3.1,0,0,1-.625-1.506h1.419a.4.4,0,0,0,0-.79h-1.419a3.1,3.1,0,0,1,.625-1.506l1,1a.4.4,0,0,0,.559-.559l-1-1a3.1,3.1,0,0,1,1.506-.625v1.419a.4.4,0,1,0,.79,0v-1.419a3.1,3.1,0,0,1,1.506.625l-1,1a.4.4,0,0,0,.559.559l1-1a3.1,3.1,0,0,1,.625,1.506h-1.419a.4.4,0,0,0,0,.79Z" transform="translate(-69.344 -271.398)"/>
    <circle id="Ellipse_97" data-name="Ellipse 97" cx="0.395" cy="0.395" r="0.395" transform="translate(103.407 16.438)"/>
  </g>
</svg>
