<svg xmlns="http://www.w3.org/2000/svg" xmlns:xlink="http://www.w3.org/1999/xlink" width="77.61" height="85.21" viewBox="0 0 77.61 85.21">
  <defs>
    <clipPath id="clip-path">
      <rect width="77.61" height="85.21" fill="none"/>
    </clipPath>
  </defs>
  <g id="kids" clip-path="url(#clip-path)">
    <g id="kids-2" data-name="kids" transform="translate(-1.436)">
      <path id="Path_1614" data-name="Path 1614" d="M18.732,17.482A14.412,14.412,0,0,1,4.1,3.338a1.309,1.309,0,0,0-1.33-1.286,1.309,1.309,0,0,0-1.33,1.286c.011,9.228,7.749,16.705,17.3,16.715H29.376V17.482Z" transform="translate(0 5.234)" fill="#ffb4a9"/>
      <path id="Path_1615" data-name="Path 1615" d="M23.544,6.4H15.561V8.971h7.983A14.412,14.412,0,0,1,38.179,23.116a1.331,1.331,0,0,0,2.661,0C40.829,13.888,33.092,6.41,23.544,6.4Z" transform="translate(37.763 16.317)" fill="#ffd9d4"/>
      <path id="Path_1616" data-name="Path 1616" d="M35.206,40.6l-1.77-5.133,0-.011a1.328,1.328,0,0,0-1.262-.879H20.639a1.31,1.31,0,0,1-1.33-1.286V10.141H16.648V33.287a3.931,3.931,0,0,0,3.991,3.857H31.211l1.471,4.264a1.341,1.341,0,0,0,1.683.813,1.277,1.277,0,0,0,.841-1.627Z" transform="translate(40.667 25.863)" fill="#ffd9d4"/>
      <path id="Path_1617" data-name="Path 1617" d="M13.751,11.59h2.661V45.365H13.751Z" transform="translate(32.921 29.558)" fill="#fff0d3"/>
      <path id="Path_1618" data-name="Path 1618" d="M7.231,11.59H9.892V45.365H7.231Z" transform="translate(15.492 29.558)" fill="#ffb4a9"/>
      <path id="Path_1619" data-name="Path 1619" d="M10.129,11.59H12.79V45.365H10.129Z" transform="translate(23.238 29.558)" fill="#ff8d7e"/>
      <path id="Path_1620" data-name="Path 1620" d="M20.642,5.8H15.32v12l8.87-3.43V9.224A3.491,3.491,0,0,0,20.642,5.8Z" transform="translate(37.117 14.779)" fill="#ffd9d4"/>
      <path id="Path_1621" data-name="Path 1621" d="M20.477,5.8H16.929a3.491,3.491,0,0,0-3.549,3.43v5.143L24.024,17.8V9.224A3.491,3.491,0,0,0,20.477,5.8Z" transform="translate(31.96 14.779)" fill="#fff0d3"/>
      <path id="Path_1622" data-name="Path 1622" d="M24.19,17.527V10.669a3.51,3.51,0,0,0-3.572-3.43,3.622,3.622,0,0,0-1.75.449L15.32,20.956Z" transform="translate(37.117 18.477)" fill="#ffa754"/>
      <path id="Path_1623" data-name="Path 1623" d="M23.274,8.248l-1.91,1.846a.007.007,0,0,1-.009,0l-1.91-1.846A3.638,3.638,0,0,0,15.578,7.5a3.43,3.43,0,0,0-2.19,3.168v6.858l10.644,3.43V7.692a3.556,3.556,0,0,0-.759.556Z" transform="translate(31.953 18.473)" fill="#ffcb63"/>
      <path id="Path_1624" data-name="Path 1624" d="M13.388,10.141v15.43a2.663,2.663,0,0,0,5.322,0V22.559a8.252,8.252,0,0,0,5.322,0l3.549-3.637-3.549-8.781Z" transform="translate(31.953 25.863)" fill="#7dd9ff"/>
      <path id="Path_1625" data-name="Path 1625" d="M16.286,10.141v15.43a2.663,2.663,0,0,0,5.322,0V10.141Z" transform="translate(39.699 25.863)" fill="#49c9ff"/>
      <path id="Path_1626" data-name="Path 1626" d="M15.561,10.141Z" transform="translate(37.763 25.863)" fill="#ff6b8a"/>
      <path id="Path_1627" data-name="Path 1627" d="M31.275,7.715a3.869,3.869,0,0,0-2.667-3.639c0-.072.006-.145.006-.218A3.926,3.926,0,0,0,24.622,0H19.3V15.43h5.322a3.926,3.926,0,0,0,3.991-3.857c0-.073,0-.147-.007-.218a3.869,3.869,0,0,0,2.667-3.64Z" transform="translate(47.771 0)" fill="#ff4996"/>
      <path id="Path_1628" data-name="Path 1628" d="M33.3,11.573c0-.073,0-.147-.007-.218a3.817,3.817,0,0,0,0-7.279c0-.072.007-.145.007-.218A3.926,3.926,0,0,0,29.309,0H15.561V15.43H29.309A3.926,3.926,0,0,0,33.3,11.573Z" transform="translate(37.763 0)" fill="#ff6b8a"/>
      <path id="Path_1629" data-name="Path 1629" d="M18.061,1.427l-2.5,10.364a7.852,7.852,0,0,0,7.983-7.715Z" transform="translate(37.763 3.639)" fill="#ffd9d4"/>
      <path id="Path_1630" data-name="Path 1630" d="M24.032,6.607a21.3,21.3,0,0,0-.161-2.649L16.581.435A7.567,7.567,0,0,0,13.8,9.047a7.965,7.965,0,0,0,7.573,5.275C22.841,14.322,24.032,10.868,24.032,6.607Z" transform="translate(31.953 1.108)" fill="#fff0d3"/>
      <path id="Path_1631" data-name="Path 1631" d="M15.561,0,18.2,6.829a16.43,16.43,0,0,0,5.34.886A7.852,7.852,0,0,0,15.561,0Z" transform="translate(37.763 0)" fill="#ff4996"/>
      <path id="Path_1632" data-name="Path 1632" d="M19.047,0a8.13,8.13,0,0,0-4.79,1.543A15.98,15.98,0,0,0,21.69,6.829C21.539,2.986,20.414,0,19.047,0Z" transform="translate(34.277)" fill="#ff6b8a"/>
      <ellipse id="Ellipse_163" data-name="Ellipse 163" cx="2.661" cy="2.572" rx="2.661" ry="2.572" transform="translate(53.324 80.066)" fill="#30b054"/>
      <ellipse id="Ellipse_164" data-name="Ellipse 164" cx="2.661" cy="2.572" rx="2.661" ry="2.572" transform="translate(13.41 80.066)" fill="#80bf63"/>
      <path id="Path_1633" data-name="Path 1633" d="M18.962,8.692H8.318V22.408l10.644-3.43Z" transform="translate(18.397 22.169)" fill="#ff8d7e"/>
      <path id="Path_1634" data-name="Path 1634" d="M17.513,8.692H6.869V18.979l10.644,3.43Z" transform="translate(14.524 22.169)" fill="#ffb4a9"/>
      <path id="Path_1635" data-name="Path 1635" d="M6.869,11.59V21.877a2.663,2.663,0,0,0,5.322,0V18.864a8.252,8.252,0,0,0,5.322,0l3.549-3.637V11.59Z" transform="translate(14.524 29.558)" fill="#49c9ff"/>
      <path id="Path_1636" data-name="Path 1636" d="M9.767,11.59V21.877a2.663,2.663,0,0,0,5.322,0V11.59Z" transform="translate(22.27 29.558)" fill="#2dade3"/>
      <path id="Path_1637" data-name="Path 1637" d="M11.542,1.427l-2.5,10.364a7.852,7.852,0,0,0,7.983-7.715Z" transform="translate(20.334 3.639)" fill="#ff8d7e"/>
      <path id="Path_1638" data-name="Path 1638" d="M17.513,6.607a21.3,21.3,0,0,0-.161-2.649L10.062.435A7.567,7.567,0,0,0,7.279,9.047a7.965,7.965,0,0,0,7.573,5.275C16.321,14.322,17.513,10.868,17.513,6.607Z" transform="translate(14.524 1.108)" fill="#ffb4a9"/>
      <path id="Path_1639" data-name="Path 1639" d="M9.042,0l2.643,6.829a16.43,16.43,0,0,0,5.34.886A7.852,7.852,0,0,0,9.042,0Z" transform="translate(20.334 0)" fill="#ffcb63"/>
      <path id="Path_1640" data-name="Path 1640" d="M12.528,0a8.129,8.129,0,0,0-4.79,1.543,15.98,15.98,0,0,0,7.433,5.286C15.019,2.986,13.894,0,12.528,0Z" transform="translate(16.848 0)" fill="#ffe2a8"/>
      <path id="Path_1641" data-name="Path 1641" d="M14.847,5.8H9.525l3.549,19.973a16.926,16.926,0,0,0,5.321.771V9.224A3.491,3.491,0,0,0,14.847,5.8Z" transform="translate(21.625 14.779)" fill="#ccc"/>
      <path id="Path_1642" data-name="Path 1642" d="M18.559,5.8H9.69a3.491,3.491,0,0,0-3.549,3.43V19.254c8.494,0,10.21,4.64,15.966,6.515V9.224A3.491,3.491,0,0,0,18.559,5.8Z" transform="translate(12.59 14.779)" fill="#ebebeb"/>
      <path id="Path_1643" data-name="Path 1643" d="M52.837,25.16H7.6A3.931,3.931,0,0,1,3.61,21.3a1.331,1.331,0,0,1,2.661,0A1.31,1.31,0,0,0,7.6,22.588H52.837a1.31,1.31,0,0,0,1.33-1.286,1.331,1.331,0,0,1,2.661,0A3.931,3.931,0,0,1,52.837,25.16Z" transform="translate(5.809 51.049)" fill="#4f4f4f"/>
    </g>
  </g>
</svg>
