<svg xmlns="http://www.w3.org/2000/svg" width="29.972" height="40.027" viewBox="0 0 29.972 40.027">
  <g id="location-pin" transform="translate(-0.215 0)">
    <path id="Path_2169" data-name="Path 2169" d="M80.224,362.777c0-2.563-4.464-4.64-9.971-4.64s-9.971,2.077-9.971,4.64,4.464,4.64,9.971,4.64S80.224,365.339,80.224,362.777Zm0,0" transform="translate(-54.966 -327.729)" fill="#82d9ff"/>
    <path id="Path_2170" data-name="Path 2170" d="M66.592,364.1c-5.782,0-10.311-2.187-10.311-4.98s4.529-4.98,10.311-4.98,10.312,2.187,10.312,4.98S72.374,364.1,66.592,364.1Zm0-9.28c-5.221,0-9.632,1.969-9.632,4.3s4.411,4.3,9.632,4.3,9.632-1.969,9.632-4.3S71.812,354.816,66.592,354.816Zm0,0" transform="translate(-51.306 -324.069)" fill="#63312d"/>
    <path id="Path_2171" data-name="Path 2171" d="M153.123,4.007H148.56v.014a12.225,12.225,0,0,1,11.968,12.218c0,7.856-12.232,23.015-12.232,23.015h4.827s12.232-15.16,12.232-23.015A12.231,12.231,0,0,0,153.123,4.007Zm0,0" transform="translate(-135.508 -3.667)" fill="#db785a"/>
    <path id="Path_2172" data-name="Path 2172" d="M28.686,16.239c0,7.856-12.232,23.015-12.232,23.015S4.222,24.138,4.222,16.239a12.232,12.232,0,0,1,24.464,0Zm0,0" transform="translate(-3.667 -3.667)" fill="#f9a287"/>
    <path id="Path_2173" data-name="Path 2173" d="M5.581,16.239a12.223,12.223,0,0,1,11.553-12.2c-.226-.012-.45-.034-.679-.034A12.232,12.232,0,0,0,4.223,16.239c0,7.9,12.232,23.015,12.232,23.015s.254-.315.679-.864c-2.563-3.3-11.552-15.378-11.552-22.151Zm0,0" transform="translate(-3.668 -3.668)" fill="#ffc8bb"/>
    <path id="Path_2174" data-name="Path 2174" d="M12.787,35.926a.339.339,0,0,1-.264-.126C12.02,35.179.215,20.5.215,12.571a12.572,12.572,0,0,1,25.143,0c0,7.885-11.8,22.605-12.307,23.228a.332.332,0,0,1-.263.127Zm0-35.247A11.906,11.906,0,0,0,.895,12.572c0,7.049,10.115,20.21,11.892,22.469C14.564,32.777,24.68,19.582,24.68,12.572A11.906,11.906,0,0,0,12.787.68Zm0,0" fill="#63312d"/>
    <path id="Path_2175" data-name="Path 2175" d="M153.124,35.934H148.3v-.679h4.664c1.17-1.476,12.056-15.4,12.056-22.675A11.906,11.906,0,0,0,153.124.687h-4.563V.008h4.563A12.586,12.586,0,0,1,165.7,12.579c0,7.885-11.8,22.605-12.307,23.228a.341.341,0,0,1-.265.126Zm0,0" transform="translate(-135.509 -0.008)" fill="#63312d"/>
    <path id="Path_2176" data-name="Path 2176" d="M85.665,85.022a6.4,6.4,0,1,1-6.4-6.4A6.4,6.4,0,0,1,85.665,85.022Zm0,0" transform="translate(-66.473 -71.943)" fill="#f8f3f3"/>
    <path id="Path_2177" data-name="Path 2177" d="M75.6,88.105a6.744,6.744,0,1,1,6.744-6.744A6.752,6.752,0,0,1,75.6,88.105Zm0-12.809a6.065,6.065,0,1,0,6.065,6.065A6.072,6.072,0,0,0,75.6,75.3Zm0,0" transform="translate(-62.813 -68.282)" fill="#63312d"/>
  </g>
</svg>
