<svg xmlns="http://www.w3.org/2000/svg" width="92.78" height="86.381" viewBox="0 0 92.78 86.381">
  <g id="Group_627" data-name="Group 627" transform="translate(-141 -194)">
    <g id="flat" transform="translate(117 154)">
      <path id="Path_1134" data-name="Path 1134" d="M228.794,184a28.794,28.794,0,1,0,28.794,28.794A28.794,28.794,0,0,0,228.794,184Zm0,51.189a22.4,22.4,0,1,1,22.4-22.4,22.4,22.4,0,0,1-22.4,22.4Z" transform="translate(-140.808 -115.206)" fill="#ea9d2d"/>
      <path id="Path_1135" data-name="Path 1135" d="M52.794,112a28.794,28.794,0,1,0,28.794,28.794A28.794,28.794,0,0,0,52.794,112Zm0,51.189a22.4,22.4,0,1,1,22.4-22.4,22.4,22.4,0,0,1-22.4,22.4Z" transform="translate(0 -57.603)" fill="#fbb540"/>
      <path id="Path_1136" data-name="Path 1136" d="M369.593,393.305a1.6,1.6,0,0,1-.641-3.066,14.444,14.444,0,0,0,1.44-.728,1.6,1.6,0,1,1,1.6,2.77,17.6,17.6,0,0,1-1.76.89A1.591,1.591,0,0,1,369.593,393.305Z" transform="translate(-275.208 -279.452)" fill="#ffd6db"/>
      <path id="Path_1137" data-name="Path 1137" d="M401.6,332.8a1.6,1.6,0,0,1-1.278-2.56A14.271,14.271,0,0,0,403.2,321.6a1.6,1.6,0,0,1,3.2,0,17.447,17.447,0,0,1-3.519,10.559A1.6,1.6,0,0,1,401.6,332.8Z" transform="translate(-300.821 -224.012)" fill="#ffd6db"/>
      <path id="Path_1138" data-name="Path 1138" d="M134.4,46.4,123.2,60.8,112,46.4l4.8-6.4h12.8Z" transform="translate(-70.404)" fill="#0a9acd"/>
      <path id="Path_1139" data-name="Path 1139" d="M112,46.4h22.4L129.6,40H116.8Z" transform="translate(-70.404)" fill="#0bafea"/>
      <path id="Path_1140" data-name="Path 1140" d="M153.6,46.4,148.8,40,144,46.4Z" transform="translate(-96.005)" fill="#8feaff"/>
      <path id="Path_1141" data-name="Path 1141" d="M148.8,86.4,153.6,72H144Z" transform="translate(-96.005 -25.601)" fill="#0bafea"/>
      <path id="Path_1142" data-name="Path 1142" d="M312.868,136a4.228,4.228,0,0,1,2.99,1.238l1.961,1.961,1.961-1.961a4.228,4.228,0,0,1,7,1.653,3.253,3.253,0,0,1-.786,3.33l-8.175,8.176-8.176-8.176a3.254,3.254,0,0,1-.786-3.33A4.228,4.228,0,0,1,312.868,136Z" transform="translate(-227.764 -76.804)" fill="#f16465"/>
    </g>
  </g>
</svg>
