<!DOCTYPE svg PUBLIC "-//W3C//DTD SVG 20010904//EN" "http://www.w3.org/TR/2001/REC-SVG-20010904/DTD/svg10.dtd">
<svg version="1.0" xmlns="http://www.w3.org/2000/svg" width="323px" height="238px" viewBox="0 0 3230 2380" preserveAspectRatio="xMidYMid meet">
<g id="layer101" fill="#ffffff" stroke="none">
 <path d="M95 2357 c-127 -72 -124 -249 5 -314 53 -28 101 -29 155 -4 55 25 92 71 101 126 9 63 -1 105 -37 148 -56 68 -149 86 -224 44z"/>
 <path d="M1094 2265 c-28 -29 -25 -68 8 -97 28 -25 55 -22 83 7 31 30 32 65 2 93 -31 29 -62 28 -93 -3z"/>
 <path d="M3174 2216 c-20 -15 -13 -43 12 -53 10 -4 22 1 30 11 24 33 -9 66 -42 42z"/>
 <path d="M2858 2197 c-32 -30 -44 -79 -28 -116 17 -43 79 -68 123 -52 42 16 67 51 67 94 0 83 -102 129 -162 74z"/>
 <path d="M2990 1785 c-15 -18 -7 -43 16 -52 24 -9 46 24 33 48 -12 23 -32 24 -49 4z"/>
 <path d="M3164 1636 c-12 -31 0 -51 31 -51 27 0 30 3 30 30 0 25 -4 30 -28 33 -17 2 -29 -2 -33 -12z"/>
 <path d="M2590 1503 c0 -10 91 -25 99 -17 9 9 -10 17 -54 21 -27 4 -45 2 -45 -4z"/>
 <path d="M2466 1450 c-37 -41 -42 -50 -28 -50 10 0 75 80 69 86 -2 2 -21 -14 -41 -36z"/>
 <path d="M2782 1395 c18 -25 36 -45 41 -45 10 0 3 13 -30 58 -37 49 -47 38 -11 -13z"/>
 <path d="M430 1405 c0 -8 7 -15 15 -15 8 0 15 7 15 15 0 8 -7 15 -15 15 -8 0 -15 -7 -15 -15z"/>
 <path d="M3002 1383 c-7 -3 -19 -18 -28 -35 -42 -81 58 -157 121 -93 63 62 -9 162 -93 128z"/>
 <path d="M2845 1238 c11 -55 16 -68 26 -68 6 0 8 8 5 18 -2 9 -7 32 -11 50 -4 17 -11 32 -17 32 -6 0 -7 -13 -3 -32z"/>
 <path d="M520 1230 c0 -12 28 -20 73 -20 24 0 37 4 31 9 -12 11 -104 21 -104 11z"/>
 <path d="M410 1219 c-30 -12 -60 -38 -60 -52 0 -6 8 -3 18 6 9 8 29 20 45 26 15 6 27 15 27 21 0 5 -1 10 -2 9 -2 0 -14 -5 -28 -10z"/>
 <path d="M362 1088 c2 -27 7 -33 27 -33 28 0 47 25 38 49 -4 10 -18 16 -37 16 -29 0 -31 -2 -28 -32z"/>
 <path d="M310 1055 c9 -38 26 -65 42 -65 6 0 5 7 -2 15 -7 8 -15 29 -19 47 -4 17 -12 33 -18 35 -8 3 -9 -7 -3 -32z"/>
 <path d="M2856 1033 c-6 -43 -2 -63 9 -51 11 10 17 98 8 98 -6 0 -13 -21 -17 -47z"/>
 <path d="M410 932 c0 -7 82 -52 95 -52 19 0 -2 20 -40 38 -50 24 -55 26 -55 14z"/>
 <path d="M2773 870 c-18 -21 -33 -42 -33 -46 0 -11 59 47 71 69 17 30 -5 18 -38 -23z"/>
 <path d="M580 852 c0 -6 18 -25 40 -42 22 -17 40 -27 40 -22 0 6 -18 25 -40 42 -22 17 -40 27 -40 22z"/>
 <path d="M2630 735 c-19 -19 -29 -35 -24 -35 6 0 25 16 44 35 19 19 29 35 24 35 -6 0 -25 -16 -44 -35z"/>
 <path d="M732 675 c12 -25 26 -45 30 -45 12 0 10 7 -12 50 -28 55 -45 50 -18 -5z"/>
 <path d="M2580 680 c-16 -4 -33 -21 -48 -50 -13 -25 -31 -53 -39 -62 -9 -10 -12 -18 -6 -18 5 0 18 9 28 20 18 20 18 20 31 1 18 -25 59 -34 87 -20 30 16 37 28 37 65 0 47 -42 76 -90 64z"/>
 <path d="M2911 632 c-6 -20 -15 -69 -18 -109 -5 -60 -9 -72 -25 -77 -25 -6 -18 -32 7 -29 10 1 26 -8 35 -19 28 -36 70 3 82 77 3 14 10 19 23 17 68 -12 107 -13 120 -2 39 32 -6 95 -98 138 -102 48 -112 48 -126 4z"/>
 <path d="M1323 635 c-39 -16 -63 -60 -63 -113 0 -103 129 -148 202 -70 51 55 31 155 -37 184 -42 17 -61 17 -102 -1z"/>
 <path d="M544 585 c-15 -23 -15 -27 0 -50 29 -44 86 -28 86 25 0 53 -57 69 -86 25z"/>
 <path d="M433 570 c-74 -34 -129 -75 -148 -111 -30 -56 29 -76 106 -35 25 13 26 12 43 -36 12 -34 25 -53 44 -61 15 -6 42 -22 61 -34 34 -23 61 -30 61 -15 0 4 -16 14 -36 21 -30 11 -35 16 -29 34 4 12 9 45 12 74 4 40 10 54 24 58 11 4 19 11 19 16 0 11 -7 11 -29 0 -15 -9 -19 -3 -30 39 -21 80 -26 83 -98 50z"/>
 <path d="M780 490 c0 -27 5 -50 10 -50 6 0 10 23 10 50 0 28 -4 50 -10 50 -5 0 -10 -22 -10 -50z"/>
 <path d="M2438 514 c-35 -18 -36 -34 -3 -34 16 0 25 -6 25 -15 0 -20 29 -19 36 0 9 22 -4 65 -19 65 -6 -1 -24 -8 -39 -16z"/>
 <path d="M670 491 c0 -4 15 -11 33 -14 17 -3 40 -8 50 -12 10 -4 17 -3 17 3 0 6 -17 16 -37 21 -46 13 -63 14 -63 2z"/>
 <path d="M2412 425 c-27 -55 -10 -60 18 -5 22 43 24 50 12 50 -4 0 -18 -20 -30 -45z"/>
 <path d="M3080 430 c0 -16 5 -21 23 -18 12 2 22 10 22 18 0 8 -10 16 -22 18 -18 3 -23 -2 -23 -18z"/>
 <path d="M850 430 c0 -12 80 -63 88 -56 7 7 7 7 -45 40 -24 14 -43 22 -43 16z"/>
 <path d="M2080 411 c0 -9 90 -21 100 -14 2 2 -2 8 -10 13 -19 12 -90 13 -90 1z"/>
 <path d="M1938 383 c-21 -8 -38 -20 -38 -25 0 -6 8 -7 18 -3 9 4 29 12 45 17 15 5 27 14 27 19 0 12 -8 11 -52 -8z"/>
 <path d="M2270 381 c0 -5 12 -14 28 -19 15 -5 35 -13 45 -17 9 -4 17 -3 17 3 0 5 -18 17 -40 26 -47 19 -50 19 -50 7z"/>
 <path d="M728 341 c-9 -10 -24 -24 -34 -29 -11 -6 -16 -13 -12 -17 9 -9 56 23 69 46 13 25 -2 24 -23 0z"/>
 <path d="M1011 283 c-1 -31 4 -48 19 -63 41 -41 110 -11 110 48 0 43 -29 64 -82 60 l-45 -3 -2 -42z"/>
 <path d="M2440 301 c0 -6 20 -24 45 -41 25 -17 45 -26 45 -21 0 6 -20 24 -45 41 -25 17 -45 26 -45 21z"/>
 <path d="M734 286 c-3 -8 -4 -25 -2 -38 2 -18 9 -23 33 -23 26 0 30 4 33 29 2 16 -2 32 -10 37 -20 13 -48 11 -54 -5z"/>
 <path d="M1804 278 c-36 -41 -47 -58 -37 -58 5 0 24 18 42 40 33 42 29 57 -5 18z"/>
 <path d="M2352 263 c-6 -21 -9 -67 -6 -103 4 -58 9 -69 39 -99 19 -19 37 -32 41 -28 4 3 -7 18 -24 32 -31 26 -31 26 -12 45 11 11 20 29 20 40 0 18 5 19 45 13 35 -4 46 -2 51 10 10 27 -16 58 -72 84 -30 13 -54 29 -54 34 0 23 -18 5 -28 -28z"/>
 <path d="M1150 194 c0 -13 68 -79 75 -73 2 3 -13 23 -35 44 -22 22 -40 35 -40 29z"/>
 <path d="M2604 168 c9 -13 21 -33 26 -45 11 -27 33 -31 22 -5 -9 24 -48 72 -57 72 -4 0 0 -10 9 -22z"/>
 <path d="M1992 168 c-28 -28 -1 -75 38 -63 14 4 20 15 20 35 0 36 -33 53 -58 28z"/>
 <path d="M618 159 c-24 -13 -23 -29 1 -29 11 0 21 -9 24 -21 9 -33 32 -17 35 24 3 33 1 37 -20 37 -13 0 -31 -5 -40 -11z"/>
 <path d="M1670 115 c-18 -19 -31 -37 -29 -40 3 -2 23 13 44 35 22 22 35 40 29 40 -6 0 -25 -16 -44 -35z"/>
 <path d="M1290 65 c0 -6 73 -55 82 -55 19 0 5 17 -32 38 -39 22 -50 26 -50 17z"/>
 <path d="M1513 27 c-44 -11 -58 -27 -24 -27 27 0 81 21 81 31 0 10 2 10 -57 -4z"/>
 <path d="M2553 33 c-47 -5 -60 -23 -15 -23 37 0 72 10 72 21 0 5 -3 8 -7 7 -5 -1 -27 -3 -50 -5z"/>
 </g>

</svg>