<svg xmlns="http://www.w3.org/2000/svg" width="25.085" height="22.451" viewBox="0 0 25.085 22.451">
  <g id="Group_360" data-name="Group 360" transform="translate(-2611.35 -1955)">
    <path id="Path_37" data-name="Path 37" d="M2619.732,1967.423c-4.543,0-8.382,3.224-8.382,7.051a6.545,6.545,0,0,0,1.907,4.546.249.249,0,0,1,.061.109,3.934,3.934,0,0,1-.3,2.907l-.273.53.577-.146a4.943,4.943,0,0,0,2.466-1.469.265.265,0,0,1,.188-.079.24.24,0,0,1,.091.018,10.819,10.819,0,0,0,3.663.633c4.452,0,8.066-3.163,8.066-7.05S2624.185,1967.423,2619.732,1967.423Zm-4.993,6a.522.522,0,0,1,.523-.518.521.521,0,0,1,0,1.042A.523.523,0,0,1,2614.739,1973.425Zm9.154,3.388h-8.631a.257.257,0,0,1-.256-.256.252.252,0,0,1,.256-.25h8.631a.252.252,0,0,1,.255.25A.257.257,0,0,1,2623.893,1976.814Zm0-3.132h-6.554a.253.253,0,0,1,0-.506h6.554a.253.253,0,1,1,0,.506Z" transform="translate(0 -5.116)" fill="#fff"/>
    <path id="Path_38" data-name="Path 38" d="M2640.511,1966.707a.261.261,0,0,1,.061-.1,6.569,6.569,0,0,0,1.907-4.552c0-3.821-3.838-7.051-8.382-7.051-4.2,0-7.732,2.864-8.048,6.521l-.024.281.279.012a9.407,9.407,0,0,1,3.76,1l.972.536.583.475a7.215,7.215,0,0,1,2.709,5.015l.018.262.261-.012a10.3,10.3,0,0,0,3.153-.622.237.237,0,0,1,.091-.018.25.25,0,0,1,.188.085,4.96,4.96,0,0,0,2.466,1.469l.577.14-.274-.53A3.928,3.928,0,0,1,2640.511,1966.707Zm-7.891-7h6.554a.253.253,0,1,1,0,.506h-6.554a.253.253,0,0,1,0-.506Zm-1.47-.268a.521.521,0,1,1-.522.524A.523.523,0,0,1,2631.151,1959.442Zm8.5,3.115h-8.631a.257.257,0,0,1-.255-.256.252.252,0,0,1,.255-.25h8.631a.252.252,0,0,1,.255.25A.257.257,0,0,1,2639.655,1962.557Z" transform="translate(-6.043)" fill="#fff"/>
  </g>
</svg>
