<svg xmlns="http://www.w3.org/2000/svg" width="93.877" height="85.714" viewBox="0 0 93.877 85.714">
    <path id="id-card"
          d="M93.877,83.673V26.53a2.041,2.041,0,0,0-2.041-2.041H55.1V2.041A2.041,2.041,0,0,0,53.061,0H40.816a2.041,2.041,0,0,0-2.041,2.041V24.49H2.041A2.041,2.041,0,0,0,0,26.53V83.673a2.041,2.041,0,0,0,2.041,2.041h89.8A2.041,2.041,0,0,0,93.877,83.673ZM51.02,4.082v9.3a7.905,7.905,0,0,0-8.163,0v-9.3ZM46.938,16.326a4.082,4.082,0,0,1,4.082,4.082V32.653H42.857V20.408A4.082,4.082,0,0,1,46.938,16.326ZM89.8,81.632H4.082V28.571H38.775v4.082H34.694v4.082h24.49V32.653H55.1V28.571H89.8ZM46.938,40.816H10.2a2.041,2.041,0,0,0-2.041,2.041V75.51A2.041,2.041,0,0,0,10.2,77.55H46.938a2.041,2.041,0,0,0,2.041-2.041V42.857A2.041,2.041,0,0,0,46.938,40.816ZM20.612,73.469a10.285,10.285,0,0,1,5.467-7.182,2.04,2.04,0,0,0,0-3.643,5.613,5.613,0,1,1,5,0,2.041,2.041,0,0,0,0,3.643,10.284,10.284,0,0,1,5.451,7.182Zm24.285,0H40.657a14.3,14.3,0,0,0-5.1-9.108,9.59,9.59,0,0,0,2.71-6.708,9.694,9.694,0,1,0-19.388,0,9.594,9.594,0,0,0,2.72,6.708,14.305,14.305,0,0,0-5.112,9.108H12.245V44.9H44.9ZM57.142,61.224H85.714v4.082H57.142Zm0-12.245H85.714v4.082H57.142Zm24.49,24.49h4.082V77.55H81.632Zm-8.163,0H77.55V77.55H73.469Zm-8.163,0h4.082V77.55H65.306Zm-8.163,0h4.082V77.55H57.142Zm0,0"
          fill="#03c6db"/>
</svg>
