<svg xmlns="http://www.w3.org/2000/svg" width="42.302" height="40.259" viewBox="0 0 42.302 40.259">
  <g id="ads" transform="translate(0 -12.366)">
    <g id="Group_549" data-name="Group 549" transform="translate(0.622 12.988)">
      <g id="Group_548" data-name="Group 548" transform="translate(0 0)">
        <g id="Group_546" data-name="Group 546">
          <g id="Group_542" data-name="Group 542" transform="translate(0 17.41)">
            <g id="Group_541" data-name="Group 541">
              <g id="Group_540" data-name="Group 540">
                <g id="Group_539" data-name="Group 539">
                  <g id="Group_538" data-name="Group 538">
                    <g id="Group_537" data-name="Group 537">
                      <g id="Group_536" data-name="Group 536">
                        <g id="Group_535" data-name="Group 535">
                          <g id="Group_534" data-name="Group 534" transform="translate(7.997)">
                            <g id="Group_533" data-name="Group 533">
                              <path id="Path_2190" data-name="Path 2190" d="M222.213,241.307h-5.134v-10.7h6.638Z" transform="translate(-207.762 -230.612)" fill="#a8d0d5"/>
                              <g id="Group_529" data-name="Group 529" transform="translate(0 3.239)">
                                <g id="Group_528" data-name="Group 528">
                                  <g id="Group_527" data-name="Group 527">
                                    <path id="Path_2191" data-name="Path 2191" d="M121.8,272.848h-6.888a1.273,1.273,0,0,1-1.273-1.273v-1.756a5.316,5.316,0,0,0-4.176,2.027l-1.027,1.3a3.3,3.3,0,0,1-2.589,1.257h-1.525v11.545h2.875a3.3,3.3,0,0,1,1.219.234l2.72,1.083a13.842,13.842,0,0,0,4.467.74h4.043a1.436,1.436,0,0,0,1.436-1.436v-.918a1.436,1.436,0,0,0-1.436-1.436h.92A1.436,1.436,0,0,0,122,282.782v-.918a1.436,1.436,0,0,0-1.436-1.436h.731a1.436,1.436,0,0,0,1.436-1.436v-.918a1.436,1.436,0,0,0-1.436-1.436h.5a1.436,1.436,0,0,0,1.436-1.436v-.918A1.436,1.436,0,0,0,121.8,272.848Z" transform="translate(-104.318 -269.817)" fill="#ffece3"/>
                                  </g>
                                </g>
                              </g>
                              <g id="Group_532" data-name="Group 532" transform="translate(0 3.239)">
                                <g id="Group_531" data-name="Group 531">
                                  <g id="Group_530" data-name="Group 530">
                                    <path id="Path_2192" data-name="Path 2192" d="M121.8,272.848h-6.888a1.273,1.273,0,0,1-1.273-1.273v-1.756a5.316,5.316,0,0,0-4.176,2.027l-1.027,1.3a3.3,3.3,0,0,1-2.589,1.257h-1.525v11.545h2.875a3.3,3.3,0,0,1,1.219.234l2.72,1.083a13.842,13.842,0,0,0,4.467.74h4.043a1.436,1.436,0,0,0,1.436-1.436v-.918a1.436,1.436,0,0,0-1.436-1.436h.92A1.436,1.436,0,0,0,122,282.782v-.918a1.436,1.436,0,0,0-1.436-1.436h.731a1.436,1.436,0,0,0,1.436-1.436v-.918a1.436,1.436,0,0,0-1.436-1.436h.5a1.436,1.436,0,0,0,1.436-1.436v-.918A1.436,1.436,0,0,0,121.8,272.848Z" transform="translate(-104.318 -269.817)" fill="#ffece3"/>
                                  </g>
                                </g>
                              </g>
                            </g>
                          </g>
                          <path id="Path_2193" data-name="Path 2193" d="M15.2,310.769H8.251a.724.724,0,0,0-.724.724v12.538a.724.724,0,0,0,.724.724H15.2V310.769Z" transform="translate(-7.527 -304.146)" fill="#8db9c2"/>
                          <path id="Path_2194" data-name="Path 2194" d="M84.458,298.711h-2.1a.711.711,0,0,0-.711.711v14.557a.711.711,0,0,0,.711.711h2.1a.711.711,0,0,0,.711-.711V299.422A.711.711,0,0,0,84.458,298.711Z" transform="translate(-75.522 -293.085)" fill="#7ba0b0"/>
                        </g>
                      </g>
                    </g>
                  </g>
                </g>
              </g>
            </g>
          </g>
          <g id="Group_545" data-name="Group 545" transform="translate(10.786)">
            <g id="Group_544" data-name="Group 544" transform="translate(0 0.816)">
              <path id="Path_2195" data-name="Path 2195" d="M144.482,139.088h-2.957a3.456,3.456,0,1,0,0,6.913h2.957Z" transform="translate(-138.068 -130.056)" fill="#eff3f5"/>
              <path id="Path_2196" data-name="Path 2196" d="M308.448,29.766a14.884,14.884,0,0,1-12.7,7.124h-1.32l-.964,1.188v8.013l.964,1.187h1.32a14.884,14.884,0,0,1,12.7,7.122Z" transform="translate(-280.627 -29.766)" fill="#eff3f5"/>
              <g id="Group_543" data-name="Group 543" transform="translate(22.95)">
                <path id="Path_2197" data-name="Path 2197" d="M420.711,29.766a14.872,14.872,0,0,1-4.872,4.9V49.505a14.873,14.873,0,0,1,4.873,4.9Z" transform="translate(-415.839 -29.766)" fill="#daeaef"/>
              </g>
              <path id="Path_2198" data-name="Path 2198" d="M198.108,115.99h-7.99a1.649,1.649,0,0,0-1.649,1.649v7.091a1.649,1.649,0,0,0,1.649,1.649h7.99Z" transform="translate(-184.305 -108.866)" fill="#fc8086"/>
            </g>
            <path id="Path_2199" data-name="Path 2199" d="M458.626,46.159a1.975,1.975,0,0,0,1.975-1.975l0-22.316a1.975,1.975,0,1,0-3.949,0l0,22.316A1.975,1.975,0,0,0,458.626,46.159Z" transform="translate(-430.327 -19.893)" fill="#fc8086"/>
          </g>
        </g>
        <g id="Group_547" data-name="Group 547" transform="translate(17.314 22.405)">
          <path id="Path_2200" data-name="Path 2200" d="M225.24,292.349h-6.888a1.273,1.273,0,0,1-1.273-1.273v.826a2.075,2.075,0,0,0,2.075,2.075h6.086a1.435,1.435,0,0,1,1.39,1.081,1.434,1.434,0,0,0,.046-.355v-.918A1.436,1.436,0,0,0,225.24,292.349Z" transform="translate(-217.079 -291.074)" fill="#ffddce"/>
          <path id="Path_2201" data-name="Path 2201" d="M241.31,352.371h-6.167v.254a1.6,1.6,0,0,0,1.6,1.6h4.566a1.435,1.435,0,0,1,1.356.967,1.417,1.417,0,0,0,.08-.468v-.918a1.436,1.436,0,0,0-1.436-1.436Z" transform="translate(-233.651 -347.307)" fill="#ffddce"/>
          <path id="Path_2202" data-name="Path 2202" d="M248.865,398.239h-4.69v.279a1.6,1.6,0,0,0,1.6,1.6h3.089a1.435,1.435,0,0,1,1.351.954,1.425,1.425,0,0,0,.085-.479v-.918A1.436,1.436,0,0,0,248.865,398.239Z" transform="translate(-241.936 -389.385)" fill="#ffddce"/>
          <path id="Path_2203" data-name="Path 2203" d="M256.23,444.108h-3.023a1.6,1.6,0,0,0,1.6,1.6H257.1a.567.567,0,0,1,.567.567v-.733A1.436,1.436,0,0,0,256.23,444.108Z" transform="translate(-250.222 -431.464)" fill="#ffddce"/>
        </g>
      </g>
    </g>
    <g id="Group_550" data-name="Group 550" transform="translate(0 12.366)">
      <path id="Path_2204" data-name="Path 2204" d="M42.3,20.939a.622.622,0,1,0-1.244,0v16.34a1.353,1.353,0,0,1-2.706,0l0-22.316a1.353,1.353,0,1,1,2.706,0V18.02a.622.622,0,1,0,1.244,0V14.962a2.6,2.6,0,0,0-5.193,0V15.6a14.26,14.26,0,0,1-10.577,4.7H17.221a2.274,2.274,0,0,0-2.241,1.908h-.116a4.078,4.078,0,0,0,0,8.157h.2a2.273,2.273,0,0,0,2.16,1.568h.092v1.108a5.9,5.9,0,0,0-4.043,2.232c-.825.92-1.151,1.859-2.38,2.215v-.759A1.334,1.334,0,0,0,9.558,35.4h-2.1a1.334,1.334,0,0,0-1.288,1H1.346A1.347,1.347,0,0,0,0,37.745V50.283a1.348,1.348,0,0,0,1.346,1.346H6.169a1.334,1.334,0,0,0,1.288,1h2.1a1.334,1.334,0,0,0,1.333-1.333v-.9a3.94,3.94,0,0,1,1.593.19c1.208.387,3.545,1.868,7.417,1.868h4.043A2.06,2.06,0,0,0,26,50.391v-.918a2.045,2.045,0,0,0-.264-1.008A2.06,2.06,0,0,0,26.921,46.6v-.918a2.045,2.045,0,0,0-.309-1.084,2.059,2.059,0,0,0,1.04-1.788v-.918a2.047,2.047,0,0,0-.377-1.186,2.057,2.057,0,0,0,.878-1.685V38.1A2.06,2.06,0,0,0,26.1,36.046H24.407l.578-4.107h1.547a14.26,14.26,0,0,1,10.577,4.7v.642a2.6,2.6,0,0,0,5.193,0ZM14.864,29.127a2.835,2.835,0,0,1,0-5.669h.086v5.669ZM17.222,30.7a1.026,1.026,0,0,1-1.023-.945v0c0-8.505,0-6.991,0-7.172a1.028,1.028,0,0,1,1.027-1.027h7.368v9.145H17.222Zm-7.574,20.6a.089.089,0,0,1-.089.089h-2.1a.089.089,0,0,1-.089-.089V42.547a.622.622,0,0,0-1.244,0v7.838H1.346a.1.1,0,0,1-.1-.1V37.745a.1.1,0,0,1,.1-.1H6.124v2a.622.622,0,1,0,1.244,0v-2.9a.089.089,0,0,1,.089-.089h2.1a.089.089,0,0,1,.089.089V51.292ZM26.91,38.1v.918a.815.815,0,0,1-.814.814h-.5a.622.622,0,0,0,0,1.244.815.815,0,0,1,.814.814v.918a.815.815,0,0,1-.814.814h-.731a.622.622,0,1,0,0,1.244.815.815,0,0,1,.814.814V46.6a.815.815,0,0,1-.814.814h-.92a.622.622,0,0,0,0,1.244.815.815,0,0,1,.814.814v.918a.815.815,0,0,1-.814.814H19.9c-3.552,0-5.617-1.347-6.956-1.78a4.929,4.929,0,0,0-2.053-.278V38.772c2-.387,2.623-1.958,3.357-2.724A4.662,4.662,0,0,1,17.314,34.3v1.094a1.9,1.9,0,0,0,1.895,1.9l6.888,0a.815.815,0,0,1,.814.814Zm-3.759-2.058H19.209a.652.652,0,0,1-.651-.651V31.939h5.172Zm3.38-5.351h-.7V21.549h.7a15.5,15.5,0,0,0,10.577-4.173V34.866A15.5,15.5,0,0,0,26.532,30.695Z" transform="translate(0 -12.366)"/>
    </g>
  </g>
</svg>
