<svg xmlns="http://www.w3.org/2000/svg" width="61.028" height="86.155" viewBox="0 0 61.028 86.155">
  <g id="Group_147" data-name="Group 147" transform="translate(-1772.007 -2915)">
    <g id="smartphone_color" data-name="smartphone color" transform="translate(1772.007 2915)">
      <path id="Path_1073" data-name="Path 1073" d="M261.438,511.441" transform="translate(-223.8 -425.286)" fill="#27a3ff"/>
      <path id="Path_1074" data-name="Path 1074" d="M197.386,150.623a21.972,21.972,0,0,0-2.041-11.561c-4.556-9.267-3.511-9.94-3.652-19.137a3.4,3.4,0,0,0-6.8,0v34.207a7.544,7.544,0,0,1-.161,1.548v4.9a7.493,7.493,0,0,1-7.484,7.484H158.621a26.424,26.424,0,0,0,11.317,8.981l.085.035a11.1,11.1,0,0,1,5.918,5.972,41.077,41.077,0,0,0,23.39-9.255L196.8,164.48a11.891,11.891,0,0,1-.377-4.09Zm0,0" transform="translate(-138.303 -96.894)" fill="#f9cfa9"/>
      <path id="Path_1075" data-name="Path 1075" d="M45.69,107.3l-1.036-.96a3.959,3.959,0,1,0-5.382,5.808L45.69,118.1Zm0,0" transform="translate(-38.008 -87.556)" fill="#f9cfa9"/>
      <path id="Path_1076" data-name="Path 1076" d="M116.73,0H87.635a5.126,5.126,0,0,0-5.119,5.12V66.434a5.126,5.126,0,0,0,5.119,5.12H116.73a5.126,5.126,0,0,0,5.12-5.12V5.12A5.126,5.126,0,0,0,116.73,0Zm0,0" transform="translate(-75.018)" fill="#03c6db"/>
      <path id="Path_1077" data-name="Path 1077" d="M92.37,3.8A2.586,2.586,0,0,1,93.45,0H87.632a5.12,5.12,0,0,0-5.12,5.12V66.435a5.12,5.12,0,0,0,5.12,5.119h6.185V8.284A8.063,8.063,0,0,0,92.37,3.8Zm0,0" transform="translate(-75.015 0)" fill="#0088b4"/>
      <path id="Path_1078" data-name="Path 1078" d="M100.109,191.977v34.1a2.156,2.156,0,0,0,2.156,2.156h29.095a2.156,2.156,0,0,0,2.156-2.156v-34.1Zm0,0" transform="translate(-89.648 -159.637)" fill="#e6f7fe"/>
      <path id="Path_1079" data-name="Path 1079" d="M100.109,191.977v34.1a2.156,2.156,0,0,0,2.156,2.156h5.1V191.977Zm0,0" transform="translate(-89.648 -159.637)" fill="#d5f1fe"/>
      <path id="Path_1080" data-name="Path 1080" d="M136.33,236.355a3.378,3.378,0,1,1-3.378-3.378A3.378,3.378,0,0,1,136.33,236.355Zm0,0" transform="translate(-114.15 -193.73)" fill="#03c6db"/>
      <path id="Path_1081" data-name="Path 1081" d="M136.33,310.71a3.378,3.378,0,1,1-3.378-3.378A3.378,3.378,0,0,1,136.33,310.71Zm0,0" transform="translate(-114.15 -255.56)" fill="#03c6db"/>
      <path id="Path_1082" data-name="Path 1082" d="M132.57,233.113a3.377,3.377,0,1,0,3.178,5.25A3.38,3.38,0,0,1,132.57,233.113Zm0,0" transform="translate(-114.149 -193.844)" fill="#0088b4"/>
      <path id="Path_1083" data-name="Path 1083" d="M132.57,307.469a3.377,3.377,0,1,0,3.178,5.25A3.38,3.38,0,0,1,132.57,307.469Zm0,0" transform="translate(-114.149 -255.674)" fill="#0088b4"/>
      <g id="Group_146" data-name="Group 146" transform="translate(26.547 38.693)">
        <path id="Path_1084" data-name="Path 1084" d="M201.656,232.222h-4.8a1.263,1.263,0,1,1,0-2.527h4.8a1.263,1.263,0,0,1,0,2.527Zm0,0" transform="translate(-195.597 -229.695)" fill="#11dfef"/>
        <path id="Path_1085" data-name="Path 1085" d="M206.452,263.894h-9.591a1.263,1.263,0,1,1,0-2.527h9.591a1.263,1.263,0,1,1,0,2.527Zm0,0" transform="translate(-195.597 -256.032)" fill="#11dfef"/>
        <path id="Path_1086" data-name="Path 1086" d="M201.656,306.574h-4.8a1.263,1.263,0,1,1,0-2.527h4.8a1.263,1.263,0,0,1,0,2.527Zm0,0" transform="translate(-195.597 -291.522)" fill="#11dfef"/>
        <path id="Path_1087" data-name="Path 1087" d="M206.452,338.246h-9.591a1.263,1.263,0,1,1,0-2.527h9.591a1.263,1.263,0,1,1,0,2.527Zm0,0" transform="translate(-195.597 -317.859)" fill="#11dfef"/>
      </g>
      <path id="Path_1088" data-name="Path 1088" d="M131.259,17.6h-4.324a.738.738,0,0,0-.738.738,1.783,1.783,0,0,1-1.778,1.779H109.005a1.784,1.784,0,0,1-1.779-1.779.738.738,0,0,0-.738-.738h-4.324a2.156,2.156,0,0,0-2.156,2.156V47.31h33.407V19.753a2.156,2.156,0,0,0-2.156-2.156Zm0,0" transform="translate(-89.564 -14.633)" fill="#03c6db"/>
      <path id="Path_1089" data-name="Path 1089" d="M107.281,18.762a1.751,1.751,0,0,1-.054-.426.738.738,0,0,0-.738-.738h-4.324a2.156,2.156,0,0,0-2.156,2.156V47.31h7.273Zm0,0" transform="translate(-89.564 -14.633)" fill="#0088b4" opacity="0.29"/>
      <path id="Path_1090" data-name="Path 1090" d="M209.791,17.6h-4.324a.738.738,0,0,0-.738.738,1.783,1.783,0,0,1-1.778,1.779h-8.5l17.5,21.933V19.753a2.156,2.156,0,0,0-2.156-2.156Zm0,0" transform="translate(-168.096 -14.633)" fill="#fff" opacity="0.23"/>
      <path id="Path_1091" data-name="Path 1091" d="M131.922,64.734H126.1a1.263,1.263,0,1,1,0-2.527h5.826a1.263,1.263,0,0,1,0,2.527Zm0,0" transform="translate(-110.206 -51.728)" fill="#fff" opacity="0.4"/>
      <path id="Path_1092" data-name="Path 1092" d="M59.442,185.845a3.47,3.47,0,0,1-4.9.187l-5.811-5.385a3.469,3.469,0,1,1,4.716-5.09l5.811,5.385a3.47,3.47,0,0,1,.187,4.9Zm0,0" transform="translate(-45.998 -145.215)" fill="#f9cfa9"/>
      <path id="Path_1093" data-name="Path 1093" d="M79.784,199.444l-2.764-2.561a4.073,4.073,0,0,1-4.715,5.09l2.764,2.561a3.469,3.469,0,1,0,4.716-5.09Zm0,0" transform="translate(-66.527 -163.717)" fill="#fbbc8d"/>
      <path id="Path_1094" data-name="Path 1094" d="M59.442,242.02a3.469,3.469,0,0,1-4.9.187l-5.811-5.385a3.469,3.469,0,1,1,4.716-5.089l5.811,5.385a3.469,3.469,0,0,1,.187,4.9Zm0,0" transform="translate(-45.998 -191.928)" fill="#f9cfa9"/>
      <path id="Path_1095" data-name="Path 1095" d="M59.442,298.193a3.469,3.469,0,0,1-4.9.187l-5.811-5.385a3.469,3.469,0,0,1,4.716-5.09l5.811,5.385a3.47,3.47,0,0,1,.187,4.9Zm0,0" transform="translate(-45.998 -238.637)" fill="#f9cfa9"/>
      <path id="Path_1096" data-name="Path 1096" d="M232.215,391.251a11.966,11.966,0,0,1-.365-2.017,27.685,27.685,0,0,1-30.634,12.408,26.392,26.392,0,0,0,4.142,2.17l.085.036a11.091,11.091,0,0,1,5.918,5.972,41.078,41.078,0,0,0,23.39-9.255Zm0,0" transform="translate(-173.722 -323.666)" fill="#fbbc8d"/>
      <path id="Path_1097" data-name="Path 1097" d="M79.784,255.62l-2.764-2.561a4.073,4.073,0,0,1-4.715,5.09l2.764,2.56a3.469,3.469,0,1,0,4.716-5.089Zm0,0" transform="translate(-66.527 -210.43)" fill="#fbbc8d"/>
      <path id="Path_1098" data-name="Path 1098" d="M79.784,311.792l-2.764-2.561a4.073,4.073,0,0,1-4.715,5.09l2.764,2.561a3.469,3.469,0,1,0,4.716-5.09Zm0,0" transform="translate(-66.527 -257.139)" fill="#fbbc8d"/>
    </g>
  </g>
</svg>
