<svg xmlns="http://www.w3.org/2000/svg" width="36.252" height="87" viewBox="0 0 36.252 87">
  <g id="profession" transform="translate(-149.328 0)">
    <path id="Path_1733" data-name="Path 1733" d="M188.76,86.841a1.812,1.812,0,0,0-3.592.3,1.813,1.813,0,0,0-3.592-.3l-10.875,58a1.812,1.812,0,0,0,.6,1.711l12.688,10.875a1.813,1.813,0,0,0,2.356,0l12.688-10.875a1.812,1.812,0,0,0,.6-1.711Z" transform="translate(-17.715 -70.862)" fill="#ffc107"/>
    <path id="Path_1734" data-name="Path 1734" d="M185.487,1.24A1.812,1.812,0,0,0,183.765,0H151.141a1.812,1.812,0,0,0-1.087,3.262L157.3,8.7a1.812,1.812,0,0,0,1.087.362h18.125A1.813,1.813,0,0,0,177.6,8.7l7.25-5.437A1.813,1.813,0,0,0,185.487,1.24Z" transform="translate(0 0)" fill="#455a64"/>
    <path id="Path_1735" data-name="Path 1735" d="M213.617,8.4c-.134-.344-3.411-8.4-10.748-8.4s-10.614,8.051-10.748,8.4a1.812,1.812,0,0,0,.236,1.754l4.35,5.8a5.463,5.463,0,0,0,4.35,2.175h3.625a5.463,5.463,0,0,0,4.35-2.175l4.35-5.8A1.813,1.813,0,0,0,213.617,8.4Z" transform="translate(-35.416 0)" fill="#ffb300"/>
  </g>
</svg>
