<svg xmlns="http://www.w3.org/2000/svg" width="22.541" height="22.54" viewBox="0 0 22.541 22.54">
  <g id="Group_358" data-name="Group 358" transform="translate(-2737.29 -1955.3)">
    <path id="Path_32" data-name="Path 32" d="M2759.059,1982.881a11.289,11.289,0,0,1-3.654,2.811c-.006.006-.012.006-.019.012-.142.068-.291.13-.434.2a.754.754,0,0,0-.105.044c-.123.05-.254.1-.39.149a1.352,1.352,0,0,1-.161.062c-.118.043-.235.08-.353.118-.074.025-.148.05-.217.068l-.316.093c-.093.025-.18.044-.273.068s-.192.044-.285.062-.211.043-.316.062c-.081.012-.167.031-.254.043-.118.019-.235.037-.353.05-.075.012-.155.018-.23.031-.136.012-.272.025-.408.031-.062.006-.117.012-.18.012-.2.012-.4.019-.6.019s-.4-.006-.6-.019a1.736,1.736,0,0,1-.18-.012c-.142-.006-.278-.019-.408-.031-.081-.013-.155-.019-.23-.031-.118-.013-.235-.031-.353-.05-.086-.012-.173-.031-.26-.043-.106-.019-.211-.037-.31-.062s-.192-.044-.285-.062-.179-.043-.272-.068l-.316-.093a2.2,2.2,0,0,1-.217-.068c-.117-.037-.235-.074-.353-.118-.056-.019-.111-.037-.167-.062-.13-.044-.26-.1-.391-.149a.462.462,0,0,0-.1-.044c-.148-.062-.291-.13-.433-.2-.006-.006-.013-.006-.019-.012a11.287,11.287,0,0,1-3.654-2.811,8.876,8.876,0,0,1,5.814-6.094c.056.031.112.062.174.093l.1.062c.118.062.242.124.365.174a2.866,2.866,0,0,0,.291.111.256.256,0,0,0,.063.024,5.142,5.142,0,0,0,3.48,0,.226.226,0,0,0,.055-.024,2.389,2.389,0,0,0,.291-.111c.13-.05.248-.112.372-.174.031-.019.062-.044.1-.062.055-.031.117-.062.173-.093A8.888,8.888,0,0,1,2759.059,1982.881Z" transform="translate(-1.954 -8.972)" fill="#fff"/>
    <path id="Path_33" data-name="Path 33" d="M2757.894,1965.947a4.423,4.423,0,0,1-2.019,3.71,3.862,3.862,0,0,1-.5.278.631.631,0,0,1-.062.025,4.506,4.506,0,0,1-3.709,0c-.019-.006-.037-.019-.062-.025a3.791,3.791,0,0,1-.489-.278,4.426,4.426,0,1,1,6.837-3.71Z" transform="translate(-4.906 -2.597)" fill="#fff"/>
    <path id="Path_34" data-name="Path 34" d="M2759.831,1966.57a11.216,11.216,0,0,1-2.124,6.57,9.686,9.686,0,0,0-5.654-5.907,5.233,5.233,0,1,0-6.984,0,9.686,9.686,0,0,0-5.654,5.907,11.266,11.266,0,1,1,20.416-6.57Z" transform="translate(0 0)" fill="#fff"/>
  </g>
</svg>
