<svg xmlns="http://www.w3.org/2000/svg" xmlns:xlink="http://www.w3.org/1999/xlink" width="50.5" height="50.5" viewBox="0 0 50.5 50.5">
  <defs>
    <filter id="Path_500" x="0" y="0" width="50.5" height="50.5" filterUnits="userSpaceOnUse">
      <feOffset dy="3" input="SourceAlpha"/>
      <feGaussianBlur stdDeviation="3" result="blur"/>
      <feFlood flood-color="#413e3f" flood-opacity="0.161"/>
      <feComposite operator="in" in2="blur"/>
      <feComposite in="SourceGraphic"/>
    </filter>
    <filter id="Path_1647" x="0" y="0" width="50.5" height="50.5" filterUnits="userSpaceOnUse">
      <feOffset dy="3" input="SourceAlpha"/>
      <feGaussianBlur stdDeviation="3" result="blur-2"/>
      <feFlood flood-color="#413e3f" flood-opacity="0.161"/>
      <feComposite operator="in" in2="blur-2"/>
      <feComposite in="SourceGraphic"/>
    </filter>
  </defs>
  <g id="Group_625" data-name="Group 625" transform="translate(-37 -679)">
    <g transform="matrix(1, 0, 0, 1, 37, 679)" filter="url(#Path_500)">
      <path id="Path_500-2" data-name="Path 500" d="M16.25,0A16.25,16.25,0,1,1,0,16.25,16.25,16.25,0,0,1,16.25,0Z" transform="translate(9 6)" fill="rgba(65,62,63,0.35)" opacity="0.8"/>
    </g>
    <path id="Icon_material-settings-backup-restore" data-name="Icon material-settings-backup-restore" d="M14.907,4.5A11.181,11.181,0,0,0,3.727,15.68H0l4.969,4.969L9.938,15.68H6.211A8.7,8.7,0,1,1,9.863,22.76L8.1,24.549A11.18,11.18,0,1,0,14.907,4.5Z" transform="translate(47.707 685.82)" fill="#fff" opacity="0.49"/>
    <g transform="matrix(1, 0, 0, 1, 37, 679)" filter="url(#Path_1647)">
      <path id="Path_1647-2" data-name="Path 1647" d="M16.25,0A16.25,16.25,0,1,1,0,16.25,16.25,16.25,0,0,1,16.25,0Z" transform="translate(9 6)" fill="#413e3f" opacity="0.8"/>
    </g>
    <path id="Icon_material-settings-backup-restore-2" data-name="Icon material-settings-backup-restore" d="M14.907,4.5A11.181,11.181,0,0,0,3.727,15.68H0l4.969,4.969L9.938,15.68H6.211A8.7,8.7,0,1,1,9.863,22.76L8.1,24.549A11.18,11.18,0,1,0,14.907,4.5Z" transform="translate(47.707 685.82)" fill="#fff" opacity="0.49"/>
  </g>
</svg>
