<svg xmlns="http://www.w3.org/2000/svg" width="86" height="86" viewBox="0 0 86 86">
  <g id="Group_625" data-name="Group 625" transform="translate(-144 -194)">
    <path id="Path_580" data-name="Path 580" d="M2221.119,693.2a8.52,8.52,0,1,1-8.463-8.535A8.61,8.61,0,0,1,2221.119,693.2Z" transform="translate(-2025.146 -456.442)" fill="#03c6db"/>
    <path id="Path_581" data-name="Path 581" d="M2149.4,702.336c-1.093,1.18-4.375,1.376-6.245-.481a5.27,5.27,0,0,1-.252-7.493,4.925,4.925,0,0,1,6.556-.627,4.394,4.394,0,0,0-4.617,1.058,4.292,4.292,0,0,0-1.275,3.381C2143.7,701.212,2145.882,702.755,2149.4,702.336Z" transform="translate(-1988.566 -461.17)" fill="#03c6db"/>
    <path id="Path_582" data-name="Path 582" d="M2157.238,702.416c.974,0,1.734-.093,1.879-1.2l.464,1.06,1.3.066c-.392.375-.807.6-.924.935-.105.3.118.712.245,1.3-.79-.671-1.488-.932-2.217-.018C2158.394,703.586,2158.34,702.867,2157.238,702.416Z" transform="translate(-1997.781 -466.111)" fill="#03c6db"/>
    <path id="Path_583" data-name="Path 583" d="M2218.279,632.374v-6.569h-2.787v-1.8h2.794V620.7h1.884v3.279h2.689a1.166,1.166,0,0,1,.137.281c.17,1.519.163,1.526-1.341,1.526h-1.408c-.022.462-.057.86-.059,1.259-.007,1.435,0,2.869,0,4.3,0,1.1,0,1.1-1.076,1.086C2218.867,632.43,2218.626,632.4,2218.279,632.374Z" transform="translate(-2031.813 -419.073)" fill="#03c6db"/>
    <path id="Path_584" data-name="Path 584" d="M2290,691.2c.8.862,1.594,1.647,2.3,2.506a2.466,2.466,0,0,1-.006,3c-.521.667-1.15,1.25-1.7,1.9a4,4,0,0,0-.394.843c2.515-1,4.285-3.868,2.57-5.917a2.425,2.425,0,0,1,1.476,2.705,14.775,14.775,0,0,1-1.06,2.653,13.207,13.207,0,0,1-.933,1.471c-.479-.1-.741-1.082-1.572-.492a11.2,11.2,0,0,1,.924.825.793.793,0,0,1,.094.513c0,.055-.224.17-.259.143a2.668,2.668,0,0,1-.339-.376c-.183-.206-.369-.408-.553-.612l-.23.141a6.535,6.535,0,0,1,.056.784,1.9,1.9,0,0,1-.146.721.576.576,0,0,1-.491-.031,1.418,1.418,0,0,1-.126-.642,2.221,2.221,0,0,0-.189-.938l-.955,1.125c-.359-1.027.422-1.21.873-1.612-.8-.731-1,.366-1.622.413a25.118,25.118,0,0,1-1.582-2.653c-.715-1.588-.449-3.517,1.276-4.314a2.942,2.942,0,0,0-.513,3.518,6.261,6.261,0,0,0,2.81,2.657c-.1-.422-.091-.678-.211-.83a15.615,15.615,0,0,0-1.326-1.521,2.611,2.611,0,0,1-.107-3.882C2288.689,692.618,2289.313,691.943,2290,691.2Zm.9,5.994c.91-.544,1.547-1.56,1.368-2.25-.189-.731-.453-1.455-1.368-1.68A5.3,5.3,0,0,0,2290.9,697.193Zm-1.792-.043a4.7,4.7,0,0,0,.158-3.305c-.16-.676-.411-.643-.8-.265C2287.35,694.646,2287.687,696.747,2289.108,697.15Z" transform="translate(-2072.867 -460.259)" fill="#03c6db"/>
    <path id="Path_585" data-name="Path 585" d="M2211.9,768.65l-.494-1.179a2.635,2.635,0,0,1,2.77-.08c1.213.724,1.33,1.859,1.017,3.314a6.851,6.851,0,0,1,1.441-.79,2.123,2.123,0,0,0,1.556-1.322,1.784,1.784,0,0,1,3.078.056,5.832,5.832,0,0,1-.294,5.5,2.054,2.054,0,0,1-2.085.71c-.717-.125-.783-.847-.875-1.445-.055-.352.006-.725-.068-1.071-.087-.4-.17-1.021-.427-1.126-.333-.137-.837.138-1.3.245.309.759.557,1.362.8,1.966.659,1.635-.693,3.691-3.18,3.083a4.906,4.906,0,0,1-3.314-3.193,18.253,18.253,0,0,1-.677-2.486l.335-.131a4.484,4.484,0,0,1,.323.725,5.732,5.732,0,0,0,1.858,3.322,4.241,4.241,0,0,0,1.673.781,1.8,1.8,0,0,0,1.974-1.371,3.017,3.017,0,0,0-1.116-2.963l-1.306,1.09c-.123-.231-.2-.4-.3-.557-.324-.5-.282-.811.338-1.064a2.043,2.043,0,0,0,.972-.839c.168-.311.217-.995.039-1.121a2.82,2.82,0,0,0-1.463-.423A4.32,4.32,0,0,0,2211.9,768.65Zm9.284,2.705c.052-1.273-.432-2.148-1.319-2.384-.687-.184-1.666.33-1.61.855q.159,1.459.345,2.916c.118.93.777,1.232,1.6.752S2221.095,772.179,2221.184,771.356Z" transform="translate(-2028.514 -504.561)" fill="#03c6db"/>
    <path id="Path_586" data-name="Path 586" d="M2219.791,763.5c1.3.713,2.565,1.356,3.743-.139l1.038.844a2.453,2.453,0,0,1-2.421,1.136A2.854,2.854,0,0,1,2219.791,763.5Z" transform="translate(-2034.324 -502.413)" fill="#03c6db"/>
    <path id="Path_587" data-name="Path 587" d="M2223.93,761.689l-.691-.667.853-.76.808.891Z" transform="translate(-2036.34 -500.605)" fill="#03c6db"/>
    <path id="Path_588" data-name="Path 588" d="M2167.378,653.458c-.487-.84-.914-1.535-1.3-2.252a1.07,1.07,0,0,0-1.118-.649c-.822.045-1.648.012-2.7.012.509-.9.892-1.644,1.338-2.348a1.04,1.04,0,0,0,.009-1.279c-.46-.708-.842-1.467-1.353-2.374,1.035,0,1.907-.052,2.768.019a.853.853,0,0,0,.959-.545c.4-.749.863-1.464,1.377-2.323.474.782.936,1.429,1.273,2.136a1.156,1.156,0,0,0,1.3.723c.789-.052,1.584-.013,2.565-.013-.533.936-.952,1.723-1.425,2.477a.843.843,0,0,0-.009,1.036c.465.734.872,1.5,1.434,2.49-1.024,0-1.865.03-2.7-.01a1.046,1.046,0,0,0-1.117.635C2168.315,651.917,2167.874,652.607,2167.378,653.458Zm.156-8.07c-.691.16-1.384-.254-1.744.532a11.249,11.249,0,0,0-.807,1.617c-.158.585,1.191,2.274,1.7,2.231a4.312,4.312,0,0,0,2.033-.332,2.682,2.682,0,0,0,1.037-1.877,3.428,3.428,0,0,0-1.042-1.919C2168.473,645.372,2167.851,645.445,2167.534,645.388Zm.609-.825-.773-1.334-.765,1.334Zm1.464,5.132h1.493l-.752-1.331Zm1.487-4.24h-1.5l.752,1.28Zm-7.432,4.234h1.529l-.807-1.267Zm1.485-4.24H2163.7l.706,1.305Zm1.483,5.2.777,1.226.673-1.226Z" transform="translate(-2000.717 -431.352)" fill="#03c6db"/>
    <path id="Path_589" data-name="Path 589" d="M2270.207,643.976l2.8.636.077.241-2.465,1.524,1.765,2.28-.085.2-3.01-.309v2.886l-.2.109-1.959-2.168-1.974,2.208-.27-.106a16.945,16.945,0,0,1,.02-2.166c.1-.79-.226-.821-.841-.7-.711.145-1.436.219-2.425.363l1.964-2.568-2.469-1.532.033-.222c.728-.162,1.449-.364,2.185-.473.585-.087.668-.329.473-.836-.264-.684-.479-1.387-.715-2.081l.194-.233,2.571,1.392,1.094-2.787.245-.036,1.113,2.811L2270.9,641l.191.166Zm-3.856-.293-1.672-.854.5,1.8-1.791.443c.521.376,1.234.632,1.313,1.019s-.467.91-.734,1.376c-.02.035,0,.1.007.153l1.681-.13c.055.651.1,1.179.16,1.879a6.64,6.64,0,0,0,.775-.885c.4-.7.725-.479,1.091.018.179.242.4.452.726.812l.106-1.852,1.854.162-1.047-1.541,1.559-1.027-1.876-.443c.186-.645.337-1.167.534-1.847l-1.689.933-.743-1.83Z" transform="translate(-2058.479 -430.118)" fill="#03c6db"/>
    <path id="Path_590" data-name="Path 590" d="M2271.006,746.459l-1.076,2.566a4.817,4.817,0,0,1,.51.847c.03.077-.315.429-.417.4a3.951,3.951,0,0,1-.848-.455l-2.658,1.143a3.638,3.638,0,0,1-.321.862.623.623,0,0,1-.577,0,3.409,3.409,0,0,1-.274-.867l-2.427-1.026-1.347.2q.057-.578.114-1.155l.213.031-1.015-2.472a5.491,5.491,0,0,1-.985-.391.64.64,0,0,1,.067-.559,3.435,3.435,0,0,1,.893-.21l1.015-2.486a4.324,4.324,0,0,1-.435-.907c-.027-.114.3-.456.389-.429a4.168,4.168,0,0,1,.833.464l2.65-1.139a3.515,3.515,0,0,1,.335-.85.57.57,0,0,1,.561-.039,4.132,4.132,0,0,1,.512.929l2.436,1.094a7.148,7.148,0,0,1,.958-.428c.068-.021.352.306.32.38a5.744,5.744,0,0,1-.5.836c.343.816.708,1.686,1.053,2.509a3.717,3.717,0,0,1,.918.263.692.692,0,0,1-.029.627A2.816,2.816,0,0,1,2271.006,746.459Zm-6.04-.613a.894.894,0,0,0,.908,1.047.947.947,0,0,0,1.037-.948c.036-.6-.381-.937-.99-.958A.818.818,0,0,0,2264.966,745.847Zm-1.433-3.075,1.795,1.823v-2.513Zm.1,6.33,1.7.678v-2.556Zm-.883-.934a11.315,11.315,0,0,0,1.223-1c.218-.236.2-.631-.214-.657a11.528,11.528,0,0,0-1.68.137Zm-.664-2.972c.626.093,1.13.194,1.638.216.084,0,.308-.437.255-.5-.336-.419-.732-.791-1.225-1.3Zm6.085-2.442-1.466-.629a7.818,7.818,0,0,0-.19,1.511c.006.123.63.38.723.3A7.862,7.862,0,0,0,2268.176,742.755Zm.929.937-.357-.247a10.528,10.528,0,0,0-.806,1.3.921.921,0,0,0,.175.661c.522-.025,1.04-.125,1.66-.219Zm0,4.54.608-1.541c-.612-.1-1.11-.207-1.613-.244-.057,0-.26.459-.193.544A16.307,16.307,0,0,0,2269.1,748.232Zm-.875.794a10.554,10.554,0,0,0-1.085-1.134c-.1-.077-.616.141-.614.215a14.345,14.345,0,0,0,.207,1.606Z" transform="translate(-2057.732 -488.728)" fill="#03c6db"/>
    <path id="Path_591" data-name="Path 591" d="M2173.667,747.621c.245,2.419-2.177,5.373-5.319,5.365a5.422,5.422,0,1,1-.043-10.845A5.378,5.378,0,0,1,2173.667,747.621ZM2163.5,746.45c.967-1.262,1.854-1.621,3.075-1.256a2.507,2.507,0,0,1,1.725,2.391c.014.109.011.221.029.33a2.665,2.665,0,0,0,2.538,2.2,2.485,2.485,0,0,0,2.443-2.331,5,5,0,0,0-5.919-5.2A4.745,4.745,0,0,0,2163.5,746.45Zm3.269,1.081c-.434-.307-.74-.681-.953-.634-.29.064-.509.449-.759.7.267.234.511.607.807.655C2166.072,748.281,2166.353,747.877,2166.765,747.531Z" transform="translate(-2001.086 -490.019)" fill="#03c6db"/>
    <path id="Path_592" data-name="Path 592" d="M2181.087,752.9c.305.451.608.706.608.96,0,.211-.392.616-.549.589-.276-.048-.67-.336-.707-.572S2180.76,753.359,2181.087,752.9Z" transform="translate(-2011.336 -496.302)" fill="#03c6db"/>
    <g id="Exclusion_1" data-name="Exclusion 1" transform="translate(2450 1096)" fill="none">
      <path d="M-2263-816c-4.431,0-8.613-5.575-11.472-15.294a84.466,84.466,0,0,0,11.484-7.67c-2.061-1.614-4.13-3.36-6.15-5.187,2.006.1,4.07.152,6.138.152s4.138-.051,6.163-.153c-2.029,1.836-4.1,3.581-6.151,5.188a84.48,84.48,0,0,0,11.463,7.659C-2254.384-821.579-2258.567-816-2263-816Zm25.234-10.788c-3.585,0-8.343-1.562-13.76-4.518a84.492,84.492,0,0,0,2.692-13.527c-2.594.316-5.288.544-8,.68,1.492-1.35,2.991-2.776,4.455-4.24s2.875-2.947,4.228-4.442c-.137,2.729-.366,5.421-.68,8a84.45,84.45,0,0,0,13.543-2.7c4.855,8.9,5.842,15.8,2.708,18.936A7.047,7.047,0,0,1-2237.765-826.789Zm-50.445,0a7.046,7.046,0,0,1-5.184-1.805c-3.134-3.134-2.148-10.033,2.7-18.93a84.51,84.51,0,0,0,13.522,2.69c-.317-2.6-.546-5.3-.682-8.031,1.356,1.5,2.787,3,4.254,4.471s2.956,2.883,4.457,4.241c-2.74-.137-5.441-.367-8.029-.682a84.424,84.424,0,0,0,2.695,13.539C-2279.879-828.347-2284.629-826.789-2288.21-826.789Zm-2.479-20.735c-9.73-2.86-15.311-7.043-15.311-11.476s5.581-8.617,15.311-11.477c-4.852-8.9-5.838-15.8-2.7-18.929a7.047,7.047,0,0,1,5.184-1.806c3.581,0,8.331,1.558,13.738,4.506a84.448,84.448,0,0,0-2.7,13.539c2.6-.317,5.3-.546,8.029-.682-1.493,1.351-2.993,2.777-4.457,4.241s-2.89,2.963-4.252,4.469l0,0v0c.136-2.731.365-5.431.681-8.028a84.466,84.466,0,0,0-13.522,2.69A84.474,84.474,0,0,0-2283.023-859c1.61-2.056,3.351-4.12,5.174-6.136-.1,2.008-.152,4.072-.152,6.137s.051,4.113.151,6.133v0l0,0c-1.824-2.017-3.564-4.081-5.172-6.134a84.481,84.481,0,0,0-7.666,11.477Zm55.4-.006h0a84.452,84.452,0,0,0-7.663-11.47c-1.616,2.064-3.365,4.137-5.2,6.163l0,0v0c.1-2.029.153-4.1.153-6.161s-.052-4.137-.153-6.165c1.84,2.032,3.589,4.107,5.2,6.165a84.493,84.493,0,0,0,7.663-11.47c9.717,2.86,15.29,7.041,15.29,11.471s-5.573,8.61-15.29,11.47Zm-12.863-17.635,0,0c-1.352-1.493-2.773-2.987-4.226-4.44s-2.955-2.882-4.455-4.24c2.729.137,5.422.366,8,.68a84.512,84.512,0,0,0-2.691-13.527c5.416-2.956,10.173-4.518,13.759-4.518a7.046,7.046,0,0,1,5.184,1.806c3.135,3.134,2.148,10.036-2.708,18.935h0a84.428,84.428,0,0,0-13.543-2.7c.316,2.594.544,5.285.68,8Zm-8.683-8.682h0c-2.025-.1-4.1-.153-6.16-.153s-4.12.051-6.138.152c2.031-1.837,4.1-3.582,6.15-5.187,2.06,1.613,4.128,3.358,6.149,5.186Zm-6.151-5.188h0a84.416,84.416,0,0,0-11.483-7.67c2.86-9.72,7.041-15.294,11.472-15.294s8.615,5.579,11.475,15.306a84.5,84.5,0,0,0-11.462,7.658Z" stroke="none"/>
      <path d="M -2262.999755859375 -817.0003051757813 C -2262.09619140625 -817.0003051757813 -2261.1796875 -817.2920532226563 -2260.27587890625 -817.8674926757813 C -2259.32275390625 -818.474365234375 -2258.37939453125 -819.3955078125 -2257.472412109375 -820.6053466796875 C -2255.68359375 -822.9912719726563 -2254.04541015625 -826.5122680664063 -2252.715087890625 -830.8223876953125 C -2256.034912109375 -832.6875610351563 -2259.484130859375 -834.9965209960938 -2262.987548828125 -837.6986083984375 C -2266.498779296875 -834.99072265625 -2269.955078125 -832.6779174804688 -2273.281494140625 -830.8106079101563 C -2271.951171875 -826.5042114257813 -2270.313232421875 -822.9865112304688 -2268.525146484375 -820.6026000976563 C -2267.618408203125 -819.3937377929688 -2266.675537109375 -818.4732666015625 -2265.72265625 -817.8668212890625 C -2264.819091796875 -817.2918701171875 -2263.903076171875 -817.0003051757813 -2262.999755859375 -817.0003051757813 M -2237.765380859375 -827.7886352539063 L -2237.765380859375 -827.7886352539063 C -2235.798828125 -827.788818359375 -2234.292724609375 -828.2976684570313 -2233.289306640625 -829.3010864257813 C -2232.650390625 -829.9400634765625 -2232.208740234375 -830.7943115234375 -2231.9765625 -831.8402099609375 C -2231.7314453125 -832.9432983398438 -2231.7158203125 -834.2615356445313 -2231.929931640625 -835.7582397460938 C -2232.351806640625 -838.7098388671875 -2233.682861328125 -842.3577270507813 -2235.7890625 -846.3456420898438 C -2239.461669921875 -845.31396484375 -2243.541015625 -844.5054321289063 -2247.937744140625 -843.937744140625 C -2248.504638671875 -839.5477905273438 -2249.3115234375 -835.4744262695313 -2250.341064453125 -831.8055419921875 C -2245.36669921875 -829.1752319335938 -2241.0302734375 -827.7883911132813 -2237.765380859375 -827.7886352539063 M -2288.2099609375 -827.7886352539063 L -2288.2099609375 -827.7886352539063 C -2284.94873046875 -827.7889404296875 -2280.619873046875 -829.1717529296875 -2275.656005859375 -831.7940673828125 C -2276.687255859375 -835.4663696289063 -2277.4951171875 -839.544189453125 -2278.06201171875 -843.9378662109375 C -2282.450439453125 -844.5045166015625 -2286.5224609375 -845.31103515625 -2290.189453125 -846.3397216796875 C -2292.29443359375 -842.3532104492188 -2293.62451171875 -838.706787109375 -2294.0458984375 -835.7562866210938 C -2294.259765625 -834.260009765625 -2294.243896484375 -832.9421997070313 -2293.9990234375 -831.8394775390625 C -2293.766845703125 -830.7938842773438 -2293.3251953125 -829.9398803710938 -2292.6865234375 -829.3011474609375 C -2291.6826171875 -828.2974243164063 -2290.176513671875 -827.7885131835938 -2288.2099609375 -827.7886352539063 M -2262.987548828125 -840.2389526367188 C -2261.856689453125 -841.1385498046875 -2260.724365234375 -842.0769653320313 -2259.60009765625 -843.046142578125 C -2260.729736328125 -843.015625 -2261.8662109375 -843.000244140625 -2262.999755859375 -843.000244140625 C -2264.124755859375 -843.000244140625 -2265.252685546875 -843.0154418945313 -2266.374755859375 -843.0455322265625 C -2265.249755859375 -842.0757446289063 -2264.117431640625 -841.137451171875 -2262.987548828125 -840.2389526367188 M -2271.87353515625 -845.3228149414063 C -2272.690673828125 -846.0970458984375 -2273.502197265625 -846.8869018554688 -2274.301513671875 -847.68603515625 C -2275.10400390625 -848.4884643554688 -2275.898193359375 -849.3045654296875 -2276.677490234375 -850.127197265625 C -2276.567626953125 -848.640869140625 -2276.429931640625 -847.1723022460938 -2276.265869140625 -845.734130859375 C -2274.82763671875 -845.570068359375 -2273.359375 -845.4326171875 -2271.87353515625 -845.3228149414063 M -2254.10009765625 -845.3247680664063 C -2252.623779296875 -845.4342041015625 -2251.1640625 -845.5709838867188 -2249.734130859375 -845.7340698242188 C -2249.571044921875 -847.1640014648438 -2249.434326171875 -848.623046875 -2249.324951171875 -850.0992431640625 C -2250.095458984375 -849.2862548828125 -2250.880615234375 -848.4796752929688 -2251.67431640625 -847.6859741210938 C -2252.47265625 -846.8876953125 -2253.283447265625 -846.0984497070313 -2254.10009765625 -845.3247680664063 M -2291.173095703125 -848.7137451171875 C -2289.305908203125 -852.0384521484375 -2286.994384765625 -855.4924926757813 -2284.289306640625 -859.0000610351563 C -2286.99462890625 -862.5075073242188 -2289.30615234375 -865.9615478515625 -2291.173095703125 -869.2863159179688 C -2295.484619140625 -867.9556884765625 -2299.0068359375 -866.3172607421875 -2301.393310546875 -864.5281982421875 C -2302.603759765625 -863.6210327148438 -2303.525146484375 -862.6776123046875 -2304.13232421875 -861.7241821289063 C -2304.707763671875 -860.8201904296875 -2304.999755859375 -859.9035034179688 -2304.999755859375 -858.9996337890625 C -2304.999755859375 -856.6649780273438 -2303.03857421875 -854.7048950195313 -2301.393310546875 -853.4716796875 C -2299.006591796875 -851.6826171875 -2295.484375 -850.0442504882813 -2291.173095703125 -848.7137451171875 M -2234.805908203125 -848.7200317382813 C -2230.5009765625 -850.0504150390625 -2226.984375 -851.68798828125 -2224.601318359375 -853.4757690429688 C -2223.392822265625 -854.3823852539063 -2222.47265625 -855.3250732421875 -2221.866455078125 -856.2776489257813 C -2221.291748046875 -857.180908203125 -2221.000244140625 -858.0966796875 -2221.000244140625 -858.9996337890625 C -2221.000244140625 -859.9026489257813 -2221.291748046875 -860.8185424804688 -2221.866455078125 -861.7218017578125 C -2222.47265625 -862.6744995117188 -2223.392822265625 -863.6172485351563 -2224.60107421875 -864.5238647460938 C -2226.984375 -866.3118286132813 -2230.500732421875 -867.9495239257813 -2234.805908203125 -869.2799072265625 C -2236.672607421875 -865.9570922851563 -2238.982666015625 -862.5053100585938 -2241.686279296875 -859.0000610351563 C -2238.982666015625 -855.4949951171875 -2236.672607421875 -852.043212890625 -2234.805908203125 -848.7200317382813 M -2247.04638671875 -855.597900390625 C -2246.072021484375 -856.7275390625 -2245.129150390625 -857.864990234375 -2244.226806640625 -859 C -2245.13037109375 -860.1363525390625 -2246.072998046875 -861.2734985351563 -2247.04638671875 -862.4021606445313 C -2247.015625 -861.270751953125 -2247.000244140625 -860.1334838867188 -2247.000244140625 -858.9996337890625 C -2247.000244140625 -857.8671264648438 -2247.015625 -856.7300415039063 -2247.04638671875 -855.597900390625 M -2278.95458984375 -855.6273803710938 C -2278.98486328125 -856.7498779296875 -2279 -857.8771362304688 -2279 -858.9996337890625 C -2279 -860.1239013671875 -2278.98486328125 -861.2511596679688 -2278.954833984375 -862.37255859375 C -2279.919921875 -861.2527465820313 -2280.853759765625 -860.12548828125 -2281.748779296875 -859.0000610351563 C -2280.853515625 -857.8740844726563 -2279.91943359375 -856.7467651367188 -2278.95458984375 -855.6273803710938 M -2276.67724609375 -867.8729858398438 C -2275.897705078125 -868.6959228515625 -2275.103759765625 -869.511962890625 -2274.301513671875 -870.3141479492188 C -2273.5029296875 -871.1126098632813 -2272.69140625 -871.9024658203125 -2271.873779296875 -872.67724609375 C -2273.358642578125 -872.5675048828125 -2274.8271484375 -872.4300537109375 -2276.265869140625 -872.2659301757813 C -2276.43017578125 -870.8272094726563 -2276.567626953125 -869.358642578125 -2276.67724609375 -867.8729858398438 M -2249.324951171875 -867.9007568359375 C -2249.434326171875 -869.3764038085938 -2249.571044921875 -870.8355102539063 -2249.734375 -872.2660522460938 C -2251.164794921875 -872.42919921875 -2252.6240234375 -872.5659790039063 -2254.10009765625 -872.6753540039063 C -2253.282958984375 -871.9011840820313 -2252.47216796875 -871.1118774414063 -2251.674072265625 -870.3140258789063 C -2250.8798828125 -869.5194702148438 -2250.094482421875 -868.712890625 -2249.324951171875 -867.9007568359375 M -2235.7890625 -871.6543579101563 C -2233.682861328125 -875.6421508789063 -2232.351806640625 -879.2898559570313 -2231.929931640625 -882.2412719726563 C -2231.7158203125 -883.7379760742188 -2231.7314453125 -885.0560913085938 -2231.976318359375 -886.1591186523438 C -2232.208740234375 -887.2049560546875 -2232.650390625 -888.0592041015625 -2233.289306640625 -888.6981201171875 C -2234.293212890625 -889.7021484375 -2235.799560546875 -890.211181640625 -2237.766357421875 -890.211181640625 C -2241.031982421875 -890.211181640625 -2245.367919921875 -888.8244018554688 -2250.34130859375 -886.1943969726563 C -2249.311767578125 -882.525146484375 -2248.5048828125 -878.4512329101563 -2247.938232421875 -874.0623779296875 C -2243.541015625 -873.4947509765625 -2239.461669921875 -872.6861572265625 -2235.7890625 -871.6543579101563 M -2290.189453125 -871.6603393554688 C -2286.5224609375 -872.689208984375 -2282.4501953125 -873.4957885742188 -2278.062255859375 -874.0623168945313 C -2277.4951171875 -878.4554443359375 -2276.68701171875 -882.533203125 -2275.65576171875 -886.2059326171875 C -2280.619873046875 -888.8282470703125 -2284.94873046875 -890.2109985351563 -2288.209228515625 -890.2109985351563 C -2290.17626953125 -890.2109985351563 -2291.6826171875 -889.7019653320313 -2292.6865234375 -888.6980590820313 C -2294.33642578125 -887.0482788085938 -2294.33642578125 -884.2774658203125 -2294.0458984375 -882.2435913085938 C -2293.624267578125 -879.29296875 -2292.29443359375 -875.6466674804688 -2290.189453125 -871.6603393554688 M -2259.60009765625 -874.9539794921875 C -2260.724365234375 -875.9232177734375 -2261.856689453125 -876.8617553710938 -2262.987548828125 -877.7611694335938 C -2264.117431640625 -876.8626708984375 -2265.24951171875 -875.9244384765625 -2266.37451171875 -874.9546508789063 C -2265.252685546875 -874.9847412109375 -2264.12451171875 -874.9999389648438 -2262.999755859375 -874.9999389648438 C -2261.866943359375 -874.9999389648438 -2260.73046875 -874.9845581054688 -2259.60009765625 -874.9539794921875 M -2262.987548828125 -880.301513671875 C -2259.48388671875 -883.0037231445313 -2256.03466796875 -885.3125 -2252.715087890625 -887.177490234375 C -2254.04541015625 -891.4876708984375 -2255.68359375 -895.0086669921875 -2257.472412109375 -897.3945922851563 C -2258.37939453125 -898.6044921875 -2259.322509765625 -899.5256958007813 -2260.27587890625 -900.132568359375 C -2261.1796875 -900.7080078125 -2262.095947265625 -900.9998168945313 -2262.999755859375 -900.9998168945313 C -2263.90283203125 -900.9998168945313 -2264.81884765625 -900.7083129882813 -2265.722412109375 -900.13330078125 C -2266.67529296875 -899.5269165039063 -2267.6181640625 -898.6065063476563 -2268.52490234375 -897.3976440429688 C -2270.31298828125 -895.013671875 -2271.950927734375 -891.4959106445313 -2273.28125 -887.1895141601563 C -2269.954345703125 -885.322021484375 -2266.498291015625 -883.0093383789063 -2262.987548828125 -880.301513671875 M -2262.999755859375 -816.0003051757813 C -2267.430908203125 -816.0003051757813 -2271.6123046875 -821.5748901367188 -2274.471923828125 -831.2947387695313 C -2270.783203125 -833.3060302734375 -2266.919677734375 -835.8862915039063 -2262.987548828125 -838.965087890625 C -2265.048828125 -840.5790405273438 -2267.117919921875 -842.3246459960938 -2269.1376953125 -844.15185546875 C -2267.132080078125 -844.0518798828125 -2265.0673828125 -844.000244140625 -2262.999755859375 -844.000244140625 C -2260.934814453125 -844.000244140625 -2258.861328125 -844.0516967773438 -2256.836669921875 -844.1531372070313 C -2258.86572265625 -842.317138671875 -2260.935546875 -840.5722045898438 -2262.987548828125 -838.965087890625 C -2259.066162109375 -835.8944091796875 -2255.20947265625 -833.317138671875 -2251.52490234375 -831.306396484375 C -2254.38427734375 -821.5787353515625 -2258.56689453125 -816.0003051757813 -2262.999755859375 -816.0003051757813 Z M -2237.765380859375 -826.7886352539063 C -2241.3505859375 -826.7883911132813 -2246.1083984375 -828.3505859375 -2251.52490234375 -831.306396484375 C -2250.34130859375 -835.3328247070313 -2249.435546875 -839.883544921875 -2248.833251953125 -844.8333129882813 C -2251.427734375 -844.5176391601563 -2254.120849609375 -844.2891845703125 -2256.836669921875 -844.1531372070313 C -2255.34423828125 -845.5035400390625 -2253.84521484375 -846.9295043945313 -2252.38134765625 -848.3931274414063 C -2250.928955078125 -849.8456420898438 -2249.506591796875 -851.3402099609375 -2248.1533203125 -852.8353271484375 C -2248.2900390625 -850.1066284179688 -2248.519287109375 -847.4146118164063 -2248.833251953125 -844.8333129882813 C -2243.88037109375 -845.4359130859375 -2239.323486328125 -846.3427124023438 -2235.289794921875 -847.5296630859375 C -2230.434326171875 -838.6298828125 -2229.447998046875 -831.728271484375 -2232.582275390625 -828.593994140625 C -2233.780029296875 -827.396240234375 -2235.52392578125 -826.788818359375 -2237.765380859375 -826.7886352539063 Z M -2288.2099609375 -826.7886352539063 C -2290.451171875 -826.7885131835938 -2292.1953125 -827.3959350585938 -2293.3935546875 -828.593994140625 C -2296.527099609375 -831.7276000976563 -2295.541259765625 -838.6271362304688 -2290.68896484375 -847.5235595703125 C -2286.666015625 -846.34130859375 -2282.1162109375 -845.4356689453125 -2277.16650390625 -844.8333740234375 C -2277.4833984375 -847.4344482421875 -2277.71240234375 -850.1366577148438 -2277.848388671875 -852.8639526367188 C -2276.492431640625 -851.3649291992188 -2275.061767578125 -849.8604736328125 -2273.594482421875 -848.3931274414063 C -2272.1376953125 -846.9367065429688 -2270.638427734375 -845.509765625 -2269.1376953125 -844.15185546875 C -2271.87744140625 -844.2885131835938 -2274.57861328125 -844.5183715820313 -2277.16650390625 -844.8333740234375 C -2276.564697265625 -839.8837280273438 -2275.658447265625 -835.3283081054688 -2274.471923828125 -831.294677734375 C -2279.878662109375 -828.3466796875 -2284.62890625 -826.7889404296875 -2288.2099609375 -826.7886352539063 Z M -2290.68896484375 -847.5235595703125 C -2300.4189453125 -850.3831176757813 -2305.999755859375 -854.5665283203125 -2305.999755859375 -858.9996337890625 C -2305.999755859375 -863.43359375 -2300.419189453125 -867.61669921875 -2290.68896484375 -870.4765014648438 C -2295.541259765625 -879.3726806640625 -2296.52685546875 -886.2724609375 -2293.3935546875 -889.4052124023438 C -2292.1953125 -890.6034545898438 -2290.451171875 -891.2109985351563 -2288.209228515625 -891.2109985351563 C -2284.62841796875 -891.2109985351563 -2279.8779296875 -889.6529541015625 -2274.4716796875 -886.705322265625 C -2275.6572265625 -882.6749877929688 -2276.564208984375 -878.1203002929688 -2277.166748046875 -873.166748046875 C -2274.564697265625 -873.4832763671875 -2271.863525390625 -873.7122802734375 -2269.137451171875 -873.8482666015625 C -2270.630615234375 -872.4973754882813 -2272.13037109375 -871.0709838867188 -2273.594482421875 -869.6069946289063 C -2275.053955078125 -868.1474609375 -2276.484375 -866.6439208984375 -2277.846435546875 -865.1383056640625 L -2277.848388671875 -865.13623046875 L -2277.84814453125 -865.1390380859375 C -2277.7119140625 -867.8695678710938 -2277.482666015625 -870.5704956054688 -2277.166748046875 -873.166748046875 C -2282.112060546875 -872.5651245117188 -2286.661376953125 -871.6602783203125 -2290.68896484375 -870.4765014648438 C -2288.6787109375 -866.7910766601563 -2286.099609375 -862.9293823242188 -2283.022705078125 -859.0000610351563 C -2281.41259765625 -861.0562744140625 -2279.671630859375 -863.120361328125 -2277.848388671875 -865.13623046875 C -2277.948486328125 -863.1285400390625 -2278 -861.0641479492188 -2278 -858.9996337890625 C -2278 -856.9498901367188 -2277.948974609375 -854.886474609375 -2277.8486328125 -852.8667602539063 L -2277.848388671875 -852.8639526367188 L -2277.850341796875 -852.8660278320313 C -2279.674560546875 -854.8828735351563 -2281.414794921875 -856.9466552734375 -2283.022705078125 -859.0000610351563 C -2286.09716796875 -855.07373046875 -2288.676513671875 -851.212890625 -2290.68896484375 -847.5235595703125 Z M -2235.29052734375 -847.5294799804688 L -2235.290283203125 -847.5303344726563 C -2237.301513671875 -851.2167358398438 -2239.879638671875 -855.07568359375 -2242.952880859375 -859.0000610351563 C -2239.88037109375 -862.9237670898438 -2237.302001953125 -866.7825317382813 -2235.289794921875 -870.4703369140625 C -2225.572509765625 -867.610595703125 -2220.000244140625 -863.4295043945313 -2220.000244140625 -858.9996337890625 C -2220.000244140625 -854.5698852539063 -2225.572998046875 -850.3892211914063 -2235.289794921875 -847.5296630859375 L -2235.29052734375 -847.5294799804688 Z M -2248.1533203125 -852.8353271484375 L -2248.153076171875 -852.838134765625 C -2248.0517578125 -854.8668212890625 -2248.000244140625 -856.9398803710938 -2248.000244140625 -858.9996337890625 C -2248.000244140625 -861.0625 -2248.0517578125 -863.1367797851563 -2248.1533203125 -865.1648559570313 C -2246.3134765625 -863.1324462890625 -2244.564453125 -861.0580444335938 -2242.952880859375 -859.0000610351563 C -2244.56884765625 -856.93603515625 -2246.31787109375 -854.863037109375 -2248.1513671875 -852.83740234375 L -2248.1533203125 -852.8353271484375 Z M -2248.1533203125 -865.1648559570313 L -2248.1552734375 -865.1669311523438 C -2249.5068359375 -866.6602172851563 -2250.9287109375 -868.154052734375 -2252.38134765625 -869.6069946289063 C -2253.8369140625 -871.0624389648438 -2255.3359375 -872.489013671875 -2256.836669921875 -873.8469848632813 C -2254.107177734375 -873.7103271484375 -2251.414794921875 -873.4808959960938 -2248.833740234375 -873.1668090820313 C -2249.435546875 -878.113525390625 -2250.3408203125 -882.664306640625 -2251.52490234375 -886.6934814453125 C -2246.109130859375 -889.6494140625 -2241.3515625 -891.211181640625 -2237.766357421875 -891.211181640625 C -2235.524658203125 -891.211181640625 -2233.780517578125 -890.6035766601563 -2232.582275390625 -889.4052124023438 C -2229.44775390625 -886.2711181640625 -2230.4345703125 -879.36962890625 -2235.289794921875 -870.4703369140625 L -2235.290283203125 -870.4696655273438 L -2235.29052734375 -870.4705200195313 C -2239.321533203125 -871.6567993164063 -2243.878173828125 -872.56396484375 -2248.833740234375 -873.1668090820313 C -2248.517822265625 -870.5731811523438 -2248.289306640625 -867.8821411132813 -2248.153564453125 -865.1676635742188 L -2248.1533203125 -865.1648559570313 Z M -2256.836669921875 -873.8469848632813 L -2256.83935546875 -873.84716796875 C -2258.86474609375 -873.948486328125 -2260.9375 -873.9999389648438 -2262.999755859375 -873.9999389648438 C -2265.05419921875 -873.9999389648438 -2267.119384765625 -873.9489135742188 -2269.137451171875 -873.8482666015625 C -2267.1064453125 -875.6856689453125 -2265.037109375 -877.43017578125 -2262.987548828125 -879.0350341796875 C -2260.927734375 -877.421875 -2258.859130859375 -875.677001953125 -2256.838623046875 -873.848876953125 L -2256.836669921875 -873.8469848632813 Z M -2262.98779296875 -879.0350341796875 L -2262.98828125 -879.0355224609375 C -2266.918701171875 -882.1133422851563 -2270.7822265625 -884.6937866210938 -2274.4716796875 -886.705322265625 C -2271.612060546875 -896.4255981445313 -2267.430419921875 -901.9998168945313 -2262.999755859375 -901.9998168945313 C -2258.566650390625 -901.9998168945313 -2254.38427734375 -896.4208984375 -2251.52490234375 -886.6935424804688 C -2255.206298828125 -884.6845092773438 -2259.0625 -882.1083374023438 -2262.987060546875 -879.0355224609375 L -2262.98779296875 -879.0350341796875 Z" stroke="none" fill="#03c6db"/>
    </g>
  </g>
</svg>
