<svg xmlns="http://www.w3.org/2000/svg" width="77.61" height="85.21" viewBox="0 0 77.61 85.21">
  <g id="Group_400" data-name="Group 400" transform="translate(-5168 -966.985)">
    <g id="Group_399" data-name="Group 399" transform="translate(5168 966.985)">
      <g id="plane2">
        <path id="Path_1650" data-name="Path 1650" d="M11.784,17.889l-5.96-6.815,5.96-6.815a3.852,3.852,0,0,1,5.96,0,5.32,5.32,0,0,1,0,6.815Zm0,0" transform="translate(13.32 6.909)" fill="#3aaaff"/>
        <path id="Path_1651" data-name="Path 1651" d="M22.722,28.825l-5.96-6.815,5.96-6.815a3.852,3.852,0,0,1,5.96,0,5.32,5.32,0,0,1,0,6.815Zm0,0" transform="translate(39.154 35.543)" fill="#0095ff"/>
        <path id="Path_1652" data-name="Path 1652" d="M13.448,4.525A10.061,10.061,0,0,0,2.314,4.8,2.452,2.452,0,0,0,1.3,6.573a2.626,2.626,0,0,0,.6,2c.044.05.089.1.138.145L28.512,34.05,39.555,20.385Zm0,0" transform="translate(2.561 7.231)" fill="#25d9f8"/>
        <path id="Path_1653" data-name="Path 1653" d="M37.377,39.41,23.762,10.1l-11.606,12.9,21.551,29.45c.041.056.083.108.126.158a1.954,1.954,0,0,0,1.752.686,2.113,2.113,0,0,0,1.549-1.161,14.515,14.515,0,0,0,.242-12.73Zm0,0" transform="translate(29.945 27.498)" fill="#00c0f1"/>
        <path id="Path_1654" data-name="Path 1654" d="M74.732,16.426,25.365,66.436l4.092,10.086a5.407,5.407,0,0,1-.91,5.592L26.365,84.46a2.141,2.141,0,0,1-1.874.733,2.249,2.249,0,0,1-1.673-1.182l-8.23-14.828-13.5-9.037A2.509,2.509,0,0,1,.009,58.309a2.625,2.625,0,0,1,.665-2.057l2.137-2.4a4.285,4.285,0,0,1,5.093-1l9.185,4.493,45.55-54.2a7.886,7.886,0,0,1,12.367-.3A9.8,9.8,0,0,1,74.732,16.426Zm0,0" transform="translate(0.006)" fill="#ede9e8"/>
        <g id="Group_401" data-name="Group 401" transform="translate(19.205 2.746)">
          <path id="Path_1655" data-name="Path 1655" d="M60.257,14.4,14.5,64.467l3.793,10.1a5.756,5.756,0,0,1-.843,5.6l-2.023,2.349a1.911,1.911,0,0,1-1.737.734,2.1,2.1,0,0,1-1.551-1.184L4.513,67.217,60.509.8a10.386,10.386,0,0,1-.253,13.6Zm0,0" transform="translate(-4.513 -0.8)" fill="#d2c5c2"/>
        </g>
        <path id="Path_1656" data-name="Path 1656" d="M12.707,20.48a2.393,2.393,0,0,1-.589,1.687L6.133,29.011a1.973,1.973,0,0,1-2.992,0,2.737,2.737,0,0,1,0-3.422l5.984-6.842a1.973,1.973,0,0,1,2.992,0,2.6,2.6,0,0,1,.589,1.733Zm0,0" transform="translate(5.075 46.803)" fill="#25d9f8"/>
        <path id="Path_1657" data-name="Path 1657" d="M12.307,20a2.393,2.393,0,0,1-.589,1.687L5.733,28.525a1.973,1.973,0,0,1-2.992,0l8.976-10.264A2.6,2.6,0,0,1,12.307,20Zm0,0" transform="translate(5.475 47.288)" fill="#00c0f1"/>
      </g>
    </g>
  </g>
</svg>
