<svg xmlns="http://www.w3.org/2000/svg" width="38.058" height="44.037" viewBox="0 0 38.058 44.037">
  <g id="Group_607" data-name="Group 607" transform="translate(469.5 -15189.963)">
    <g id="singles" transform="translate(-472.971 15189.429)">
      <g id="Group_552" data-name="Group 552" transform="translate(4.082 2.783)">
        <g id="Group_551" data-name="Group 551" transform="translate(0)">
          <path id="Path_2212" data-name="Path 2212" d="M23.729,124.926a1,1,0,0,1-1.073.889H8.544a1,1,0,0,1-1.073-.889,6.38,6.38,0,0,1,3.074-5.361,8.772,8.772,0,0,1,2.6-1.158,9.538,9.538,0,0,1,3-.292l.025,0a9.732,9.732,0,0,1,1.877.3,9.169,9.169,0,0,1,1.569.568A6.6,6.6,0,0,1,23.729,124.926Z" transform="translate(-7.471 -100.993)" fill="#ffe2e2"/>
          <path id="Path_2213" data-name="Path 2213" d="M16.328,118.128a9.115,9.115,0,0,0-3.195.849,8.8,8.8,0,0,0-1.041.587,6.38,6.38,0,0,0-3.074,5.361,1,1,0,0,0,1.073.889H8.544a1,1,0,0,1-1.073-.889,6.38,6.38,0,0,1,3.074-5.361,8.816,8.816,0,0,1,1.041-.587,9.133,9.133,0,0,1,3.357-.861,9.277,9.277,0,0,1,1.2,0l.025,0,.161.011Z" transform="translate(-7.471 -100.993)" fill="#ffefee"/>
          <path id="Path_2214" data-name="Path 2214" d="M64.254,124.926a1,1,0,0,1-1.073.889H61.633a1,1,0,0,0,1.073-.889,6.6,6.6,0,0,0-4.115-5.937,9.544,9.544,0,0,0-3.285-.861l.162-.011a9.275,9.275,0,0,1,1.2,0l.025,0a9.566,9.566,0,0,1,3.446.872A6.6,6.6,0,0,1,64.254,124.926Z" transform="translate(-47.996 -100.993)" fill="#ffcfcf"/>
          <path id="Path_2215" data-name="Path 2215" d="M42.428,118.989v4.257l-4.012-1.288h0L34.4,123.246v-4.269a8.858,8.858,0,0,1,1.561-.571,9.539,9.539,0,0,1,3-.292l.025,0a9.732,9.732,0,0,1,1.877.3A9.164,9.164,0,0,1,42.428,118.989Z" transform="translate(-30.285 -100.993)" fill="#5fcdff"/>
          <path id="Path_2216" data-name="Path 2216" d="M48.246,100.816v-3.21H45.891v3.2a9.186,9.186,0,0,0-1.275.241c.469,1.241,1.123,2.85,2.453,3.552a6.2,6.2,0,0,0,2.444-3.537A9.731,9.731,0,0,0,48.246,100.816Z" transform="translate(-38.94 -83.634)" fill="#ffbb98"/>
          <path id="Path_2217" data-name="Path 2217" d="M38.733,39.53v4.358a4.831,4.831,0,0,1-4.037,4.75h0a5.221,5.221,0,0,1-1.548,0,4.827,4.827,0,0,1-4.04-4.75V39.53a.6.6,0,0,1,.594-.6h8.436A.6.6,0,0,1,38.733,39.53Z" transform="translate(-25.8 -33.928)" fill="#ffbb98"/>
          <path id="Path_2218" data-name="Path 2218" d="M61.129,39.53v4.358a4.831,4.831,0,0,1-4.037,4.75h0a5.22,5.22,0,0,1-1.548,0,4.76,4.76,0,0,0,.774-.195,4.829,4.829,0,0,0,3.262-4.554v-4.3a.653.653,0,0,0-.65-.651h1.606a.6.6,0,0,1,.6.6Z" transform="translate(-48.196 -33.928)" fill="#ffaa80"/>
          <path id="Path_2219" data-name="Path 2219" d="M34.693,48.638a5.22,5.22,0,0,1-1.548,0,4.827,4.827,0,0,1-4.04-4.75V39.53a.6.6,0,0,1,.594-.6h1.608a.654.654,0,0,0-.651.651v4.3a4.825,4.825,0,0,0,4.037,4.75Z" transform="translate(-25.8 -33.928)" fill="#ffcaa6"/>
          <path id="Path_2220" data-name="Path 2220" d="M33.193,11.134v2.28a.518.518,0,0,1-.531.518,5.439,5.439,0,0,0-1.019-.785A8.724,8.724,0,0,0,27.172,12a8.722,8.722,0,0,0-4.49,1.155,5.458,5.458,0,0,0-1.007.78h-.031a.521.521,0,0,1-.514-.516V11.134a4.966,4.966,0,0,1,4.964-4.964h2.137a4.963,4.963,0,0,1,4.962,4.964Z" transform="translate(-19.043 -6.171)" fill="#87828e"/>
          <path id="Path_2221" data-name="Path 2221" d="M63.963,11.134v2.28a.518.518,0,0,1-.531.518,5.439,5.439,0,0,0-1.019-.785V11.134a4.96,4.96,0,0,0-4.48-4.94q-.238-.024-.483-.024H59a4.963,4.963,0,0,1,4.962,4.964Z" transform="translate(-49.813 -6.171)" fill="#796e84"/>
          <path id="Path_2222" data-name="Path 2222" d="M27.649,6.171c-.162,0-.323.008-.481.024a4.957,4.957,0,0,0-4.481,4.94v2.024a5.588,5.588,0,0,0-1.007.782h-.031a.52.52,0,0,1-.513-.519V11.135A4.964,4.964,0,0,1,26.1,6.171Z" transform="translate(-19.048 -6.171)" fill="#a4a4a5"/>
          <path id="Path_2223" data-name="Path 2223" d="M33.193,27.478V29.29a.518.518,0,0,1-.52.518h-.011a7.906,7.906,0,0,0-5.49-1.929,7.9,7.9,0,0,0-5.5,1.936h-.031a.518.518,0,0,1-.514-.516V27.51c1-1.528,3.328-2.6,6.042-2.6C29.866,24.91,32.183,25.967,33.193,27.478Z" transform="translate(-19.043 -22.047)" fill="#5fcdff"/>
        </g>
      </g>
      <g id="Group_554" data-name="Group 554" transform="translate(24.66 12.335)">
        <g id="Group_553" data-name="Group 553">
          <path id="Path_2224" data-name="Path 2224" d="M158.394,206.145a1,1,0,0,1-1.073.889H143.209a1,1,0,0,1-1.073-.889,6.38,6.38,0,0,1,3.074-5.361,8.772,8.772,0,0,1,2.6-1.158,9.539,9.539,0,0,1,3-.292l.025,0a9.73,9.73,0,0,1,1.877.3,9.169,9.169,0,0,1,1.569.568A6.6,6.6,0,0,1,158.394,206.145Z" transform="translate(-142.136 -179.353)" fill="#ffe2e2"/>
          <path id="Path_2225" data-name="Path 2225" d="M150.993,199.346a9.115,9.115,0,0,0-3.195.849,8.8,8.8,0,0,0-1.041.587,6.38,6.38,0,0,0-3.074,5.361,1,1,0,0,0,1.073.889h-1.548a1,1,0,0,1-1.073-.889,6.38,6.38,0,0,1,3.074-5.361,8.814,8.814,0,0,1,1.041-.587,9.133,9.133,0,0,1,3.357-.861,9.277,9.277,0,0,1,1.2,0l.025,0Z" transform="translate(-142.136 -179.352)" fill="#ffefee"/>
          <path id="Path_2226" data-name="Path 2226" d="M198.919,206.145a1,1,0,0,1-1.073.889H196.3a1,1,0,0,0,1.073-.889,6.6,6.6,0,0,0-4.115-5.937,9.544,9.544,0,0,0-3.285-.861l.162-.011a9.277,9.277,0,0,1,1.2,0l.025,0a9.566,9.566,0,0,1,3.446.872A6.6,6.6,0,0,1,198.919,206.145Z" transform="translate(-182.661 -179.353)" fill="#ffcfcf"/>
          <path id="Path_2227" data-name="Path 2227" d="M177.093,200.208v4.257l-4.012-1.288h0l-4.012,1.288V200.2a8.854,8.854,0,0,1,1.561-.571,9.538,9.538,0,0,1,3-.292l.025,0a9.732,9.732,0,0,1,1.877.3A9.151,9.151,0,0,1,177.093,200.208Z" transform="translate(-164.95 -179.353)" fill="#ff4a73"/>
          <path id="Path_2228" data-name="Path 2228" d="M182.912,182.034v-3.21h-2.355v3.2a9.187,9.187,0,0,0-1.275.241c.469,1.241,1.123,2.85,2.453,3.552a6.2,6.2,0,0,0,2.444-3.537A9.735,9.735,0,0,0,182.912,182.034Z" transform="translate(-173.606 -161.993)" fill="#ffbb98"/>
          <path id="Path_2229" data-name="Path 2229" d="M173.4,120.749v4.358a4.831,4.831,0,0,1-4.037,4.75h0a5.22,5.22,0,0,1-1.548,0,4.827,4.827,0,0,1-4.04-4.75v-4.358a.6.6,0,0,1,.594-.6H172.8A.6.6,0,0,1,173.4,120.749Z" transform="translate(-160.465 -112.288)" fill="#ffbb98"/>
          <path id="Path_2230" data-name="Path 2230" d="M195.794,120.749v4.358a4.831,4.831,0,0,1-4.037,4.75h0a5.22,5.22,0,0,1-1.548,0,4.76,4.76,0,0,0,.774-.195,4.829,4.829,0,0,0,3.262-4.554v-4.3a.653.653,0,0,0-.65-.651H195.2a.6.6,0,0,1,.6.6Z" transform="translate(-182.861 -112.288)" fill="#ffaa80"/>
          <path id="Path_2231" data-name="Path 2231" d="M169.358,129.857a5.22,5.22,0,0,1-1.548,0,4.827,4.827,0,0,1-4.04-4.75v-4.358a.6.6,0,0,1,.594-.6h1.608a.654.654,0,0,0-.651.651v4.3a4.824,4.824,0,0,0,4.037,4.749Z" transform="translate(-160.465 -112.288)" fill="#ffcaa6"/>
          <path id="Path_2232" data-name="Path 2232" d="M167.942,71a5.871,5.871,0,0,1-2.131,1.2,5.656,5.656,0,0,0,.3-3.185.394.394,0,0,0-.719-.163,7.539,7.539,0,0,1-2.419,2.08,4.365,4.365,0,0,1-2.218.6,4.959,4.959,0,0,0-4.964,4.964V78.79a.521.521,0,0,0,.514.516h.031a5.452,5.452,0,0,1,1.007-.78,9.3,9.3,0,0,1,8.961-.011,5.429,5.429,0,0,1,1.019.785.518.518,0,0,0,.531-.518V76.5a4.978,4.978,0,0,0-.125-1.107,8.375,8.375,0,0,0,.871-4.1A.393.393,0,0,0,167.942,71Z" transform="translate(-153.706 -68.679)" fill="#87828e"/>
          <path id="Path_2233" data-name="Path 2233" d="M166.2,70.322a10.91,10.91,0,0,1-.935.613,4.365,4.365,0,0,1-2.217.6,4.958,4.958,0,0,0-4.963,4.963v1.635a6.921,6.921,0,0,0-.741.39,5.476,5.476,0,0,0-1.007.781h-.031a.52.52,0,0,1-.513-.516V76.5a4.958,4.958,0,0,1,4.963-4.963,4.365,4.365,0,0,0,2.217-.6,7.538,7.538,0,0,0,2.419-2.08.4.4,0,0,1,.72.164,9.04,9.04,0,0,1,.089,1.3Z" transform="translate(-153.71 -68.678)" fill="#a4a4a5"/>
          <path id="Path_2234" data-name="Path 2234" d="M221.209,87.7a4.98,4.98,0,0,1,.125,1.106v2.281a.518.518,0,0,1-.316.477.493.493,0,0,1-.215.04,5.355,5.355,0,0,0-1.019-.784,6.911,6.911,0,0,0-.741-.388V88.81a4.98,4.98,0,0,0-.125-1.106,7.456,7.456,0,0,0,.853-3.365,5.736,5.736,0,0,0,1.65-1.027.394.394,0,0,1,.66.29,8.377,8.377,0,0,1-.871,4.1Z" transform="translate(-207.184 -80.988)" fill="#796e84"/>
          <path id="Path_2235" data-name="Path 2235" d="M167.859,108.7v1.812a.518.518,0,0,1-.52.518h-.011a8.775,8.775,0,0,0-10.987.007h-.031a.518.518,0,0,1-.514-.516v-1.788c1-1.528,3.328-2.6,6.042-2.6C164.532,106.129,166.849,107.186,167.859,108.7Z" transform="translate(-153.709 -100.406)" fill="#ff4a73"/>
        </g>
      </g>
      <g id="Group_555" data-name="Group 555" transform="translate(3.471 2.172)">
        <path id="Path_2236" data-name="Path 2236" d="M176.183,138.235a.645.645,0,1,0,.645.645A.645.645,0,0,0,176.183,138.235Z" transform="translate(-149.245 -117.444)" fill="#5f266d"/>
        <path id="Path_2237" data-name="Path 2237" d="M207.206,139.525a.645.645,0,1,0-.645-.645A.645.645,0,0,0,207.206,139.525Z" transform="translate(-175.527 -117.444)" fill="#5f266d"/>
        <circle id="Ellipse_236" data-name="Ellipse 236" cx="0.645" cy="0.645" r="0.645" transform="translate(5.715 8.381)" fill="#5f266d"/>
        <circle id="Ellipse_237" data-name="Ellipse 237" cx="0.645" cy="0.645" r="0.645" transform="translate(10.456 8.381)" fill="#5f266d"/>
        <path id="Path_2238" data-name="Path 2238" d="M53.246,72.091v-.2a.611.611,0,0,0-1.222,0v.2a.4.4,0,0,1-.794,0v-.2a.611.611,0,0,0-1.222,0v.2a1.619,1.619,0,0,0,3.239,0Z" transform="translate(-42.896 -60.717)" fill="#5f266d"/>
        <path id="Path_2239" data-name="Path 2239" d="M5.155,28.216H19.267a1.6,1.6,0,0,0,1.684-1.5c0-3.55-2.705-6.191-6.14-7.1h0c-.271-.071-.542-.131-.811-.18V17.857a5.484,5.484,0,0,0,3.627-5.114v-1.6c1.568.194,1.217-1.892,1.217-3.4A5.58,5.58,0,0,0,13.27,2.172H11.133A5.534,5.534,0,0,0,7.191,3.805C5.282,5.714,5.558,7.761,5.558,10.035a1.125,1.125,0,0,0,1.219,1.121v1.587a5.479,5.479,0,0,0,3.645,5.12v1.563a9.542,9.542,0,0,0-2.489.789h0a9.458,9.458,0,0,0-1.114.628,6.935,6.935,0,0,0-3.349,5.872,1.6,1.6,0,0,0,1.684,1.5Zm7.055-5.19a5.453,5.453,0,0,1-1.623-2.388c.2-.036.377-.062.516-.078a.611.611,0,0,0,.541-.607V18.139l.1.008c.152.013.3.022.457.022a5.43,5.43,0,0,0,.575-.033v1.83a.611.611,0,0,0,.537.607c.171.021.348.049.526.082a5.487,5.487,0,0,1-1.63,2.373Zm4.626,2.009v-3.23a5.725,5.725,0,0,1,2.892,4.91c0,.129-.2.278-.462.278H12.822V24.586l3.216,1.032a.612.612,0,0,0,.8-.582Zm-1.8-4.075q.3.1.579.215V24.2L13.5,23.519a7.833,7.833,0,0,0,1.534-2.558Zm-8-14.7a4.355,4.355,0,0,1,4.093-2.869H13.27a4.358,4.358,0,0,1,4.192,3.188,9.079,9.079,0,0,0-5.251-1.547A9.047,9.047,0,0,0,6.934,6.6c.031-.113.065-.226.106-.337ZM6.78,9.679V8.437c.963-1.31,3.114-2.179,5.43-2.179s4.428.839,5.41,2.151V9.663A9.673,9.673,0,0,0,6.78,9.679ZM8,12.743V10.318a8.673,8.673,0,0,1,8.4-.011v2.436a4.2,4.2,0,0,1-8.4,0Zm.809,8.419c.19-.08.385-.153.583-.219a7.894,7.894,0,0,0,1.527,2.577L8.808,24.2Zm-1.317.7.094-.06v3.23a.612.612,0,0,0,.8.582L11.6,24.586v2.408H5.155c-.26,0-.462-.15-.462-.278A5.825,5.825,0,0,1,7.492,21.865Z" transform="translate(-3.471 -2.172)" fill="#5f266d"/>
        <path id="Path_2240" data-name="Path 2240" d="M187.262,152.5a.611.611,0,0,0-.611.611v.2a.4.4,0,0,1-.794,0v-.2a.611.611,0,0,0-.611-.611c-1.084,0-.737,2.434,1.008,2.434S188.363,152.5,187.262,152.5Z" transform="translate(-156.946 -129.525)" fill="#5f266d"/>
        <path id="Path_2241" data-name="Path 2241" d="M139.822,93.582h14.111a1.6,1.6,0,0,0,1.684-1.5c0-3.811-3.116-6.585-6.951-7.275V83.224a5.483,5.483,0,0,0,3.627-5.114v-1.6a1.126,1.126,0,0,0,1.217-1.122v-2.28a5.579,5.579,0,0,0-.092-1,9.248,9.248,0,0,0,.837-4.207,1.005,1.005,0,0,0-1.683-.739,4.62,4.62,0,0,1-.768.562,8.288,8.288,0,0,0-.043-2.178,1,1,0,0,0-1.836-.414,6.992,6.992,0,0,1-2.218,1.888,3.755,3.755,0,0,1-1.907.518,5.533,5.533,0,0,0-3.941,1.633c-1.906,1.906-1.633,3.944-1.633,6.229a1.125,1.125,0,0,0,1.219,1.122V78.11a5.479,5.479,0,0,0,3.645,5.12v1.563a9.535,9.535,0,0,0-2.489.789h0a7.218,7.218,0,0,0-4.462,6.5A1.6,1.6,0,0,0,139.822,93.582Zm7.055-5.189a5.462,5.462,0,0,1-1.623-2.388c.2-.036.377-.062.516-.078a.611.611,0,0,0,.541-.607V83.505a5.2,5.2,0,0,0,1.132,0v1.83a.611.611,0,0,0,.537.607c.171.021.348.049.526.082A5.5,5.5,0,0,1,146.877,88.393ZM151.5,90.4v-3.23a5.725,5.725,0,0,1,2.893,4.91c0,.129-.2.278-.462.278h-6.445V89.952l3.216,1.032a.612.612,0,0,0,.8-.582Zm-1.8-4.075q.3.1.579.215v3.021l-2.113-.678A7.759,7.759,0,0,0,149.7,86.327Zm-3.9-17.566a4.979,4.979,0,0,0,2.528-.687,9.183,9.183,0,0,0,2.281-1.82c.19,2.371-.722,2.337-.23,2.946a.611.611,0,0,0,.639.2,6.558,6.558,0,0,0,2.008-1.028,7.232,7.232,0,0,1-.772,3.309.611.611,0,0,0-.087.29,9.675,9.675,0,0,0-10.565-.009A4.351,4.351,0,0,1,145.8,68.761Zm-4.352,6.285V73.8c.963-1.31,3.114-2.179,5.43-2.179s4.428.839,5.41,2.151v1.255A9.669,9.669,0,0,0,141.447,75.045Zm1.219,3.064V75.685l.04-.026a8.691,8.691,0,0,1,8.365.015V78.11a4.2,4.2,0,0,1-8.4,0Zm.809,8.419c.19-.08.385-.153.583-.219a7.854,7.854,0,0,0,1.527,2.577l-2.109.677V86.529Zm-1.222.643V90.4a.612.612,0,0,0,.8.582l3.216-1.032V92.36h-6.444c-.26,0-.462-.15-.462-.278a5.783,5.783,0,0,1,2.892-4.91Z" transform="translate(-117.56 -55.127)" fill="#5f266d"/>
      </g>
    </g>
    <g id="Group_556" data-name="Group 556" transform="translate(-557.968 13578.768)">
      <g id="relationship" transform="translate(93.667 1611.195)">
        <path id="Path_2086" data-name="Path 2086" d="M20.721,7.529,18.807,9.443a.478.478,0,0,0,0,.677l1.914,1.914.677-.677-1.1-1.1h8.894v9.092h.957V9.781a.478.478,0,0,0-.479-.479H20.3l1.1-1.1Z" transform="translate(-4.55 -7.529)" fill="#03c6db"/>
        <path id="Path_2087" data-name="Path 2087" d="M17.431,28.856l-.677.677,1.1,1.1H8.957V18.667H8V31.109a.478.478,0,0,0,.479.479h9.373l-1.1,1.1.677.677,1.914-1.914a.478.478,0,0,0,0-.677Z" transform="translate(-8 10.676)" fill="#03c6db"/>
      </g>
    </g>
  </g>
</svg>
