<svg xmlns="http://www.w3.org/2000/svg" xmlns:xlink="http://www.w3.org/1999/xlink" width="38" height="38" viewBox="0 0 38 38">
  <defs>
    <clipPath id="clip-path">
      <rect id="Rectangle_297" data-name="Rectangle 297" width="38" height="38" transform="translate(246 251)" fill="#fff" stroke="#707070" stroke-width="1"/>
    </clipPath>
  </defs>
  <g id="Mask_Group_46" data-name="Mask Group 46" transform="translate(-246 -251)" clip-path="url(#clip-path)">
    <g id="inappropriate_messages" data-name="inappropriate messages" transform="translate(246 251)">
      <path id="Path_1679" data-name="Path 1679" d="M26.793,0h-6.68a11,11,0,0,0-5.566,1.549A11.219,11.219,0,0,0,8.98,11.207a11.1,11.1,0,0,0,5.566,9.584,11,11,0,0,0,5.566,1.549h6.68A11.21,11.21,0,0,0,38,11.207,11.273,11.273,0,0,0,26.793,0Z" fill="#fabe2c"/>
      <path id="Path_1680" data-name="Path 1680" d="M26.793,22.34A11.21,11.21,0,0,0,38,11.207,11.273,11.273,0,0,0,26.793,0h-3.34V22.34Z" fill="#ff9100"/>
      <path id="Path_1681" data-name="Path 1681" d="M17.887,11.207h-6.68a11.133,11.133,0,1,0,0,22.266h.425l1.919,3.912a1.114,1.114,0,0,0,1.992,0l1.919-3.912h.425a11.133,11.133,0,0,0,0-22.266Z" fill="#e64d2e"/>
      <path id="Path_1682" data-name="Path 1682" d="M15.543,37.385l1.919-3.912h.425a11.133,11.133,0,0,0,0-22.266h-3.34V38A1.114,1.114,0,0,0,15.543,37.385Z" fill="#cc2929"/>
      <path id="Path_1683" data-name="Path 1683" d="M14.547,15.66a6.68,6.68,0,1,0,6.68,6.68A6.687,6.687,0,0,0,14.547,15.66Zm-4.453,6.68a4.458,4.458,0,0,1,4.453-4.453,4.4,4.4,0,0,1,2.248.631l-2.248,2.248-3.822,3.822a4.4,4.4,0,0,1-.631-2.248Zm4.453,4.453a4.4,4.4,0,0,1-2.248-.631l2.248-2.248,3.822-3.822A4.4,4.4,0,0,1,19,22.34a4.458,4.458,0,0,1-4.453,4.453Z" fill="#edf5ff"/>
      <path id="Path_1684" data-name="Path 1684" d="M21.227,22.34a6.687,6.687,0,0,0-6.68-6.68v2.227a4.4,4.4,0,0,1,2.248.631l-2.248,2.248v3.148l3.822-3.822A4.4,4.4,0,0,1,19,22.34a4.458,4.458,0,0,1-4.453,4.453V29.02a6.687,6.687,0,0,0,6.68-6.68Z" fill="#d0e4e7"/>
    </g>
  </g>
</svg>
