<svg xmlns="http://www.w3.org/2000/svg" xmlns:xlink="http://www.w3.org/1999/xlink" width="38" height="38" viewBox="0 0 38 38">
  <defs>
    <clipPath id="clip-path">
      <rect id="Rectangle_301" data-name="Rectangle 301" width="38" height="38" transform="translate(93 536)" fill="#fff" stroke="#707070" stroke-width="1"/>
    </clipPath>
  </defs>
  <g id="Mask_Group_49" data-name="Mask Group 49" transform="translate(-93 -536)" clip-path="url(#clip-path)">
    <g id="underage" transform="translate(91.733 534.733)">
      <circle id="Ellipse_176" data-name="Ellipse 176" cx="19" cy="19" r="19" transform="translate(1.267 1.267)" fill="#f05555"/>
      <path id="Path_1708" data-name="Path 1708" d="M33.7,6.832l-.023-.022L6.809,33.678l.022.023A19,19,0,1,0,33.7,6.832Z" fill="#e13741"/>
      <circle id="Ellipse_177" data-name="Ellipse 177" cx="13.933" cy="13.933" r="13.933" transform="translate(6.333 6.333)" fill="#d7e6e6"/>
      <path id="Path_1709" data-name="Path 1709" d="M3.167,21.217a.95.95,0,0,1-.95-.95,18.05,18.05,0,0,1,18.05-18.05.95.95,0,1,1,0,1.9,16.168,16.168,0,0,0-16.15,16.15A.95.95,0,0,1,3.167,21.217Z" fill="#ff7373"/>
      <g id="Group_389" data-name="Group 389">
        <path id="Path_1710" data-name="Path 1710" d="M12.667,27.867A1.267,1.267,0,0,1,11.4,26.6V13.933a1.267,1.267,0,1,1,2.533,0V26.6A1.267,1.267,0,0,1,12.667,27.867Z" fill="#3c3c3c"/>
        <path id="Path_1711" data-name="Path 1711" d="M24.067,16.255a3.8,3.8,0,1,0-6.629,2.533,3.785,3.785,0,0,0-.971,2.533v2.956a3.8,3.8,0,1,0,7.6,0V21.322a3.785,3.785,0,0,0-.971-2.533A3.784,3.784,0,0,0,24.067,16.255Zm-3.8-1.267A1.267,1.267,0,1,1,19,16.255a1.267,1.267,0,0,1,1.267-1.267Zm1.267,9.289a1.267,1.267,0,0,1-2.533,0V21.322a1.267,1.267,0,1,1,2.533,0Z" fill="#3c3c3c"/>
        <path id="Path_1712" data-name="Path 1712" d="M30.4,19h-.633v-.633a1.267,1.267,0,0,0-2.533,0V19H26.6a1.267,1.267,0,1,0,0,2.533h.633v.633a1.267,1.267,0,0,0,2.533,0v-.633H30.4A1.267,1.267,0,0,0,30.4,19Z" fill="#3c3c3c"/>
      </g>
    </g>
  </g>
</svg>
