<svg xmlns="http://www.w3.org/2000/svg" xmlns:xlink="http://www.w3.org/1999/xlink" width="156.733" height="167.264" viewBox="0 0 156.733 167.264">
  <defs>
    <linearGradient id="linear-gradient" x1="0.182" y1="-0.393" x2="0.447" y2="0.205" gradientUnits="objectBoundingBox">
      <stop offset="0" stop-color="#29bfd4"/>
      <stop offset="1" stop-color="#f5f8ff"/>
    </linearGradient>
    <linearGradient id="linear-gradient-2" x1="0.5" y1="0.927" x2="0.5" gradientUnits="objectBoundingBox">
      <stop offset="0" stop-color="#fff"/>
      <stop offset="1" stop-color="#03c6db"/>
    </linearGradient>
    <filter id="Path_1659" x="34.804" y="31.681" width="72.403" height="103.861" filterUnits="userSpaceOnUse">
      <feOffset dy="3" input="SourceAlpha"/>
      <feGaussianBlur stdDeviation="3" result="blur"/>
      <feFlood flood-opacity="0.161"/>
      <feComposite operator="in" in2="blur"/>
      <feComposite in="SourceGraphic"/>
    </filter>
  </defs>
  <g id="Group_625" data-name="Group 625" transform="translate(-106.44 -194.325)">
    <g id="Group_368" data-name="Group 368" transform="translate(-8.517 -9.089)">
      <g id="Group_202" data-name="Group 202" transform="translate(114.957 203.414)">
        <path id="Path_1143" data-name="Path 1143" d="M940.668,418.911s-.411,17.9,7.24,33.442-11.434,47.148-33.966,48.64-28.965,33.566-61.6,28.535-48.1-29.147-43.667-49.95,2.538-56.108-4.85-72.1-12.393-46.131,20.765-42.41,58.665,40.708,81.6,42.41S936.455,402.5,940.668,418.911Z" transform="translate(-792.963 -364.748)" fill="url(#linear-gradient)"/>
        <g id="Group_200" data-name="Group 200" transform="translate(0 21.411)">
          <g id="Group_196" data-name="Group 196" transform="translate(120.359)">
            <path id="Path_1144" data-name="Path 1144" d="M954.007,392.175H921.586a1.977,1.977,0,0,0-1.976,1.976v27.47a1.977,1.977,0,0,0,1.976,1.976h13.537v4.743a1.047,1.047,0,0,0,1.879.636l4.109-5.379h12.895a1.977,1.977,0,0,0,1.977-1.976v-27.47A1.977,1.977,0,0,0,954.007,392.175Z" transform="translate(-919.61 -392.175)" fill="#03c6db" opacity="0.85"/>
            <path id="Icon_material-block" data-name="Icon material-block" d="M11.477,3a8.477,8.477,0,1,0,8.477,8.477A8.48,8.48,0,0,0,11.477,3ZM4.7,11.477A6.78,6.78,0,0,1,11.477,4.7a6.7,6.7,0,0,1,4.154,1.433l-9.5,9.5A6.7,6.7,0,0,1,4.7,11.477Zm6.782,6.782a6.7,6.7,0,0,1-4.154-1.433l9.5-9.5a6.7,6.7,0,0,1,1.433,4.154A6.78,6.78,0,0,1,11.477,18.259Z" transform="translate(6.413 4.362)" fill="#fff"/>
          </g>
          <g id="Group_199" data-name="Group 199" transform="translate(0 63.026)">
            <g id="Group_198" data-name="Group 198">
              <path id="Path_1147" data-name="Path 1147" d="M793.822,496.295h32.419a1.976,1.976,0,0,0,1.977-1.977v-27.47a1.976,1.976,0,0,0-1.977-1.976H812.7v-4.743a1.047,1.047,0,0,0-1.88-.636l-4.109,5.379H793.822a1.976,1.976,0,0,0-1.976,1.976v27.47A1.976,1.976,0,0,0,793.822,496.295Z" transform="translate(-791.846 -459.078)" fill="#03c6db" opacity="0.85"/>
            </g>
          </g>
        </g>
        <path id="Icon_material-block-2" data-name="Icon material-block" d="M11.477,3a8.477,8.477,0,1,0,8.477,8.477A8.48,8.48,0,0,0,11.477,3ZM4.7,11.477A6.78,6.78,0,0,1,11.477,4.7a6.7,6.7,0,0,1,4.154,1.433l-9.5,9.5A6.7,6.7,0,0,1,4.7,11.477Zm6.782,6.782a6.7,6.7,0,0,1-4.154-1.433l9.5-9.5a6.7,6.7,0,0,1,1.433,4.154A6.78,6.78,0,0,1,11.477,18.259Z" transform="translate(6.726 95.333)" fill="#fff"/>
      </g>
      <path id="Path_1660" data-name="Path 1660" d="M1896.295,1358.9s7.3-15.295,21.974-13.734,7.678,19.977,36.707,19.977,60.679-5.993,79.407-19.977,18.728-30.714-4.495-35.958-43.449,34.959-60.18,35.958-8.49-25.47-8.49-25.47" transform="translate(-1779.837 -1007.353)" fill="none" stroke="#03c6db" stroke-linecap="round" stroke-width="2" stroke-dasharray="8 6"/>
      <g id="Group_207" data-name="Group 207" transform="translate(214.144 262.609)">
        <g id="Group_367" data-name="Group 367">
          <g id="Group_205" data-name="Group 205">
            <path id="Path_1155" data-name="Path 1155" d="M909.318,457.386s-2.119,4.864-2.531,2.668c-.884-4.7-6.768-8.653-8.347-11.151-.961-1.519-1.723-1.924-1.047-2.944,2.322-3.5,7.833-5.761,12.543-7.5,1.742-.642,1.433,1.052.2,2.377-1.09,1.174-7.815,4.788-7.356,5.629.538.984,3.952,4.036,8.574,5.067S911.933,456.378,909.318,457.386Z" transform="translate(-897.135 -432.634)" fill="#03c6db" fill-rule="evenodd"/>
            <path id="Path_1156" data-name="Path 1156" d="M918.748,455.252s-.6-.9.123,1.522c.513,1.731,7.929,8.648,11.31,11.557s3.576,2.467,8.367,2.115c3.506-.257,7.516-.8,8.5-1.386,0,0,.181-.121-.027-.315s-1.081-.691-1.138-1.114-.4-.359-.822-.177a92.97,92.97,0,0,1-10.251-.4c-1.918-.25-7.667-9.924-8.619-10.835S921.637,453.609,918.748,455.252Z" transform="translate(-898.374 -433.575)" fill="#03c6db" fill-rule="evenodd"/>
            <path id="Path_1157" data-name="Path 1157" d="M919.056,445.737l-.1,1.477s-.066,3.149-.073,3.49.14.46.521.746c.485.884-1.018,4.628-2.037,4.758a25.8,25.8,0,0,1-6.011-.61c-.225-.191,2.158-3.607,2.034-4.15.209-.051.712.044.869-.089.215-.659.724-3.3.026-4.171C913.766,446.534,919.056,445.737,919.056,445.737Z" transform="translate(-897.958 -433.063)" fill="#e8685b" fill-rule="evenodd"/>
            <path id="Path_1158" data-name="Path 1158" d="M909.963,457.672c.861-.49,1.338-.067,2.241.893a4.239,4.239,0,0,0,2.285,1.1c.505.217.305,8.954-3.057,10.23a1.73,1.73,0,0,1-2.453-1.1C908.164,466.909,907.725,458.946,909.963,457.672Z" transform="translate(-897.783 -433.743)" fill="#f5f4f4" fill-rule="evenodd"/>
            <path id="Path_1159" data-name="Path 1159" d="M906.865,481.847l-.749,1.038s.491,9.07,1.614,20.774,3.276,32.942,3.229,35.018,2.851,1.049,3.2.464-.956-42.079-.675-45.856c.1-1.318,1.851-.823,2.534,1.8,1.274,4.9,1.843,15.237,2.238,21.124.608,9.045,1.718,22.862,1.638,23.594s2.479,1.463,2.995.292a1.611,1.611,0,0,0,.071-.8c-.035-.625.514-57.469-.141-59.011S908.407,478,906.865,481.847Z" transform="translate(-897.656 -434.993)" fill="#004a82" fill-rule="evenodd"/>
            <path id="Path_1160" data-name="Path 1160" d="M923.447,485.436c-.763,1.608-4.363,2.636-7.208,3.042h0c-.681.1-1.319.159-1.864.185a3.967,3.967,0,0,1-.994-.071,18.427,18.427,0,0,1-6.783-1.406,1.787,1.787,0,0,1-1.517-.783h0a3.709,3.709,0,0,1,.082-2.461,29.215,29.215,0,0,0,1.936-11.757c-.141-7-1.23-18.786,5.289-20.279h0a1.584,1.584,0,0,1,1.278-.187s-1.368,2.35.138,3.5l.06.037a2.131,2.131,0,0,0,.615.233c1.629.21,4.1-1.952,4.556-3.691a1.657,1.657,0,0,1,1.109.6s-.011.033-.035.092c.215.236-.1.514-.316.662-.026.047-.054.1-.083.147,1.21.63,2.664,1.712,2.837,3.014.252,1.892,1.7,8.949.251,13.018C920.375,476.136,924.735,482.723,923.447,485.436Z" transform="translate(-897.584 -433.405)" fill="#f9c00b" fill-rule="evenodd"/>
            <path id="Path_1161" data-name="Path 1161" d="M923.447,485.559c-.763,1.608-4.363,2.636-7.208,3.042h0c-.681.1-1.319.159-1.864.185a3.964,3.964,0,0,1-.994-.071,18.426,18.426,0,0,1-6.783-1.405,1.787,1.787,0,0,1-1.517-.783h0a3.709,3.709,0,0,1,.082-2.461l.009-.03a11.707,11.707,0,0,0,5.639-1.61c3.122-2.324,7.508-23.448,8.622-28.659,0,0,1.582,2.563,3.662,6.357.371,2.912.625,6.726-.3,9.324C920.375,476.259,924.735,482.846,923.447,485.559Z" transform="translate(-897.584 -433.528)" fill="#f08d1b" fill-rule="evenodd"/>
            <path id="Path_1162" data-name="Path 1162" d="M912.052,543.276s-.857-.97-1.54-.8-4.633,1.933-5.266,2.175-1.3,1.162-.8,1.691c.753.8,7.356-.065,9.383.076.65.045,1.411-1.29.784-3.218S914.4,543.624,912.052,543.276Z" transform="translate(-897.549 -438.667)" fill="#383d5d" fill-rule="evenodd"/>
            <path id="Path_1163" data-name="Path 1163" d="M924.2,543.34a1.56,1.56,0,0,1,.443.553c.287.634.829.921.925,1.617s-.128,1.239-1.132,1.239h-1.627c-.717,0-1.785.1-2.152-.74a4.839,4.839,0,0,1,.015-2.522A2.594,2.594,0,0,1,924.2,543.34Z" transform="translate(-898.489 -438.684)" fill="#383d5d" fill-rule="evenodd"/>
            <path id="Path_1164" data-name="Path 1164" d="M920.785,452.435s-3.713,6.706-4.495,17.87-.427,18.655,8.1,21.346c0,0,.4.116.7-.687,1.425-3.8-3.338-20.46.612-30.587C926.891,457.327,925.3,453.516,920.785,452.435Z" transform="translate(-898.229 -433.451)" fill="#03c6db" fill-rule="evenodd"/>
            <path id="Path_1165" data-name="Path 1165" d="M912.333,451.921s-1.778,3.54-1.9,10.685-1.274,19.383-1.688,21.922-2.234,5.253-3.207,5.557c0,0-1.316.38-1.531-1.562s2.039-9.4,2.447-17.833S906.317,452.756,912.333,451.921Z" transform="translate(-897.532 -433.422)" fill="#03c6db" fill-rule="evenodd"/>
            <path id="Path_1166" data-name="Path 1166" d="M915.839,477.039s2.937-17.644,6.552-24.172a3.888,3.888,0,0,0-1.84-.607C919.893,452.37,915.834,463.469,915.839,477.039Z" transform="translate(-898.219 -433.441)" fill-rule="evenodd" opacity="0.1"/>
            <path id="Path_1167" data-name="Path 1167" d="M912.678,451.917c-1.365,4.274-1.907,17.749-2.751,22.976-.144-2.4-.246-18.51,1.269-22.513A1.775,1.775,0,0,1,912.678,451.917Z" transform="translate(-897.872 -433.421)" fill-rule="evenodd" opacity="0.1"/>
            <path id="Path_1168" data-name="Path 1168" d="M921.368,482.81a.41.41,0,0,0-.487-.293.386.386,0,0,0-.309.461c0,.011.949,4.085,3,5.3a.421.421,0,0,0,.561-.125.373.373,0,0,0-.13-.531C922.245,486.581,921.37,482.821,921.368,482.81Z" transform="translate(-898.493 -435.194)" fill-rule="evenodd" opacity="0.1"/>
            <path id="Path_1169" data-name="Path 1169" d="M906.053,481.078a.361.361,0,0,1,.4-.313.353.353,0,0,1,.33.378c0,.011-.366,3.737-2.055,5.031a.379.379,0,0,1-.514-.052.334.334,0,0,1,.055-.487C905.714,484.526,906.052,481.086,906.053,481.078Z" transform="translate(-897.54 -435.093)" fill-rule="evenodd" opacity="0.1"/>
            <g id="Group_204" data-name="Group 204" transform="translate(12.444)">
              <g id="Group_203" data-name="Group 203">
                <path id="Path_1170" data-name="Path 1170" d="M912.056,443.127s-1.223-1.113-1.218-1.763.9-.408.9-.408a4.806,4.806,0,0,1-1.394-2.562c-.023-1.21,1.226-.769,1.226-.769a1.992,1.992,0,0,1,.333-2.284,1.492,1.492,0,0,1-.207-1.331.09.09,0,0,1,.128-.063c.109.034.147.638.835.621,0,0,.277-2.109,1.96-1.133a1.787,1.787,0,0,1,2.907-.593s3.621-1.342,4.867,1.9a1.753,1.753,0,0,1,2.162,1.992s1.139.526.381,2.39c0,0,.751-.7,1.052-.53s-.342,1.54-1.1,2.1c0,0,.788-.348.884.088s-.692,1.223-1.185,1.344a.662.662,0,0,1,.224.654,3.359,3.359,0,0,1-2.672,1.659C920.636,444.646,915.8,445.339,912.056,443.127Z" transform="translate(-910.345 -432.283)" fill="#01061b" fill-rule="evenodd"/>
                <path id="Path_1171" data-name="Path 1171" d="M912.056,443.432s-1.223-1.113-1.218-1.763.9-.408.9-.408a4.806,4.806,0,0,1-1.394-2.562.748.748,0,0,1,.355-.763c0,.006-.4.644.524,1.12s4.082-.132,5.322-1.064a1.91,1.91,0,0,0,1.745,1.356,2.834,2.834,0,0,0,2.375-1.264,2.5,2.5,0,0,0,2.512,1.246,2.2,2.2,0,0,0,1.86-1.789,2.217,2.217,0,0,1-.1,1.886s.751-.7,1.052-.53-.342,1.54-1.1,2.1c0,0,.788-.348.884.088s-.692,1.223-1.185,1.344a.662.662,0,0,1,.224.654,3.359,3.359,0,0,1-2.672,1.659C920.636,444.951,915.805,445.644,912.056,443.432Z" transform="translate(-910.345 -432.588)" fill="#01020e" fill-rule="evenodd"/>
                <path id="Path_1172" data-name="Path 1172" d="M912.364,442.911a1.486,1.486,0,1,1-1.68,1.261A1.485,1.485,0,0,1,912.364,442.911Z" transform="translate(-910.364 -432.898)" fill="#e8685b" fill-rule="evenodd"/>
                <path id="Path_1173" data-name="Path 1173" d="M923.061,444.43a1.486,1.486,0,1,1-1.68,1.262A1.487,1.487,0,0,1,923.061,444.43Z" transform="translate(-910.983 -432.987)" fill="#e8685b" fill-rule="evenodd"/>
                <path id="Path_1174" data-name="Path 1174" d="M918.184,435.721h0a5.1,5.1,0,0,1,4.323,5.754l-.65,4.579a5.1,5.1,0,0,1-5.754,4.323h0a5.1,5.1,0,0,1-4.322-5.755l.65-4.578A5.1,5.1,0,0,1,918.184,435.721Z" transform="translate(-910.425 -432.48)" fill="#f4ad85" fill-rule="evenodd"/>
                <path id="Path_1175" data-name="Path 1175" d="M920.218,436.5l.01.007a5.107,5.107,0,0,1,2.318,5.014l-.65,4.579a5.1,5.1,0,0,1-5.754,4.323h0a5.054,5.054,0,0,1-1.761-.6c4.924.739,5.946-2.535,6.344-5.339.588-4.14-4.143-3.292-7.848-3.819-.164-.024-.324-.05-.479-.079l.072-.5a5.048,5.048,0,0,1,.36-1.284c2.168-.969,5.154-2.2,6.489-2.281.4-.024.673-.04.857-.05l.03.018C920.176,436.5,920.173,436.5,920.218,436.5Z" transform="translate(-910.464 -432.526)" fill="#ef8871" fill-rule="evenodd"/>
                <path id="Path_1176" data-name="Path 1176" d="M922.606,441.3l-.22,1.551c-.087.609,0,.8.271,1.068,0,0-.27.561.049.748a.538.538,0,0,1,.559-.455l.568-4a2.068,2.068,0,0,1-1.215.737A1.645,1.645,0,0,1,922.606,441.3Z" transform="translate(-911.041 -432.743)" fill="#01020e" fill-rule="evenodd"/>
                <path id="Path_1177" data-name="Path 1177" d="M919.679,439.915s-2.079.943-3.281-.294c-.536.883-2.559,1.716-1.817.081-1.121.493-.909-.153-.588-.307a3.375,3.375,0,0,1-1.594.318c-2.485-.6,1.508-4.088,2.269-4.652,0,0,5.321.054,5.511.366a7.5,7.5,0,0,0,.489.606,6.88,6.88,0,0,1,1.174.336c.144.1,1.781,1.755,2.05,2.084s.92,4.348-1.569,4.224S919.679,439.915,919.679,439.915Z" transform="translate(-910.417 -432.445)" fill="#01061b" fill-rule="evenodd"/>
                <path id="Path_1178" data-name="Path 1178" d="M919.679,440.087s-2.079.943-3.281-.294c-.536.883-2.56,1.716-1.817.081-1.121.493-.909-.153-.588-.307a3.376,3.376,0,0,1-1.594.318c-.516-.125-.753-.376-.8-.7a8.3,8.3,0,0,0,5.016-1.167,1.91,1.91,0,0,0,1.745,1.356,2.834,2.834,0,0,0,2.375-1.264,2.5,2.5,0,0,0,2.512,1.246,2.333,2.333,0,0,0,.8-.273c.245,1.133.336,3.868-1.724,3.765C919.835,442.726,919.679,440.087,919.679,440.087Z" transform="translate(-910.418 -432.616)" fill="#01020e" fill-rule="evenodd"/>
              </g>
              <path id="Path_1179" data-name="Path 1179" d="M914.373,448.416c.3-1.2.8-1.7,1.454-1.609,1.149.159.935,2.1.935,2.1Z" transform="translate(-910.578 -433.125)" fill="#fff" fill-rule="evenodd"/>
            </g>
            <path id="Path_1180" data-name="Path 1180" d="M948.883,469.981l.082,0a2.555,2.555,0,0,0,.951-.144c1.383-.309,3.188-1.028,3.335-1.463.188-.559-.544-.29-.544-.29s.685-.425.708-.76-.448-.335-.448-.335.638-.515.472-.716-.685-.179-.685-.179.52-.446.284-.581-1.393.6-1.959.76c-.333.092-1.1.285-1.686.427a.286.286,0,0,1,.007-.22c.43-1.1-.35-2.33-.634-1.49a2.28,2.28,0,0,1-.58,1.178,2.982,2.982,0,0,0-1.124,2.161,2.108,2.108,0,0,0,1.822,1.647Z" transform="translate(-900.028 -434.163)" fill="#f4ad85" fill-rule="evenodd"/>
            <path id="Path_1181" data-name="Path 1181" d="M948.883,470.112l.082,0a2.559,2.559,0,0,0,.951-.144c.255-.057.526-.128.8-.209a4.128,4.128,0,0,1-1.3.066c-1.307-.214-1.885-1.47-1.847-2.848a2.645,2.645,0,0,0-.5,1.483,2.108,2.108,0,0,0,1.822,1.647Z" transform="translate(-900.028 -434.294)" fill="#ef8871" fill-rule="evenodd"/>
            <path id="Path_1182" data-name="Path 1182" d="M906.52,459.519c.164-4.006.479-4.756-1.067-5.822-1.513-1.042-6.653-4.435-8.12-7.167-.568.951.176,1.378,1.107,2.849C899.9,451.7,905.073,455.261,906.52,459.519Z" transform="translate(-897.135 -433.109)" fill-rule="evenodd" opacity="0.1"/>
            <path id="Path_1183" data-name="Path 1183" d="M925.915,461.835a21.392,21.392,0,0,0-.579,2.143c1.928,1.84,3.9,3.622,5.241,4.774,3.387,2.915,3.576,2.467,8.367,2.115a40.617,40.617,0,0,0,8.1-1.2,1.9,1.9,0,0,1-.758-.585c-2.924.611-7.668,1.489-10.131,1.35C932.965,470.247,927.429,463.7,925.915,461.835Z" transform="translate(-898.769 -433.996)" fill-rule="evenodd" opacity="0.1"/>
          </g>
        </g>
      </g>
      <g id="Group_366" data-name="Group 366" transform="translate(158.76 241.095)">
        <g transform="matrix(1, 0, 0, 1, -43.8, -37.68)" filter="url(#Path_1659)">
          <path id="Path_1659-2" data-name="Path 1659" d="M1043.951,372.947c-.124,2.85-4.678,22.181-6.5,27.925-2.771,8.751-3.209,9.985-6.26,14.271A22.366,22.366,0,0,1,989.549,403.8v-.045l.034-23.65h.011l-.045-22.741v-.022a4.089,4.089,0,0,1,8.179-.022l.606,19.757.179,6.081.9.314v-6.4l-.045-25.7v-.022a4.364,4.364,0,0,1,8.729-.022l.864,25.748.325,9.761.572.2-.011-9.963L1009.8,344.8v-.022a4.471,4.471,0,0,1,8.942-.022l.2,32.323h1.044l.359-27.925v-.022a4.471,4.471,0,0,1,8.942-.022l.2,36.8a15.525,15.525,0,0,0,1.212-1.672c1.369-2.322,1.212-7.068,5.486-11.253C1040.675,368.583,1044.008,371.645,1043.951,372.947Z" transform="translate(-945.75 -302.63)" fill="url(#linear-gradient-2)"/>
        </g>
      </g>
    </g>
  </g>
</svg>
