<svg xmlns="http://www.w3.org/2000/svg" width="23" height="23" viewBox="0 0 23 23">
  <path id="Icon_awesome-exclamation-circle" data-name="Icon awesome-exclamation-circle" d="M23.563,12.063a11.5,11.5,0,1,1-11.5-11.5A11.5,11.5,0,0,1,23.563,12.063Zm-11.5,2.319A2.133,2.133,0,1,0,14.2,16.514,2.133,2.133,0,0,0,12.063,14.381ZM10.037,6.714l.344,6.306a.556.556,0,0,0,.556.526h2.251a.556.556,0,0,0,.556-.526l.344-6.306a.556.556,0,0,0-.556-.587H10.593A.556.556,0,0,0,10.037,6.714Z" transform="translate(-0.563 -0.563)" fill="#03c6db"/>
</svg>
