<svg xmlns="http://www.w3.org/2000/svg" xmlns:xlink="http://www.w3.org/1999/xlink" width="38" height="38" viewBox="0 0 38 38">
  <defs>
    <clipPath id="clip-path">
      <rect id="Rectangle_299" data-name="Rectangle 299" width="38" height="38" transform="translate(93 391)" fill="#fff" stroke="#707070" stroke-width="1"/>
    </clipPath>
  </defs>
  <g id="Mask_Group_50" data-name="Mask Group 50" transform="translate(-93 -391)" clip-path="url(#clip-path)">
    <g id="inappropriate_photos" data-name="inappropriate photos" transform="translate(93 391)">
      <path id="Path_1713" data-name="Path 1713" d="M6.909,3.455H34.545A3.455,3.455,0,0,1,38,6.909V34.545A3.455,3.455,0,0,1,34.545,38H6.909a3.455,3.455,0,0,1-3.455-3.455V6.909A3.454,3.454,0,0,1,6.909,3.455Z" fill="#dfd2f2"/>
      <g id="Group_390" data-name="Group 390">
        <path id="Path_1714" data-name="Path 1714" d="M6.909,32.818H22.454a1.727,1.727,0,0,1,1.727,1.727h0a1.727,1.727,0,0,1-1.727,1.727H6.909a1.727,1.727,0,0,1-1.727-1.727h0A1.727,1.727,0,0,1,6.909,32.818Z" fill="#c5ade7"/>
        <path id="Path_1715" data-name="Path 1715" d="M21.442,32.1,31.806,21.739a2.443,2.443,0,0,1,3.455,0h0a2.443,2.443,0,0,1,0,3.455L24.9,35.557a2.443,2.443,0,0,1-3.455,0h0A2.443,2.443,0,0,1,21.442,32.1Z" fill="#c5ade7"/>
      </g>
      <path id="Path_1716" data-name="Path 1716" d="M6.909,6.909H34.545V27.636H6.909Z" fill="#e7455f"/>
      <path id="Path_1717" data-name="Path 1717" d="M3.455,0H31.091a3.455,3.455,0,0,1,3.455,3.455V19.3a3.454,3.454,0,0,1-1.012,2.443L21.739,33.533A3.454,3.454,0,0,1,19.3,34.545H3.455A3.455,3.455,0,0,1,0,31.091H0V3.455A3.455,3.455,0,0,1,3.455,0Z" fill="#f2edf9"/>
      <path id="Path_1718" data-name="Path 1718" d="M3.455,3.455H31.091V24.182H3.455Z" fill="#f7b236"/>
      <path id="Path_1719" data-name="Path 1719" d="M31.091,20.886a2.47,2.47,0,0,0-1.8.021A4.3,4.3,0,0,0,21.526,19.1a3.438,3.438,0,0,0-.8-.1c-.03,0-.057.008-.086.009a4.313,4.313,0,0,0-8.471.07,4.3,4.3,0,0,0-2.292,1.214,5.094,5.094,0,0,0-6.423-2.7v6.592H17.172c.006-.027.017-.052.022-.079a4.219,4.219,0,0,0,.449-.122c.036.073.095.131.136.2H31.091Z" fill="#5628b4"/>
      <path id="Path_1720" data-name="Path 1720" d="M9.5,3.455h0a4.318,4.318,0,0,1,4.318,4.318v8.637A4.318,4.318,0,0,1,9.5,20.727h0a4.318,4.318,0,0,1-4.318-4.318V7.772A4.318,4.318,0,0,1,9.5,3.455Z" fill="#e7455f"/>
      <path id="Path_1721" data-name="Path 1721" d="M14.682,6.909h0A2.591,2.591,0,0,1,17.273,9.5v5.182a2.591,2.591,0,0,1-2.591,2.591h0a2.591,2.591,0,0,1-2.591-2.591V9.5A2.591,2.591,0,0,1,14.682,6.909Z" fill="#eb647a"/>
      <path id="Path_1722" data-name="Path 1722" d="M8.636,13.818h1.727V24.182H8.636Z" fill="#5628b4"/>
      <path id="Path_1723" data-name="Path 1723" d="M17.273,20.727a3.438,3.438,0,0,0-.8.1,4.314,4.314,0,0,0-7.75,3.352h12a3.455,3.455,0,0,0-3.455-3.454Z" fill="#683fbc"/>
      <path id="Path_1724" data-name="Path 1724" d="M24.182,20.727h8.046a.96.96,0,0,1,.679,1.639L22.366,32.907a.96.96,0,0,1-1.639-.679V24.182a3.455,3.455,0,0,1,3.455-3.455Z" fill="#fdfcfe"/>
      <path id="Path_1725" data-name="Path 1725" d="M19,24.182h0a1.727,1.727,0,0,1,1.727,1.727v6.909A1.727,1.727,0,0,1,19,34.545h0a1.727,1.727,0,0,1-1.727-1.727V25.909A1.727,1.727,0,0,1,19,24.182Z" fill="#e5dcf3"/>
    </g>
  </g>
</svg>
