<svg xmlns="http://www.w3.org/2000/svg" xmlns:xlink="http://www.w3.org/1999/xlink" width="50.5" height="50.5" viewBox="0 0 50.5 50.5">
  <defs>
    <filter id="Path_52" x="0" y="0" width="50.5" height="50.5" filterUnits="userSpaceOnUse">
      <feOffset dy="3" input="SourceAlpha"/>
      <feGaussianBlur stdDeviation="3" result="blur"/>
      <feFlood flood-color="#413e3f" flood-opacity="0.161"/>
      <feComposite operator="in" in2="blur"/>
      <feComposite in="SourceGraphic"/>
    </filter>
    <filter id="Path_52-2" x="0" y="0" width="50.5" height="50.5" filterUnits="userSpaceOnUse">
      <feOffset dy="3" input="SourceAlpha"/>
      <feGaussianBlur stdDeviation="3" result="blur-2"/>
      <feFlood flood-color="#413e3f" flood-opacity="0.161"/>
      <feComposite operator="in" in2="blur-2"/>
      <feComposite in="SourceGraphic"/>
    </filter>
  </defs>
  <g id="Group_626" data-name="Group 626" transform="translate(-291 -679)">
    <g id="Group_30" data-name="Group 30" transform="translate(-278.679 -1119.679)" opacity="0.8">
      <g transform="matrix(1, 0, 0, 1, 569.68, 1798.68)" filter="url(#Path_52)">
        <path id="Path_52-3" data-name="Path 52" d="M16.25,0A16.25,16.25,0,1,1,0,16.25,16.25,16.25,0,0,1,16.25,0Z" transform="translate(9 6)" fill="rgba(65,62,63,0.35)" opacity="0.8"/>
      </g>
      <g id="Icon_ionic-ios-rocket" data-name="Icon ionic-ios-rocket" transform="translate(585.328 1811.328)">
        <path id="Path_49" data-name="Path 49" d="M21.994,3.626a.2.2,0,0,0-.149-.153c-2.448-.6-8.105,1.535-11.17,4.6a13.247,13.247,0,0,0-1.49,1.76,5.543,5.543,0,0,0-2.7.338c-2.273,1-2.934,3.609-3.119,4.73a.4.4,0,0,0,.441.468l3.65-.4a8.114,8.114,0,0,0,.05.824.817.817,0,0,0,.239.5L9.164,17.7a.817.817,0,0,0,.5.239,8.1,8.1,0,0,0,.819.05l-.4,3.645a.4.4,0,0,0,.468.441c1.121-.18,3.735-.842,4.73-3.114a5.568,5.568,0,0,0,.342-2.687,13.268,13.268,0,0,0,1.764-1.49C20.464,11.727,22.584,6.2,21.994,3.626Zm-7.345,7.2a1.922,1.922,0,1,1,2.718,0A1.92,1.92,0,0,1,14.65,10.822Z" transform="translate(-3.366 -3.372)" fill="purple"/>
        <path id="Path_50" data-name="Path 50" d="M9.936,25.526h0a1.707,1.707,0,0,1-.891.36,1.211,1.211,0,0,1-1.4-1.4,1.674,1.674,0,0,1,.356-.887l0,0a.15.15,0,0,0-.126-.257,2.069,2.069,0,0,0-1.211.59c-.81.81-.887,3.816-.887,3.816s3.011-.077,3.821-.887a2.055,2.055,0,0,0,.59-1.211A.154.154,0,0,0,9.936,25.526Z" transform="translate(-4.237 -10.56)" fill="purple"/>
      </g>
    </g>
    <g transform="matrix(1, 0, 0, 1, 291, 679)" filter="url(#Path_52-2)">
      <path id="Path_52-4" data-name="Path 52" d="M16.25,0A16.25,16.25,0,1,1,0,16.25,16.25,16.25,0,0,1,16.25,0Z" transform="translate(9 6)" fill="#413e3f" opacity="0.8"/>
    </g>
    <g id="Icon_ionic-ios-rocket-2" data-name="Icon ionic-ios-rocket" transform="translate(306.649 691.649)">
      <path id="Path_49-2" data-name="Path 49" d="M21.994,3.626a.2.2,0,0,0-.149-.153c-2.448-.6-8.105,1.535-11.17,4.6a13.247,13.247,0,0,0-1.49,1.76,5.543,5.543,0,0,0-2.7.338c-2.273,1-2.934,3.609-3.119,4.73a.4.4,0,0,0,.441.468l3.65-.4a8.114,8.114,0,0,0,.05.824.817.817,0,0,0,.239.5L9.164,17.7a.817.817,0,0,0,.5.239,8.1,8.1,0,0,0,.819.05l-.4,3.645a.4.4,0,0,0,.468.441c1.121-.18,3.735-.842,4.73-3.114a5.568,5.568,0,0,0,.342-2.687,13.268,13.268,0,0,0,1.764-1.49C20.464,11.727,22.584,6.2,21.994,3.626Zm-7.345,7.2a1.922,1.922,0,1,1,2.718,0A1.92,1.92,0,0,1,14.65,10.822Z" transform="translate(-3.366 -3.372)" fill="purple"/>
      <path id="Path_50-2" data-name="Path 50" d="M9.936,25.526h0a1.707,1.707,0,0,1-.891.36,1.211,1.211,0,0,1-1.4-1.4,1.674,1.674,0,0,1,.356-.887l0,0a.15.15,0,0,0-.126-.257,2.069,2.069,0,0,0-1.211.59c-.81.81-.887,3.816-.887,3.816s3.011-.077,3.821-.887a2.055,2.055,0,0,0,.59-1.211A.154.154,0,0,0,9.936,25.526Z" transform="translate(-4.237 -10.56)" fill="purple"/>
    </g>
  </g>
</svg>
