<svg xmlns="http://www.w3.org/2000/svg" width="110.084" height="110.084" viewBox="0 0 110.084 110.084">
  <g id="Group_626" data-name="Group 626" transform="translate(-133 -181.727)">
    <g id="Group_282" data-name="Group 282">
      <path id="Union_3" data-name="Union 3" d="M33.141,50.859,0,42l33.141-8.859L42,0l8.859,33.141L84,42,50.859,50.859,42,84Z" transform="translate(146 195)" fill="#03c6db"/>
      <g id="Union_2" data-name="Union 2" transform="translate(188.042 181.727) rotate(45)" fill="#fff">
        <path d="M 38.92061614990234 76.14016723632813 L 30.24463653564453 47.92760467529297 L 30.16680717468262 47.67449569702148 L 29.9136962890625 47.59666442871094 L 1.701041460037231 38.92059707641602 L 29.91367721557617 30.24461555480957 L 30.16678619384766 30.16678428649902 L 30.2446174621582 29.91367530822754 L 38.92059707641602 1.701040387153625 L 47.59665679931641 29.91369438171387 L 47.67448806762695 30.16680526733398 L 47.92759704589844 30.2446346282959 L 76.14025115966797 38.92062377929688 L 47.92757797241211 47.59664535522461 L 47.67446517944336 47.67447280883789 L 47.59663772583008 47.92758560180664 L 38.92061614990234 76.14016723632813 Z" stroke="none"/>
        <path d="M 38.92062759399414 74.43913269042969 L 47.11872482299805 47.78061676025391 L 47.27439117431641 47.27439498901367 L 47.78061294555664 47.11872863769531 L 74.439208984375 38.92061614990234 L 47.78062438964844 30.72254943847656 L 47.2744026184082 30.5668830871582 L 47.11873626708984 30.06065940856934 L 38.92059326171875 3.402077436447144 L 30.72252464294434 30.06063842773438 L 30.56685829162598 30.56686019897461 L 30.06063461303711 30.72252655029297 L 3.4020836353302 38.92059707641602 L 30.0606689453125 47.11874771118164 L 30.56689071655273 47.2744140625 L 30.72255706787109 47.7806396484375 L 38.92062759399414 74.43913269042969 M 38.92062377929688 77.84120178222656 L 29.7667350769043 48.07456970214844 L 1.333414729742799e-05 38.92059326171875 L 29.76670265197754 29.76670455932617 L 38.92058944702148 4.705810624727746e-06 L 48.07455825805664 29.76672744750977 L 77.84129333496094 38.92061614990234 L 48.07454681396484 48.07455062866211 L 38.92062377929688 77.84120178222656 Z" stroke="none" fill="#03c6db"/>
      </g>
      <g id="Polygon_9" data-name="Polygon 9" transform="translate(176.5 227)" fill="gold">
        <path d="M11.5,0l2.99,7.658L23,8.021l-6.662,5.1L18.607,21,11.5,16.492,4.393,21l2.269-7.882L0,8.021l8.51-.364Z" stroke="none"/>
        <path d="M 11.5 2.749393463134766 L 9.441510200500488 8.021344184875488 L 9.204290390014648 8.628864288330078 L 8.552700042724609 8.656713485717773 L 2.797979354858398 8.90263843536377 L 7.269669532775879 12.32337379455566 L 7.811949729919434 12.73820400238037 L 7.623040199279785 13.3943042755127 L 6.082834243774414 18.74378204345703 L 10.96438980102539 15.64762401580811 L 11.5 15.3079137802124 L 12.03561019897461 15.64762401580811 L 16.91716575622559 18.74378204345703 L 15.37695980072021 13.3943042755127 L 15.18804931640625 12.73820400238037 L 15.7303295135498 12.32337379455566 L 20.2020206451416 8.902631759643555 L 14.44731044769287 8.656713485717773 L 13.79570960998535 8.628864288330078 L 13.55848979949951 8.021344184875488 L 11.5 2.749393463134766 M 11.5 3.814697265625e-06 L 14.48999977111816 7.657624244689941 L 23 8.021284103393555 L 16.33792114257813 13.11762428283691 L 18.60738945007324 21.00000381469727 L 11.5 16.49209403991699 L 4.392610549926758 21.00000381469727 L 6.662080764770508 13.11762428283691 L 0 8.021293640136719 L 8.510000228881836 7.657624244689941 L 11.5 3.814697265625e-06 Z" stroke="none" fill="rgba(0,0,0,0)"/>
      </g>
    </g>
  </g>
</svg>
