<svg xmlns="http://www.w3.org/2000/svg" xmlns:xlink="http://www.w3.org/1999/xlink" width="26" height="26" viewBox="0 0 26 26">
  <defs>
    <clipPath id="clip-path">
      <rect id="Rectangle_337" data-name="Rectangle 337" width="26" height="26" transform="translate(30 195)" fill="#03c6db" stroke="#707070" stroke-width="1"/>
    </clipPath>
  </defs>
  <g id="Mask_Group_60" data-name="Mask Group 60" transform="translate(-30 -195)" clip-path="url(#clip-path)">
    <g id="phone-call" transform="translate(30 195)">
      <g id="Group_490" data-name="Group 490">
        <path id="Path_1997" data-name="Path 1997" d="M13.05,10.665a2.288,2.288,0,0,1,2.285,2.285.762.762,0,1,0,1.524,0A3.813,3.813,0,0,0,13.05,9.141a.762.762,0,0,0,0,1.524Zm0-4.571a6.864,6.864,0,0,1,6.856,6.856.762.762,0,0,0,1.524,0A8.389,8.389,0,0,0,13.05,4.571a.762.762,0,1,0,0,1.524Zm4.094,10.3a.762.762,0,0,0-1.077,0l-1.92,1.92a31.41,31.41,0,0,1-6.462-6.466L9.6,9.934a.762.762,0,0,0,0-1.077L4.755,4.009a.762.762,0,0,0-1.077,0L1.113,6.572a3.817,3.817,0,0,0-.447,4.849A48.455,48.455,0,0,0,14.579,25.334a3.817,3.817,0,0,0,4.849-.447l2.564-2.564a.762.762,0,0,0,0-1.077Zm1.207,7.412a2.292,2.292,0,0,1-2.912.267A47.066,47.066,0,0,1,1.924,10.562,2.292,2.292,0,0,1,2.191,7.65L4.216,5.625,7.986,9.4,6.131,11.25a.762.762,0,0,0-.064,1,34.2,34.2,0,0,0,7.679,7.679.762.762,0,0,0,1-.064L16.6,18.014l3.771,3.771ZM13.05,0a.762.762,0,1,0,0,1.524A11.558,11.558,0,0,1,22.1,5.985a11.161,11.161,0,0,1,2.374,6.965.762.762,0,1,0,1.524,0,13.108,13.108,0,0,0-2.483-7.617A12.8,12.8,0,0,0,13.05,0Z" fill="#03c6db"/>
      </g>
    </g>
  </g>
</svg>
