<svg xmlns="http://www.w3.org/2000/svg" xmlns:xlink="http://www.w3.org/1999/xlink" width="26" height="26" viewBox="0 0 26 26">
  <defs>
    <clipPath id="clip-path">
      <rect id="Rectangle_339" data-name="Rectangle 339" width="26" height="26" transform="translate(30 263)" fill="#03c6db" stroke="#707070" stroke-width="1"/>
    </clipPath>
  </defs>
  <g id="Mask_Group_61" data-name="Mask Group 61" transform="translate(-30 -263)" clip-path="url(#clip-path)">
    <g id="bell" transform="translate(30 263)">
      <path id="Path_1998" data-name="Path 1998" d="M12.993,0a2.708,2.708,0,0,0-2.708,2.708,2.7,2.7,0,0,0,.036.388.542.542,0,0,0,.542.464.553.553,0,0,0,.153-.022,6.99,6.99,0,0,1,3.966,0,.555.555,0,0,0,.447-.081.579.579,0,0,0,.246-.394,2.451,2.451,0,0,0,.033-.355A2.708,2.708,0,0,0,13,0Z" fill="#09aabb"/>
      <path id="Path_1999" data-name="Path 1999" d="M16.243,21.667h-6.5a.542.542,0,0,0-.542.542,3.792,3.792,0,0,0,7.583,0A.542.542,0,0,0,16.243,21.667Z" fill="#089cac"/>
      <path id="Path_2000" data-name="Path 2000" d="M23.091,19.726c-.171-.378-.387-.8-.625-1.266a17.636,17.636,0,0,1-2.431-8.168c0-4.293-2.275-7.444-5.794-8.025a6.926,6.926,0,0,0-5.7,1.662,7.606,7.606,0,0,0-2.6,5.98,17.3,17.3,0,0,1-2.418,8.567c-.233.459-.445.877-.614,1.25a2.141,2.141,0,0,0,1.96,3.025H21.136a2.141,2.141,0,0,0,1.956-3.024h0Z" fill="#03c6db"/>
      <path id="Path_2001" data-name="Path 2001" d="M5.771,20.583a.542.542,0,0,1-.484-.784l.174-.342a19.847,19.847,0,0,0,2.657-9.165c0-2.748,1.277-5.958,4.875-5.958a.542.542,0,1,1,0,1.083C9.475,5.417,9.2,9.148,9.2,10.292A20.767,20.767,0,0,1,6.425,19.95l-.169.335A.542.542,0,0,1,5.771,20.583Z" fill="#fff"/>
    </g>
  </g>
</svg>
