<svg xmlns="http://www.w3.org/2000/svg" width="98.899" height="86.095" viewBox="0 0 98.899 86.095">
  <g id="sex" transform="translate(-1.749 -9.808)">
    <path id="Path_570" data-name="Path 570" d="M59.143,48.515A28.7,28.7,0,1,0,27.269,77.033v8.624H21.213v6.355H27.27v5.949h6.355V92.011h6.055V85.657H33.625V77.032A28.736,28.736,0,0,0,59.143,48.515Zm-51.038,0A22.342,22.342,0,1,1,30.447,70.857,22.342,22.342,0,0,1,8.1,48.515Z" transform="translate(0 -2.058)" fill="#f3c"/>
    <g id="Group_64" data-name="Group 64" transform="translate(35.302 9.808)">
      <path id="Path_571" data-name="Path 571" d="M98.111,9.808l4.907,4.907-9.343,9.343A28.605,28.605,0,0,0,58.994,23.2a28.916,28.916,0,0,1,4.824,4.4,22.341,22.341,0,1,1,0,37.724,28.946,28.946,0,0,1-4.824,4.4A28.677,28.677,0,0,0,98.17,28.549l9.342-9.343,4.907,4.907V9.808Z" transform="translate(-47.073 -9.808)" fill="#03c6db"/>
      <path id="Path_572" data-name="Path 572" d="M51.084,32.2a28.614,28.614,0,0,0,0,37.724,22.5,22.5,0,0,0,4.824-4.131,22.279,22.279,0,0,1,0-29.464A22.481,22.481,0,0,0,51.084,32.2Z" transform="translate(-43.987 -14.412)" fill="#03c6db"/>
    </g>
  </g>
</svg>
