<svg xmlns="http://www.w3.org/2000/svg" width="16.359" height="22.72" viewBox="0 0 16.359 22.72">
  <g id="sikhism" transform="translate(0)">
    <path id="Path_653" data-name="Path 653" d="M1.9,352.695l-.029.011A3,3,0,0,0,0,355.392v3.8a.577.577,0,0,0,.577.577H3.852a13.059,13.059,0,0,1-1.969-6.183,3.328,3.328,0,0,1,.015-.886Zm0,0" transform="translate(0 -337.044)" fill="#5e9ad8"/>
    <path id="Path_654" data-name="Path 654" d="M1.371,359.188v-3.8a2.7,2.7,0,0,1,.527-1.633c-.006-.061-.011-.121-.016-.178A3.327,3.327,0,0,1,1.9,352.7l-.029.011A3,3,0,0,0,0,355.392v3.8a.577.577,0,0,0,.577.577H1.948a.577.577,0,0,1-.577-.577Zm0,0" transform="translate(0 -337.044)" fill="#3c88d1"/>
    <path id="Path_655" data-name="Path 655" d="M283.824,352.707l-.029-.011a3.33,3.33,0,0,1,.015.886,13.059,13.059,0,0,1-1.969,6.183h3.275a.577.577,0,0,0,.577-.577v-3.8A3,3,0,0,0,283.824,352.707Zm0,0" transform="translate(-269.333 -337.044)" fill="#5e9ad8"/>
    <path id="Path_656" data-name="Path 656" d="M107.066,349.426c-.44.814-.321,1.722-1.044,1.883a2.017,2.017,0,0,0-.944.506.654.654,0,0,1-.894,0,2.018,2.018,0,0,0-.945-.506c-.723-.161-.6-1.069-1.044-1.883a36.761,36.761,0,0,1-1.252,7.173c0,.014-.008.028-.013.041h7.4c0-.013-.009-.027-.012-.041A36.742,36.742,0,0,1,107.066,349.426Zm0,0" transform="translate(-96.451 -333.92)" fill="#5e9ad8"/>
    <path id="Path_657" data-name="Path 657" d="M114.614,396.088a2.516,2.516,0,0,1-2.021-1.471,10.823,10.823,0,0,1-1.21-3.505.343.343,0,0,1,.674-.127c.5,2.642,1.525,4.417,2.557,4.417s2.059-1.775,2.557-4.417a.343.343,0,0,1,.674.127,10.813,10.813,0,0,1-1.21,3.5A2.516,2.516,0,0,1,114.614,396.088Zm0,0" transform="translate(-106.435 -373.367)" fill="#ffb541"/>
    <path id="Path_658" data-name="Path 658" d="M114.615,394.211c-1.395,0-2.629-1.174-3.221-3.063a.343.343,0,1,1,.654-.205c.492,1.569,1.5,2.582,2.567,2.582s2.075-1.013,2.567-2.582a.343.343,0,1,1,.654.205C117.244,393.038,116.01,394.211,114.615,394.211Zm0,0" transform="translate(-106.436 -373.365)" fill="#ffc265"/>
    <path id="Path_659" data-name="Path 659" d="M239.934,157.935c-2.115-1.77-2.217-7.38-2.216-8.439a1.265,1.265,0,0,1-1.014.257l-.063-.014V153.3a3.992,3.992,0,0,0,.376,1.658c.366.788.752,2.046-.153,2.621a2.092,2.092,0,0,0-.739.791,37.943,37.943,0,0,0,1.207,7.174c0,.014.008.028.013.041h.946a13.059,13.059,0,0,0,1.969-6.183c.042-.51.067-1.136-.326-1.464Zm0,0" transform="translate(-225.647 -142.862)" fill="#3c88d1"/>
    <path id="Path_660" data-name="Path 660" d="M237.506,158.881a1.319,1.319,0,0,1,.452-1.126,2.233,2.233,0,0,1,.245-.179,1.394,1.394,0,0,0,.619-1.25,19.879,19.879,0,0,1-1.1-6.83,1.264,1.264,0,0,1-1.014.257l-.063-.014V153.3a3.99,3.99,0,0,0,.376,1.658c.366.787.752,2.046-.153,2.62a2.093,2.093,0,0,0-.739.791,37.959,37.959,0,0,0,1.207,7.174c0,.014.008.028.012.041h.947c.1-.138.192-.28.281-.424A37.38,37.38,0,0,1,237.506,158.881Zm0,0" transform="translate(-225.647 -142.862)" fill="#0078c9"/>
    <path id="Path_661" data-name="Path 661" d="M42.256,157.576c-.905-.575-.519-1.833-.153-2.621a3.991,3.991,0,0,0,.376-1.658v-3.559l-.063.014a.985.985,0,0,1-.16.019,1.438,1.438,0,0,1-.726-.17.984.984,0,0,1-.128-.106c0,1.059-.1,6.669-2.216,8.439-.392.328-.368.954-.326,1.464a13.063,13.063,0,0,0,1.969,6.183h.947c0-.013.009-.027.012-.041A37.955,37.955,0,0,0,43,158.367a2.094,2.094,0,0,0-.739-.791Zm0,0" transform="translate(-37.114 -142.862)" fill="#3c88d1"/>
    <path id="Path_662" data-name="Path 662" d="M40.243,159.4c-.042-.51-.067-1.136.326-1.464a4.422,4.422,0,0,0,1.145-1.686,4.229,4.229,0,0,1,.392-1.293c.041-.089.079-.179.114-.27.105-.429.191-.867.261-1.3,0-.03,0-.059,0-.089v-3.559l-.063.014a.989.989,0,0,1-.16.019,1.438,1.438,0,0,1-.726-.17.98.98,0,0,1-.128-.106c0,1.059-.1,6.669-2.216,8.439-.392.328-.368.954-.326,1.464a13.059,13.059,0,0,0,1.969,6.183h.946c0-.013.009-.027.013-.041l.111-.431A13.7,13.7,0,0,1,40.243,159.4Zm0,0" transform="translate(-37.117 -142.862)" fill="#0078c9"/>
    <path id="Path_663" data-name="Path 663" d="M117.813,151.665v3.28l.022.012a.174.174,0,0,0,0,.057,1.219,1.219,0,0,0,.835.933v.1a.576.576,0,0,0,.576.576h.223a.7.7,0,0,0,.482-.191.7.7,0,0,1,.481-.191h.664a.7.7,0,0,1,.482.191.7.7,0,0,0,.481.191h.223a.576.576,0,0,0,.576-.576v-.1a1.219,1.219,0,0,0,.835-.933.169.169,0,0,0,0-.057l.022-.012v-3.28a6.706,6.706,0,0,0-5.9,0Zm0,0" transform="translate(-112.585 -144.28)" fill="#ffcebf"/>
    <path id="Path_664" data-name="Path 664" d="M119.184,155.254a6.8,6.8,0,0,0-1.371.495v3.28l.022.012a.174.174,0,0,0,0,.057,1.219,1.219,0,0,0,.835.933v.1a.576.576,0,0,0,.514.573Zm0,0" transform="translate(-112.585 -148.365)" fill="#ffb19f"/>
    <path id="Path_665" data-name="Path 665" d="M120.764,120.884a6.712,6.712,0,0,1,2.951.685v-.6a5.574,5.574,0,0,1-2.951-1.579,5.575,5.575,0,0,1-2.952,1.579v.6A6.713,6.713,0,0,1,120.764,120.884Zm0,0" transform="translate(-112.584 -114.093)" fill="#e7e7e7"/>
    <path id="Path_666" data-name="Path 666" d="M119.184,144.555a6.359,6.359,0,0,1-1.371.462v.6a6.807,6.807,0,0,1,1.371-.5Zm0,0" transform="translate(-112.585 -138.14)" fill="#cecece"/>
    <path id="Path_667" data-name="Path 667" d="M148.108,0c-.719,0-1.346.754-1.682,1.873a35.805,35.805,0,0,1,3.364,0C149.454.754,148.827,0,148.108,0Zm0,0" transform="translate(-139.928)" fill="#ff9a00"/>
    <path id="Path_668" data-name="Path 668" d="M148.759.216A1.143,1.143,0,0,0,148.108,0c-.719,0-1.346.754-1.682,1.873a11,11,0,0,1,1.345-.05,3.147,3.147,0,0,1,.988-1.608Zm0,0" transform="translate(-139.928)" fill="#fc8900"/>
    <path id="Path_669" data-name="Path 669" d="M184.328,40.139v3.642a5.589,5.589,0,0,0,3.014,1.592.978.978,0,0,0,1.061-.5c.767-1.453,2.022-4.984-4.076-4.732Zm0,0" transform="translate(-176.148 -38.346)" fill="#ffb541"/>
    <path id="Path_670" data-name="Path 670" d="M185.7,40.155a12.574,12.574,0,0,0-1.371-.012v3.642A4.8,4.8,0,0,0,185.7,44.8Zm0,0" transform="translate(-176.148 -38.349)" fill="#ffa812"/>
    <path id="Path_671" data-name="Path 671" d="M78.362,44.872a.978.978,0,0,0,1.061.5,5.59,5.59,0,0,0,3.014-1.592V40.14c-6.1-.251-4.843,3.279-4.076,4.732Zm0,0" transform="translate(-74.258 -38.346)" fill="#ffb541"/>
    <path id="Path_672" data-name="Path 672" d="M79.737,46c-.6-1.195-1.485-3.716,1-4.66-4.132.435-3.057,3.393-2.371,4.691a.978.978,0,0,0,1.061.5c.22-.045.427-.1.623-.161A1.017,1.017,0,0,1,79.737,46Zm0,0" transform="translate(-74.262 -39.508)" fill="#ffa812"/>
    <path id="Path_673" data-name="Path 673" d="M188.4,44.876c.094-.177.194-.385.288-.614-3.031-.705-3.4-4.126-3.4-4.126-.3-.009-.62-.007-.965.007v3.642a5.589,5.589,0,0,0,3.014,1.592A.978.978,0,0,0,188.4,44.876Zm0,0" transform="translate(-176.149 -38.35)" fill="#ffa812"/>
    <path id="Path_674" data-name="Path 674" d="M185.7,41.594a5.782,5.782,0,0,1-.406-1.457c-.3-.009-.62-.007-.965.007v3.642A4.8,4.8,0,0,0,185.7,44.8Zm0,0" transform="translate(-176.148 -38.351)" fill="#ff9a00"/>
    <path id="Path_675" data-name="Path 675" d="M86.273,44.876c-.094-.177-.194-.385-.288-.614,3.031-.705,3.4-4.126,3.4-4.126.3-.009.62-.007.965.007v3.642a5.59,5.59,0,0,1-3.014,1.592A.978.978,0,0,1,86.273,44.876Zm0,0" transform="translate(-82.169 -38.35)" fill="#ffa812"/>
    <path id="Path_676" data-name="Path 676" d="M87.961,123.456a1.017,1.017,0,0,1-.313-.372A7.308,7.308,0,0,1,87.209,122a4.062,4.062,0,0,1-1.221.5c.274.667.4.83.6.965.433.3.862.141,1.372-.01Zm0,0" transform="translate(-82.172 -116.59)" fill="#ff9a00"/>
    <path id="Path_677" data-name="Path 677" d="M107.288,236.822a3.991,3.991,0,0,1-.376-1.658l-.022.012a.174.174,0,0,1,0,.057,1.079,1.079,0,0,1-.835.842v.1a.662.662,0,0,1-.576.668h-.223a.7.7,0,0,1-.481-.191.7.7,0,0,0-.482-.191h-.664a.7.7,0,0,0-.481.191.7.7,0,0,1-.482.191h-.223a.662.662,0,0,1-.576-.668v-.1a1.079,1.079,0,0,1-.835-.842.173.173,0,0,1,0-.057l-.022-.012a3.991,3.991,0,0,1-.376,1.658c-.366.788-.752,2.046.153,2.621,1.37.87.8,2.457,1.783,2.674a2.016,2.016,0,0,1,.945.506.654.654,0,0,0,.894,0,2.016,2.016,0,0,1,.945-.506c.979-.217.413-1.8,1.783-2.674C108.039,238.868,107.654,237.61,107.288,236.822Zm0,0" transform="translate(-95.78 -224.728)" fill="#554e56"/>
    <path id="Path_678" data-name="Path 678" d="M103.94,242.117c-.979-.217-.413-1.8-1.783-2.674-.905-.575-.519-1.833-.153-2.621.024-.051.046-.1.067-.154a.74.74,0,0,1-.2-.494v-.1a1.079,1.079,0,0,1-.835-.842.174.174,0,0,1,0-.057l-.022-.012a3.991,3.991,0,0,1-.376,1.658c-.366.788-.752,2.046.153,2.621,1.37.87.8,2.457,1.783,2.675a2.017,2.017,0,0,1,.945.506.654.654,0,0,0,.894,0,2.18,2.18,0,0,1,.239-.194A1.972,1.972,0,0,0,103.94,242.117Zm0,0" transform="translate(-95.78 -224.728)" fill="#433f43"/>
    <path id="Path_679" data-name="Path 679" d="M187.005,218.361a.754.754,0,0,1-.7.167c-.579-.177-.981-.9-1.442-.843a.536.536,0,0,0-.3.146.669.669,0,0,0,.03,1,2.259,2.259,0,0,0,1.639.693,1.3,1.3,0,0,0,1.051-.992A.174.174,0,0,0,187.005,218.361Zm0,0" transform="translate(-176.176 -208.022)" fill="#554e56"/>
    <path id="Path_680" data-name="Path 680" d="M118.612,218.361a.755.755,0,0,0,.7.167c.579-.177.981-.9,1.442-.843a.536.536,0,0,1,.3.146.669.669,0,0,1-.03,1,2.259,2.259,0,0,1-1.639.693,1.3,1.3,0,0,1-1.051-.992A.174.174,0,0,1,118.612,218.361Zm0,0" transform="translate(-113.08 -208.022)" fill="#554e56"/>
    <g id="Group_89" data-name="Group 89" transform="translate(5.251 9.66)">
      <path id="Path_681" data-name="Path 681" d="M186.9,219.075a2.259,2.259,0,0,1-1.639-.693.683.683,0,0,1-.216-.682.452.452,0,0,0-.183-.016.537.537,0,0,0-.3.146.669.669,0,0,0,.03,1,2.259,2.259,0,0,0,1.639.693,1.433,1.433,0,0,0,.829-.485A1.226,1.226,0,0,1,186.9,219.075Zm0,0" transform="translate(-181.427 -217.682)" fill="#433f43"/>
      <path id="Path_682" data-name="Path 682" d="M118.952,218.9a.174.174,0,0,1,.279-.165.754.754,0,0,0,.7.167c.509-.155.882-.736,1.278-.833a.633.633,0,0,0-.162-.235.536.536,0,0,0-.3-.146c-.461-.059-.863.667-1.442.843a.755.755,0,0,1-.7-.167.174.174,0,0,0-.279.165,1.242,1.242,0,0,0,.915.959A1.128,1.128,0,0,1,118.952,218.9Zm0,0" transform="translate(-118.327 -217.682)" fill="#433f43"/>
    </g>
  </g>
</svg>
