<svg xmlns="http://www.w3.org/2000/svg" width="31.808" height="40.014" viewBox="0 0 31.808 40.014">
  <g id="boost" transform="translate(-52.5 0)">
    <path id="Path_2135" data-name="Path 2135" d="M68.141,276.5S60,277.26,60,285.193c0,6.682,3.977,8.652,5.232,9.108a.231.231,0,0,0,.308-.252c-.225-1.49-.622-6.975,5.758-6.975Z" transform="translate(-6.914 -254.887)" fill="#8c9eff"/>
    <path id="Path_2136" data-name="Path 2136" d="M310.6,276.5s8.141.764,8.141,8.7c0,6.682-3.977,8.652-5.232,9.108a.231.231,0,0,1-.308-.252c.225-1.49.622-6.975-5.758-6.975Z" transform="translate(-235.023 -254.887)" fill="#8c9eff"/>
    <path id="Path_2137" data-name="Path 2137" d="M346.011,276.5l-.155.519a8.215,8.215,0,0,1,5.951,8.178c0,4.249-1.608,6.592-3.1,7.853a9.109,9.109,0,0,1-.093,1,.231.231,0,0,0,.308.252c1.255-.456,5.232-2.426,5.232-9.108C354.152,277.26,346.011,276.5,346.011,276.5Z" transform="translate(-270.429 -254.887)" fill="#7488ed"/>
    <path id="Path_2138" data-name="Path 2138" d="M160.241,22.666c0,5.932-4.805,18.2-4.805,18.2h-8.13S142.5,28.6,142.5,22.666c0-9.762,7.819-14.591,8.775-15.145a.19.19,0,0,1,.191,0C152.421,8.075,160.241,12.9,160.241,22.666Z" transform="translate(-82.966 -6.91)" fill="#ff3d7a"/>
    <path id="Path_2139" data-name="Path 2139" d="M242.264,7.521a.19.19,0,0,0-.191,0c-.17.1-.557.332-1.077.7a17.835,17.835,0,0,1,7.7,14.441c0,5.932-4.805,18.2-4.805,18.2h2.345s4.805-12.269,4.805-18.2c0-9.762-7.82-14.591-8.775-15.145Z" transform="translate(-173.764 -6.91)" fill="#eb3870"/>
    <circle id="Ellipse_231" data-name="Ellipse 231" cx="6.018" cy="6.018" r="6.018" transform="translate(62.386 10.316)" fill="#bdf9ff"/>
    <path id="Path_2140" data-name="Path 2140" d="M212,165.2l-.888.466a.651.651,0,0,1-.945-.685l.17-.986a1.447,1.447,0,0,0-.418-1.283l-.718-.7a.649.649,0,0,1,.361-1.108l.993-.144a1.453,1.453,0,0,0,1.094-.793l.444-.9a.652.652,0,0,1,1.168,0l.444.9a1.453,1.453,0,0,0,1.094.793l.993.144a.649.649,0,0,1,.361,1.108l-.718.7a1.448,1.448,0,0,0-.418,1.283l.17.986a.651.651,0,0,1-.945.685l-.888-.466A1.457,1.457,0,0,0,212,165.2Z" transform="translate(-144.269 -146.302)" fill="#ffca28"/>
    <path id="Path_2141" data-name="Path 2141" d="M221,434.5h5.471V438.4H221Z" transform="translate(-155.331 -400.539)" fill="#d4d4d4"/>
    <path id="Path_2142" data-name="Path 2142" d="M261,434.5h2.345V438.4H261Z" transform="translate(-192.205 -400.539)" fill="#bdbdbd"/>
    <path id="Path_2143" data-name="Path 2143" d="M81.186,23.329a11.073,11.073,0,0,0-4.1-2.023,26.573,26.573,0,0,0,.78-5.55A17.354,17.354,0,0,0,74.727,5.714a.586.586,0,1,0-.964.666,16.2,16.2,0,0,1,2.926,9.376c0,5.182-3.827,15.524-4.622,17.614H64.742c-.794-2.091-4.622-12.432-4.622-17.614,0-8.936,6.81-13.611,8.284-14.518A18.633,18.633,0,0,1,72.26,4.49a.586.586,0,1,0,.868-.788A19.169,19.169,0,0,0,68.793.1a.778.778,0,0,0-.778,0c-.928.538-9.067,5.545-9.067,15.652a26.572,26.572,0,0,0,.779,5.549,12.2,12.2,0,0,0-1.326.432.586.586,0,1,0,.426,1.092A11.131,11.131,0,0,1,60,22.446c.857,3.433,2.056,6.979,2.877,9.264a5.591,5.591,0,0,0-3.662,1.957,7.081,7.081,0,0,0-1.241,4.964c-1.474-.719-4.3-2.817-4.3-8.325a7.386,7.386,0,0,1,3.057-6.349.586.586,0,1,0-.687-.95,8.608,8.608,0,0,0-3.543,7.3c0,7.07,4.3,9.18,5.617,9.659a.817.817,0,0,0,1.088-.891,6.307,6.307,0,0,1,.924-4.673,4.58,4.58,0,0,1,3.159-1.564c.282.76.469,1.241.505,1.334a.586.586,0,0,0,.546.372h.744v3.321a.586.586,0,0,0,.586.586h5.471a.586.586,0,0,0,.586-.586V34.542h.744a.586.586,0,0,0,.546-.372c.036-.093.224-.574.505-1.334a5.459,5.459,0,0,1,2.121.669.586.586,0,1,0,.6-1.01,6.456,6.456,0,0,0-2.305-.785c.821-2.284,2.02-5.832,2.877-9.265,2.265.6,6.327,2.434,6.327,7.86,0,5.508-2.828,7.607-4.3,8.325a7.785,7.785,0,0,0-.678-4.094.586.586,0,0,0-1.043.536,7,7,0,0,1,.49,4,.817.817,0,0,0,1.087.892c1.318-.478,5.618-2.589,5.618-9.659A8.545,8.545,0,0,0,81.186,23.329ZM70.553,37.278h-4.3V34.542h4.3Z" transform="translate(0 0)"/>
    <path id="Path_2144" data-name="Path 2144" d="M207.96,153.266a.866.866,0,0,1-.653-.473l-.444-.9a1.238,1.238,0,0,0-2.219,0l-.444.9a.867.867,0,0,1-.653.473l-.993.144a1.236,1.236,0,0,0-.685,2.108l.718.7a.861.861,0,0,1,.249.764l-.17.986a1.237,1.237,0,0,0,1.795,1.3l.888-.466a.87.87,0,0,1,.808,0l.888.466a1.238,1.238,0,0,0,1.795-1.3l-.17-.986a.861.861,0,0,1,.249-.764l.718-.7a1.236,1.236,0,0,0-.685-2.108Zm.861,1.412-.718.7a2.033,2.033,0,0,0-.587,1.8l.17.986a.064.064,0,0,1-.095.067l-.888-.466a2.042,2.042,0,0,0-1.9,0l-.888.466a.064.064,0,0,1-.095-.066l.17-.986a2.033,2.033,0,0,0-.587-1.8l-.718-.7a.063.063,0,0,1,.036-.108l.993-.144a2.039,2.039,0,0,0,1.535-1.113l.444-.9a.065.065,0,0,1,.117,0l.444.9a2.039,2.039,0,0,0,1.535,1.113l.993.144A.063.063,0,0,1,208.821,154.677Z" transform="translate(-137.349 -139.39)"/>
    <path id="Path_2145" data-name="Path 2145" d="M178.1,124.493a6.6,6.6,0,1,0,6.6,6.6A6.611,6.611,0,0,0,178.1,124.493Zm0,12.035a5.432,5.432,0,1,1,5.432-5.432A5.438,5.438,0,0,1,178.1,136.528Z" transform="translate(-109.7 -114.764)"/>
  </g>
</svg>
