<svg xmlns="http://www.w3.org/2000/svg" width="35.275" height="46.431" viewBox="0 0 35.275 46.431">
  <g id="like_1_" data-name="like (1)" transform="translate(-61.373)">
    <g id="Group_522" data-name="Group 522" transform="translate(65.109 11.952)">
      <g id="XMLID_382_" transform="translate(0)">
        <g id="Group_521" data-name="Group 521">
          <path id="Path_2151" data-name="Path 2151" d="M130.025,149.538v.01a3.018,3.018,0,0,1-.236,6.026h-.075a2.5,2.5,0,0,1,0,5h-1.042a2.365,2.365,0,0,1,2.365,2.409,2.4,2.4,0,0,1-2.417,2.321H118.58a6.2,6.2,0,0,1-4.384-1.816,1.183,1.183,0,0,0-.836-.346h-4.705l-6.179-.2V145.8H111.1a1.107,1.107,0,0,0,.783-.324l5.937-5.938a1.371,1.371,0,0,0,.4-.972v-5.485a1.578,1.578,0,0,1,1.578-1.578h1.7a3.5,3.5,0,0,1,3.5,3.5v5.865a2.13,2.13,0,0,1-.316,1.115L124,143.1a.266.266,0,0,0,.226.406h6.029a3.058,3.058,0,0,1,3.078,2.949,3.018,3.018,0,0,1-3.018,3.087Z" transform="translate(-102.476 -131.508)" fill="#fed3a7"/>
        </g>
      </g>
    </g>
    <path id="Path_2152" data-name="Path 2152" d="M130.589,442.178a2.446,2.446,0,0,1-1.365.417H119.186a6.2,6.2,0,0,1-4.384-1.816,1.183,1.183,0,0,0-.836-.346h-4.705l-6.179-.2v-.048h-.608v3.378l6.179.2h4.705a1.183,1.183,0,0,1,.836.346,6.2,6.2,0,0,0,4.384,1.816h10.037a2.4,2.4,0,0,0,2.417-2.321A2.356,2.356,0,0,0,130.589,442.178Z" transform="translate(-37.365 -400.175)" fill="#ffbe8a"/>
    <g id="XMLID_384_" transform="translate(62.055 25.009)">
      <g id="Group_523" data-name="Group 523" transform="translate(0)">
        <path id="Path_2153" data-name="Path 2153" d="M78.108,277.194V292.96a2.026,2.026,0,0,1-2.026,2.026H70.9a2.026,2.026,0,0,1-2.026-2.026V277.194a2.026,2.026,0,0,1,2.026-2.026h5.182A2.026,2.026,0,0,1,78.108,277.194Z" transform="translate(-68.875 -275.168)" fill="#b3caeb"/>
      </g>
      <path id="Path_2154" data-name="Path 2154" d="M68.875,441.978v2.631a2.026,2.026,0,0,0,2.026,2.026h5.182a2.026,2.026,0,0,0,2.026-2.026v-2.631Z" transform="translate(-68.875 -426.817)" fill="#84ace1"/>
    </g>
    <circle id="Ellipse_235" data-name="Ellipse 235" cx="1.563" cy="1.563" r="1.563" transform="translate(65.108 38.871)" fill="#fdea84"/>
    <path id="Path_2155" data-name="Path 2155" d="M102.472,442.241a1.563,1.563,0,1,0,3.1-.263H102.5a1.554,1.554,0,0,0-.024.263Z" transform="translate(-37.364 -401.808)" fill="#fde044"/>
    <path id="Path_2156" data-name="Path 2156" d="M264.452,8.142l.357,1.1a.928.928,0,0,0,.883.641h1.156a.928.928,0,0,1,.545,1.679l-.935.679a.928.928,0,0,0-.337,1.037l.357,1.1a.928.928,0,0,1-1.428,1.037l-.935-.679a.928.928,0,0,0-1.091,0l-.935.679a.928.928,0,0,1-1.428-1.037l.357-1.1a.928.928,0,0,0-.337-1.037l-.935-.679a.928.928,0,0,1,.545-1.679h1.156a.928.928,0,0,0,.882-.641l.357-1.1a.928.928,0,0,1,1.765,0Z" transform="translate(-179.993 -6.819)" fill="#fee565"/>
    <g id="Group_524" data-name="Group 524" transform="translate(79.368 0.682)">
      <path id="Path_2157" data-name="Path 2157" d="M262.58,15.04l.357-1.1A.928.928,0,0,0,262.6,12.9l-.935-.679a.928.928,0,0,1,.545-1.679h1.156a.928.928,0,0,0,.883-.641l.357-1.1c.01-.031.022-.06.034-.089l-.186-.573a.928.928,0,0,0-1.765,0l-.357,1.1a.928.928,0,0,1-.883.641h-1.156a.928.928,0,0,0-.545,1.679l.935.679a.928.928,0,0,1,.337,1.037l-.357,1.1a.928.928,0,0,0,1.428,1.037l.482-.35C262.575,15.057,262.577,15.049,262.58,15.04Z" transform="translate(-259.363 -7.501)" fill="#fde044"/>
    </g>
    <g id="Group_525" data-name="Group 525" transform="translate(61.373 0)">
      <path id="Path_2158" data-name="Path 2158" d="M328.348,224.408a3.7,3.7,0,0,0-1.324-2.833,3.7,3.7,0,0,0-1.847-6.9h-5.344l.293-.475a2.8,2.8,0,0,0,.418-1.473v-1.5a.682.682,0,0,0-1.363,0v1.5a1.437,1.437,0,0,1-.215.756l-.737,1.192h-.73a.682.682,0,0,0,0,1.363h7.677a2.336,2.336,0,0,1,0,4.672h-.291a.692.692,0,0,0-.08.005c-.053,0-.106-.005-.158-.005a.682.682,0,0,0,0,1.363c.05,0,.1,0,.151,0a2.336,2.336,0,0,1-.151,4.668h-.321a.682.682,0,0,0,0,1.363h.245a1.819,1.819,0,1,1,0,3.638h-1.21a.682.682,0,1,0,0,1.363h.169a1.683,1.683,0,0,1,0,3.367h-1.648a.682.682,0,1,0,0,1.363h1.648a3.045,3.045,0,0,0,2.332-5,3.178,3.178,0,0,0,.785-5.316A3.7,3.7,0,0,0,328.348,224.408Z" transform="translate(-293.601 -191.407)"/>
      <path id="Path_2159" data-name="Path 2159" d="M86.751,157.8H81.213a5.481,5.481,0,0,1-3.9-1.616,1.851,1.851,0,0,0-1.318-.546H71.967c0-.035,0-.07,0-.105V146.16a.682.682,0,0,0-1.363,0v9.377a1.346,1.346,0,0,1-1.344,1.345H64.081a1.346,1.346,0,0,1-1.345-1.345V139.771a1.346,1.346,0,0,1,1.345-1.344h5.181a1.346,1.346,0,0,1,1.344,1.344v3.484a.682.682,0,1,0,1.363,0v-3.484c0-.035,0-.07,0-.1h2.226a.682.682,0,0,0,.482-.2l6.262-6.262a2.043,2.043,0,0,0,.6-1.454v-5.485a.9.9,0,0,1,.9-.9h1.7a2.819,2.819,0,0,1,2.819,2.819v1.46a.682.682,0,1,0,1.363,0v-1.46a4.182,4.182,0,0,0-4.182-4.182h-1.7a2.262,2.262,0,0,0-2.259,2.259v5.485a.688.688,0,0,1-.2.49L73.911,138.3H71.535a2.707,2.707,0,0,0-2.273-1.239H64.081a2.711,2.711,0,0,0-2.708,2.708v15.766a2.711,2.711,0,0,0,2.708,2.708h5.181A2.707,2.707,0,0,0,71.535,157h4.458a.5.5,0,0,1,.354.147,6.836,6.836,0,0,0,4.865,2.015h5.538a.682.682,0,1,0,0-1.363Z" transform="translate(-61.373 -112.735)"/>
      <path id="Path_2160" data-name="Path 2160" d="M94.972,422.425a2.245,2.245,0,1,0,2.245-2.245A2.247,2.247,0,0,0,94.972,422.425Zm2.245-.881a.881.881,0,1,1-.881.881A.882.882,0,0,1,97.217,421.543Z" transform="translate(-91.918 -381.991)"/>
      <path id="Path_2161" data-name="Path 2161" d="M113.531,311.221V303.6a.682.682,0,1,0-1.363,0v7.619a.682.682,0,0,0,1.363,0Z" transform="translate(-107.551 -275.388)"/>
      <path id="Path_2162" data-name="Path 2162" d="M252.513,5.293l.935.68a.245.245,0,0,1,.089.275l-.357,1.1a1.585,1.585,0,0,0,.585,1.8,1.585,1.585,0,0,0,1.892,0l.935-.679a.246.246,0,0,1,.29,0l.935.679a1.61,1.61,0,0,0,2.477-1.8l-.357-1.1a.245.245,0,0,1,.089-.275l.935-.679a1.609,1.609,0,0,0-.946-2.912h-1.156a.246.246,0,0,1-.234-.17l-.357-1.1a1.609,1.609,0,0,0-3.062,0l-.357,1.1a.246.246,0,0,1-.234.17h-1.156a1.609,1.609,0,0,0-.946,2.912Zm.712-1.378a.229.229,0,0,1,.234-.17h1.156a1.606,1.606,0,0,0,1.531-1.112l.357-1.1a.246.246,0,0,1,.468,0l.357,1.1a1.606,1.606,0,0,0,1.531,1.112h1.156a.246.246,0,0,1,.145.445l-.935.679a1.605,1.605,0,0,0-.585,1.8l.357,1.1a.246.246,0,0,1-.379.275l-.935-.679a1.606,1.606,0,0,0-1.892,0l-.935.68a.246.246,0,0,1-.379-.275l.357-1.1a1.605,1.605,0,0,0-.585-1.8l-.935-.68A.229.229,0,0,1,253.225,3.915Z" transform="translate(-234.534 0)"/>
      <path id="Path_2163" data-name="Path 2163" d="M210.466,56.149h.755a.682.682,0,1,0,0-1.363h-.755a.682.682,0,1,0,0,1.363Z" transform="translate(-196.295 -49.807)"/>
      <path id="Path_2164" data-name="Path 2164" d="M213.906,19.02l.69.307a.682.682,0,0,0,.555-1.245l-.69-.307a.682.682,0,1,0-.555,1.245Z" transform="translate(-199.674 -16.105)"/>
      <path id="Path_2165" data-name="Path 2165" d="M214.6,88.532l-.69.307a.682.682,0,1,0,.555,1.245l.69-.307a.682.682,0,1,0-.555-1.245Z" transform="translate(-199.674 -80.432)"/>
      <path id="Path_2166" data-name="Path 2166" d="M377.517,54.786a.682.682,0,0,0,0,1.363h.755a.682.682,0,1,0,0-1.363Z" transform="translate(-348.163 -49.807)"/>
      <path id="Path_2167" data-name="Path 2167" d="M374.516,19.388a.68.68,0,0,0,.277-.059l.69-.307a.682.682,0,1,0-.554-1.245l-.69.307a.682.682,0,0,0,.278,1.3Z" transform="translate(-345.435 -16.107)"/>
      <path id="Path_2168" data-name="Path 2168" d="M374.238,89.779l.69.307a.682.682,0,1,0,.554-1.245l-.69-.307a.682.682,0,1,0-.555,1.245Z" transform="translate(-345.434 -80.433)"/>
    </g>
  </g>
</svg>
