<svg xmlns="http://www.w3.org/2000/svg" width="42.859" height="42.996" viewBox="0 0 42.859 42.996">
  <g id="swipe_1_" data-name="swipe (1)" transform="translate(-0.819)">
    <path id="Path_2205" data-name="Path 2205" d="M53.969,19.536,48.48,15.314v2.111H18.675V15.314l-5.488,4.222,5.488,4.222V21.647H48.48v2.111Z" transform="translate(-11.329 -14.028)" fill="#077fd5"/>
    <path id="Path_2206" data-name="Path 2206" d="M213.125,40.45h-7.689a4.042,4.042,0,0,0-.218,1.309v2.913h8.124V41.759A4.042,4.042,0,0,0,213.125,40.45Z" transform="translate(-187.235 -37.053)" fill="#0053c0"/>
    <path id="Path_2207" data-name="Path 2207" d="M105.745,43.561V30.149a2.373,2.373,0,0,0-2.373-2.373h0A2.373,2.373,0,0,0,101,30.149v6.159H97.2v1.067H93.4v2.133H89.6V50.493l2.533,6.079V68.44h13.932V56.572l3.8-6.079V43.561Z" transform="translate(-81.325 -25.443)" fill="#ffd3a4"/>
    <path id="Path_2208" data-name="Path 2208" d="M126.9,444.9a20.6,20.6,0,0,1-7.135-1.267v5.742H133.7v-5.622A20.609,20.609,0,0,1,126.9,444.9Z" transform="translate(-108.956 -406.374)" fill="#ffc477"/>
    <path id="Path_2209" data-name="Path 2209" d="M99.47,23.241a3.007,3.007,0,0,0-6.013,0v5.526h-3.8v1.067h-3.8v2.133h-3.8V43.712l2.533,6.079V61.532h1.267V49.538l-2.533-6.079V33.233h2.533v3.633h1.267V31.1h2.534v5.766h1.267V30.034h2.532v6.832h1.267V23.241a1.74,1.74,0,0,1,3.48,0V37.286h4.119V43.4l-3.8,6.079V61.532H99.79V49.846l3.8-6.079V36.02H99.47V23.241Z" transform="translate(-74.418 -18.536)"/>
    <path id="Path_2210" data-name="Path 2210" d="M7.979,8.252h7.81V6.985H6.713V8.443L2.9,5.508,6.713,2.572V4.03h9.077V2.764H7.979V0L.819,5.508l7.16,5.508Z"/>
    <rect id="Rectangle_408" data-name="Rectangle 408" width="1.267" height="1.267" transform="translate(9.457 4.706)"/>
    <rect id="Rectangle_409" data-name="Rectangle 409" width="1.267" height="1.267" transform="translate(11.99 4.706)"/>
    <rect id="Rectangle_410" data-name="Rectangle 410" width="1.267" height="1.267" transform="translate(14.523 4.706)"/>
    <path id="Path_2211" data-name="Path 2211" d="M347.886,5.508,340.726,0V2.764h-7.81V4.03h9.077V2.572l3.816,2.936-3.816,2.936V6.985h-9.077V8.252h7.81v2.764Z" transform="translate(-304.208)"/>
    <rect id="Rectangle_411" data-name="Rectangle 411" width="1.267" height="1.267" transform="translate(33.858 4.706)"/>
    <rect id="Rectangle_412" data-name="Rectangle 412" width="1.267" height="1.267" transform="translate(28.792 4.706)"/>
    <rect id="Rectangle_413" data-name="Rectangle 413" width="1.267" height="1.267" transform="translate(31.325 4.706)"/>
  </g>
</svg>
