<svg xmlns="http://www.w3.org/2000/svg" width="32.736" height="35.586" viewBox="0 0 32.736 35.586">
  <g id="block-user" transform="translate(-20.5)">
    <path id="Path_2242" data-name="Path 2242" d="M100.2,35.6a7.993,7.993,0,1,1,0-15.208,8,8,0,0,0,0,15.208Zm7.107,13.038V46.759a4.17,4.17,0,0,1,4.17-4.17h-4.17a4.17,4.17,0,0,0-4.17,4.17v1.877a4.17,4.17,0,0,0,4.17,4.17h4.17A4.17,4.17,0,0,1,107.307,48.635Z" transform="translate(-64.427 -18.61)" fill="#cee1f2"/>
    <path id="Path_2243" data-name="Path 2243" d="M105.313,22.892V21.06a4.17,4.17,0,0,0-8.34,0v1.809a5.569,5.569,0,0,0-3.823,5.281v1.877a5.567,5.567,0,0,0,5.56,5.56h4.8a5.567,5.567,0,0,0,5.56-5.56V28.149A5.569,5.569,0,0,0,105.313,22.892Zm-5.56-1.832a1.39,1.39,0,1,1,2.78,0v1.529h-2.78Zm6.533,8.966a2.783,2.783,0,0,1-2.78,2.78h-4.8a2.783,2.783,0,0,1-2.78-2.78V28.149a2.783,2.783,0,0,1,2.78-2.78h4.8a2.783,2.783,0,0,1,2.78,2.78ZM99.266,9.383a9.383,9.383,0,1,0-9.383,9.383A9.394,9.394,0,0,0,99.266,9.383Zm-9.383,6.6a6.6,6.6,0,1,1,6.6-6.6A6.61,6.61,0,0,1,89.883,15.986Z" transform="translate(-55.83)" fill="#1428bf"/>
    <path id="Path_2244" data-name="Path 2244" d="M21.89,324.04a1.39,1.39,0,0,1-1.39-1.39A12.664,12.664,0,0,1,33.15,310h1.39a1.39,1.39,0,0,1,0,2.78H33.15a9.881,9.881,0,0,0-9.869,9.869A1.39,1.39,0,0,1,21.89,324.04Zm23.376-8.2A1.738,1.738,0,1,0,47,317.576,1.738,1.738,0,0,0,45.266,315.838Z" transform="translate(0 -288.454)" fill="#f3c"/>
  </g>
</svg>
