<svg xmlns="http://www.w3.org/2000/svg" xmlns:xlink="http://www.w3.org/1999/xlink" width="15.192" height="15.192" viewBox="0 0 15.192 15.192">
  <defs>
    <linearGradient id="linear-gradient" x1="0.788" y1="1.385" x2="-0.16" y2="0.61" gradientUnits="objectBoundingBox">
      <stop offset="0" stop-color="aqua"/>
      <stop offset="1" stop-color="teal" stop-opacity="0"/>
    </linearGradient>
    <linearGradient id="linear-gradient-2" x1="0.312" y1="1" x2="-0.16" y2="0.61" gradientUnits="objectBoundingBox">
      <stop offset="0" stop-color="aqua"/>
      <stop offset="0.353" stop-color="#00caca" stop-opacity="0.58"/>
      <stop offset="1" stop-color="teal" stop-opacity="0"/>
    </linearGradient>
    <linearGradient id="linear-gradient-4" x1="0.322" y1="0.946" x2="-0.219" y2="0.5" gradientUnits="objectBoundingBox">
      <stop offset="0" stop-color="aqua"/>
      <stop offset="0.618" stop-color="#00caca" stop-opacity="0.361"/>
      <stop offset="1" stop-color="teal" stop-opacity="0"/>
    </linearGradient>
    <clipPath id="clip-path">
      <path id="Path_115" data-name="Path 115" d="M2548.106,893.982l-1.341-3.9-3.9-1.341a.17.17,0,0,1,0-.321l3.9-1.341,1.341-3.9a.17.17,0,0,1,.322,0l1.341,3.9,3.9,1.341a.17.17,0,0,1,0,.321l-3.9,1.341-1.341,3.9a.17.17,0,0,1-.322,0Z" transform="translate(-2542.756 -883.074)" fill="aqua"/>
    </clipPath>
  </defs>
  <g id="Group_135" data-name="Group 135" transform="translate(-119.07 -684.07)">
    <path id="Subtraction_3" data-name="Subtraction 3" d="M0,.925.925,0l.707.349a.294.294,0,0,1,.111.094.3.3,0,0,1,.094.111L2.7,2.3a.294.294,0,0,1,.026.187.3.3,0,0,1-.237.237A.293.293,0,0,1,2.3,2.7L.554,1.836a.293.293,0,0,1-.111-.094.294.294,0,0,1-.094-.111L0,.925Z" transform="translate(131.649 686.833) rotate(90)" fill="url(#linear-gradient)"/>
    <path id="Subtraction_3-2" data-name="Subtraction 3" d="M0,.925.925,0l.707.349a.294.294,0,0,1,.111.094.3.3,0,0,1,.094.111L2.7,2.3a.294.294,0,0,1,.026.187.3.3,0,0,1-.237.237A.293.293,0,0,1,2.3,2.7L.554,1.836a.293.293,0,0,1-.111-.094.294.294,0,0,1-.094-.111L0,.925Z" transform="translate(131.649 696.232) rotate(180)" fill="url(#linear-gradient-2)"/>
    <path id="Subtraction_3-3" data-name="Subtraction 3" d="M2476.056,821l.925-.925.707.349a.292.292,0,0,1,.111.094.3.3,0,0,1,.094.111l.864,1.748a.294.294,0,0,1,.026.187.3.3,0,0,1-.237.237.293.293,0,0,1-.187-.027l-1.748-.863a.292.292,0,0,1-.111-.094.3.3,0,0,1-.094-.111l-.349-.706Z" transform="translate(-2354.223 -133.247)" fill="url(#linear-gradient-2)"/>
    <path id="Subtraction_3-4" data-name="Subtraction 3" d="M0,.925.925,0l.707.349a.294.294,0,0,1,.111.094.3.3,0,0,1,.094.111L2.7,2.3a.294.294,0,0,1,.026.187.3.3,0,0,1-.237.237A.293.293,0,0,1,2.3,2.7L.554,1.836a.293.293,0,0,1-.111-.094.294.294,0,0,1-.094-.111L0,.925Z" transform="translate(121.833 696.232) rotate(-90)" fill="url(#linear-gradient-4)"/>
    <g id="Group_46" data-name="Group 46" transform="translate(119.57 684.57)">
      <g id="Ellipse_16" data-name="Ellipse 16">
        <g id="Group_47" data-name="Group 47">
          <circle id="Ellipse_17" data-name="Ellipse 17" cx="7.096" cy="7.096" r="7.096" fill="none" stroke="aqua" stroke-width="1"/>
        </g>
        <g id="Group_48" data-name="Group 48" transform="translate(0)">
          <path id="Path_57" data-name="Path 57" d="M2538.926,886.192a7.1,7.1,0,1,1,7.1-7.1A7.1,7.1,0,0,1,2538.926,886.192Zm0-14.107a7.011,7.011,0,1,0,7.011,7.011A7.019,7.019,0,0,0,2538.926,872.085Z" transform="translate(-2531.83 -872)" fill="none" stroke="aqua" stroke-width="1"/>
        </g>
      </g>
      <g id="Union_1" data-name="Union 1" transform="translate(1.563 1.584)">
        <g id="Group_50" data-name="Group 50" transform="translate(0 0)">
          <g id="Group_49" data-name="Group 49" clip-path="url(#clip-path)">
            <rect id="Rectangle_66" data-name="Rectangle 66" width="11.066" height="11.066" transform="translate(-0.021 -0.021)" fill="aqua"/>
            <path id="Path_58" data-name="Path 58" d="M2553.461,888.2v-5.575H2542.31v11.151h11.151Z" transform="translate(-2542.374 -882.692)" fill="aqua"/>
            <path id="Path_59" data-name="Path 59" d="M2553.461,888.2v-5.575H2542.31v11.151h11.151Z" transform="translate(-2542.374 -882.692)" fill="aqua"/>
            <path id="Path_60" data-name="Path 60" d="M2553.461,888.2v-5.575H2542.31v11.151h11.151Z" transform="translate(-2542.374 -882.692)" fill="aqua"/>
            <path id="Path_61" data-name="Path 61" d="M2553.461,888.2v-5.575H2542.31v11.151h11.151Z" transform="translate(-2542.374 -882.692)" fill="aqua"/>
            <path id="Path_62" data-name="Path 62" d="M2553.461,888.2v-5.575H2542.31v11.151h11.151Z" transform="translate(-2542.374 -882.692)" fill="aqua"/>
            <path id="Path_63" data-name="Path 63" d="M2553.461,888.2v-5.575H2542.31v11.151h11.151Z" transform="translate(-2542.374 -882.692)" fill="aqua"/>
            <path id="Path_64" data-name="Path 64" d="M2553.461,888.2v-5.575H2542.31v11.151h11.151Z" transform="translate(-2542.374 -882.692)" fill="aqua"/>
            <path id="Path_65" data-name="Path 65" d="M2553.461,888.2v-5.575H2542.31v11.151h11.151Z" transform="translate(-2542.374 -882.692)" fill="aqua"/>
            <path id="Path_66" data-name="Path 66" d="M2553.461,888.2v-5.575H2542.31v11.151h11.151Z" transform="translate(-2542.374 -882.692)" fill="aqua"/>
            <path id="Path_67" data-name="Path 67" d="M2553.461,888.2v-5.575H2542.31v11.151h11.151Z" transform="translate(-2542.374 -882.692)" fill="aqua"/>
            <path id="Path_68" data-name="Path 68" d="M2553.461,888.2v-5.575H2542.31v11.151h11.151Z" transform="translate(-2542.374 -882.692)" fill="aqua"/>
            <path id="Path_69" data-name="Path 69" d="M2553.461,888.2v-5.575H2542.31v11.151h11.151Z" transform="translate(-2542.374 -882.692)" fill="aqua"/>
            <path id="Path_70" data-name="Path 70" d="M2553.461,888.2v-5.575H2542.31v11.151h11.151Z" transform="translate(-2542.374 -882.692)" fill="aqua"/>
            <path id="Path_71" data-name="Path 71" d="M2553.461,888.2v-5.575H2542.31v11.151h11.151Z" transform="translate(-2542.374 -882.692)" fill="aqua"/>
            <path id="Path_72" data-name="Path 72" d="M2553.461,888.2v-5.575H2542.31v11.151h11.151Z" transform="translate(-2542.374 -882.692)" fill="aqua"/>
            <path id="Path_73" data-name="Path 73" d="M2553.461,888.2v-5.575H2542.31v11.151h11.151Z" transform="translate(-2542.374 -882.692)" fill="aqua"/>
            <path id="Path_74" data-name="Path 74" d="M2553.461,888.2v-5.575H2542.31v11.151h11.151Z" transform="translate(-2542.374 -882.692)" fill="aqua"/>
            <path id="Path_75" data-name="Path 75" d="M2553.461,888.2v-5.575H2542.31v11.151h11.151Z" transform="translate(-2542.374 -882.692)" fill="aqua"/>
            <path id="Path_76" data-name="Path 76" d="M2553.461,888.2v-5.575H2542.31v11.151h11.151Z" transform="translate(-2542.374 -882.692)" fill="aqua"/>
            <path id="Path_77" data-name="Path 77" d="M2553.461,888.2v-5.575H2542.31v11.151h11.151Z" transform="translate(-2542.374 -882.692)" fill="aqua"/>
            <path id="Path_78" data-name="Path 78" d="M2553.461,888.2v-5.575H2542.31v11.151h11.151Z" transform="translate(-2542.374 -882.692)" fill="aqua"/>
            <path id="Path_79" data-name="Path 79" d="M2553.461,888.2v-5.575H2542.31v11.151h11.151Z" transform="translate(-2542.374 -882.692)" fill="aqua"/>
            <path id="Path_80" data-name="Path 80" d="M2553.461,888.2v-5.575H2542.31v11.151h11.151Z" transform="translate(-2542.374 -882.692)" fill="aqua"/>
            <path id="Path_81" data-name="Path 81" d="M2553.461,888.2v-5.575H2542.31v11.151h11.151Z" transform="translate(-2542.374 -882.692)" fill="aqua"/>
            <path id="Path_82" data-name="Path 82" d="M2553.461,888.2v-5.575H2542.31v11.151h11.151Z" transform="translate(-2542.374 -882.692)" fill="aqua"/>
            <path id="Path_83" data-name="Path 83" d="M2553.461,888.2v-5.575H2542.31v11.151h11.151Z" transform="translate(-2542.374 -882.692)" fill="aqua"/>
            <path id="Path_84" data-name="Path 84" d="M2553.461,888.2v-5.575H2542.31v11.151h11.151Z" transform="translate(-2542.374 -882.692)" fill="aqua"/>
            <path id="Path_85" data-name="Path 85" d="M2553.461,888.2v-5.575H2542.31v11.151h11.151Z" transform="translate(-2542.374 -882.692)" fill="aqua"/>
            <path id="Path_86" data-name="Path 86" d="M2553.461,888.2v-5.575H2542.31v11.151h11.151Z" transform="translate(-2542.374 -882.692)" fill="aqua"/>
            <path id="Path_87" data-name="Path 87" d="M2553.461,888.2v-5.575H2542.31v11.151h11.151Z" transform="translate(-2542.374 -882.692)" fill="aqua"/>
            <path id="Path_88" data-name="Path 88" d="M2553.461,888.2v-5.575H2542.31v11.151h11.151Z" transform="translate(-2542.374 -882.692)" fill="aqua"/>
            <path id="Path_89" data-name="Path 89" d="M2553.461,888.2v-5.575H2542.31v11.151h11.151Z" transform="translate(-2542.374 -882.692)" fill="aqua"/>
            <path id="Path_90" data-name="Path 90" d="M2553.461,888.2v-5.575H2542.31v11.151h11.151Z" transform="translate(-2542.374 -882.692)" fill="aqua"/>
            <path id="Path_91" data-name="Path 91" d="M2552.02,886.763V881.48h.241q-.127-.14-.26-.273t-.273-.26v.241h-10.566v-.241q-.14.127-.273.26t-.26.273h.24v10.566h-.24q.127.14.26.273t.273.26v-.241h10.566v.241q.14-.127.273-.26t.26-.273h-.241Z" transform="translate(-2540.933 -881.251)" fill="aqua"/>
            <path id="Path_92" data-name="Path 92" d="M2552.39,887.134v-5.227h.179q-.126-.138-.258-.27t-.27-.257v.179h-10.453v-.179q-.138.125-.27.257c-.087.088-.174.178-.257.27h.179v10.453h-.179c.083.092.17.182.257.27s.178.174.27.257v-.179h10.453v.179q.138-.125.27-.257t.258-.27h-.179Z" transform="translate(-2541.303 -881.622)" fill="aqua"/>
            <path id="Path_93" data-name="Path 93" d="M2552.761,887.5v-5.171h.117c-.083-.091-.168-.18-.254-.267s-.176-.172-.267-.255v.117h-10.341v-.117q-.137.124-.267.255c-.087.087-.172.176-.255.267h.117v10.341h-.117c.083.091.167.18.255.267s.176.172.267.255v-.117h10.341v.117c.091-.083.18-.168.267-.255s.172-.176.254-.267h-.117Z" transform="translate(-2541.674 -881.993)" fill="aqua"/>
            <path id="Path_94" data-name="Path 94" d="M2551.7,886.443V881.6h.294q-.233-.282-.491-.54t-.54-.491v.294h-9.677v-.294q-.282.232-.54.491t-.491.54h.294v9.677h-.294q.233.282.491.54t.54.491v-.294h9.677v.294q.282-.232.54-.491t.491-.54h-.294Z" transform="translate(-2540.613 -880.932)" fill="aqua"/>
            <path id="Path_95" data-name="Path 95" d="M2552.086,886.83v-4.785h.229q-.23-.279-.485-.534t-.534-.485v.229h-9.57v-.229q-.279.23-.534.485t-.485.534h.229v9.57h-.229q.23.279.485.534t.534.486v-.23h9.57v.23q.279-.23.534-.486t.485-.534h-.229Z" transform="translate(-2541 -881.318)" fill="aqua"/>
            <path id="Path_96" data-name="Path 96" d="M2552.472,887.215v-4.732h.165q-.227-.276-.48-.528t-.528-.48v.165h-9.464v-.165q-.276.228-.529.48t-.48.528h.165v9.464h-.165q.227.276.48.528t.529.48v-.165h9.464v.165q.275-.228.528-.48t.48-.528h-.165Z" transform="translate(-2541.385 -881.704)" fill="aqua"/>
            <path id="Path_97" data-name="Path 97" d="M2552.859,887.6v-4.679h.1q-.225-.273-.475-.522t-.522-.475v.1H2542.6v-.1c-.181.15-.356.308-.522.475s-.325.341-.475.522h.1v9.357h-.1q.224.273.475.522c.166.166.341.325.522.475v-.1h9.358v.1q.272-.225.522-.475t.475-.522h-.1Z" transform="translate(-2541.772 -882.09)" fill="aqua"/>
            <path id="Path_98" data-name="Path 98" d="M2553.245,887.988v-4.626h.036q-.223-.269-.47-.516c-.164-.164-.337-.321-.516-.469v.036h-9.251v-.036q-.269.222-.516.469t-.469.516h.036v9.251h-.036q.222.269.469.516t.516.469v-.036h9.251v.036c.179-.148.352-.3.516-.469s.321-.337.47-.516h-.036Z" transform="translate(-2542.158 -882.477)" fill="aqua"/>
            <path id="Path_99" data-name="Path 99" d="M2552.354,887.1v-4.3h.185q-.1-.138-.214-.272-.22-.266-.464-.51c-.162-.163-.333-.317-.51-.464-.089-.073-.179-.145-.271-.214v.185h-8.6v-.185q-.138.1-.272.214-.266.22-.51.464t-.464.51q-.11.133-.213.272h.185v8.6h-.185q.1.138.213.272.22.266.464.51t.51.464q.133.11.272.213v-.185h8.6v.185c.092-.069.183-.14.271-.213.177-.146.348-.3.51-.464s.318-.333.464-.51q.11-.133.214-.272h-.185Z" transform="translate(-2541.267 -881.585)" fill="aqua"/>
            <path id="Path_100" data-name="Path 100" d="M2552.754,887.5v-4.251h.118q-.1-.137-.211-.268-.217-.263-.458-.5c-.16-.161-.329-.314-.5-.458q-.131-.108-.269-.211v.118h-8.5V881.8q-.137.1-.268.211-.263.217-.5.458t-.458.5q-.108.132-.211.268h.118v8.5h-.118q.1.137.211.268.217.263.458.5t.5.459q.132.109.268.211v-.118h8.5v.118q.137-.1.269-.211c.175-.145.344-.3.5-.459s.314-.329.458-.5q.109-.132.211-.268h-.118Z" transform="translate(-2541.667 -881.986)" fill="aqua"/>
            <path id="Path_101" data-name="Path 101" d="M2551.983,886.726V882.8h.247a7.06,7.06,0,0,0-1.9-1.9v.247h-7.851V880.9a7.06,7.06,0,0,0-1.9,1.9h.247v7.851h-.247a7.061,7.061,0,0,0,1.9,1.9V892.3h7.851v.247a7.061,7.061,0,0,0,1.9-1.9h-.247Z" transform="translate(-2540.896 -881.214)" fill="aqua"/>
            <path id="Path_102" data-name="Path 102" d="M2552.4,887.142v-3.879h.177a6.98,6.98,0,0,0-1.874-1.874v.177h-7.758v-.177a6.98,6.98,0,0,0-1.874,1.874h.177v7.758h-.177a6.975,6.975,0,0,0,1.874,1.874v-.177h7.758v.177a6.975,6.975,0,0,0,1.874-1.874h-.177Z" transform="translate(-2541.311 -881.63)" fill="aqua"/>
            <path id="Path_103" data-name="Path 103" d="M2552.813,887.556v-3.832h.108a6.9,6.9,0,0,0-1.851-1.851v.108h-7.665v-.108a6.9,6.9,0,0,0-1.851,1.851h.108v7.664h-.108a6.891,6.891,0,0,0,1.851,1.851v-.108h7.665v.108a6.891,6.891,0,0,0,1.851-1.851h-.108Z" transform="translate(-2541.727 -882.045)" fill="aqua"/>
            <path id="Path_104" data-name="Path 104" d="M2553.229,887.972v-3.785h.039a6.805,6.805,0,0,0-1.829-1.829v.039h-7.571v-.039a6.8,6.8,0,0,0-1.829,1.829h.039v7.571h-.039a6.8,6.8,0,0,0,1.829,1.829v-.039h7.571v.039a6.808,6.808,0,0,0,1.829-1.829h-.039Z" transform="translate(-2542.142 -882.46)" fill="aqua"/>
            <path id="Path_105" data-name="Path 105" d="M2552.6,887.345v-3.467h.144q-.084-.138-.174-.271a6.722,6.722,0,0,0-1.806-1.806q-.133-.09-.271-.174v.143h-6.935v-.143q-.138.084-.271.174a6.727,6.727,0,0,0-1.806,1.806q-.09.133-.174.271h.144v6.935h-.144q.084.138.174.271a6.728,6.728,0,0,0,1.806,1.806q.133.09.271.174v-.143h6.935v.143q.138-.084.271-.174a6.723,6.723,0,0,0,1.806-1.806q.09-.133.174-.271h-.144Z" transform="translate(-2541.515 -881.833)" fill="aqua"/>
            <path id="Path_106" data-name="Path 106" d="M2552.077,886.821v-3.148h.231q-.153-.281-.331-.544a6.637,6.637,0,0,0-1.784-1.784c-.175-.119-.357-.229-.544-.331v.231h-6.3v-.231q-.281.152-.544.331a6.635,6.635,0,0,0-1.783,1.784q-.178.263-.331.544h.231v6.3h-.231q.153.281.331.544a6.636,6.636,0,0,0,1.783,1.784q.263.178.544.331V892.4h6.3v.231c.187-.1.369-.212.544-.331a6.638,6.638,0,0,0,1.784-1.784q.178-.264.331-.544h-.231Z" transform="translate(-2540.99 -881.31)" fill="aqua"/>
            <path id="Path_107" data-name="Path 107" d="M2552.518,887.261v-3.108h.157c-.1-.185-.209-.364-.326-.538a6.567,6.567,0,0,0-1.761-1.761q-.261-.176-.538-.327v.158h-6.215v-.158c-.185.1-.364.21-.538.327a6.552,6.552,0,0,0-1.761,1.761q-.176.26-.327.538h.157v6.215h-.157q.15.277.327.537a6.554,6.554,0,0,0,1.761,1.761c.173.117.353.226.538.327v-.158h6.215v.158q.277-.151.538-.327a6.568,6.568,0,0,0,1.761-1.761c.117-.173.226-.353.326-.537h-.157Z" transform="translate(-2541.431 -881.749)" fill="aqua"/>
            <path id="Path_108" data-name="Path 108" d="M2552.958,887.7v-3.068h.084q-.149-.274-.322-.531a6.486,6.486,0,0,0-1.738-1.738q-.257-.173-.531-.322v.084h-6.135v-.084q-.274.149-.531.322a6.464,6.464,0,0,0-1.739,1.738q-.174.257-.322.531h.084v6.136h-.084q.148.274.322.531a6.459,6.459,0,0,0,1.739,1.738q.257.173.531.322v-.084h6.135v.084q.274-.148.531-.322a6.481,6.481,0,0,0,1.738-1.738q.174-.257.322-.531h-.084Z" transform="translate(-2541.872 -882.19)" fill="aqua"/>
            <path id="Path_109" data-name="Path 109" d="M2551.8,886.539v-2.473h.278a6.375,6.375,0,0,0-3.38-3.381v.278h-4.945v-.278a6.375,6.375,0,0,0-3.381,3.381h.278v4.945h-.278a6.375,6.375,0,0,0,3.381,3.381v-.278h4.945v.278a6.375,6.375,0,0,0,3.38-3.381h-.278Z" transform="translate(-2540.709 -881.028)" fill="aqua"/>
            <path id="Path_110" data-name="Path 110" d="M2552.257,887v-2.44h.2a6.292,6.292,0,0,0-3.336-3.336v.2h-4.88v-.2a6.292,6.292,0,0,0-3.336,3.336h.2v4.88h-.2a6.292,6.292,0,0,0,3.336,3.336v-.2h4.88v.2a6.292,6.292,0,0,0,3.336-3.336h-.2Z" transform="translate(-2541.171 -881.489)" fill="aqua"/>
            <path id="Path_111" data-name="Path 111" d="M2552.719,887.462v-2.408h.124a6.21,6.21,0,0,0-3.292-3.292v.124h-4.815v-.124a6.207,6.207,0,0,0-3.292,3.292h.124v4.815h-.124a6.207,6.207,0,0,0,3.292,3.292v-.124h4.815v.124a6.21,6.21,0,0,0,3.292-3.292h-.124Z" transform="translate(-2541.632 -881.951)" fill="aqua"/>
            <path id="Path_112" data-name="Path 112" d="M2553.179,887.923v-2.375h.047a6.126,6.126,0,0,0-3.248-3.247v.047h-4.75V882.3a6.123,6.123,0,0,0-3.247,3.247h.047v4.75h-.047a6.123,6.123,0,0,0,3.247,3.247V893.5h4.75v.047a6.126,6.126,0,0,0,3.248-3.247h-.047Z" transform="translate(-2542.093 -882.412)" fill="aqua"/>
            <path id="Path_113" data-name="Path 113" d="M2552.429,887.173v-1.79h.172q-.088-.283-.2-.553a6.037,6.037,0,0,0-3.2-3.2q-.27-.114-.553-.2v.172h-3.579v-.172q-.283.088-.553.2a6.04,6.04,0,0,0-3.2,3.2q-.114.27-.2.553h.172v3.579h-.172q.088.283.2.553a6.04,6.04,0,0,0,3.2,3.2q.27.114.553.2v-.172h3.579v.172q.283-.088.553-.2a6.038,6.038,0,0,0,3.2-3.2q.114-.27.2-.553h-.172Z" transform="translate(-2541.342 -881.661)" fill="aqua"/>
            <path id="Path_114" data-name="Path 114" d="M2552.031,886.775v-1.2h.239a5.932,5.932,0,0,0-4.618-4.618v.239h-2.392v-.239a5.878,5.878,0,0,0-1.114.346,5.932,5.932,0,0,0-3.5,4.272h.239v2.392h-.239a5.931,5.931,0,0,0,4.618,4.618v-.239h2.392v.239a5.932,5.932,0,0,0,4.618-4.618h-.239Z" transform="translate(-2540.945 -881.263)" fill="aqua"/>
            <circle id="Ellipse_18" data-name="Ellipse 18" cx="5.851" cy="5.851" r="5.851" transform="translate(-0.339 -0.339)" fill="aqua"/>
            <circle id="Ellipse_19" data-name="Ellipse 19" cx="5.767" cy="5.767" r="5.767" transform="translate(-0.256 -0.256)" fill="aqua"/>
            <circle id="Ellipse_20" data-name="Ellipse 20" cx="5.684" cy="5.684" r="5.684" transform="translate(-0.172 -0.172)" fill="aqua"/>
            <circle id="Ellipse_21" data-name="Ellipse 21" cx="5.6" cy="5.6" r="5.6" transform="translate(-0.089 -0.089)" fill="aqua"/>
            <circle id="Ellipse_22" data-name="Ellipse 22" cx="5.517" cy="5.517" r="5.517" transform="translate(-0.005 -0.005)" fill="aqua"/>
            <circle id="Ellipse_23" data-name="Ellipse 23" cx="5.433" cy="5.433" r="5.433" transform="translate(0.079 0.079)" fill="aqua"/>
            <circle id="Ellipse_24" data-name="Ellipse 24" cx="5.349" cy="5.349" r="5.349" transform="translate(0.162 0.162)" fill="aqua"/>
            <circle id="Ellipse_25" data-name="Ellipse 25" cx="5.266" cy="5.266" r="5.266" transform="translate(0.246 0.246)" fill="aqua"/>
            <circle id="Ellipse_26" data-name="Ellipse 26" cx="5.182" cy="5.182" r="5.182" transform="translate(0.329 0.329)" fill="aqua"/>
            <circle id="Ellipse_27" data-name="Ellipse 27" cx="5.099" cy="5.099" r="5.099" transform="translate(0.413 0.413)" fill="aqua"/>
            <circle id="Ellipse_28" data-name="Ellipse 28" cx="5.015" cy="5.015" r="5.015" transform="translate(0.496 0.496)" fill="aqua"/>
            <circle id="Ellipse_29" data-name="Ellipse 29" cx="4.931" cy="4.931" r="4.931" transform="translate(0.58 0.58)" fill="aqua"/>
            <circle id="Ellipse_30" data-name="Ellipse 30" cx="4.848" cy="4.848" r="4.848" transform="translate(0.664 0.664)" fill="aqua"/>
            <circle id="Ellipse_31" data-name="Ellipse 31" cx="4.764" cy="4.764" r="4.764" transform="translate(0.747 0.747)" fill="aqua"/>
            <circle id="Ellipse_32" data-name="Ellipse 32" cx="4.681" cy="4.681" r="4.681" transform="translate(0.831 0.831)" fill="aqua"/>
            <circle id="Ellipse_33" data-name="Ellipse 33" cx="4.597" cy="4.597" r="4.597" transform="translate(0.914 0.914)" fill="aqua"/>
            <circle id="Ellipse_34" data-name="Ellipse 34" cx="4.514" cy="4.514" r="4.514" transform="translate(0.998 0.998)" fill="aqua"/>
            <circle id="Ellipse_35" data-name="Ellipse 35" cx="4.43" cy="4.43" r="4.43" transform="translate(1.082 1.082)" fill="aqua"/>
            <circle id="Ellipse_36" data-name="Ellipse 36" cx="4.346" cy="4.346" r="4.346" transform="translate(1.165 1.165)" fill="aqua"/>
            <circle id="Ellipse_37" data-name="Ellipse 37" cx="4.263" cy="4.263" r="4.263" transform="translate(1.249 1.249)" fill="aqua"/>
            <circle id="Ellipse_38" data-name="Ellipse 38" cx="4.179" cy="4.179" r="4.179" transform="translate(1.332 1.332)" fill="aqua"/>
            <circle id="Ellipse_39" data-name="Ellipse 39" cx="4.096" cy="4.096" r="4.096" transform="translate(1.416 1.416)" fill="aqua"/>
            <circle id="Ellipse_40" data-name="Ellipse 40" cx="4.012" cy="4.012" r="4.012" transform="translate(1.499 1.499)" fill="aqua"/>
            <circle id="Ellipse_41" data-name="Ellipse 41" cx="3.928" cy="3.928" r="3.928" transform="translate(1.583 1.583)" fill="aqua"/>
            <circle id="Ellipse_42" data-name="Ellipse 42" cx="3.845" cy="3.845" r="3.845" transform="translate(1.667 1.667)" fill="aqua"/>
            <circle id="Ellipse_43" data-name="Ellipse 43" cx="3.761" cy="3.761" r="3.761" transform="translate(1.75 1.75)" fill="aqua"/>
            <circle id="Ellipse_44" data-name="Ellipse 44" cx="3.678" cy="3.678" r="3.678" transform="translate(1.834 1.834)" fill="aqua"/>
            <circle id="Ellipse_45" data-name="Ellipse 45" cx="3.594" cy="3.594" r="3.594" transform="translate(1.917 1.917)" fill="aqua"/>
            <circle id="Ellipse_46" data-name="Ellipse 46" cx="3.511" cy="3.511" r="3.511" transform="translate(2.001 2.001)" fill="aqua"/>
            <circle id="Ellipse_47" data-name="Ellipse 47" cx="3.427" cy="3.427" r="3.427" transform="translate(2.085 2.085)" fill="aqua"/>
            <circle id="Ellipse_48" data-name="Ellipse 48" cx="3.343" cy="3.343" r="3.343" transform="translate(2.168 2.168)" fill="aqua"/>
            <circle id="Ellipse_49" data-name="Ellipse 49" cx="3.26" cy="3.26" r="3.26" transform="translate(2.252 2.252)" fill="aqua"/>
            <circle id="Ellipse_50" data-name="Ellipse 50" cx="3.176" cy="3.176" r="3.176" transform="translate(2.335 2.335)" fill="aqua"/>
            <circle id="Ellipse_51" data-name="Ellipse 51" cx="3.093" cy="3.093" r="3.093" transform="translate(2.419 2.419)" fill="aqua"/>
            <circle id="Ellipse_52" data-name="Ellipse 52" cx="3.009" cy="3.009" r="3.009" transform="translate(2.502 2.503)" fill="aqua"/>
            <circle id="Ellipse_53" data-name="Ellipse 53" cx="2.925" cy="2.925" r="2.925" transform="translate(2.586 2.586)" fill="aqua"/>
            <circle id="Ellipse_54" data-name="Ellipse 54" cx="2.842" cy="2.842" r="2.842" transform="translate(2.67 2.67)" fill="aqua"/>
            <circle id="Ellipse_55" data-name="Ellipse 55" cx="2.758" cy="2.758" r="2.758" transform="translate(2.753 2.753)" fill="aqua"/>
            <circle id="Ellipse_56" data-name="Ellipse 56" cx="2.675" cy="2.675" r="2.675" transform="translate(2.837 2.837)" fill="aqua"/>
            <circle id="Ellipse_57" data-name="Ellipse 57" cx="2.591" cy="2.591" r="2.591" transform="translate(2.92 2.92)" fill="aqua"/>
            <circle id="Ellipse_58" data-name="Ellipse 58" cx="2.508" cy="2.508" r="2.508" transform="translate(3.004 3.004)" fill="aqua"/>
            <circle id="Ellipse_59" data-name="Ellipse 59" cx="2.424" cy="2.424" r="2.424" transform="translate(3.088 3.088)" fill="aqua"/>
            <circle id="Ellipse_60" data-name="Ellipse 60" cx="2.34" cy="2.34" r="2.34" transform="translate(3.171 3.171)" fill="aqua"/>
            <circle id="Ellipse_61" data-name="Ellipse 61" cx="2.257" cy="2.257" r="2.257" transform="translate(3.255 3.255)" fill="aqua"/>
            <circle id="Ellipse_62" data-name="Ellipse 62" cx="2.173" cy="2.173" r="2.173" transform="translate(3.338 3.338)" fill="aqua"/>
            <circle id="Ellipse_63" data-name="Ellipse 63" cx="2.09" cy="2.09" r="2.09" transform="translate(3.422 3.422)" fill="aqua"/>
            <circle id="Ellipse_64" data-name="Ellipse 64" cx="2.006" cy="2.006" r="2.006" transform="translate(3.505 3.506)" fill="aqua"/>
            <circle id="Ellipse_65" data-name="Ellipse 65" cx="1.922" cy="1.922" r="1.922" transform="translate(3.589 3.589)" fill="aqua"/>
            <circle id="Ellipse_66" data-name="Ellipse 66" cx="1.839" cy="1.839" r="1.839" transform="translate(3.673 3.673)" fill="aqua"/>
            <circle id="Ellipse_67" data-name="Ellipse 67" cx="1.755" cy="1.755" r="1.755" transform="translate(3.756 3.756)" fill="aqua"/>
            <circle id="Ellipse_68" data-name="Ellipse 68" cx="1.672" cy="1.672" r="1.672" transform="translate(3.84 3.84)" fill="aqua"/>
            <circle id="Ellipse_69" data-name="Ellipse 69" cx="1.588" cy="1.588" r="1.588" transform="translate(3.923 3.923)" fill="aqua"/>
            <circle id="Ellipse_70" data-name="Ellipse 70" cx="1.505" cy="1.505" r="1.505" transform="translate(4.007 4.007)" fill="aqua"/>
            <circle id="Ellipse_71" data-name="Ellipse 71" cx="1.421" cy="1.421" r="1.421" transform="translate(4.091 4.091)" fill="aqua"/>
            <circle id="Ellipse_72" data-name="Ellipse 72" cx="1.337" cy="1.337" r="1.337" transform="translate(4.174 4.174)" fill="aqua"/>
            <circle id="Ellipse_73" data-name="Ellipse 73" cx="1.254" cy="1.254" r="1.254" transform="translate(4.258 4.258)" fill="aqua"/>
            <circle id="Ellipse_74" data-name="Ellipse 74" cx="1.17" cy="1.17" r="1.17" transform="translate(4.341 4.341)" fill="aqua"/>
            <circle id="Ellipse_75" data-name="Ellipse 75" cx="1.087" cy="1.087" r="1.087" transform="translate(4.425 4.425)" fill="aqua"/>
            <circle id="Ellipse_76" data-name="Ellipse 76" cx="1.003" cy="1.003" r="1.003" transform="translate(4.508 4.509)" fill="aqua"/>
            <circle id="Ellipse_77" data-name="Ellipse 77" cx="0.919" cy="0.919" r="0.919" transform="translate(4.592 4.592)" fill="aqua"/>
            <circle id="Ellipse_78" data-name="Ellipse 78" cx="0.836" cy="0.836" r="0.836" transform="translate(4.676 4.676)" fill="aqua"/>
            <circle id="Ellipse_79" data-name="Ellipse 79" cx="0.752" cy="0.752" r="0.752" transform="translate(4.759 4.759)" fill="aqua"/>
            <circle id="Ellipse_80" data-name="Ellipse 80" cx="0.669" cy="0.669" r="0.669" transform="translate(4.843 4.843)" fill="aqua"/>
            <circle id="Ellipse_81" data-name="Ellipse 81" cx="0.585" cy="0.585" r="0.585" transform="translate(4.926 4.926)" fill="aqua"/>
            <circle id="Ellipse_82" data-name="Ellipse 82" cx="0.502" cy="0.502" r="0.502" transform="translate(5.01 5.01)" fill="aqua"/>
            <circle id="Ellipse_83" data-name="Ellipse 83" cx="0.418" cy="0.418" r="0.418" transform="translate(5.094 5.094)" fill="aqua"/>
            <circle id="Ellipse_84" data-name="Ellipse 84" cx="0.334" cy="0.334" r="0.334" transform="translate(5.177 5.177)" fill="aqua"/>
            <circle id="Ellipse_85" data-name="Ellipse 85" cx="0.251" cy="0.251" r="0.251" transform="translate(5.261 5.261)" fill="aqua"/>
            <circle id="Ellipse_86" data-name="Ellipse 86" cx="0.167" cy="0.167" r="0.167" transform="translate(5.344 5.344)" fill="aqua"/>
            <circle id="Ellipse_87" data-name="Ellipse 87" cx="0.084" cy="0.084" r="0.084" transform="translate(5.428 5.428)" fill="aqua"/>
          </g>
        </g>
      </g>
    </g>
  </g>
</svg>
