<svg xmlns="http://www.w3.org/2000/svg" width="78.998" height="78.998" viewBox="0 0 78.998 78.998">
  <g id="Group_401" data-name="Group 401" transform="translate(-147.001 -271.001)">
    <g id="user" transform="translate(71.179 256.461)">
      <g id="Group_396" data-name="Group 396" transform="translate(93.62 29.891)">
        <g id="Group_393" data-name="Group 393" transform="translate(0 0)">
          <g id="XMLID_27_">
            <g id="Group_392" data-name="Group 392">
              <path id="Path_1726" data-name="Path 1726" d="M120.863,229.212v3.2h-.747v14.212a29.209,29.209,0,0,1-26.5-6.723v-.017a19.573,19.573,0,0,1,11.171-17.682,11.175,11.175,0,0,0,16.809,0q.823.392,1.6.857A9.226,9.226,0,0,0,120.863,229.212Z" transform="translate(-93.62 -197.561)" fill="#1ea6c6"/>
              <path id="Path_1727" data-name="Path 1727" d="M172.712,29.891a10.827,10.827,0,0,1,10.827,10.826c0,5.981-4.848,14.159-10.827,14.159S161.885,46.7,161.885,40.717A10.827,10.827,0,0,1,172.712,29.891Z" transform="translate(-153.137 -29.891)" fill="#fcd09f"/>
            </g>
          </g>
        </g>
      </g>
      <g id="Group_397" data-name="Group 397" transform="translate(121.91 54.066)">
        <path id="Path_1730" data-name="Path 1730" d="M335.163,231.015h-1.922v-5a5.553,5.553,0,0,0-11.107,0v5h-1.922v-5a7.476,7.476,0,0,1,14.951,0Z" transform="translate(-319.465 -218.542)" fill="#b3b3b3"/>
        <rect id="Rectangle_303" data-name="Rectangle 303" width="16.446" height="15.228" transform="translate(0 12.473)" fill="#ef806f"/>
      </g>
    </g>
    <path id="Icon_material-do-not-disturb-alt" data-name="Icon material-do-not-disturb-alt" d="M42.5,3A39.5,39.5,0,1,0,82,42.5,39.615,39.615,0,0,0,42.5,3ZM10.9,42.5A31.692,31.692,0,0,1,42.5,10.9a31.129,31.129,0,0,1,19.355,6.715L17.615,61.854A31.129,31.129,0,0,1,10.9,42.5ZM42.5,74.1a31.129,31.129,0,0,1-19.355-6.715L67.384,23.145A31.129,31.129,0,0,1,74.1,42.5,31.692,31.692,0,0,1,42.5,74.1Z" transform="translate(144.001 268.001)" fill="#03c6db"/>
  </g>
</svg>
