<svg xmlns="http://www.w3.org/2000/svg" width="10.406" height="10.406" viewBox="0 0 10.406 10.406">
  <path id="Icon_material-person-outline" data-name="Icon material-person-outline" d="M11.2,7.236A1.366,1.366,0,1,1,9.837,8.6,1.366,1.366,0,0,1,11.2,7.236m0,5.854c1.932,0,3.967.95,3.967,1.366v.715H7.236v-.715c0-.416,2.036-1.366,3.967-1.366M11.2,6a2.6,2.6,0,1,0,2.6,2.6A2.6,2.6,0,0,0,11.2,6Zm0,5.854c-1.737,0-5.2.872-5.2,2.6v1.951H16.406V14.455C16.406,12.725,12.94,11.854,11.2,11.854Z" transform="translate(-6 -6)" fill="#fff"/>
</svg>
