<svg xmlns="http://www.w3.org/2000/svg" width="72.337" height="70.553" viewBox="0 0 72.337 70.553">
  <g id="Group_617" data-name="Group 617" transform="translate(-742.946 -708.952)">
    <path id="Path_2375" data-name="Path 2375" d="M742.955,749.562q0-13.055-.009-26.109a1.946,1.946,0,0,1,.894-1.692c.906-.69,1.656-1.566,2.508-2.33,2.04-1.827,3.977-3.768,5.993-5.623,1.543-1.42,3.121-2.8,4.6-4.287a2.147,2.147,0,0,1,1.579-.563c10.042,0,20.084-.026,30.126.021a4.074,4.074,0,0,1,4.11,4.158c.023,10.872.007,21.744.02,32.616a1.622,1.622,0,0,1-.51,1.252c-.681.7-1.287,1.464-1.927,2.2-.1.112-.174.3-.373.209-.158-.07-.081-.232-.089-.353-.013-.187,0-.375,0-.562q0-17.433,0-34.865c0-1.241-.525-1.779-1.769-1.779q-14.059,0-28.117-.014c-.526,0-.662.137-.658.66.024,3.294.013,6.587.012,9.881,0,1.1-.428,1.522-1.53,1.523-3.749,0-7.5.017-11.247-.016-.613-.005-.735.162-.735.75q.026,25.225.014,50.451c0,1.1.429,1.523,1.53,1.523h40.971a1.443,1.443,0,0,0,1.528-1.6c0-3.026.01-6.052-.007-9.078a1.29,1.29,0,0,1,.506-1.194,24.011,24.011,0,0,0,1.894-1.848c.107-.105.191-.295.378-.236.207.066.119.269.119.411,0,4.2.069,8.41-.024,12.612a4.032,4.032,0,0,1-3.972,3.821q-21.007,0-42.015,0a3.983,3.983,0,0,1-3.8-3.833Q742.953,762.617,742.955,749.562Z" transform="translate(0)" fill="#03c6db"/>
    <path id="Path_2376" data-name="Path 2376" d="M979.411,953.142a7.824,7.824,0,0,0,3.815,4.622,5.655,5.655,0,0,0,1.754.659c.384.06.456.2.167.5-1.88,1.989-3.564,4.162-5.568,6.035a73.839,73.839,0,0,1-9.962,8.349c-.953.619-1.916,1.371-3.211.883-.276-.1-.372.205-.506.406-.227.341-.565.58-.926.241-.323-.3-.146-.649.161-.883a1.4,1.4,0,0,0,.514-1.257c0-1.477.869-2.65,1.56-3.834a88.317,88.317,0,0,1,6.39-9.286,55.285,55.285,0,0,1,3.793-4.286A16.054,16.054,0,0,1,979.411,953.142Z" transform="translate(-186.205 -204.95)" fill="#738584"/>
    <path id="Path_2377" data-name="Path 2377" d="M811.278,890.047q-7.307,0-14.614,0a1.473,1.473,0,0,1-1.668-1.5,1.488,1.488,0,0,1,1.7-1.552q14.534,0,29.067,0a1.539,1.539,0,0,1,1.718,1.075,1.448,1.448,0,0,1-.462,1.69,1.551,1.551,0,0,1-1.123.294Q818.585,890.041,811.278,890.047Z" transform="translate(-43.686 -149.43)" fill="#fcd09f"/>
    <path id="Path_2378" data-name="Path 2378" d="M811.289,984.05H796.757c-1.1,0-1.746-.549-1.76-1.487-.015-.982.629-1.564,1.769-1.564q14.532,0,29.065,0a1.553,1.553,0,1,1-.009,3.073C820.978,984.022,816.133,984.05,811.289,984.05Z" transform="translate(-43.686 -228.328)" fill="#fcd09f"/>
    <path id="Path_2379" data-name="Path 2379" d="M811.42,938.052c-4.791,0-9.583.018-14.374-.02-.722-.006-1.544-.031-1.83-1.02-.354-1.225.161-2.013,1.409-2.013q14.7,0,29.391,0a1.514,1.514,0,0,1,1.691,1.375,1.77,1.77,0,0,1-1.592,1.674,5.1,5.1,0,0,1-.562,0Z" transform="translate(-43.779 -189.722)" fill="#ef806f"/>
    <path id="Path_2380" data-name="Path 2380" d="M811.32,841h14.531c1.036,0,1.7.534,1.748,1.4a1.77,1.77,0,0,1-1.7,1.653c-.106.007-.214,0-.321,0q-14.29,0-28.58,0a1.756,1.756,0,0,1-1.851-.917A1.419,1.419,0,0,1,796.468,841Q803.894,840.992,811.32,841Z" transform="translate(-43.67 -110.824)" fill="#ef806f"/>
    <path id="Path_2381" data-name="Path 2381" d="M808.333,1031.043h-11.72a1.528,1.528,0,1,1-.064-3.053c.08,0,.161,0,.241,0q11.56,0,23.12,0a1.594,1.594,0,0,1,1.745,1.279,1.493,1.493,0,0,1-1.44,1.771Q814.273,1031.047,808.333,1031.043Z" transform="translate(-43.678 -267.769)" fill="#738584"/>
    <path id="Path_2382" data-name="Path 2382" d="M1083.021,845.055a5.347,5.347,0,0,0-2.683-5.107,5.931,5.931,0,0,0-7.6,1.1c-1.46,1.629-2.864,3.309-4.32,4.942-1.585,1.779-3.229,3.506-4.782,5.312a5.984,5.984,0,0,0-1.073,1.346,6.242,6.242,0,0,0,2.313,7.983c2.256,1.405,4.569,1.365,6.328-.229,1.558-1.412,2.852-3.074,4.273-4.615,1.985-2.152,3.846-4.418,5.825-6.576A5.377,5.377,0,0,0,1083.021,845.055Zm-3.747,2.315-6.039,6.807a16.076,16.076,0,0,0-1.9,2.22c-.152.247-.4.468-.725.188a.614.614,0,0,1-.164-.9,17.631,17.631,0,0,1,1.865-2.141c1.536-1.818,3.182-3.541,4.78-5.306a8.579,8.579,0,0,0,1.021-1.2,1.755,1.755,0,0,0,.246-1.837.614.614,0,0,1,.354-.975c.492-.191.654.171.8.527a3.231,3.231,0,0,1,.3,1.278A2.021,2.021,0,0,1,1079.275,847.37Z" transform="translate(-267.754 -109.174)" fill="#03c6db"/>
  </g>
</svg>
