<svg xmlns="http://www.w3.org/2000/svg" width="32.861" height="32.861" viewBox="0 0 32.861 32.861">
  <g id="Group_363" data-name="Group 363" transform="translate(-222.57 -684.57)">
    <path id="Exclusion_1" data-name="Exclusion 1" d="M2774.46,785.108a.3.3,0,0,1-.253-.143.292.292,0,0,1-.013-.289l1.431-2.909a10.716,10.716,0,0,1-1.842-1.2,8.236,8.236,0,0,1-1.408-1.454,6.351,6.351,0,0,1-.9-1.659,5.356,5.356,0,0,1-.087-3.364,6.027,6.027,0,0,1,.657-1.442,7.424,7.424,0,0,1,1.04-1.305,9.359,9.359,0,0,1,1.377-1.138,11.524,11.524,0,0,1,1.669-.938,13.558,13.558,0,0,1,1.916-.709,16.259,16.259,0,0,1,8.78,0,13.582,13.582,0,0,1,1.916.709,11.53,11.53,0,0,1,1.669.938,9.363,9.363,0,0,1,1.377,1.138,7.427,7.427,0,0,1,1.04,1.306,6.046,6.046,0,0,1,.657,1.442,5.347,5.347,0,0,1,0,3.1,6.053,6.053,0,0,1-.657,1.443,7.424,7.424,0,0,1-1.04,1.306,9.38,9.38,0,0,1-1.378,1.138,11.557,11.557,0,0,1-1.669.938,13.641,13.641,0,0,1-1.916.709,15.855,15.855,0,0,1-4.39.6,16.46,16.46,0,0,1-2.549-.2l-5.324,1.959A.3.3,0,0,1,2774.46,785.108Zm12.77-10.265a1.1,1.1,0,1,0,1.1,1.1A1.1,1.1,0,0,0,2787.23,774.843Zm-3.194,0a1.1,1.1,0,1,0,1.1,1.1A1.1,1.1,0,0,0,2784.037,774.843Zm-3.194,0a1.1,1.1,0,1,0,1.1,1.1A1.1,1.1,0,0,0,2780.843,774.843Zm-3.194,0a1.1,1.1,0,1,0,1.1,1.1A1.1,1.1,0,0,0,2777.648,774.843Z" transform="translate(-2543.441 -74.611)" fill="gold"/>
    <g id="Path_497" data-name="Path 497" transform="translate(222.57 684.57)" fill="none">
      <path d="M16.43,0A16.43,16.43,0,1,1,0,16.43,16.43,16.43,0,0,1,16.43,0Z" stroke="none"/>
      <path d="M 16.4302978515625 0.9999980926513672 C 12.30871772766113 0.9999980926513672 8.433828353881836 2.60502815246582 5.519428253173828 5.519428253173828 C 2.60502815246582 8.433828353881836 0.9999980926513672 12.30871772766113 0.9999980926513672 16.4302978515625 C 0.9999980926513672 20.55187797546387 2.60502815246582 24.4267692565918 5.519428253173828 27.34116744995117 C 8.433828353881836 30.25556755065918 12.30871772766113 31.86059761047363 16.4302978515625 31.86059761047363 C 20.55187797546387 31.86059761047363 24.4267692565918 30.25556755065918 27.34116744995117 27.34116744995117 C 30.25556755065918 24.4267692565918 31.86059761047363 20.55187797546387 31.86059761047363 16.4302978515625 C 31.86059761047363 12.30871772766113 30.25556755065918 8.433828353881836 27.34116744995117 5.519428253173828 C 24.4267692565918 2.60502815246582 20.55187797546387 0.9999980926513672 16.4302978515625 0.9999980926513672 M 16.4302978515625 -3.814697265625e-06 C 25.50449752807617 -3.814697265625e-06 32.86059951782227 7.356098175048828 32.86059951782227 16.4302978515625 C 32.86059951782227 25.50449752807617 25.50449752807617 32.86059951782227 16.4302978515625 32.86059951782227 C 7.356098175048828 32.86059951782227 -3.814697265625e-06 25.50449752807617 -3.814697265625e-06 16.4302978515625 C -3.814697265625e-06 7.356098175048828 7.356098175048828 -3.814697265625e-06 16.4302978515625 -3.814697265625e-06 Z" stroke="none" fill="gold"/>
    </g>
  </g>
</svg>
