<svg xmlns="http://www.w3.org/2000/svg" width="20.267" height="20.219" viewBox="0 0 20.267 20.219">
  <g id="zoroastrianism" transform="translate(0 -0.6)">
    <g id="Group_98" data-name="Group 98" transform="translate(0.297 0.897)">
      <path id="Path_683" data-name="Path 683" d="M181.606,363.017l.964,3.523a1.522,1.522,0,0,1-1.253,1.906,14.047,14.047,0,0,1-4.055,0,1.522,1.522,0,0,1-1.253-1.906l.964-3.523" transform="translate(-169.287 -348.968)" fill="#f6e266"/>
      <path id="Path_684" data-name="Path 684" d="M22.539,214.826H12.134A4.634,4.634,0,0,1,7.5,210.192v-1.474H27.173v1.474A4.634,4.634,0,0,1,22.539,214.826Z" transform="translate(-7.5 -200.777)" fill="#e27d47"/>
      <path id="Path_685" data-name="Path 685" d="M28.407,208.719a4.635,4.635,0,0,1-4.581,3.929H13.421a4.635,4.635,0,0,1-4.581-3.929" transform="translate(-8.787 -200.778)" fill="#f6e266"/>
      <path id="Path_686" data-name="Path 686" d="M51.649,208.719a4.623,4.623,0,0,1-3.582,1.694H37.661a4.623,4.623,0,0,1-3.581-1.694" transform="translate(-33.028 -200.778)" fill="#e27d47"/>
      <path id="Path_687" data-name="Path 687" d="M155.905,203.866a4.125,4.125,0,1,1,4.125-4.125A4.13,4.13,0,0,1,155.905,203.866Zm0-6.667a2.542,2.542,0,1,0,2.542,2.542A2.545,2.545,0,0,0,155.905,197.2Z" transform="translate(-146.069 -188.192)" fill="#5e6b75"/>
      <path id="Path_688" data-name="Path 688" d="M190.853,100.956h-5.147l-.192-2.4-.123-1.546,2.328.794.451.154-.178-1.524.275-1.54.243-1.364,1.767,1.859,1.642,3.976A1.153,1.153,0,0,1,190.853,100.956Z" transform="translate(-178.349 -90.146)" fill="#f6e266"/>
      <path id="Path_689" data-name="Path 689" d="M252.516,129.452l-1.219-.416-.178-1.524.275-1.54.572-.083Z" transform="translate(-241.477 -121.227)" fill="#eab14d"/>
      <path id="Path_690" data-name="Path 690" d="M193.849,222.891H188.7l-.192-2.4c3.18,1.35,5.524,1.691,6.405.809A1.153,1.153,0,0,1,193.849,222.891Z" transform="translate(-181.345 -212.081)" fill="#eab14d"/>
      <path id="Path_691" data-name="Path 691" d="M215.145,65.845l-.288,2.375a.783.783,0,0,0,1.43.529l1.08-1.62-.128-2.424Z" transform="translate(-206.644 -62.463)" fill="#934d36"/>
      <path id="Path_692" data-name="Path 692" d="M206.709,27.519H204.34l1.027-1.763,1.974-.958.2,2.527Z" transform="translate(-196.548 -24.138)" fill="#f1d0a5"/>
      <path id="Path_693" data-name="Path 693" d="M255.762,49l.966,2.673a.788.788,0,0,1-.33.94l-.012.007a.788.788,0,0,1-1.163-.436l-1-3.184" transform="translate(-244.456 -47.377)" fill="#aa593d"/>
      <path id="Path_694" data-name="Path 694" d="M219.41,8.1h-3.636l.574,1.619h2.488Z" transform="translate(-207.53 -8.099)" fill="#f6e266"/>
      <path id="Path_695" data-name="Path 695" d="M148.268,177.015l-.9-.172a.526.526,0,0,0-.591.7,3.027,3.027,0,0,0,1.672,1.677" transform="translate(-141.227 -170.154)" fill="#f1d0a5"/>
    </g>
    <path id="Path_696" data-name="Path 696" d="M13.555,15.243h1.781a4.936,4.936,0,0,0,4.93-4.93V8.838a.3.3,0,0,0-.3-.3H13.539l-.954-2.31a1.088,1.088,0,0,0,.263-1.144l-.135-.374a.3.3,0,0,0-.558.2l.135.375a.492.492,0,0,1-.206.586l-.012.007a.491.491,0,0,1-.725-.272l-.879-2.8h.927l.358.991a.3.3,0,1,0,.558-.2l-.393-1.087L12.457,1a.3.3,0,0,0-.28-.4H8.541a.3.3,0,0,0-.28.4l.528,1.489L7.832,4.129a.3.3,0,0,0,.257.446h.375L8.216,6.617A1.08,1.08,0,0,0,9.707,7.743l.062.53-2.335-.8a.3.3,0,0,0-.04-.01h0L6.835,7.36A1.912,1.912,0,0,0,3.2,8.541H.3a.3.3,0,0,0-.3.3v1.474a4.936,4.936,0,0,0,4.93,4.93H6.711a4.459,4.459,0,0,0,.7.682l-.039.144a5.089,5.089,0,0,0-2.75,1.272c-1.35.955-2.22,1.487-2.893.825A.71.71,0,0,1,2.8,17.237a.3.3,0,0,0,.447-.391,1.3,1.3,0,0,0-1.962,1.717l.013.014a1.519,1.519,0,0,0,1.107.473,2.149,2.149,0,0,0,.732-.141,8.51,8.51,0,0,0,1.824-1.085,5.409,5.409,0,0,1,2.244-1.161l-.472,1.726a1.819,1.819,0,0,0,1.5,2.278,14.322,14.322,0,0,0,4.14,0c.041-.006.082-.013.121-.022a.3.3,0,1,0-.127-.58c-.025.005-.05.01-.078.014a13.729,13.729,0,0,1-3.969,0,1.233,1.233,0,0,1-.853-.544,1.221,1.221,0,0,1-.156-.99l.621-2.271a4.414,4.414,0,0,0,4.7-.179l.67,2.45a1.214,1.214,0,0,1-.189,1.038.3.3,0,1,0,.481.348,1.806,1.806,0,0,0,.281-1.543L13.4,16.67a5.659,5.659,0,0,1,2.192,1.156,8.509,8.509,0,0,0,1.824,1.085,2.147,2.147,0,0,0,.732.141,1.519,1.519,0,0,0,1.107-.473l.013-.014A1.3,1.3,0,0,0,17.3,16.846a.3.3,0,0,0,.447.391.71.71,0,0,1,1.075.928c-.673.663-1.543.13-2.893-.825a5.237,5.237,0,0,0-2.7-1.273l-.1-.373a4.45,4.45,0,0,0,.426-.452Zm1.781-.594h-1.37a4.39,4.39,0,0,0,.546-1.585h.824a4.931,4.931,0,0,0,4.333-2.577A4.342,4.342,0,0,1,15.336,14.649Zm3.719-5.514h.5a4.337,4.337,0,0,1-4.22,3.336h-.781c0-.009,0-.017,0-.026a4.383,4.383,0,0,0-.306-1.616h1.087A4.914,4.914,0,0,0,19.055,9.135Zm-.833,0a4.32,4.32,0,0,1-2.886,1.1H14.216A1.457,1.457,0,0,0,14.142,10l-.357-.865ZM11.757,1.194l-.364,1.025H9.325L8.961,1.194ZM9.286,2.813h.559l.367,1.169H8.6Zm0,4.421A.487.487,0,0,1,8.8,6.689l.256-2.114H10.4l.3.94-1,1.5a.485.485,0,0,1-.4.217Zm2.576,2.381a.3.3,0,1,0,.192-.562l-1.665-.568-.143-1.23.732-1.1a1.08,1.08,0,0,0,1.082.364l1.531,3.706A.856.856,0,0,1,12.8,11.41H7.928L7.67,8.185Zm.514,2.829A2.245,2.245,0,1,1,7.932,12h4.4A2.25,2.25,0,0,1,12.378,12.445ZM6.121,8.182a.223.223,0,0,1,.039-.227.225.225,0,0,1,.219-.078l.681.13.115,1.435A2.6,2.6,0,0,1,6.121,8.182ZM5.032,6.677a1.313,1.313,0,0,1,1.12.622.825.825,0,0,0-.587,1.094A3,3,0,0,0,5.882,9a1.318,1.318,0,1,1-.85-2.326Zm0,3.23a1.906,1.906,0,0,0,1.226-.445,3.425,3.425,0,0,0,.354.311,4.417,4.417,0,0,0-.308.463H4.93a4.32,4.32,0,0,1-2.886-1.1H3.5a1.91,1.91,0,0,0,1.534.772Zm.679,2.564H4.93A4.337,4.337,0,0,1,.71,9.135h.5A4.913,4.913,0,0,0,4.93,10.829H6.018a4.411,4.411,0,0,0-.307,1.616C5.711,12.453,5.711,12.462,5.711,12.471ZM4.93,14.649A4.342,4.342,0,0,1,.6,10.487,4.931,4.931,0,0,0,4.93,13.064h.824A4.391,4.391,0,0,0,6.3,14.649Zm1.374-2.2A3.818,3.818,0,0,1,7.113,10.1l.12.063.126,1.572a.3.3,0,0,0,.012.063,2.839,2.839,0,1,0,5.566.2,1.445,1.445,0,0,0,.919-.448,3.829,3.829,0,1,1-7.551.9Z" transform="translate(0)"/>
  </g>
</svg>
